<svg xmlns:xlink="http://www.w3.org/1999/xlink" xmlns="http://www.w3.org/2000/svg" viewBox="0 0 171.5 171.5" data-name="Слой 2" id="_Слой_2">
  <defs>
    <style>
      .cls-1 {
        stroke-linejoin: round;
      }

      .cls-1, .cls-2, .cls-3, .cls-4 {
        fill: none;
      }

      .cls-1, .cls-3, .cls-4 {
        stroke: #29265b;
      }

      .cls-1, .cls-4 {
        stroke-width: 2.16px;
      }

      .cls-5 {
        clip-path: url(#clippath);
      }

      .cls-2, .cls-6, .cls-7, .cls-8, .cls-9, .cls-10, .cls-11 {
        stroke-width: 0px;
      }

      .cls-12 {
        clip-path: url(#clippath-1);
      }

      .cls-3 {
        stroke-width: 5.76px;
      }

      .cls-3, .cls-4 {
        stroke-miterlimit: 10;
      }

      .cls-6 {
        fill: #f8f3b3;
      }

      .cls-7 {
        fill: #29265b;
      }

      .cls-8 {
        fill: #83378d;
      }

      .cls-9 {
        fill: #e5134c;
      }

      .cls-10 {
        fill: #f39208;
      }

      .cls-11 {
        fill: #fff;
      }
    </style>
    <clipPath id="clippath">
      <rect ry="11.41" rx="11.41" height="155.9" width="155.91" y="7.31" x="7.45" class="cls-2"/>
    </clipPath>
    <clipPath id="clippath-1">
      <rect height="85.75" width="85.75" y="42.87" x="42.88" class="cls-2"/>
    </clipPath>
  </defs>
  <g data-name="Слой 1" id="_Слой_1-2">
    <g>
      <g class="cls-5">
        <rect height="171.5" width="171.5" class="cls-10"/>
      </g>
      <g class="cls-12">
        <path d="M60.63,47.35h50.24c7.33,0,13.28,5.95,13.28,13.28v50.24c0,7.33-5.95,13.29-13.29,13.29h-50.24c-7.33,0-13.29-5.95-13.29-13.29v-50.24c0-7.33,5.95-13.28,13.28-13.28Z" class="cls-11"/>
        <path d="M60.63,47.35h50.24c7.33,0,13.28,5.95,13.28,13.28v50.24c0,7.33-5.95,13.29-13.29,13.29h-50.24c-7.33,0-13.29-5.95-13.29-13.29v-50.24c0-7.33,5.95-13.28,13.28-13.28Z" class="cls-3"/>
        <path d="M65.05,112.78h-5.7v-7.36c0-6.9,2.69-13.39,7.57-18.26l17.7-17.68c2.31-2.31,3.62-5.5,3.61-8.76v-1.96s5.68-.03,5.68-.03v1.96c.03,4.77-1.89,9.45-5.27,12.82l-17.71,17.68c-3.8,3.8-5.9,8.85-5.9,14.23v7.36Z" class="cls-9"/>
        <path d="M83.26,112.78h-5.7v-7.37c0-6.9,2.69-13.39,7.57-18.26l17.7-17.68c2.31-2.31,3.62-5.5,3.61-8.76v-1.96s5.68-.03,5.68-.03v1.96c.03,4.77-1.89,9.45-5.27,12.82l-17.71,17.68c-3.8,3.8-5.9,8.85-5.9,14.23v7.37Z" class="cls-9"/>
        <rect height="54.05" width="5.69" y="58.73" x="59.36" class="cls-7"/>
        <rect height="54.05" width="5.7" y="58.73" x="77.56" class="cls-7"/>
        <path d="M110.89,111.74h-18.93c-.68,0-1.22-.55-1.22-1.22v-11.38c0-.68.55-1.22,1.22-1.22h18.93c.67,0,1.22.55,1.22,1.22v11.38c0,.68-.55,1.22-1.22,1.22" class="cls-8"/>
        <rect ry="1.22" rx="1.22" height="13.83" width="21.37" y="97.91" x="90.74" class="cls-1"/>
        <line y2="88.83" x2="107.26" y1="97.31" x1="107.26" class="cls-4"/>
        <polyline points="103.01 93.19 107.26 97.44 111.52 93.19" class="cls-4"/>
        <path d="M99.11,93.63c0-4.48,3.63-8.11,8.11-8.11s8.11,3.63,8.11,8.11-3.63,8.11-8.11,8.11-8.11-3.63-8.11-8.11" class="cls-6"/>
        <circle transform="translate(-20.31 156.86) rotate(-67.5)" r="8.11" cy="93.63" cx="107.22" class="cls-4"/>
        <line y2="88.91" x2="107.22" y1="98.35" x1="107.22" class="cls-4"/>
        <line y2="93.63" x2="111.95" y1="93.63" x1="102.5" class="cls-4"/>
      </g>
    </g>
  </g>
</svg>