<svg version="1.1" xmlns="http://www.w3.org/2000/svg" xmlns:xlink="http://www.w3.org/1999/xlink" width="33.31641" height="26.95347" viewBox="0,0,33.31641,26.95347"><g transform="translate(-164.74428,-347.59)"><g data-paper-data="{&quot;isPaintingLayer&quot;:true}" fill-rule="nonzero" stroke="none" stroke-linecap="butt" stroke-linejoin="miter" stroke-miterlimit="10" stroke-dasharray="" stroke-dashoffset="0" style="mix-blend-mode: normal"><path d="M171.94109,374.54347c-3.01547,0 -5.46,-2.44453 -5.46,-5.46v-13.9c0,-3.01547 2.44453,-5.46 5.46,-5.46h20.6596c3.01547,0 5.46,2.44453 5.46,5.46v13.9c0,3.01547 -2.44453,5.46 -5.46,5.46z" fill-opacity="0.58824" fill="#000000" stroke-width="0"/><path d="M170.20428,372.41c-3.01547,0 -5.46,-2.44453 -5.46,-5.46v-13.9c0,-3.01547 2.44453,-5.46 5.46,-5.46h20.6596c3.01547,0 5.46,2.44453 5.46,5.46v13.9c0,3.01547 -2.44453,5.46 -5.46,5.46z" fill="#ce5e6f" stroke-width="0"/><text transform="translate(176.26085,364.18465) scale(0.32743,0.32743)" font-size="40" xml:space="preserve" fill="#ffffff" fill-rule="nonzero" stroke="none" stroke-width="1" stroke-linecap="butt" stroke-linejoin="miter" stroke-miterlimit="10" stroke-dasharray="" stroke-dashoffset="0" font-family="Sans Serif" font-weight="normal" text-anchor="start" style="mix-blend-mode: normal"><tspan x="0" dy="0">X</tspan></text></g></g></svg>