<svg xmlns:xlink="http://www.w3.org/1999/xlink" xmlns="http://www.w3.org/2000/svg" viewBox="0 0 53.2 53.21" data-name="Слой 2" id="_Слой_2">
  <defs>
    <style>
      .cls-1 {
        clip-path: url(#clippath);
      }

      .cls-2, .cls-3, .cls-4, .cls-5 {
        fill: none;
      }

      .cls-2, .cls-6, .cls-7, .cls-8, .cls-9, .cls-10, .cls-11, .cls-12, .cls-13, .cls-14, .cls-15, .cls-16, .cls-17, .cls-18, .cls-19 {
        stroke-width: 0px;
      }

      .cls-3 {
        stroke-linecap: round;
      }

      .cls-3, .cls-4 {
        stroke: #29235c;
        stroke-width: .95px;
      }

      .cls-3, .cls-4, .cls-5 {
        stroke-miterlimit: 10;
      }

      .cls-6 {
        fill: #4a2567;
      }

      .cls-7 {
        fill: #29235c;
      }

      .cls-8 {
        fill: #97155e;
      }

      .cls-9 {
        fill: #723f8e;
      }

      .cls-10 {
        fill: #3aaa35;
      }

      .cls-11 {
        fill: #118938;
      }

      .cls-12 {
        fill: #c5e7f8;
      }

      .cls-13 {
        fill: #fff;
      }

      .cls-14 {
        fill: #ffed00;
      }

      .cls-15 {
        fill: #e71d73;
      }

      .cls-16 {
        fill: #e5cc15;
      }

      .cls-17 {
        fill: #f4e3c3;
      }

      .cls-18 {
        fill: #009fe3;
      }

      .cls-19 {
        fill: #006787;
      }

      .cls-5 {
        stroke: #e71d73;
        stroke-width: 1.88px;
      }
    </style>
    <clipPath id="clippath">
      <rect ry="3.06" rx="3.06" height="53.21" width="53.2" class="cls-2"/>
    </clipPath>
  </defs>
  <g data-name="Слой 1" id="_Слой_1-2">
    <g class="cls-1">
      <rect height="62.08" width="62.08" y="-4.53" x="-4.17" class="cls-14"/>
      <rect height="62.08" width="62.08" y="-4.77" x="-4.17" class="cls-14"/>
      <path d="M17.17,19.38l-1.28-2.49-.68-1.31-2.83-5.51-.57-1.1-48.98-48.98-3.86,3.86-1.6,1.6L6.35,14.43h0s6.61,3.4,6.61,3.4l3.8,1.95c.16.09.34,0,.41-.13.04-.08.05-.18,0-.28M95.4-35.35l-4.66-4.66L41.76,8.97l-.57,1.1-2.83,5.51-.49.95-1.47,2.85c-.05.1-.04.2,0,.28.07.13.24.21.41.13l3.8-1.95h0l6.61-3.4,48.98-48.98-.8-.8ZM18.88,36.73l-3.8,1.95h0l-5.51,2.83-1.1.57-48.98,48.98,5.46,5.46h0S13.94,47.55,13.94,47.55l1.36-2.64,2.04-3.97,1.95-3.8c.14-.26-.15-.54-.41-.41M45.26,42.08l-6.61-3.4-.93-.48-2.87-1.48c-.1-.05-.2-.04-.28,0-.14.07-.21.24-.13.41l1.95,3.8,3.4,6.61,48.98,48.98,5.46-5.46-48.98-48.98Z" class="cls-16"/>
      <path d="M8.48,26.27c0-10.16,8.23-18.39,18.39-18.39s18.39,8.23,18.39,18.39-8.23,18.39-18.39,18.39-18.39-8.23-18.39-18.39" class="cls-13"/>
      <path d="M8.48,26.27c0-10.16,8.23-18.39,18.39-18.39s18.39,8.23,18.39,18.39-8.23,18.39-18.39,18.39-18.39-8.23-18.39-18.39Z" class="cls-5"/>
      <path d="M39.66,13.06l-1.3,2.52-.49.95-1.47,2.85c-.05.1-.04.2,0,.28.07.14.24.21.41.13l3.8-1.95,2.02-1.04c-.83-1.37-1.83-2.62-2.97-3.73" class="cls-12"/>
      <path d="M11.07,16.86l1.9.98,3.8,1.95c.16.08.34,0,.41-.13.04-.08.05-.18,0-.28l-1.28-2.49-.68-1.31-1.24-2.42c-1.12,1.1-2.1,2.34-2.9,3.7" class="cls-12"/>
      <path d="M38.65,38.68h0l-.93-.48-2.87-1.48c-.1-.05-.2-.04-.28,0-.14.07-.21.24-.13.41l1.95,3.8.41.8c1.1-.71,2.12-1.52,3.04-2.44l-1.2-.62Z" class="cls-12"/>
      <path d="M17.34,40.94h0l1.95-3.8c.14-.26-.15-.54-.41-.41l-3.8,1.95-1.2.62c.92.92,1.94,1.73,3.04,2.44l.41-.8Z" class="cls-12"/>
      <path d="M14.78,38.84l-1.75.9c1.04,1.07,2.21,2.02,3.47,2.83l.84-1.63.02-.04c-.92-.6-1.79-1.29-2.58-2.05" class="cls-8"/>
      <path d="M40.71,39.74l-1.75-.9c-.79.76-1.66,1.45-2.58,2.05l.02.04.84,1.63c1.27-.81,2.43-1.76,3.47-2.83" class="cls-8"/>
      <path d="M8.48,26.27c0-10.16,8.23-18.39,18.39-18.39s18.39,8.23,18.39,18.39-8.23,18.39-18.39,18.39-18.39-8.23-18.39-18.39Z" class="cls-5"/>
      <path d="M14.43,14.05l-.9-1.74c-1.28,1.22-2.39,2.61-3.29,4.13l1.67.86c.71-1.18,1.56-2.27,2.52-3.25" class="cls-8"/>
      <path d="M40.1,12.2l-.9,1.74c.99.99,1.85,2.09,2.58,3.29l1.67-.86c-.92-1.54-2.06-2.94-3.36-4.17" class="cls-8"/>
      <polygon points="26.87 18.37 28.98 15.62 29.89 18.98 32.9 17.24 32.45 20.69 35.89 20.24 34.16 23.25 37.52 24.15 34.76 26.27 37.52 28.39 34.16 29.29 35.89 32.3 32.45 31.86 32.9 35.3 29.89 33.57 28.98 36.92 26.87 34.17 24.75 36.92 23.84 33.57 20.83 35.3 21.28 31.86 17.84 32.3 19.57 29.29 16.22 28.39 18.97 26.27 16.22 24.15 19.57 23.25 17.84 20.24 21.28 20.69 20.83 17.24 23.84 18.98 24.75 15.62 26.87 18.37" class="cls-15"/>
      <path d="M29.97,26.73c0-1.84-1.59-3.3-3.46-3.09-1.38.15-2.52,1.26-2.72,2.64-.17,1.19.34,2.27,1.18,2.92.4.3.61.79.61,1.29v.94c0,.71.57,1.28,1.28,1.28s1.28-.58,1.28-1.28v-.95c0-.51.23-.99.63-1.3.73-.57,1.2-1.46,1.2-2.45" class="cls-13"/>
      <path d="M29.97,26.73c0-1.84-1.59-3.3-3.46-3.09-1.38.15-2.52,1.26-2.72,2.64-.17,1.19.34,2.27,1.18,2.92.4.3.61.79.61,1.29v.94c0,.71.57,1.28,1.28,1.28s1.28-.58,1.28-1.28v-.95c0-.51.23-.99.63-1.3.73-.57,1.2-1.46,1.2-2.45Z" class="cls-4"/>
      <path d="M25.6,30.38c0,.05,0,.1,0,.15v.93c0,.7.57,1.26,1.26,1.26s1.26-.57,1.26-1.26v-.93s0-.1,0-.15h-2.54Z" class="cls-14"/>
      <path d="M25.6,30.38c0,.05,0,.1,0,.15v.93c0,.7.57,1.26,1.26,1.26s1.26-.57,1.26-1.26v-.93s0-.1,0-.15h-2.54Z" class="cls-4"/>
      <path d="M25.43,26.99c.26.53.8.9,1.43.9s1.17-.37,1.43-.9h-2.86Z" class="cls-7"/>
      <path d="M25.43,26.02c0-.23.19-.43.43-.43s.43.19.43.43-.19.43-.43.43-.43-.19-.43-.43" class="cls-7"/>
      <path d="M27.44,26.02c0-.23.19-.43.43-.43s.43.19.43.43-.19.43-.43.43-.43-.19-.43-.43" class="cls-7"/>
      <line y2="30.34" x2="28.15" y1="30.34" x1="25.58" class="cls-4"/>
      <line y2="19.82" x2="26.87" y1="21.61" x1="26.87" class="cls-3"/>
      <line y2="22.36" x2="24.74" y1="21.29" x1="23.67" class="cls-3"/>
      <line y2="22.36" x2="29" y1="21.29" x1="30.06" class="cls-3"/>
      <rect transform="translate(-27.17 66.77) rotate(-45)" height="69.27" width="7.72" y="31.54" x="63.16" class="cls-10"/>
      <rect transform="translate(-29.09 65.97) rotate(-45)" height="69.27" width="2.27" y="33.47" x="63.95" class="cls-11"/>
      <path d="M39.79,44.42l5.46-5.46-10.41-5.35c-.26-.14-.55.15-.41.41l5.35,10.41Z" class="cls-13"/>
      <path d="M39.57,41.02l-4.72-7.42c-.26-.13-.54.15-.41.41l5.35,10.41,5.46-5.46-1.1-.57-2.9,2.9c-.51.51-1.36.37-1.69-.26" class="cls-17"/>
      <path d="M34.85,33.6l3.8,1.95-2.25,2.25-1.95-3.8c-.14-.26.15-.54.41-.41" class="cls-10"/>
      <path d="M34.44,34.01l1.95,3.8.69-.69-2.24-3.51c-.1-.05-.2-.04-.28,0-.14.07-.21.24-.13.41" class="cls-11"/>
      <rect transform="translate(29.27 43.39) rotate(-45)" height="7.72" width="69.27" y="-17.5" x="32.38" class="cls-18"/>
      <rect transform="translate(28.47 45.32) rotate(-45)" height="2.27" width="69.27" y="-12.84" x="34.31" class="cls-19"/>
      <path d="M45.26,13.59l-5.46-5.46-5.35,10.41c-.14.26.15.54.41.41l10.41-5.35Z" class="cls-13"/>
      <path d="M41.86,13.81l-7.42,4.72c-.14.26.15.54.41.41l10.41-5.35-5.46-5.46-.57,1.1,2.9,2.89c.51.51.37,1.36-.26,1.69" class="cls-17"/>
      <path d="M34.44,18.53l1.95-3.8,2.25,2.25-3.8,1.95c-.26.13-.54-.15-.41-.41" class="cls-18"/>
      <path d="M34.85,18.94l3.8-1.95-.69-.69-3.51,2.24c-.05.1-.04.2,0,.28.07.14.24.21.41.13" class="cls-19"/>
      <rect transform="translate(5.75 -13.39) rotate(-45)" height="69.27" width="7.72" y="-48.27" x="-17.15" class="cls-15"/>
      <rect transform="translate(3.82 -14.19) rotate(-45)" height="69.27" width="2.27" y="-46.34" x="-16.35" class="cls-8"/>
      <path d="M8.48,13.59l5.46-5.46,5.35,10.41c.14.26-.15.54-.41.41l-10.41-5.35Z" class="cls-13"/>
      <path d="M11.87,13.81l7.42,4.72c.14.26-.15.54-.41.41l-10.41-5.35,5.46-5.46.57,1.1-2.9,2.89c-.51.51-.37,1.36.26,1.69" class="cls-17"/>
      <path d="M19.29,18.53l-1.95-3.8-2.25,2.25,3.8,1.95c.26.13.54-.15.41-.41" class="cls-15"/>
      <path d="M19.29,18.53h0l-3.51-2.24-.69.69,3.8,1.95c.16.08.34,0,.41-.13.04-.08.05-.18,0-.28" class="cls-8"/>
      <rect transform="translate(-50.69 9.99) rotate(-45)" height="7.72" width="69.27" y="62.32" x="-47.92" class="cls-9"/>
      <rect transform="translate(-51.48 11.92) rotate(-45)" height="2.27" width="69.27" y="66.97" x="-45.99" class="cls-6"/>
      <path d="M13.94,44.42l-5.46-5.46,10.41-5.35c.26-.14.55.15.41.41l-5.35,10.41Z" class="cls-13"/>
      <path d="M14.16,41.02l4.72-7.42c.26-.13.54.15.41.41l-5.35,10.41-5.46-5.46,1.1-.57,2.9,2.9c.51.51,1.36.37,1.69-.26" class="cls-17"/>
      <path d="M18.88,33.6l-3.8,1.95,2.25,2.25,1.95-3.8c.14-.26-.15-.54-.41-.41" class="cls-9"/>
      <path d="M18.88,33.6l-2.24,3.51.69.69,1.95-3.8c.14-.26-.15-.54-.41-.41" class="cls-6"/>
    </g>
  </g>
</svg>