<svg version="1.1" xmlns="http://www.w3.org/2000/svg" xmlns:xlink="http://www.w3.org/1999/xlink" width="39.27842" height="38.13411" viewBox="0,0,39.27842,38.13411"><g transform="translate(-160.3609,-340.93294)"><g data-paper-data="{&quot;isPaintingLayer&quot;:true}" stroke-linecap="butt" stroke-linejoin="miter" stroke-miterlimit="10" stroke-dasharray="" stroke-dashoffset="0" style="mix-blend-mode: normal"><path d="M161.3609,360c0,-9.97816 8.34506,-18.06705 18.63921,-18.06705c10.29415,0 18.63921,8.08889 18.63921,18.06705c0,9.97816 -8.34506,18.06705 -18.63921,18.06705c-10.29415,0 -18.63921,-8.08889 -18.63921,-18.06705z" fill="#f7f7f7" fill-rule="nonzero" stroke="#000000" stroke-width="2"/><path d="M186.2746,365.8604l2.7255,2.7254c0.3905,0.3906 0.3905,1.0237 0,1.4143c-0.3905,0.3905 -1.0237,0.3905 -1.4142,0l-3.0632,-3.0632c-1.3025,0.645 -2.808,1.0632 -4.5226,1.0632c-6.05333,0 -9.50095,-5.2115 -10.60575,-7.2219c-0.26864,-0.4889 -0.26864,-1.0674 0,-1.5563c0.53013,-0.9647 1.59968,-2.66638 3.2377,-4.17569l-2.63195,-2.63195c-0.39052,-0.39052 -0.39052,-1.02369 0,-1.41421c0.39052,-0.39053 1.02369,-0.39053 1.41421,0M174.16676,363.6451c1.50305,1.3298 3.42621,2.355 5.83334,2.355c1.1027,0 2.1039,-0.2152 3.0096,-0.5762l-1.6579,-1.658c-0.4223,0.1516 -0.8773,0.2342 -1.3517,0.2342c-2.20914,0 -4,-1.7909 -4,-4.0001c0,-0.4743 0.08257,-0.9294 0.23413,-1.3516l-2.18659,-2.1866c-1.3557,1.23225 -2.28841,2.6455 -2.79693,3.5382c0.52328,0.9187 1.49573,2.3885 2.91605,3.6451z" fill="#000000" fill-rule="evenodd" stroke="none" stroke-width="1"/><path d="M171.41431,351.00005l2.79734,2.79733z" fill="#000000" fill-rule="nonzero" stroke="none" stroke-width="1"/><path d="M174.21165,353.79738l1.44754,1.44748z" fill="#000000" fill-rule="nonzero" stroke="none" stroke-width="1"/><path d="M184.842,364.4278l1.4326,1.4326z" fill="#000000" fill-rule="nonzero" stroke="none" stroke-width="1"/><path d="M183.9396,360.6969l-4.6363,-4.63637c0.2263,-0.03975 0.4591,-0.06048 0.6968,-0.06048c2.2091,0 4,1.79086 4,3.99995c0,0.2377 -0.0207,0.4706 -0.0605,0.6969z" fill="#000000" fill-rule="nonzero" stroke="none" stroke-width="1"/><path d="M186.3767,363.1339c1.1279,-1.1268 1.9191,-2.3375 2.3728,-3.1339c-0.5233,-0.9186 -1.4957,-2.38843 -2.9161,-3.64502c-1.503,-1.32978 -3.4262,-2.35493 -5.8333,-2.35493c-0.86,0 -1.6582,0.13085 -2.39759,0.3597l-1.55729,-1.5573c1.16695,-0.49471 2.48398,-0.80241 3.95488,-0.80241c6.0533,0 9.5009,5.21142 10.6057,7.22186c0.2687,0.4889 0.2687,1.0674 0,1.5563c-0.483,0.8791 -1.414,2.3701 -2.8149,3.7699z" fill="#000000" fill-rule="nonzero" stroke="none" stroke-width="1"/></g></g></svg>