<svg version="1.1" xmlns="http://www.w3.org/2000/svg" xmlns:xlink="http://www.w3.org/1999/xlink" width="82.95895" height="83.43674" viewBox="0,0,82.95895,83.43674"><g transform="translate(-139.715,-319.715)"><g data-paper-data="{&quot;isPaintingLayer&quot;:true}" fill-rule="nonzero" stroke-linecap="butt" stroke-linejoin="miter" stroke-miterlimit="10" stroke-dasharray="" stroke-dashoffset="0" style="mix-blend-mode: normal"><path d="M149.51396,402.15175c-3.54014,0 -6.41,-2.86985 -6.41,-6.41v-65.75c0,-3.54014 2.86986,-6.41 6.41,-6.41h65.75c3.54014,0 6.41,2.86986 6.41,6.41v65.75c0,3.54014 -2.86986,6.41 -6.41,6.41z" fill-opacity="0.81569" fill="#000000" stroke-opacity="0.81569" stroke="#000000" stroke-width="2"/><path d="M147.125,399.285c-3.54015,0 -6.41,-2.86985 -6.41,-6.41v-65.75c0,-3.54015 2.86985,-6.41 6.41,-6.41h65.75c3.54015,0 6.41,2.86985 6.41,6.41v65.75c0,3.54015 -2.86985,6.41 -6.41,6.41z" fill="#67c2ef" stroke="#1d1d1b" stroke-width="2"/><path d="M154.025,359.995c0,-14.34283 11.62717,-25.97 25.97,-25.97c14.34283,0 25.97,11.62717 25.97,25.97c0,14.34283 -11.62717,25.97 -25.97,25.97c-14.34283,0 -25.97,-11.62717 -25.97,-25.97z" fill="#ffed00" stroke="#1d1d1b" stroke-width="3"/><path d="M193.475,346.525l-26.95,26.95" fill="#ffffff" stroke="#1d1d1b" stroke-width="3"/><path d="M166.525,346.525l26.95,26.95" fill="#ffffff" stroke="#1d1d1b" stroke-width="3"/><path d="M181.985,345.525c0,-6.89804 5.59196,-12.49 12.49,-12.49c6.89804,0 12.49,5.59196 12.49,12.49c0,6.89804 -5.59196,12.49 -12.49,12.49c-6.89804,0 -12.49,-5.59196 -12.49,-12.49z" fill="#ffffff" stroke="#1d1d1b" stroke-width="2"/><path d="M181.985,374.475c0,-6.89804 5.59196,-12.49 12.49,-12.49c6.89804,0 12.49,5.59196 12.49,12.49c0,6.89804 -5.59196,12.49 -12.49,12.49c-6.89804,0 -12.49,-5.59196 -12.49,-12.49z" fill="#ffffff" stroke="#1d1d1b" stroke-width="2"/><path d="M153.035,345.525c0,-6.89804 5.59196,-12.49 12.49,-12.49c6.89804,0 12.49,5.59196 12.49,12.49c0,6.89804 -5.59196,12.49 -12.49,12.49c-6.89804,0 -12.49,-5.59196 -12.49,-12.49z" fill="#ffffff" stroke="#1d1d1b" stroke-width="2"/><path d="M153.035,374.475c0,-6.89804 5.59196,-12.49 12.49,-12.49c6.89804,0 12.49,5.59196 12.49,12.49c0,6.89804 -5.59196,12.49 -12.49,12.49c-6.89804,0 -12.49,-5.59196 -12.49,-12.49z" fill="#ffffff" stroke="#1d1d1b" stroke-width="2"/><path d="M187.385,374.475c0,-3.9157 3.1743,-7.09 7.09,-7.09c3.9157,0 7.09,3.1743 7.09,7.09c0,3.9157 -3.1743,7.09 -7.09,7.09c-3.9157,0 -7.09,-3.1743 -7.09,-7.09z" fill="#ffffff" stroke="#1d1d1b" stroke-width="2"/><path d="M160.745,351.905c-0.88366,0 -1.6,-0.71634 -1.6,-1.6v-9.56c0,-0.88366 0.71634,-1.6 1.6,-1.6h9.56c0.88366,0 1.6,0.71634 1.6,1.6v9.56c0,0.88366 -0.71634,1.6 -1.6,1.6z" fill="#ffffff" stroke="#1d1d1b" stroke-width="2"/><path d="M194.995,339.245l5.74,9.94c0.24,0.41 -0.06,0.92 -0.53,0.92h-11.48c-0.47,0 -0.77,-0.51 -0.53,-0.92l5.74,-9.94c0.23,-0.41 0.82,-0.41 1.06,0z" fill="#ffffff" stroke="#1d1d1b" stroke-width="2"/><path d="M165.885,367.555l6.75,4.9c0.22,0.16 0.3,0.44 0.22,0.69l-2.58,7.94c-0.08,0.25 -0.31,0.42 -0.58,0.42h-8.34c-0.26,0 -0.5,-0.17 -0.58,-0.42l-2.58,-7.94c-0.09,-0.26 0,-0.53 0.22,-0.69l6.75,-4.9c0.21,-0.16 0.5,-0.16 0.72,0z" fill="#ffffff" stroke="#1d1d1b" stroke-width="2"/></g></g></svg>