<svg version="1.1" xmlns="http://www.w3.org/2000/svg" xmlns:xlink="http://www.w3.org/1999/xlink" width="73.4" height="72.56" viewBox="0,0,73.4,72.56"><g transform="translate(-117.42479,-349.13648)"><g data-paper-data="{&quot;isPaintingLayer&quot;:true}" fill-rule="nonzero" stroke="none" stroke-width="0" stroke-linecap="butt" stroke-linejoin="miter" stroke-miterlimit="10" stroke-dasharray="" stroke-dashoffset="0" style="mix-blend-mode: normal"><path d="M190.81479,349.13648v23.22c-0.3,0.46 -0.81,0.76 -1.4,0.76h-24.97c-0.92,0 -1.67,-0.75 -1.67,-1.68v-21.46c0,-0.31 0.08,-0.59 0.22,-0.84z" fill="none"/><path d="M183.59479,363.55648l-58.14,58.14l-0.46,-0.03l-7.48,-6.27l58.89,-59.03z" fill="#623a8e"/><path d="M178.51479,358.47648l-58.79,58.78l-2.3,-1.92l58.98,-58.97z" fill="#6a2581"/><path d="M190.82479,349.13648v13.48l-9.7,10.5h-16.68c-0.92,0 -1.67,-0.75 -1.67,-1.68v-8.62l17.2,-13.68z" fill="none"/><path d="M190.10479,349.31648c0.35,-0.18 0.72,0.19 0.54,0.54l-7.05,13.7l-7.19,-7.19z" fill="#ffffff"/><path d="M180.88479,356.07648c-0.84,0.43 -1.02,1.55 -0.35,2.22l3.81,3.81l-0.75,1.45l-7.19,-7.19l13.7,-7.05c0.35,-0.18 0.72,0.19 0.54,0.54l-9.77,6.22" fill="#f3e3c3"/><path d="M190.64479,349.85648l-2.57,5l-2.97,-2.97l5,-2.57c0.35,-0.18 0.72,0.19 0.54,0.54" fill="#623a8e"/><path d="M190.64479,349.85648v0l-4.63,2.95l-0.91,-0.91l5,-2.58c0.22,-0.11 0.44,0 0.54,0.17c0.06,0.11 0.07,0.24 0,0.37" fill="#6a2581"/></g></g></svg>