<svg xmlns:xlink="http://www.w3.org/1999/xlink" xmlns="http://www.w3.org/2000/svg" viewBox="0 0 179.53 171.5" data-name="Слой 2" id="_Слой_2">
  <defs>
    <style>
      .cls-1 {
        stroke-dasharray: 0 0 11.55 3.85;
        stroke-width: 5.77px;
      }

      .cls-1, .cls-2, .cls-3, .cls-4, .cls-5 {
        fill: none;
      }

      .cls-1, .cls-3, .cls-4 {
        stroke: #29265b;
      }

      .cls-6 {
        clip-path: url(#clippath);
      }

      .cls-2, .cls-7, .cls-8 {
        stroke-width: 0px;
      }

      .cls-9 {
        clip-path: url(#clippath-1);
      }

      .cls-10 {
        clip-path: url(#clippath-2);
      }

      .cls-3 {
        stroke-width: 6.51px;
      }

      .cls-4 {
        stroke-width: 5.86px;
      }

      .cls-5 {
        stroke: #e6164b;
        stroke-width: 7.12px;
      }

      .cls-7 {
        fill: #f39208;
      }

      .cls-8 {
        fill: #fff;
      }
    </style>
    <clipPath id="clippath">
      <rect ry="11.82" rx="11.82" height="155.91" width="155.91" y="7.31" x="11.75" class="cls-2"/>
    </clipPath>
    <clipPath id="clippath-1">
      <path d="M11.82,14.06c-.05.34-.07.69-.07,1.04v140.32c0,.69.09,1.37.26,2.01h155.39c.17-.64.26-1.31.26-2.01V15.1c0-.35-.02-.7-.07-1.04H11.82Z" class="cls-2"/>
    </clipPath>
    <clipPath id="clippath-2">
      <rect height="155.91" width="155.91" y="7.31" x="11.75" class="cls-2"/>
    </clipPath>
  </defs>
  <g data-name="Слой 1" id="_Слой_1-2">
    <g>
      <g class="cls-6">
        <rect height="171.5" width="171.5" x="3.95" class="cls-7"/>
      </g>
      <g class="cls-9">
        <line y2="85.56" x2="115.87" y1="85.56" x1="179.53" class="cls-1"/>
        <line y2="85.75" y1="85.75" x1="62.01" class="cls-3"/>
        <path d="M89.59,111.03c-13.94,0-25.29-11.34-25.29-25.28s11.34-25.28,25.29-25.28,25.28,11.34,25.28,25.28-11.34,25.28-25.28,25.28" class="cls-8"/>
        <path d="M89.59,113.1c15.1,0,27.35-12.24,27.35-27.35s-12.25-27.35-27.35-27.35-27.35,12.25-27.35,27.35,12.25,27.35,27.35,27.35Z" class="cls-4"/>
      </g>
      <g class="cls-10">
        <polyline points="92.67 72.71 105.71 85.75 92.67 98.78" class="cls-5"/>
        <line y2="85.75" x2="69.33" y1="85.75" x1="104.34" class="cls-5"/>
      </g>
    </g>
  </g>
</svg>