<svg version="1.1" xmlns="http://www.w3.org/2000/svg" xmlns:xlink="http://www.w3.org/1999/xlink" width="39.27842" height="38.1341" viewBox="0,0,39.27842,38.1341"><g transform="translate(-160.3609,-340.93295)"><g data-paper-data="{&quot;isPaintingLayer&quot;:true}" stroke-linecap="butt" stroke-linejoin="miter" stroke-miterlimit="10" stroke-dasharray="" stroke-dashoffset="0" style="mix-blend-mode: normal"><path d="M161.3609,360c0,-9.97816 8.34506,-18.06705 18.63921,-18.06705c10.29415,0 18.63921,8.0889 18.63921,18.06705c0,9.97816 -8.34506,18.06705 -18.63921,18.06705c-10.29415,0 -18.63921,-8.0889 -18.63921,-18.06705z" fill="#f7f7f7" fill-rule="nonzero" stroke="#000000" stroke-width="2"/><path d="M184.0001,360c0,2.2091 -1.7909,4 -4,4c-2.20913,0 -4,-1.7909 -4,-4c0,-2.20914 1.79087,-4 4,-4c2.2091,0 4,1.79086 4,4zM182.0001,360c0,1.1046 -0.8954,2 -2,2c-1.1046,0 -2,-0.8954 -2,-2c0,-1.1046 0.8954,-2 2,-2c1.1046,0 2,0.8954 2,2z" fill="#000000" fill-rule="evenodd" stroke="none" stroke-width="1"/><path d="M180.0001,368c-6.05333,0 -9.50095,-5.2114 -10.60575,-7.2219c-0.26864,-0.4888 -0.26864,-1.0674 0,-1.5562c1.1048,-2.01049 4.55242,-7.2219 10.60575,-7.2219c6.0533,0 9.501,5.21142 10.6058,7.2219c0.2686,0.4888 0.2686,1.0674 0,1.5562c-1.1048,2.0105 -4.5525,7.2219 -10.6058,7.2219zM185.8334,363.6451c-1.503,1.3297 -3.4262,2.3549 -5.8333,2.3549c-2.40712,0 -4.33029,-1.0252 -5.83333,-2.3549c-1.42033,-1.2566 -2.39278,-2.7265 -2.91606,-3.6451c0.52328,-0.9186 1.49573,-2.38848 2.91606,-3.64507c1.50304,-1.32977 3.42621,-2.35493 5.83333,-2.35493c2.4071,0 4.3303,1.02516 5.8333,2.35493c1.4204,1.25659 2.3928,2.72647 2.9161,3.64507c-0.5233,0.9186 -1.4957,2.3885 -2.9161,3.6451z" fill="#000000" fill-rule="evenodd" stroke="none" stroke-width="1"/></g></g></svg>