<svg xmlns="http://www.w3.org/2000/svg" viewBox="0 0 155.92 156.17" data-name="Слой 2" id="_Слой_2">
  <defs>
    <style>
      .cls-1 {
        fill: none;
        stroke: #2c2757;
        stroke-width: 1.15px;
      }

      .cls-2 {
        fill: #2c2757;
      }

      .cls-2, .cls-3, .cls-4, .cls-5 {
        stroke-width: 0px;
      }

      .cls-3 {
        fill: #1891d0;
      }

      .cls-4 {
        fill: #fff;
      }

      .cls-5 {
        fill: #ffe90b;
      }
    </style>
  </defs>
  <g data-name="Слой 1" id="_Слой_1-2">
    <g>
      <rect ry="11.31" rx="11.31" height="156.17" width="155.92" class="cls-5"/>
      <rect height="15.3" width="155.92" y="70.07" class="cls-3"/>
      <path d="M77.47,101.44c-13.08,0-23.72-10.64-23.72-23.72s10.64-23.73,23.72-23.73,23.72,10.64,23.72,23.73-10.64,23.72-23.72,23.72" class="cls-4"/>
      <path d="M97.56,97.81c-5.14,5.14-12.25,8.32-20.09,8.32s-14.95-3.18-20.09-8.32c-5.14-5.14-8.32-12.25-8.32-20.09s3.18-14.95,8.32-20.09c5.14-5.14,12.25-8.32,20.09-8.32s14.95,3.18,20.09,8.32c5.14,5.14,8.32,12.25,8.32,20.09s-3.18,14.95-8.32,20.09M77.47,100.94c6.41,0,12.22-2.6,16.42-6.8,4.2-4.2,6.8-10.01,6.8-16.42s-2.6-12.22-6.8-16.42c-4.2-4.2-10.01-6.8-16.42-6.8s-12.22,2.6-16.42,6.8c-4.2,4.2-6.8,10.01-6.8,16.42s2.6,12.22,6.8,16.42c4.2,4.2,10.01,6.8,16.42,6.8Z" class="cls-2"/>
      <path d="M112.28,91.4l3.18,1.37-.45,1.1-.58,1.29-.62,1.26-.67,1.24-.71,1.21-.38.6-2.9-1.89.31-.5.65-1.11.61-1.13.57-1.15.53-1.18.45-1.1ZM104.97,103.06l2.53,2.36-.1.11-.96,1-1,.97-1.03.94-1.06.9-1.09.86-.37.27-2.01-2.82.28-.2,1-.79.97-.82.94-.86.92-.89.88-.92.1-.11ZM93.99,111.27l1.5,3.12-.38.19-1.28.59-1.31.54-1.33.5-1.35.45-1.37.41-.93-3.33,1.25-.37,1.24-.42,1.22-.46,1.19-.5,1.17-.54.38-.19Z" class="cls-2"/>
      <path d="M91.15,42.9l1.37-3.18,1.1.45,1.29.58,1.26.62,1.24.66,1.21.71.6.38-1.89,2.9-.5-.31-1.11-.65-1.13-.61-1.15-.57-1.18-.53-1.1-.45ZM102.81,50.22l2.36-2.53.11.1,1,.97.97,1,.94,1.03.9,1.06.86,1.09.27.37-2.82,2.01-.2-.28-.79-1-.83-.97-.86-.94-.89-.91-.92-.88-.11-.1ZM111.03,61.2l3.12-1.5.19.38.59,1.28.54,1.31.5,1.33.45,1.35.41,1.37-3.33.93-.37-1.25-.42-1.23-.46-1.22-.5-1.19-.54-1.17-.19-.38Z" class="cls-2"/>
      <path d="M42.65,64.04l-3.18-1.37.45-1.1.58-1.29.62-1.26.66-1.24.71-1.21.38-.6,2.9,1.89-.31.5-.65,1.11-.61,1.13-.57,1.15-.53,1.18-.45,1.1ZM49.97,52.38l-2.53-2.36.1-.11.97-1,1-.97,1.03-.94,1.06-.9,1.09-.87.37-.27,2.01,2.82-.28.2-1,.79-.97.82-.94.86-.91.89-.88.92-.1.11ZM60.95,44.16l-1.49-3.12.38-.19,1.28-.59,1.31-.54,1.33-.5,1.35-.45,1.37-.41.93,3.33-1.25.37-1.23.42-1.22.46-1.19.5-1.17.54-.38.19Z" class="cls-2"/>
      <path d="M63.79,112.53l-1.37,3.18-1.1-.45-1.29-.58-1.26-.62-1.24-.67-1.21-.71-.6-.38,1.89-2.9.5.31,1.11.65,1.13.61,1.15.57,1.18.53,1.1.45ZM52.13,105.21l-2.36,2.53-.11-.1-1-.96-.97-1-.94-1.03-.9-1.06-.86-1.09-.27-.37,2.82-2.01.2.28.79,1,.82.97.86.94.89.92.92.88.11.1ZM43.91,94.23l-3.12,1.5-.19-.38-.59-1.28-.54-1.31-.5-1.33-.45-1.35-.41-1.37,3.33-.93.37,1.25.42,1.23.46,1.22.5,1.19.54,1.17.19.38Z" class="cls-2"/>
      <path d="M72.77,116.56c1.54.18,3.11.28,4.7.28s3.16-.1,4.7-.28M38.62,73.02c-.18,1.54-.28,3.11-.28,4.69s.1,3.16.28,4.7M82.17,38.87c-1.54-.18-3.11-.28-4.7-.28s-3.16.09-4.7.28M116.32,82.41c.18-1.54.28-3.1.28-4.7s-.1-3.16-.28-4.69" class="cls-1"/>
      <path d="M77.47,93.99c8.99,0,16.27-7.29,16.27-16.27s-7.29-16.27-16.27-16.27-16.27,7.28-16.27,16.27,7.29,16.27,16.27,16.27" class="cls-2"/>
      <path d="M84.94,72.78c-.07.92-.63,1.82-1.19,2.61l-5.58,7.83v.72h10.1v-2.93h-5.13c2-2.58,2.7-3.75,3.17-4.4,3.12-4.16,1.44-8.66-3.02-8.66-3.08,0-4.93,1.8-4.93,4.88h2.88c0-1.55,1.06-2,1.96-2s1.8.66,1.73,1.96M71.35,80.11l1.22,2.07,1.21,1.75h3.04v-.36l-3.66-5.28,3.33-4.84v-.36h-3.22l-.94,1.39-1.01,1.85h-.06l-1.04-1.82-.96-1.42h-3.01v.34l3.22,4.74-3.76,5.4v.36h3.15l1.17-1.66,1.28-2.16h.06Z" class="cls-4"/>
    </g>
  </g>
</svg>