<svg version="1.1" xmlns="http://www.w3.org/2000/svg" xmlns:xlink="http://www.w3.org/1999/xlink" width="325.52" height="589.27774" viewBox="0,0,325.52,589.27774"><g transform="translate(-21.48,-79.20624)"><g data-paper-data="{&quot;isPaintingLayer&quot;:true}" fill-rule="nonzero" stroke-miterlimit="10" stroke-dasharray="" stroke-dashoffset="0" style="mix-blend-mode: normal"><g><path d="M36.38914,257.49833v-178.29209h287.11276v178.29209z" fill="#e71d73" stroke="none" stroke-width="0" stroke-linecap="butt" stroke-linejoin="miter"/><path d="M36.38914,245.67835v-115.25228h287.11276v115.25228z" fill="#e71d73" stroke="none" stroke-width="0" stroke-linecap="butt" stroke-linejoin="miter"/><path d="M36.38914,153.53935v-74.3331h287.11276v74.3331z" fill="#ffed00" stroke="none" stroke-width="0" stroke-linecap="butt" stroke-linejoin="miter"/><path d="M345.54152,91.50227h-267.71665c-0.52669,0 -0.95208,-0.42539 -0.95208,-0.95208c0,-0.52669 0.42539,-0.95208 0.95208,-0.95208h267.71665c0.52669,0 0.94194,0.42539 0.94194,0.95208c0,0.52669 -0.42539,0.95208 -0.94194,0.95208z" fill="#ffffff" stroke="none" stroke-width="0" stroke-linecap="butt" stroke-linejoin="miter"/><path d="M345.54152,146.1962h-267.71665c-0.52669,0 -0.95208,-0.42539 -0.95208,-0.95208c0,-0.52669 0.42539,-0.95208 0.95208,-0.95208h267.71665c0.52669,0 0.94194,0.42539 0.94194,0.95208c0,0.52669 -0.42539,0.95208 -0.94194,0.95208z" fill="#ffffff" stroke="none" stroke-width="0" stroke-linecap="butt" stroke-linejoin="miter"/><path d="M149.85878,95.09789c0,-1.06348 0.86093,-1.93455 1.93455,-1.93455c1.07362,0 1.93455,0.86093 1.93455,1.93455c0,1.07362 -0.86093,1.93455 -1.93455,1.93455c-1.07362,0 -1.93455,-0.86093 -1.93455,-1.93455" fill="#29235c" stroke="none" stroke-width="0" stroke-linecap="butt" stroke-linejoin="miter"/><path d="M148.98774,99.42275v0c2.61315,0 4.73,2.11685 4.73,4.73v7.27228h-9.46003v-7.27228c0,-2.61315 2.11685,-4.73 4.73,-4.73" fill="#693086" stroke="none" stroke-width="0" stroke-linecap="butt" stroke-linejoin="miter"/><path d="M154.70021,112.4075h-11.42495v-8.25472c0,-3.14998 2.5625,-5.71247 5.71247,-5.71247c3.14998,0 5.71247,2.5625 5.71247,5.71247zM145.24018,110.44255h7.49509v-6.28981c0,-2.06621 -1.68132,-3.74756 -3.74756,-3.74756c-2.06621,0 -3.74756,1.68132 -3.74756,3.74756z" fill="#29235c" stroke="none" stroke-width="0" stroke-linecap="butt" stroke-linejoin="miter"/><path d="M146.02007,100.71918c-1.16478,-1.16478 -1.80286,-2.7043 -1.80286,-4.35525c0,-1.65096 0.63809,-3.19048 1.80286,-4.35525l4.42615,-4.42615l1.50916,1.50916l-4.42615,4.42615c-0.75963,0.75963 -1.17492,1.76236 -1.17492,2.83599c0,1.07362 0.41528,2.08646 1.17492,2.83599l-1.50916,1.50916z" fill="#29235c" stroke="none" stroke-width="0" stroke-linecap="butt" stroke-linejoin="miter"/><path d="M154.93316,101.34716c0,-1.06348 0.86093,-1.93455 1.93455,-1.93455c1.07362,0 1.93455,0.86093 1.93455,1.93455c0,1.07362 -0.86093,1.93455 -1.93455,1.93455c-1.07362,0 -1.93455,-0.86093 -1.93455,-1.93455" fill="#29235c" stroke="none" stroke-width="0" stroke-linecap="butt" stroke-linejoin="miter"/><path d="M156.86771,105.68216v0c2.61315,0 4.73,2.11685 4.73,4.73v7.27228h-9.46003v-7.27228c0,-2.61315 2.11685,-4.73 4.73,-4.73" fill="#009fe3" stroke="none" stroke-width="0" stroke-linecap="butt" stroke-linejoin="miter"/><path d="M162.67134,118.75807h-11.59714v-8.34587c0,-3.20062 2.60304,-5.80363 5.80363,-5.80363c3.20062,0 5.80363,2.60304 5.80363,5.80363v8.34587zM153.2012,116.62096h7.32289v-6.19866c0,-2.01556 -1.64081,-3.65638 -3.65638,-3.65638c-2.01556,0 -3.66652,1.64081 -3.66652,3.65638z" fill="#29235c" stroke="none" stroke-width="0" stroke-linecap="butt" stroke-linejoin="miter"/><path d="M164.26151,108.73084c-0.19244,0 -0.395,-0.03039 -0.58744,-0.08104l-6.04672,-1.80286l0.60769,-2.04596l6.04672,1.80286l-0.74953,-1.8434c0,0 -0.02025,-0.06076 -0.03039,-0.10129l-1.37747,-3.91972l2.01556,-0.70899l1.38761,3.94v0c0,0 0.02025,0.0709 0.03039,0.10129l0.66848,1.88391c0.26334,0.73938 0.08104,1.55977 -0.45579,2.127c-0.40514,0.42539 -0.94194,0.64823 -1.50916,0.64823z" fill="#29235c" stroke="none" stroke-width="0" stroke-linecap="butt" stroke-linejoin="miter"/><path d="M162.0535,102.23848c-0.2532,0 -0.45579,-0.19244 -0.45579,-0.44564v-3.16008c0,-0.24309 0.20255,-0.44564 0.45579,-0.44564h1.24582c0.24309,0 0.44564,0.19244 0.44564,0.44564v3.16008c0,0.24309 -0.19244,0.44564 -0.44564,0.44564h-1.24582" fill="#e71d73" stroke="none" stroke-width="0" stroke-linecap="butt" stroke-linejoin="miter"/><path d="M163.29929,102.75502h-1.25593c-0.5368,0 -0.97233,-0.43554 -0.97233,-0.97233v-3.16008c0,-0.5368 0.43554,-0.97233 0.97233,-0.97233h1.25593c0.5368,0 0.98247,0.43554 0.98247,0.97233v3.16008c0,0.5368 -0.43554,0.97233 -0.98247,0.97233zM162.13451,101.70165h1.08373v-2.98793h-1.08373z" fill="#29235c" stroke="none" stroke-width="0" stroke-linecap="butt" stroke-linejoin="miter"/><path d="M160.25064,97.05266c-0.09115,0 -0.1823,-0.03039 -0.2532,-0.10129l-0.88118,-0.87104c-0.1418,-0.1418 -0.1418,-0.36464 0,-0.50643c0.1418,-0.1418 0.36464,-0.1418 0.50643,0l0.88118,0.87104c0.1418,0.1418 0.1418,0.36464 0,0.50643c-0.0709,0.0709 -0.16205,0.10129 -0.2532,0.10129z" fill="#29235c" stroke="none" stroke-width="0" stroke-linecap="butt" stroke-linejoin="miter"/><path d="M161.84081,97.0223c-0.19244,0 -0.35449,-0.16205 -0.35449,-0.35449v-1.24582c0,-0.19244 0.16205,-0.35449 0.35449,-0.35449c0.19244,0 0.35449,0.16205 0.35449,0.35449v1.24582c0,0.19244 -0.16205,0.35449 -0.35449,0.35449z" fill="#29235c" stroke="none" stroke-width="0" stroke-linecap="butt" stroke-linejoin="miter"/><path d="M160.2101,98.64286h-1.23567c-0.19244,0 -0.35449,-0.16205 -0.35449,-0.35449c0,-0.19244 0.16205,-0.35449 0.35449,-0.35449h1.23567c0.19244,0 0.35449,0.16205 0.35449,0.35449c0,0.19244 -0.16205,0.35449 -0.35449,0.35449z" fill="#29235c" stroke="none" stroke-width="0" stroke-linecap="butt" stroke-linejoin="miter"/><path d="M180.61904,144.40344l-0.10129,8.58896l-72.80369,-72.42894h11.3034z" fill="#009fe3" stroke="none" stroke-width="0" stroke-linecap="butt" stroke-linejoin="miter"/><path d="M180.51775,154.06603c-0.27349,0 -0.54694,-0.1114 -0.74953,-0.31399l-72.80369,-72.42894c-0.30385,-0.30385 -0.395,-0.76978 -0.23295,-1.16478c0.16205,-0.40514 0.55708,-0.65834 0.99258,-0.65834h11.3034c0.29374,0 0.56719,0.12155 0.76978,0.3241l61.60158,63.83998c0.19244,0.20255 0.30385,0.47604 0.30385,0.74953l-0.10129,8.58896c0,0.42539 -0.26334,0.81028 -0.66848,0.97233c-0.13165,0.05065 -0.26334,0.08104 -0.40514,0.08104zM110.30696,81.63709l69.17771,68.82321l0.0709,-5.62132l-60.99385,-63.20189h-8.26486z" fill="#29235c" stroke="none" stroke-width="0" stroke-linecap="butt" stroke-linejoin="miter"/><path d="M180.51775,148.52575l-67.97239,-67.96228h10.92866l53.58991,53.58991c2.2789,2.2789 3.55512,5.36812 3.55512,8.58896v2.85624l-0.10129,2.93728v0z" fill="#ffffff" stroke="none" stroke-width="0" stroke-linecap="butt" stroke-linejoin="miter"/><path d="M180.51775,149.60948c0,0 -0.01014,0 -0.02025,0c-0.33424,0 -0.62798,-0.16205 -0.82042,-0.40514l-67.89139,-67.88124c-0.30385,-0.30385 -0.395,-0.76978 -0.23295,-1.16478c0.16205,-0.395 0.55708,-0.65834 0.98247,-0.65834h10.92866c0.2836,0 0.55708,0.1114 0.75963,0.31399l53.58991,53.58991c2.4916,2.4916 3.86911,5.81377 3.86911,9.3486v2.85624l-0.10129,2.97778c-0.02025,0.57733 -0.49629,1.03312 -1.06348,1.03312zM115.12814,81.63709l64.40717,64.39703l0.02025,-0.4659v-2.81573c0,-2.95753 -1.15467,-5.74287 -3.24113,-7.82933l-53.28607,-53.28607h-7.91037z" fill="#29235c" stroke="none" stroke-width="0" stroke-linecap="butt" stroke-linejoin="miter"/><path d="M178.65413,146.06451h-1.06348v-2.24854c0,-3.09933 -1.20528,-6.01632 -3.40318,-8.21422l-54.69393,-54.70408l0.74953,-0.74953l54.70408,54.70408c2.39034,2.39034 3.70702,5.58082 3.70702,8.96374z" fill="#e71d73" stroke="none" stroke-width="0" stroke-linecap="butt" stroke-linejoin="miter"/><path d="M180.51775,149.60948c0,0 -0.01014,0 -0.02025,0c-0.33424,0 -0.62798,-0.16205 -0.82042,-0.40514l-67.89139,-67.88124c-0.30385,-0.30385 -0.395,-0.76978 -0.23295,-1.16478c0.16205,-0.395 0.55708,-0.65834 0.98247,-0.65834h10.92866c0.2836,0 0.55708,0.1114 0.75963,0.31399l53.58991,53.58991c2.4916,2.4916 3.86911,5.81377 3.86911,9.3486v2.85624l-0.10129,2.97778c-0.02025,0.57733 -0.49629,1.03312 -1.06348,1.03312zM115.12814,81.63709l64.40717,64.39703l0.02025,-0.4659v-2.81573c0,-2.95753 -1.15467,-5.74287 -3.24113,-7.82933l-53.28607,-53.28607h-7.91037z" fill="#29235c" stroke="none" stroke-width="0" stroke-linecap="butt" stroke-linejoin="miter"/><path d="M186.35177,139.8051v-45.08199h29.54485v45.08199z" fill="#009fe3" stroke="none" stroke-width="0" stroke-linecap="butt" stroke-linejoin="miter"/><path d="M215.89662,140.75718h-29.54485c-0.52669,0 -0.94194,-0.42539 -0.94194,-0.95208v-45.08199c0,-0.52669 0.42539,-0.95208 0.94194,-0.95208h29.54485c0.52669,0 0.94194,0.42539 0.94194,0.95208v45.08199c0,0.52669 -0.42539,0.95208 -0.94194,0.95208zM187.29374,138.86313h27.65083v-43.19809h-27.65083v43.18794z" fill="#29235c" stroke="none" stroke-width="0" stroke-linecap="butt" stroke-linejoin="miter"/><path d="M154.92302,132.14796c0,-13.70385 11.11096,-24.81485 24.81485,-24.81485c13.70385,0 24.81485,11.11096 24.81485,24.81485c0,13.70385 -11.11096,24.81485 -24.81485,24.81485c-13.70385,0 -24.81485,-11.11096 -24.81485,-24.81485" fill="#ffed00" stroke="none" stroke-width="0" stroke-linecap="butt" stroke-linejoin="miter"/><path d="M192.41877,110.50334c0,-6.9988 5.67197,-12.68087 12.68087,-12.68087c7.00894,0 12.68087,5.67197 12.68087,12.68087c0,7.00894 -5.67197,12.68087 -12.68087,12.68087c-7.00894,0 -12.68087,-5.67197 -12.68087,-12.68087" fill="#83d0f5" stroke="none" stroke-width="0" stroke-linecap="butt" stroke-linejoin="miter"/><path d="M241.75469,116.38798c0,-4.34515 3.52472,-7.86983 7.86983,-7.86983c4.34515,0 7.86983,3.52472 7.86983,7.86983c0,4.34515 -3.52472,7.86983 -7.86983,7.86983c-4.34515,0 -7.86983,-3.52472 -7.86983,-7.86983" fill="#ffffff" stroke="none" stroke-width="0" stroke-linecap="butt" stroke-linejoin="miter"/><path d="M173.07331,118.57576h21.95861v-6.42146h8.85231v-7.19124h4.56795v11.99214h14.25079v-5.90492h5.69222v-4.11216h8.49781v6.22902l6.70506,6.7152h3.84882v-6.14801h4.32486v9.88543h9.81453v-4.82119h10.28043v24.79459h-98.79345z" fill="#ffed00" stroke="none" stroke-width="0" stroke-linecap="butt" stroke-linejoin="miter"/><path d="M271.86676,144.30215h-98.79345c-0.395,0 -0.70899,-0.31399 -0.70899,-0.70899v-25.0174c0,-0.395 0.31399,-0.70899 0.70899,-0.70899h21.24962v-5.71247c0,-0.395 0.31399,-0.70899 0.70899,-0.70899h8.14332v-6.48225c0,-0.395 0.31399,-0.70899 0.70899,-0.70899h4.56795c0.395,0 0.70899,0.31399 0.70899,0.70899v11.28315h12.83282v-5.19593c0,-0.395 0.31399,-0.70899 0.70899,-0.70899h4.98323v-3.40318c0,-0.395 0.31399,-0.70899 0.70899,-0.70899h8.49781c0.395,0 0.70899,0.31399 0.70899,0.70899v5.93531l6.28981,6.29992h2.84609v-5.43902c0,-0.395 0.31399,-0.70899 0.70899,-0.70899h4.32486c0.395,0 0.70899,0.31399 0.70899,0.70899v9.17644h8.39652v-4.11216c0,-0.395 0.31399,-0.70899 0.70899,-0.70899h10.28043c0.395,0 0.70899,0.31399 0.70899,0.70899v24.79459c0,0.395 -0.31399,0.70899 -0.70899,0.70899zM173.7823,142.88418h97.37544v-23.37658h-8.86245v4.11216c0,0.395 -0.31399,0.70899 -0.70899,0.70899h-9.81453c-0.395,0 -0.70899,-0.31399 -0.70899,-0.70899v-9.17644h-2.90688v5.43902c0,0.395 -0.31399,0.70899 -0.70899,0.70899h-3.84882c-0.19244,0 -0.36464,-0.0709 -0.50643,-0.2127l-6.70506,-6.7152c-0.13165,-0.13165 -0.2127,-0.31399 -0.2127,-0.49629v-5.52003h-7.07984v3.40318c0,0.395 -0.31399,0.70899 -0.70899,0.70899h-4.98323v5.19593c0,0.395 -0.31399,0.70899 -0.70899,0.70899h-14.25079c-0.395,0 -0.70899,-0.31399 -0.70899,-0.70899v-11.28315h-3.14998v6.48225c0,0.395 -0.31399,0.70899 -0.70899,0.70899h-8.14332v5.71247c0,0.395 -0.31399,0.70899 -0.70899,0.70899h-21.24962v23.59942z" fill="#29235c" stroke="none" stroke-width="0" stroke-linecap="butt" stroke-linejoin="miter"/><path d="M195.03192,118.19088v-6.03657h8.85231v-7.1811h4.56795v11.99214h7.53562c-2.21815,3.71717 -6.25941,6.21891 -10.89826,6.21891c-4.10205,0 -7.73818,-1.96491 -10.05762,-4.99334z" fill="#ffffff" stroke="none" stroke-width="0" stroke-linecap="butt" stroke-linejoin="miter"/><path d="M204.55271,132.15807c0,4.13242 -1.01283,8.02177 -2.79548,11.4452h-28.68392v-25.0174h21.95861v-5.97582c5.80363,4.53756 9.53093,11.59714 9.53093,19.53787" fill="#e71d73" stroke="none" stroke-width="0" stroke-linecap="butt" stroke-linejoin="miter"/><path d="M261.64709,140.71667c0,-3.92986 3.19048,-7.12034 7.12034,-7.12034c3.92986,0 7.12034,3.19048 7.12034,7.12034c0,3.92986 -3.19048,7.12034 -7.12034,7.12034c-3.92986,0 -7.12034,-3.19048 -7.12034,-7.12034" fill="#e71d73" stroke="none" stroke-width="0" stroke-linecap="butt" stroke-linejoin="miter"/><path d="M271.86676,144.30215h-98.79345c-0.395,0 -0.70899,-0.31399 -0.70899,-0.70899v-25.0174c0,-0.395 0.31399,-0.70899 0.70899,-0.70899h21.24962v-5.71247c0,-0.395 0.31399,-0.70899 0.70899,-0.70899h8.14332v-6.48225c0,-0.395 0.31399,-0.70899 0.70899,-0.70899h4.56795c0.395,0 0.70899,0.31399 0.70899,0.70899v11.28315h12.83282v-5.19593c0,-0.395 0.31399,-0.70899 0.70899,-0.70899h4.98323v-3.40318c0,-0.395 0.31399,-0.70899 0.70899,-0.70899h8.49781c0.395,0 0.70899,0.31399 0.70899,0.70899v5.93531l6.28981,6.29992h2.84609v-5.43902c0,-0.395 0.31399,-0.70899 0.70899,-0.70899h4.32486c0.395,0 0.70899,0.31399 0.70899,0.70899v9.17644h8.39652v-4.11216c0,-0.395 0.31399,-0.70899 0.70899,-0.70899h10.28043c0.395,0 0.70899,0.31399 0.70899,0.70899v24.79459c0,0.395 -0.31399,0.70899 -0.70899,0.70899zM173.7823,142.88418h97.37544v-23.37658h-8.86245v4.11216c0,0.395 -0.31399,0.70899 -0.70899,0.70899h-9.81453c-0.395,0 -0.70899,-0.31399 -0.70899,-0.70899v-9.17644h-2.90688v5.43902c0,0.395 -0.31399,0.70899 -0.70899,0.70899h-3.84882c-0.19244,0 -0.36464,-0.0709 -0.50643,-0.2127l-6.70506,-6.7152c-0.13165,-0.13165 -0.2127,-0.31399 -0.2127,-0.49629v-5.52003h-7.07984v3.40318c0,0.395 -0.31399,0.70899 -0.70899,0.70899h-4.98323v5.19593c0,0.395 -0.31399,0.70899 -0.70899,0.70899h-14.25079c-0.395,0 -0.70899,-0.31399 -0.70899,-0.70899v-11.28315h-3.14998v6.48225c0,0.395 -0.31399,0.70899 -0.70899,0.70899h-8.14332v5.71247c0,0.395 -0.31399,0.70899 -0.70899,0.70899h-21.24962v23.59942z" fill="#29235c" stroke="none" stroke-width="0" stroke-linecap="butt" stroke-linejoin="miter"/><path d="M253.89877,97.90348c0,-7.29253 5.91506,-13.20756 13.20756,-13.20756c7.29253,0 13.20756,5.91506 13.20756,13.20756c0,7.29253 -5.91506,13.20756 -13.20756,13.20756c-7.29253,0 -13.20756,-5.91506 -13.20756,-13.20756" fill="#83d0f5" stroke="none" stroke-width="0" stroke-linecap="butt" stroke-linejoin="miter"/><path d="M215.89662,140.75718h-29.54485c-0.52669,0 -0.94194,-0.42539 -0.94194,-0.95208v-45.08199c0,-0.52669 0.42539,-0.95208 0.94194,-0.95208h29.54485c0.52669,0 0.94194,0.42539 0.94194,0.95208v45.08199c0,0.52669 -0.42539,0.95208 -0.94194,0.95208zM187.29374,138.86313h27.65083v-43.19809h-27.65083v43.18794z" fill="#29235c" stroke="none" stroke-width="0" stroke-linecap="butt" stroke-linejoin="miter"/><path d="M320.57473,149.95387v-10.51337h2.92714v10.51337z" fill="#3aaa35" stroke="none" stroke-width="0" stroke-linecap="butt" stroke-linejoin="miter"/><path d="M327.03673,150.66286h-6.462c-0.395,0 -0.70899,-0.31399 -0.70899,-0.70899v-10.51337c0,-0.395 0.31399,-0.70899 0.70899,-0.70899h6.462c0.395,0 0.70899,0.31399 0.70899,0.70899v10.51337c0,0.395 -0.31399,0.70899 -0.70899,0.70899zM321.28372,149.24485h5.04399v-9.0954h-5.04399z" fill="#29235c" stroke="none" stroke-width="0" stroke-linecap="butt" stroke-linejoin="miter"/><path d="M323.09673,153.276v-3.33228h1.41798v3.33228z" fill="#29235c" stroke="none" stroke-width="0" stroke-linecap="butt" stroke-linejoin="miter"/><path d="M327.03673,137.3844h-6.462c-0.395,0 -0.70899,-0.31399 -0.70899,-0.70899c0,-0.395 0.31399,-0.70899 0.70899,-0.70899h6.462c0.395,0 0.70899,0.31399 0.70899,0.70899c0,0.395 -0.31399,0.70899 -0.70899,0.70899z" fill="#29235c" stroke="none" stroke-width="0" stroke-linecap="butt" stroke-linejoin="miter"/><path d="M321.85095,140.14945c-0.395,0 -0.70899,-0.31399 -0.70899,-0.70899v-2.61315c0,-0.395 0.31399,-0.70899 0.70899,-0.70899c0.395,0 0.70899,0.31399 0.70899,0.70899v2.61315c0,0.395 -0.31399,0.70899 -0.70899,0.70899z" fill="#29235c" stroke="none" stroke-width="0" stroke-linecap="butt" stroke-linejoin="miter"/><path d="M325.14269,144.23125c0,0.73938 -0.59759,1.33697 -1.33697,1.33697c-0.73938,0 -1.33697,-0.59759 -1.33697,-1.33697c0,-0.73938 0.59759,-1.33697 1.33697,-1.33697c0.73938,0 1.33697,0.59759 1.33697,1.33697" fill="#ffed00" stroke="none" stroke-width="0" stroke-linecap="butt" stroke-linejoin="miter"/><path d="M305.8479,121.92829c0,-1.06348 0.86093,-1.93455 1.93455,-1.93455c1.07362,0 1.93455,0.86093 1.93455,1.93455c0,1.07362 -0.86093,1.93455 -1.93455,1.93455c-1.07362,0 -1.93455,-0.86093 -1.93455,-1.93455" fill="#29235c" stroke="none" stroke-width="0" stroke-linecap="butt" stroke-linejoin="miter"/><path d="M300.30759,136.99951v-2.13711c2.1979,0 3.98051,-1.79276 3.98051,-3.99062h2.13711c0,3.37278 -2.74483,6.12776 -6.11762,6.12776z" fill="#29235c" stroke="none" stroke-width="0" stroke-linecap="butt" stroke-linejoin="miter"/><path d="M307.78242,126.2633v0c1.54966,0 2.80559,1.25593 2.80559,2.80559l-0.70899,5.50992h-4.19321l-0.70899,-5.50992c0,-1.54966 1.25593,-2.80559 2.80559,-2.80559" fill="#ffed00" stroke="none" stroke-width="0" stroke-linecap="butt" stroke-linejoin="miter"/><path d="M310.821,135.6524h-6.07711l-0.84068,-6.58355c0,-2.13711 1.74211,-3.87922 3.87922,-3.87922c2.13711,0 3.86911,1.74211 3.86911,3.87922v0.13165l-0.84068,6.44171zM306.62779,133.50518h2.3093l0.57733,-4.49705c-0.03039,-0.93183 -0.80014,-1.68132 -1.73197,-1.68132c-0.93183,0 -1.7016,0.74953 -1.73197,1.68132z" fill="#29235c" stroke="none" stroke-width="0" stroke-linecap="butt" stroke-linejoin="miter"/><path d="M304.78439,154.09643v-15.84099h2.13711v15.84099z" fill="#29235c" stroke="none" stroke-width="0" stroke-linecap="butt" stroke-linejoin="miter"/><path d="M308.65349,154.09643v-15.84099h2.13711v15.84099z" fill="#29235c" stroke="none" stroke-width="0" stroke-linecap="butt" stroke-linejoin="miter"/><path d="M305.68582,134.57877h4.19321l2.84609,12.97461h-9.88543z" fill="#009fe3" stroke="none" stroke-width="0" stroke-linecap="butt" stroke-linejoin="miter"/><path d="M314.05198,148.62701h-12.53908l3.31202,-15.11172h5.91506zM304.16655,146.4798h7.23174l-2.3802,-10.83751h-2.47135z" fill="#29235c" stroke="none" stroke-width="0" stroke-linecap="butt" stroke-linejoin="miter"/><path d="M306.2429,120.69262l0.47604,-1.03312c0.34439,-0.75963 1.21542,-1.13438 2.01556,-0.87104c0.80014,0.27349 1.26607,1.10402 1.08373,1.92441l-0.20255,0.92168" fill="#009fe3" stroke="none" stroke-width="0" stroke-linecap="butt" stroke-linejoin="miter"/><path d="M309.61568,122.17138c0,0 -0.08104,0 -0.1114,-0.01014c-0.2836,-0.06076 -0.4659,-0.34439 -0.40514,-0.63809l0.20255,-0.92168c0.12155,-0.55708 -0.19244,-1.12427 -0.73938,-1.30657c-0.5368,-0.17219 -1.12427,0.0709 -1.35722,0.58744l-0.47604,1.03312c-0.12155,0.26334 -0.44564,0.38489 -0.70899,0.26334c-0.26334,-0.12155 -0.38489,-0.43554 -0.26334,-0.70899l0.47604,-1.03312c0.45579,-1.00273 1.60031,-1.49902 2.66379,-1.15467c1.06348,0.36464 1.68132,1.45851 1.43826,2.54225l-0.20255,0.92168c-0.05065,0.2532 -0.27349,0.41528 -0.51654,0.41528z" fill="#29235c" stroke="none" stroke-width="0" stroke-linecap="butt" stroke-linejoin="miter"/><path d="M303.00178,119.79119l9.87528,2.75494" fill="none" stroke="none" stroke-width="0" stroke-linecap="butt" stroke-linejoin="miter"/><path d="M312.87706,123.07282c0,0 -0.09115,0 -0.1418,-0.02025l-9.87528,-2.75494c-0.2836,-0.08104 -0.44564,-0.37475 -0.37475,-0.65834c0.08104,-0.2836 0.37475,-0.44564 0.65834,-0.36464l9.87528,2.75494c0.2836,0.08104 0.44564,0.37475 0.37475,0.65834c-0.06076,0.23295 -0.2836,0.38489 -0.51654,0.38489z" fill="#29235c" stroke="none" stroke-width="0" stroke-linecap="butt" stroke-linejoin="miter"/><path d="M312.08706,142.56004v0c-1.46862,0 -2.66379,-1.19517 -2.66379,-2.66379v-2.67394h5.33773v2.67394c0,1.47877 -1.19517,2.66379 -2.66379,2.66379" fill="#693086" stroke="none" stroke-width="0" stroke-linecap="butt" stroke-linejoin="miter"/><path d="M312.09717,143.26903v0c-1.86365,0 -3.37278,-1.50916 -3.37278,-3.37278v-2.67394c0,-0.395 0.31399,-0.70899 0.70899,-0.70899h5.33773c0.395,0 0.70899,0.31399 0.70899,0.70899v2.67394c0,1.86365 -1.50916,3.37278 -3.37278,3.37278zM310.13226,137.93134v1.96491c0,1.07362 0.88118,1.9548 1.9548,1.9548v0c1.07362,0 1.9548,-0.88118 1.9548,-1.9548v-1.96491h-3.91972z" fill="#29235c" stroke="none" stroke-width="0" stroke-linecap="butt" stroke-linejoin="miter"/><path d="M314.76097,137.75914c-0.26334,0 -0.51654,-0.1418 -0.63809,-0.395l-4.89208,-9.85503c-0.17219,-0.35449 -0.03039,-0.77989 0.3241,-0.95208c0.35449,-0.17219 0.77989,-0.03039 0.95208,0.3241l4.89208,9.85503c0.17219,0.35449 0.03039,0.77989 -0.3241,0.95208c-0.10129,0.05065 -0.2127,0.0709 -0.31399,0.0709z" fill="#29235c" stroke="none" stroke-width="0" stroke-linecap="butt" stroke-linejoin="miter"/><path d="M309.42324,137.75914c-0.395,0 -0.70899,-0.31399 -0.70899,-0.70899v-2.60304c0,-0.395 0.31399,-0.70899 0.70899,-0.70899c0.395,0 0.70899,0.31399 0.70899,0.70899v2.60304c0,0.395 -0.31399,0.70899 -0.70899,0.70899z" fill="#29235c" stroke="none" stroke-width="0" stroke-linecap="butt" stroke-linejoin="miter"/><path d="M310.92229,137.52619l-1.7016,-1.29646l2.41059,-3.17023l-2.14725,-4.4059l1.92441,-0.93183l2.43084,4.99334c0.17219,0.36464 0.13165,0.79003 -0.1114,1.11413z" fill="#29235c" stroke="none" stroke-width="0" stroke-linecap="butt" stroke-linejoin="miter"/><path d="M295.10155,121.21931c0,1.07362 -0.86093,1.93455 -1.93455,1.93455c-1.07362,0 -1.93455,-0.86093 -1.93455,-1.93455c0,-1.07362 0.86093,-1.93455 1.93455,-1.93455c1.07362,0 1.93455,0.87104 1.93455,1.93455" fill="#29235c" stroke="none" stroke-width="0" stroke-linecap="butt" stroke-linejoin="miter"/><path d="M293.167,125.54416c1.54966,0 2.80559,1.25593 2.80559,2.80559l-0.70899,5.50992h-4.19321l-0.70899,-5.50992c0,-1.54966 1.25593,-2.80559 2.80559,-2.80559v0" fill="#e71d73" stroke="none" stroke-width="0" stroke-linecap="butt" stroke-linejoin="miter"/><path d="M296.20557,134.9333h-6.07711l-0.84068,-6.58355c0,-2.13711 1.74211,-3.87922 3.86911,-3.87922c2.127,0 3.87922,1.74211 3.87922,3.87922v0.13165l-0.84068,6.44171zM292.01236,132.78605h2.3093l0.57733,-4.49705c-0.03039,-0.93183 -0.80014,-1.68132 -1.73197,-1.68132c-0.93183,0 -1.7016,0.74953 -1.73197,1.68132z" fill="#29235c" stroke="none" stroke-width="0" stroke-linecap="butt" stroke-linejoin="miter"/><path d="M293.58228,154.08628v-16.53984h2.13711v16.53984z" fill="#29235c" stroke="none" stroke-width="0" stroke-linecap="butt" stroke-linejoin="miter"/><path d="M290.65528,154.07947l-0.02022,-16.53984l2.13711,-0.0026l0.02022,16.53984z" fill="#29235c" stroke="none" stroke-width="0" stroke-linecap="butt" stroke-linejoin="miter"/><path d="M296.69172,141.15218h-7.0393l1.41798,-7.28239h4.19321z" fill="#693086" stroke="none" stroke-width="0" stroke-linecap="butt" stroke-linejoin="miter"/><path d="M297.98818,142.2258h-9.63219l1.83326,-9.4195h5.95557zM290.94885,140.07855h4.44641l-1.01283,-5.14528h-2.43084z" fill="#29235c" stroke="none" stroke-width="0" stroke-linecap="butt" stroke-linejoin="miter"/><path d="M288.38635,137.19195h-2.13711v-3.45382c0,-0.17219 0.0405,-0.34439 0.12155,-0.49629l3.10944,-5.99607l1.89402,0.98247l-2.98793,5.76312v3.19048z" fill="#29235c" stroke="none" stroke-width="0" stroke-linecap="butt" stroke-linejoin="miter"/><path d="M295.10155,135.26754c-0.40514,0 -0.80014,-0.23295 -0.97233,-0.62798c-0.24309,-0.5368 0,-1.17492 0.5368,-1.41798l3.51458,-1.58006l-3.73742,-4.48694c-0.38489,-0.44564 -0.3241,-1.12427 0.12155,-1.50916c0.45579,-0.38489 1.12427,-0.3241 1.50916,0.12155l3.75767,4.42615c0.44564,0.51654 0.61784,1.22557 0.45579,1.89402c-0.15194,0.67859 -0.60769,1.22557 -1.24582,1.49902l-3.50447,1.56992c-0.1418,0.06076 -0.29374,0.09115 -0.43554,0.09115z" fill="#29235c" stroke="none" stroke-width="0" stroke-linecap="butt" stroke-linejoin="miter"/><path d="M287.33298,147.03684v0c-1.9548,0 -3.54497,-1.59017 -3.54497,-3.54497v-2.11685h7.07984v2.11685c0,1.9548 -1.59017,3.54497 -3.54497,3.54497" fill="#009fe3" stroke="none" stroke-width="0" stroke-linecap="butt" stroke-linejoin="miter"/><path d="M287.33298,147.74583v0c-2.33969,0 -4.24385,-1.9143 -4.24385,-4.25396v-2.82584h8.49781v2.82584c0,2.33969 -1.90416,4.24385 -4.24385,4.25396v0zM287.33298,147.74583zM284.49699,142.084v1.40787c0,1.55977 1.26607,2.83599 2.82584,2.83599c1.55977,0 2.82584,-1.27618 2.82584,-2.83599v-1.40787h-5.66183z" fill="#29235c" stroke="none" stroke-width="0" stroke-linecap="butt" stroke-linejoin="miter"/><path d="M290.5336,141.84091h-6.3911v-2.11685c0,-1.76236 1.43826,-3.19048 3.20062,-3.19048c1.76236,0 3.20062,1.43826 3.20062,3.19048v2.11685zM285.20601,140.77743h4.2641v-1.05337c0,-1.17492 -0.95208,-2.127 -2.127,-2.127c-1.17492,0 -2.127,0.95208 -2.127,2.127v1.05337z" fill="#29235c" stroke="none" stroke-width="0" stroke-linecap="butt" stroke-linejoin="miter"/><path d="M270.79314,152.99241h-2.13711v-9.07515h-28.20788v9.07515h-2.13711v-10.13863c0,-0.58744 0.47604,-1.07362 1.06348,-1.07362h30.34502c0.58744,0 1.06348,0.47604 1.06348,1.07362v10.13863z" fill="#29235c" stroke="none" stroke-width="0" stroke-linecap="butt" stroke-linejoin="miter"/><path d="M234.5027,143.91726v-2.13711h40.10887v2.13711z" fill="#29235c" stroke="none" stroke-width="0" stroke-linecap="butt" stroke-linejoin="miter"/><path d="M232.86188,126.61779c0,-1.06348 0.86093,-1.9143 1.9143,-1.9143c1.05337,0 1.9143,0.86093 1.9143,1.9143c0,1.05337 -0.86093,1.9143 -1.9143,1.9143c-1.05337,0 -1.9143,-0.86093 -1.9143,-1.9143" fill="#29235c" stroke="none" stroke-width="0" stroke-linecap="butt" stroke-linejoin="miter"/><path d="M234.77618,130.91225v0c2.59289,0 4.6895,2.10675 4.6895,4.69964v7.22163h-9.38914v-7.22163c0,-2.59289 2.10675,-4.69964 4.69964,-4.69964" fill="#009fe3" stroke="none" stroke-width="0" stroke-linecap="butt" stroke-linejoin="miter"/><path d="M240.52916,143.90715h-11.52624v-8.29526c0,-3.18034 2.58279,-5.77326 5.76312,-5.77326c3.18034,0 5.75298,2.59289 5.75298,5.77326v8.29526zM231.15017,141.7599h7.252v-6.14801c0,-2.00545 -1.62056,-3.62601 -3.62601,-3.62601c-2.00545,0 -3.62601,1.63071 -3.62601,3.62601z" fill="#29235c" stroke="none" stroke-width="0" stroke-linecap="butt" stroke-linejoin="miter"/><path d="M227.15952,153.1241h-2.13711v-7.36343c0,-2.1979 1.78261,-3.99062 3.98051,-3.99062h6.77596v2.13711h-6.77596c-1.02298,0 -1.85351,0.83053 -1.85351,1.8434v7.36343z" fill="#29235c" stroke="none" stroke-width="0" stroke-linecap="butt" stroke-linejoin="miter"/><path d="M230.99823,153.1241h-2.13711v-7.36343c0,-2.1979 1.78261,-3.99062 3.98051,-3.99062h6.77596v2.13711h-6.77596c-1.02298,0 -1.85351,0.83053 -1.85351,1.8434v7.36343z" fill="#29235c" stroke="none" stroke-width="0" stroke-linecap="butt" stroke-linejoin="miter"/><path d="M237.65267,142.82339h-8.36616l-3.19048,-7.94077h8.36616z" fill="#ffffff" stroke="none" stroke-width="0" stroke-linecap="butt" stroke-linejoin="miter"/><path d="M239.2327,143.89701h-10.66531l-4.05141,-10.07787h10.66531zM230.00564,141.74976h6.06697l-2.32955,-5.80363h-6.06697z" fill="#29235c" stroke="none" stroke-width="0" stroke-linecap="butt" stroke-linejoin="miter"/><path d="M241.24829,140.29128h-5.25669v-2.13711h5.12503l-3.08919,-4.09191l1.71171,-1.28632l3.17023,4.20331c0.47604,0.64823 0.5368,1.47877 0.1823,2.17764c-0.35449,0.69888 -1.06348,1.13438 -1.8434,1.13438z" fill="#29235c" stroke="none" stroke-width="0" stroke-linecap="butt" stroke-linejoin="miter"/><path d="M253.65571,127.51922c0,-1.05337 0.85079,-1.90416 1.90416,-1.90416c1.05337,0 1.90416,0.85079 1.90416,1.90416c0,1.05337 -0.85079,1.90416 -1.90416,1.90416c-1.05337,0 -1.90416,-0.85079 -1.90416,-1.90416" fill="#29235c" stroke="none" stroke-width="0" stroke-linecap="butt" stroke-linejoin="miter"/><path d="M263.28791,152.99241v-7.36343h2.13711v7.36343z" fill="#29235c" stroke="none" stroke-width="0" stroke-linecap="butt" stroke-linejoin="miter"/><path d="M260.03667,152.99241v-7.36343h2.13711v7.36343z" fill="#29235c" stroke="none" stroke-width="0" stroke-linecap="butt" stroke-linejoin="miter"/><path d="M261.59645,139.3392c1.51927,0 2.75494,1.22557 2.75494,2.75494v4.10205h-4.71989v-3.35253h-5.97582v-9.78413c0,-1.13438 0.94194,-2.03581 2.07635,-1.97506c1.06348,0.06076 1.86365,1.01283 1.86365,2.08646v6.16826z" fill="#e71d73" stroke="none" stroke-width="0" stroke-linecap="butt" stroke-linejoin="miter"/><path d="M264.35139,147.26979h-4.71989c-0.58744,0 -1.06348,-0.47604 -1.06348,-1.07362v-2.2789h-4.91234c-0.58744,0 -1.06348,-0.47604 -1.06348,-1.07362v-9.78413c0,-0.83053 0.34439,-1.64081 0.95208,-2.21815c0.60769,-0.57733 1.41798,-0.87104 2.24854,-0.83053c1.61042,0.09115 2.87649,1.47877 2.87649,3.14998v5.10478h2.92714c2.10675,0 3.82857,1.71171 3.82857,3.81846v4.10205c0,0.58744 -0.47604,1.07362 -1.06348,1.07362zM260.69501,145.12258h2.58279v-3.03854c0,-0.93183 -0.75963,-1.68132 -1.69146,-1.68132h-3.99062c-0.58744,0 -1.07362,-0.47604 -1.07362,-1.07362v-6.16826c0,-0.5368 -0.38489,-0.99258 -0.86093,-1.02298c-0.2532,-0.02025 -0.48618,0.0709 -0.66848,0.24309c-0.1823,0.17219 -0.2836,0.40514 -0.2836,0.66848v8.71051h4.91234c0.58744,0 1.06348,0.47604 1.06348,1.07362v2.2789z" fill="#29235c" stroke="none" stroke-width="0" stroke-linecap="butt" stroke-linejoin="miter"/><path d="M261.02926,137.33375h-3.43357c-0.58744,0 -1.06348,-0.47604 -1.06348,-1.07362c0,-0.59759 0.47604,-1.07362 1.06348,-1.07362h3.43357c0.58744,0 1.06348,0.47604 1.06348,1.07362c0,0.59759 -0.47604,1.07362 -1.06348,1.07362z" fill="#29235c" stroke="none" stroke-width="0" stroke-linecap="butt" stroke-linejoin="miter"/><path d="M257.59568,139.9874h-6.6443c-0.79003,0 -1.49902,-0.43554 -1.86365,-1.13438c-0.36464,-0.69888 -0.29374,-1.53952 0.16205,-2.17764l3.73742,-5.15539l1.73197,1.25593l-3.73742,5.14528l2.01556,-0.08104h4.59835v2.13711z" fill="#29235c" stroke="none" stroke-width="0" stroke-linecap="butt" stroke-linejoin="miter"/><path d="M275.28005,130.5274c0,-1.31672 1.06348,-2.3802 2.3802,-2.3802c1.31672,0 2.3802,1.06348 2.3802,2.3802c0,1.31672 -2.3802,3.97037 -2.3802,3.97037c0,0 -2.3802,-2.65368 -2.3802,-3.97037" fill="#e71d73" stroke="none" stroke-width="0" stroke-linecap="butt" stroke-linejoin="miter"/><path d="M277.66024,135.2979l-0.395,-0.44564c-0.42539,-0.4659 -2.51189,-2.87649 -2.51189,-4.32486c0,-1.61042 1.30657,-2.91699 2.91699,-2.91699c1.61042,0 2.91699,1.30657 2.91699,2.91699c0,1.44837 -2.0966,3.85896 -2.51189,4.32486l-0.395,0.44564zM277.66024,128.67385c-1.02298,0 -1.8434,0.83053 -1.8434,1.85351c0,0.65834 0.98247,2.10675 1.8434,3.14998c0.87104,-1.05337 1.8434,-2.4916 1.8434,-3.14998c0,-1.02298 -0.83053,-1.85351 -1.8434,-1.85351z" fill="#29235c" stroke="none" stroke-width="0" stroke-linecap="butt" stroke-linejoin="miter"/><path d="M277.66024,138.81252c-0.29374,0 -0.5368,-0.23295 -0.5368,-0.52669v-3.53486c0,-0.29374 0.24309,-0.52669 0.5368,-0.52669c0.29374,0 0.5368,0.23295 0.5368,0.52669v3.53486c0,0.29374 -0.24309,0.52669 -0.5368,0.52669z" fill="#29235c" stroke="none" stroke-width="0" stroke-linecap="butt" stroke-linejoin="miter"/><path d="M275.36109,138.76187c-0.82042,0 -1.61042,-0.29374 -2.22826,-0.85079c-0.2127,-0.19244 -0.27349,-0.55708 -0.08104,-0.77989c0.19244,-0.22284 0.48618,-0.27349 0.70899,-0.08104l0.0709,0.06076c0.4659,0.42539 1.06348,0.62798 1.68132,0.58744c0.61784,-0.0405 1.17492,-0.3241 1.58006,-0.79003l0.17219,-0.20255c0.19244,-0.22284 0.52669,-0.2532 0.74953,-0.06076c0.22284,0.19244 0.2532,0.52669 0.06076,0.74953l-0.17219,0.20255c-0.58744,0.68874 -1.40787,1.10402 -2.31944,1.16478c-0.0709,0 -0.15194,0 -0.22284,0z" fill="#29235c" stroke="none" stroke-width="0" stroke-linecap="butt" stroke-linejoin="miter"/><path d="M276.26252,146.92544c-0.29374,0 -0.5368,-0.23295 -0.5368,-0.52669v-3.13983c0,-0.395 -0.3241,-0.71913 -0.71913,-0.71913h-2.88663c-0.29374,0 -0.5368,-0.23295 -0.5368,-0.52669c0,-0.29374 0.24309,-0.52669 0.5368,-0.52669h2.88663c0.98247,0 1.78261,0.80014 1.78261,1.78261v3.13983c0,0.29374 -0.24309,0.52669 -0.5368,0.52669z" fill="#29235c" stroke="none" stroke-width="0" stroke-linecap="butt" stroke-linejoin="miter"/><path d="M274.62171,146.92544c-0.29374,0 -0.5368,-0.23295 -0.5368,-0.52669v-3.13983c0,-0.395 -0.3241,-0.71913 -0.70899,-0.71913h-2.88663c-0.29374,0 -0.5368,-0.23295 -0.5368,-0.52669c0,-0.29374 0.24309,-0.52669 0.5368,-0.52669h2.88663c0.98247,0 1.7725,0.80014 1.7725,1.78261v3.13983c0,0.29374 -0.24309,0.52669 -0.5368,0.52669z" fill="#29235c" stroke="none" stroke-width="0" stroke-linecap="butt" stroke-linejoin="miter"/><path d="M269.54732,138.30608c0,-1.11413 0.91158,-2.0257 2.0257,-2.0257c1.11413,0 2.0257,0.91158 2.0257,2.0257v4.12231h-4.05141z" fill="#ffffff" stroke="none" stroke-width="0" stroke-linecap="butt" stroke-linejoin="miter"/><path d="M274.30772,143.13738h-5.46938v-4.83129c0,-1.50916 1.22557,-2.73469 2.73469,-2.73469c1.50916,0 2.73469,1.22557 2.73469,2.73469zM270.25631,141.7194h2.6334v-3.41332c0,-0.72924 -0.58744,-1.31672 -1.31672,-1.31672c-0.72924,0 -1.31672,0.58744 -1.31672,1.31672z" fill="#29235c" stroke="none" stroke-width="0" stroke-linecap="butt" stroke-linejoin="miter"/><path d="M273.20373,133.414c0,0.90143 -0.72924,1.63071 -1.63071,1.63071c-0.90143,0 -1.63071,-0.72924 -1.63071,-1.63071c0,-0.90143 0.72924,-1.63071 1.63071,-1.63071c0.90143,0 1.63071,0.72924 1.63071,1.63071" fill="#29235c" stroke="none" stroke-width="0" stroke-linecap="butt" stroke-linejoin="miter"/><path d="M267.47097,142.95507c0,0 -0.02025,0 -0.0405,0c-0.29374,-0.02025 -0.51654,-0.27349 -0.49629,-0.56719c0.01014,-0.16205 0.30385,-4.06152 3.24113,-6.22902c0.23295,-0.17219 0.56719,-0.12155 0.73938,0.1114c0.17219,0.23295 0.12155,0.56719 -0.1114,0.73938c-2.53214,1.87376 -2.80559,5.40863 -2.81573,5.43902c-0.02025,0.2836 -0.2532,0.49629 -0.52669,0.49629z" fill="#29235c" stroke="none" stroke-width="0" stroke-linecap="butt" stroke-linejoin="miter"/><path d="M260.15822,139.60251c-1.11413,0 -2.0257,-0.90143 -2.0257,-2.0257v-2.0966c0,-1.11413 0.91158,-2.0257 2.0257,-2.0257c1.11413,0 2.0257,0.91158 2.0257,2.0257v2.0966c0,1.12427 -0.91158,2.0257 -2.0257,2.0257v0" fill="#009fe3" stroke="none" stroke-width="0" stroke-linecap="butt" stroke-linejoin="miter"/><path d="M260.15822,140.31153c-1.50916,0 -2.73469,-1.22557 -2.73469,-2.73469v-2.0966c0,-1.50916 1.22557,-2.73469 2.73469,-2.73469c1.50916,0 2.73469,1.22557 2.73469,2.73469v2.0966c0,1.50916 -1.22557,2.73469 -2.73469,2.73469zM260.15822,134.16352c-0.72924,0 -1.31672,0.58744 -1.31672,1.31672v2.0966c0,0.72924 0.58744,1.31672 1.31672,1.31672c0.72924,0 1.31672,-0.58744 1.31672,-1.31672v-2.0966c0,-0.72924 -0.58744,-1.31672 -1.31672,-1.31672z" fill="#29235c" stroke="none" stroke-width="0" stroke-linecap="butt" stroke-linejoin="miter"/><path d="M261.78889,130.58816c0,0.90143 -0.72924,1.63071 -1.63071,1.63071c-0.90143,0 -1.63071,-0.72924 -1.63071,-1.63071c0,-0.90143 0.72924,-1.63071 1.63071,-1.63071c0.90143,0 1.63071,0.72924 1.63071,1.63071" fill="#29235c" stroke="none" stroke-width="0" stroke-linecap="butt" stroke-linejoin="miter"/><path d="M256.33976,135.87524c-0.82042,0 -1.61042,-0.29374 -2.22826,-0.85079l-0.08104,-0.08104c-0.20255,-0.2127 -0.20255,-0.54694 0,-0.74953c0.2127,-0.20255 0.54694,-0.20255 0.74953,0l0.06076,0.06076c0.43554,0.395 1.03312,0.58744 1.65096,0.55708c0.61784,-0.0405 1.17492,-0.3241 1.58006,-0.79003l0.17219,-0.20255c0.19244,-0.22284 0.52669,-0.2532 0.74953,-0.06076c0.22284,0.19244 0.2532,0.52669 0.06076,0.74953l-0.17219,0.20255c-0.58744,0.68874 -1.40787,1.10402 -2.31944,1.16478c-0.08104,0 -0.15194,0 -0.22284,0z" fill="#29235c" stroke="none" stroke-width="0" stroke-linecap="butt" stroke-linejoin="miter"/><path d="M249.43211,152.85061v0c-1.9548,0 -3.54497,-1.59017 -3.54497,-3.54497v-2.11685h7.07984v2.11685c0,1.9548 -1.59017,3.54497 -3.54497,3.54497" fill="#009fe3" stroke="none" stroke-width="0" stroke-linecap="butt" stroke-linejoin="miter"/><path d="M249.43211,153.5596v0c-2.33969,0 -4.24385,-1.9143 -4.24385,-4.25396v-2.82584h8.49781v2.82584c0,2.33969 -1.90416,4.24385 -4.24385,4.25396v0zM249.43211,153.5596zM246.59613,147.89777v1.40787c0,1.55977 1.26607,2.83599 2.82584,2.83599c1.55977,0 2.82584,-1.27618 2.82584,-2.83599v-1.40787h-5.66183z" fill="#29235c" stroke="none" stroke-width="0" stroke-linecap="butt" stroke-linejoin="miter"/><path d="M252.63274,147.64457h-6.3911v-2.11685c0,-1.76236 1.43826,-3.19048 3.20062,-3.19048c1.76236,0 3.20062,1.43826 3.20062,3.19048v2.11685zM247.30512,146.58105h4.2641v-1.05337c0,-1.17492 -0.95208,-2.127 -2.127,-2.127c-1.17492,0 -2.127,0.95208 -2.127,2.127v1.05337z" fill="#29235c" stroke="none" stroke-width="0" stroke-linecap="butt" stroke-linejoin="miter"/><path d="M206.49737,120.13554c0,1.05337 -0.85079,1.90416 -1.90416,1.90416c-1.05337,0 -1.90416,-0.85079 -1.90416,-1.90416c0,-1.05337 0.85079,-1.90416 1.90416,-1.90416c1.05337,0 1.90416,0.85079 1.90416,1.90416" fill="#29235c" stroke="none" stroke-width="0" stroke-linecap="butt" stroke-linejoin="miter"/><path d="M204.5831,124.40978c2.58279,0 4.66924,2.08646 4.66924,4.66924v7.1811h-9.33849v-7.1811c0,-2.58279 2.08646,-4.66924 4.66924,-4.66924v0" fill="#ffffff" stroke="none" stroke-width="0" stroke-linecap="butt" stroke-linejoin="miter"/><path d="M210.31583,137.33375h-11.4756v-8.25472c0,-3.16008 2.57264,-5.74287 5.73273,-5.74287c3.16008,0 5.74287,2.57264 5.74287,5.74287zM200.97734,135.1865h7.20138v-6.10747c0,-1.9852 -1.62056,-3.60576 -3.60576,-3.60576c-1.9852,0 -3.59562,1.61042 -3.59562,3.60576z" fill="#29235c" stroke="none" stroke-width="0" stroke-linecap="butt" stroke-linejoin="miter"/><path d="M203.50948,131.70228v-7.29253h2.13711v7.29253z" fill="#29235c" stroke="none" stroke-width="0" stroke-linecap="butt" stroke-linejoin="miter"/><path d="M209.90055,144.71743v-4.70975h5.83402v4.70975z" fill="#009fe3" stroke="none" stroke-width="0" stroke-linecap="butt" stroke-linejoin="miter"/><path d="M216.79808,145.79106h-7.97113v-6.84685h7.97113zM210.96406,143.64381h3.69691v-2.57264h-3.69691z" fill="#29235c" stroke="none" stroke-width="0" stroke-linecap="butt" stroke-linejoin="miter"/><path d="M213.8912,139.68355h-2.13711v-4.6186l-4.11216,-7.87998l1.90416,-0.99258l4.34515,8.34587z" fill="#29235c" stroke="none" stroke-width="0" stroke-linecap="butt" stroke-linejoin="miter"/><path d="M205.27184,152.72906v-16.33728h2.13711v16.33728z" fill="#29235c" stroke="none" stroke-width="0" stroke-linecap="butt" stroke-linejoin="miter"/><path d="M201.10903,148.27252c-2.89674,-3.65638 -2.74483,-8.8422 0.36464,-12.32638l0.24309,-0.27349l1.60031,1.41798l-0.24309,0.27349c-2.41059,2.7043 -2.53214,6.73545 -0.2836,9.58158l-1.67121,1.32682z" fill="#29235c" stroke="none" stroke-width="0" stroke-linecap="butt" stroke-linejoin="miter"/><path d="M194.85973,135.1865v-2.13711c2.1979,0 3.99062,-1.79276 3.99062,-3.98051h2.13711c0,3.37278 -2.74483,6.11762 -6.11762,6.11762z" fill="#29235c" stroke="none" stroke-width="0" stroke-linecap="butt" stroke-linejoin="miter"/><path d="M195.26487,148.18137c-0.29374,0 -0.5368,-0.23295 -0.5368,-0.52669v-13.34936c0,-0.43554 -0.35449,-0.80014 -0.80014,-0.80014c-0.44564,0 -0.79003,0.35449 -0.79003,0.80014v0.73938c0,0.29374 -0.24309,0.52669 -0.5368,0.52669c-0.29374,0 -0.5368,-0.23295 -0.5368,-0.52669v-0.73938c0,-1.02298 0.83053,-1.85351 1.85351,-1.85351c1.02298,0 1.86365,0.83053 1.86365,1.85351v13.34936c0,0.29374 -0.24309,0.52669 -0.5368,0.52669z" fill="#29235c" stroke="none" stroke-width="0" stroke-linecap="butt" stroke-linejoin="miter"/><path d="M197.08798,137.66799l-1.82312,12.71127l-1.82312,-12.71127z" fill="#3aaa35" stroke="none" stroke-width="0" stroke-linecap="butt" stroke-linejoin="miter"/><path d="M195.26487,150.90595c-0.26334,0 -0.48618,-0.19244 -0.52669,-0.45579l-1.82312,-12.71127c-0.02025,-0.15194 0.02025,-0.30385 0.12155,-0.42539c0.10129,-0.12155 0.24309,-0.1823 0.40514,-0.1823h3.64627c0.15194,0 0.30385,0.0709 0.40514,0.1823c0.10129,0.1114 0.1418,0.27349 0.12155,0.42539l-1.82312,12.71127c-0.0405,0.26334 -0.26334,0.45579 -0.52669,0.45579zM194.05959,138.20479l1.21542,8.43706l1.20528,-8.43706z" fill="#29235c" stroke="none" stroke-width="0" stroke-linecap="butt" stroke-linejoin="miter"/><path d="M248.10529,115.2232v-15.6283h58.40096v15.6283z" fill="#ffffff" stroke="none" stroke-width="0" stroke-linecap="butt" stroke-linejoin="miter"/><path d="M306.50625,115.93222h-58.40096c-0.395,0 -0.70899,-0.31399 -0.70899,-0.70899v-15.6283c0,-0.395 0.31399,-0.70899 0.70899,-0.70899h58.40096c0.395,0 0.70899,0.31399 0.70899,0.70899v15.6283c0,0.395 -0.31399,0.70899 -0.70899,0.70899zM248.81428,114.51421h56.98298v-14.21029h-56.98298z" fill="#29235c" stroke="none" stroke-width="0" stroke-linecap="butt" stroke-linejoin="miter"/><path d="M252.57195,107.40402c0,-2.1675 1.75222,-3.91972 3.91972,-3.91972c2.1675,0 3.91972,1.75222 3.91972,3.91972c0,2.1675 -1.75222,3.91972 -3.91972,3.91972c-2.1675,0 -3.91972,-1.75222 -3.91972,-3.91972" fill="#ffffff" stroke="none" stroke-width="0" stroke-linecap="butt" stroke-linejoin="miter"/><path d="M256.4917,112.10362c-2.59289,0 -4.69964,-2.10675 -4.69964,-4.70975c0,-2.60304 2.10675,-4.69964 4.69964,-4.69964c2.59289,0 4.70975,2.10675 4.70975,4.69964c0,2.59289 -2.10675,4.70975 -4.70975,4.70975zM256.4917,104.27429c-1.73197,0 -3.12972,1.40787 -3.12972,3.12972c0,1.72186 1.40787,3.13983 3.12972,3.13983c1.72186,0 3.12972,-1.40787 3.12972,-3.13983c0,-1.73197 -1.40787,-3.12972 -3.12972,-3.12972z" fill="#e71d73" stroke="none" stroke-width="0" stroke-linecap="butt" stroke-linejoin="miter"/><path d="M251.25523,108.113v-1.40787h10.47287v1.40787z" fill="#29235c" stroke="none" stroke-width="0" stroke-linecap="butt" stroke-linejoin="miter"/><path d="M250.46524,108.90303v-2.97778h12.04279v2.97778z" fill="#29235c" stroke="none" stroke-width="0" stroke-linecap="butt" stroke-linejoin="miter"/><path d="M264.02729,113.04559v-11.28315h1.56992v11.28315z" fill="#29235c" stroke="none" stroke-width="0" stroke-linecap="butt" stroke-linejoin="miter"/><path d="M267.8255,102.43092v-0.70899h7.73818v0.70899z" fill="#29235c" stroke="none" stroke-width="0" stroke-linecap="butt" stroke-linejoin="miter"/><path d="M267.8255,104.16289v-0.70899h7.73818v0.70899z" fill="#29235c" stroke="none" stroke-width="0" stroke-linecap="butt" stroke-linejoin="miter"/><path d="M267.8255,105.88475v-0.70899h7.73818v0.70899z" fill="#29235c" stroke="none" stroke-width="0" stroke-linecap="butt" stroke-linejoin="miter"/><path d="M267.8255,107.60657v-0.70899h4.02101v0.70899z" fill="#29235c" stroke="none" stroke-width="0" stroke-linecap="butt" stroke-linejoin="miter"/><path d="M296.94495,112.20491h-8.7713l-4.55784,-4.5477l0.50643,-0.50643l4.34515,4.34515h7.76857v-4.09191h0.70899z" fill="#3aaa35" stroke="none" stroke-width="0" stroke-linecap="butt" stroke-linejoin="miter"/><path d="M283.96019,107.75851h-5.85427v-4.27421h0.70899v3.56522h4.96298l6.76585,-3.91972h11.67818v0.70899h-11.49585z" fill="#29235c" stroke="none" stroke-width="0" stroke-linecap="butt" stroke-linejoin="miter"/><path d="M278.58196,112.20491h-9.87528v-0.70899h9.63219l5.17568,-4.2641v-3.74756h0.70899v4.09191z" fill="#e71d73" stroke="none" stroke-width="0" stroke-linecap="butt" stroke-linejoin="miter"/><path d="M301.03686,103.48426c0,-0.64823 0.52669,-1.18503 1.18503,-1.18503c0.65834,0 1.18503,0.52669 1.18503,1.18503c0,0.65834 -0.52669,1.18503 -1.18503,1.18503c-0.65834,0 -1.18503,-0.52669 -1.18503,-1.18503" fill="#29235c" stroke="none" stroke-width="0" stroke-linecap="butt" stroke-linejoin="miter"/><path d="M289.44983,103.48426c0,-0.64823 0.52669,-1.18503 1.18503,-1.18503c0.65834,0 1.18503,0.52669 1.18503,1.18503c0,0.65834 -0.52669,1.18503 -1.18503,1.18503c-0.65834,0 -1.18503,-0.52669 -1.18503,-1.18503" fill="#29235c" stroke="none" stroke-width="0" stroke-linecap="butt" stroke-linejoin="miter"/><path d="M277.27539,103.48426c0,-0.64823 0.52669,-1.18503 1.18503,-1.18503c0.65834,0 1.18503,0.52669 1.18503,1.18503c0,0.65834 -0.52669,1.18503 -1.18503,1.18503c-0.65834,0 -1.18503,-0.52669 -1.18503,-1.18503" fill="#29235c" stroke="none" stroke-width="0" stroke-linecap="butt" stroke-linejoin="miter"/><path d="M282.68398,107.40402c0,-0.64823 0.52669,-1.18503 1.18503,-1.18503c0.65834,0 1.18503,0.52669 1.18503,1.18503c0,0.65834 -0.52669,1.18503 -1.18503,1.18503c-0.65834,0 -1.18503,-0.52669 -1.18503,-1.18503" fill="#29235c" stroke="none" stroke-width="0" stroke-linecap="butt" stroke-linejoin="miter"/><path d="M283.23096,107.40402c0,-0.35449 0.2836,-0.63809 0.63809,-0.63809c0.35449,0 0.63809,0.2836 0.63809,0.63809c0,0.35449 -0.2836,0.63809 -0.63809,0.63809c-0.35449,0 -0.63809,-0.2836 -0.63809,-0.63809" fill="#ffffff" stroke="none" stroke-width="0" stroke-linecap="butt" stroke-linejoin="miter"/><path d="M267.8255,111.85042c0,-0.64823 0.52669,-1.18503 1.18503,-1.18503c0.65834,0 1.18503,0.52669 1.18503,1.18503c0,0.65834 -0.52669,1.18503 -1.18503,1.18503c-0.65834,0 -1.18503,-0.52669 -1.18503,-1.18503" fill="#e71d73" stroke="none" stroke-width="0" stroke-linecap="butt" stroke-linejoin="miter"/><path d="M277.27539,111.85042c0,-0.64823 0.52669,-1.18503 1.18503,-1.18503c0.65834,0 1.18503,0.52669 1.18503,1.18503c0,0.65834 -0.52669,1.18503 -1.18503,1.18503c-0.65834,0 -1.18503,-0.52669 -1.18503,-1.18503" fill="#e71d73" stroke="none" stroke-width="0" stroke-linecap="butt" stroke-linejoin="miter"/><path d="M282.68398,103.48426c0,-0.64823 0.52669,-1.18503 1.18503,-1.18503c0.65834,0 1.18503,0.52669 1.18503,1.18503c0,0.65834 -0.52669,1.18503 -1.18503,1.18503c-0.65834,0 -1.18503,-0.52669 -1.18503,-1.18503" fill="#e71d73" stroke="none" stroke-width="0" stroke-linecap="butt" stroke-linejoin="miter"/><path d="M295.41554,107.40402c0,-0.64823 0.52669,-1.18503 1.18503,-1.18503c0.65834,0 1.18503,0.52669 1.18503,1.18503c0,0.65834 -0.52669,1.18503 -1.18503,1.18503c-0.65834,0 -1.18503,-0.52669 -1.18503,-1.18503" fill="#3aaa35" stroke="none" stroke-width="0" stroke-linecap="butt" stroke-linejoin="miter"/><path d="M287.15067,111.85042c0,-0.64823 0.52669,-1.18503 1.18503,-1.18503c0.65834,0 1.18503,0.52669 1.18503,1.18503c0,0.65834 -0.52669,1.18503 -1.18503,1.18503c-0.65834,0 -1.18503,-0.52669 -1.18503,-1.18503" fill="#3aaa35" stroke="none" stroke-width="0" stroke-linecap="butt" stroke-linejoin="miter"/><path d="M295.41554,111.85042c0,-0.64823 0.52669,-1.18503 1.18503,-1.18503c0.65834,0 1.18503,0.52669 1.18503,1.18503c0,0.65834 -0.52669,1.18503 -1.18503,1.18503c-0.65834,0 -1.18503,-0.52669 -1.18503,-1.18503" fill="#3aaa35" stroke="none" stroke-width="0" stroke-linecap="butt" stroke-linejoin="miter"/><path d="M301.03686,107.40402c0,-0.64823 0.52669,-1.18503 1.18503,-1.18503c0.65834,0 1.18503,0.52669 1.18503,1.18503c0,0.65834 -0.52669,1.18503 -1.18503,1.18503c-0.65834,0 -1.18503,-0.52669 -1.18503,-1.18503" fill="#3aaa35" stroke="none" stroke-width="0" stroke-linecap="butt" stroke-linejoin="miter"/><path d="M296.59042,107.75851v-0.70899h5.63143v0.70899z" fill="#3aaa35" stroke="none" stroke-width="0" stroke-linecap="butt" stroke-linejoin="miter"/><path d="M228.03059,115.2232v-10.35132h20.06456v10.35132z" fill="#ffffff" stroke="none" stroke-width="0" stroke-linecap="butt" stroke-linejoin="miter"/><path d="M248.09515,115.93222h-20.06456c-0.395,0 -0.70899,-0.31399 -0.70899,-0.70899v-10.35132c0,-0.395 0.31399,-0.70899 0.70899,-0.70899h20.06456c0.395,0 0.70899,0.31399 0.70899,0.70899v10.35132c0,0.395 -0.31399,0.70899 -0.70899,0.70899zM228.73958,114.51421h18.64658v-8.93335h-18.64658z" fill="#29235c" stroke="none" stroke-width="0" stroke-linecap="butt" stroke-linejoin="miter"/><path d="M228.03059,104.66932v-5.07439h20.06456v5.07439z" fill="#29235c" stroke="none" stroke-width="0" stroke-linecap="butt" stroke-linejoin="miter"/><path d="M248.09515,105.37831h-20.06456c-0.395,0 -0.70899,-0.31399 -0.70899,-0.70899v-5.07439c0,-0.395 0.31399,-0.70899 0.70899,-0.70899h20.06456c0.395,0 0.70899,0.31399 0.70899,0.70899v5.07439c0,0.395 -0.31399,0.70899 -0.70899,0.70899zM228.73958,103.9603h18.64658v-3.65638h-18.64658z" fill="#29235c" stroke="none" stroke-width="0" stroke-linecap="butt" stroke-linejoin="miter"/><path d="M239.97208,111.64787c0,1.05337 -0.85079,1.90416 -1.90416,1.90416c-1.05337,0 -1.90416,-0.85079 -1.90416,-1.90416c0,-1.05337 0.85079,-1.90416 1.90416,-1.90416c1.05337,0 1.90416,0.85079 1.90416,1.90416" fill="#3aaa35" stroke="none" stroke-width="0" stroke-linecap="butt" stroke-linejoin="miter"/><path d="M234.1482,111.64787c0,1.05337 -0.85079,1.90416 -1.90416,1.90416c-1.05337,0 -1.90416,-0.85079 -1.90416,-1.90416c0,-1.05337 0.85079,-1.90416 1.90416,-1.90416c1.05337,0 1.90416,0.85079 1.90416,1.90416" fill="#e71d73" stroke="none" stroke-width="0" stroke-linecap="butt" stroke-linejoin="miter"/><path d="M230.03604,102.27898c0,-1.06348 0.86093,-1.92441 1.92441,-1.92441c1.06348,0 1.92441,0.86093 1.92441,1.92441c0,1.06348 -0.86093,1.92441 -1.92441,1.92441c-1.06348,0 -1.92441,-0.86093 -1.92441,-1.92441" fill="#ffffff" stroke="none" stroke-width="0" stroke-linecap="butt" stroke-linejoin="miter"/><path d="M231.96045,104.55789c-1.25593,0 -2.2789,-1.02298 -2.2789,-2.2789c0,-1.25593 1.02298,-2.2789 2.2789,-2.2789c1.25593,0 2.2789,1.02298 2.2789,2.2789c0,1.25593 -1.02298,2.2789 -2.2789,2.2789zM231.96045,100.70907c-0.86093,0 -1.56992,0.70899 -1.56992,1.56992c0,0.86093 0.70899,1.56992 1.56992,1.56992c0.86093,0 1.56992,-0.70899 1.56992,-1.56992c0,-0.86093 -0.70899,-1.56992 -1.56992,-1.56992z" fill="#e71d73" stroke="none" stroke-width="0" stroke-linecap="butt" stroke-linejoin="miter"/><path d="M229.39792,102.62337v-0.68874h5.14528v0.68874z" fill="#e71d73" stroke="none" stroke-width="0" stroke-linecap="butt" stroke-linejoin="miter"/><path d="M229.04342,102.97786v-1.39772h5.85427v1.39772z" fill="#e71d73" stroke="none" stroke-width="0" stroke-linecap="butt" stroke-linejoin="miter"/><path d="M236.79174,101.76244v-0.70899h7.79893v0.70899z" fill="#ffffff" stroke="none" stroke-width="0" stroke-linecap="butt" stroke-linejoin="miter"/><path d="M236.79174,103.51466v-0.70899h3.89947v0.70899z" fill="#ffffff" stroke="none" stroke-width="0" stroke-linecap="butt" stroke-linejoin="miter"/><path d="M239.33399,107.89016v-0.70899h6.08722v0.70899z" fill="#29235c" stroke="none" stroke-width="0" stroke-linecap="butt" stroke-linejoin="miter"/><path d="M238.3009,107.89016h-1.49902v-0.70899h1.49902zM236.17391,107.89016h-1.49902v-0.70899h1.49902zM234.04691,107.89016h-1.49902v-0.70899h1.49902zM231.91995,107.89016h-1.49902v-0.70899h1.49902z" fill="#29235c" stroke="none" stroke-width="0" stroke-linecap="butt" stroke-linejoin="miter"/><path d="M244.65147,108.82199l-0.50643,-0.50643l0.77989,-0.77989l-0.77989,-0.76978l0.50643,-0.50643l1.26607,1.27618z" fill="#29235c" stroke="none" stroke-width="0" stroke-linecap="butt" stroke-linejoin="miter"/><path d="M76.51826,152.70881v-71.82125h2.84609v71.82125z" fill="#29235c" stroke="none" stroke-width="0" stroke-linecap="butt" stroke-linejoin="miter"/><path d="M345.57188,163.97171h-322.64354c-0.79003,0 -1.41798,-0.63809 -1.41798,-1.41798c0,-0.77989 0.63809,-1.41798 1.41798,-1.41798h322.64354c0.79003,0 1.42812,0.63809 1.42812,1.41798c0,0.77989 -0.63809,1.41798 -1.42812,1.41798z" fill="#29235c" stroke="none" stroke-width="0" stroke-linecap="butt" stroke-linejoin="miter"/><path d="M345.57188,155.64609h-322.64354c-0.79003,0 -1.41798,-0.63809 -1.41798,-1.41798c0,-0.77989 0.63809,-1.41798 1.41798,-1.41798h322.64354c0.79003,0 1.42812,0.63809 1.42812,1.41798c0,0.77989 -0.63809,1.41798 -1.42812,1.41798z" fill="#29235c" stroke="none" stroke-width="0" stroke-linecap="butt" stroke-linejoin="miter"/><path d="M345.57188,155.50429h-322.64354c-0.79003,0 -1.41798,-0.63809 -1.41798,-1.41798c0,-0.77989 0.63809,-1.41798 1.41798,-1.41798h322.64354c0.79003,0 1.42812,0.63809 1.42812,1.41798c0,0.77989 -0.63809,1.41798 -1.42812,1.41798z" fill="#29235c" stroke="none" stroke-width="0" stroke-linecap="butt" stroke-linejoin="miter"/><path d="M67.94955,154.08628c-5.80363,0 -9.76388,0.52669 -16.12459,0.52669h-17.60335v-46.18598c0,-9.10554 7.01905,-16.90447 16.11445,-17.34001c7.83947,-0.37475 15.65866,4.31475 16.89433,11.55664c2.15736,12.68087 0.72924,51.44266 0.72924,51.44266z" fill="#29235c" stroke="none" stroke-width="0" stroke-linecap="butt" stroke-linejoin="miter"/><path d="M345.54152,82.10299h-322.64354c-0.79003,0 -1.41798,-0.63809 -1.41798,-1.41798c0,-0.77989 0.62798,-1.41798 1.41798,-1.41798h322.64354c0.79003,0 1.42812,0.63809 1.42812,1.41798c0,0.77989 -0.63809,1.41798 -1.42812,1.41798z" fill="#29235c" stroke="none" stroke-width="0" stroke-linecap="butt" stroke-linejoin="miter"/><path d="M135.69406,208.96588h8.37627M237.7894,208.93552v-7.49509c0,-2.06621 -1.68132,-3.74756 -3.74756,-3.74756c-2.06621,0 -3.74756,1.67121 -3.74756,3.74756v4.52745c0,1.64081 -1.31672,2.98793 -2.96764,3.01829h-11.43509c-1.65096,0 -2.99803,-1.33697 -3.00818,-2.99803v-5.83402M212.87326,196.08241v1.58006M176.90695,203.37495c2.03581,0 3.69691,1.26607 3.69691,2.82584c0,1.55977 -1.65096,2.82584 -3.69691,2.82584c-2.04596,0 -3.69691,-1.26607 -3.69691,-2.82584M180.60386,200.54911c0,-1.55977 -1.65096,-2.82584 -3.69691,-2.82584c-2.04596,0 -3.69691,1.26607 -3.69691,2.82584c0,1.55977 1.65096,2.82584 3.69691,2.82584M206.22896,197.72323v8.25472c0,1.66107 -1.33697,3.00818 -2.99803,3.00818c-1.66107,0 -3.00818,-1.33697 -3.02843,-2.99803v-2.64354M209.97652,197.71312h-7.49509M200.20253,203.33444v-1.87376c0,-2.06621 -1.67121,-3.74756 -3.74756,-3.74756c-2.07635,0 -3.74756,1.67121 -3.73742,3.74756v4.5072c0,1.66107 -1.34708,3.01829 -3.00818,3.01829v0c-1.66107,0 -3.00818,-1.33697 -3.00818,-2.99803l-0.02025,-8.27497M176.91709,197.71312h13.52155M200.20253,203.37495h-7.30264M137.52732,203.31419h-3.23098M135.9878,208.96588c-0.93183,0 -1.69146,-0.75963 -1.69146,-1.69146v-5.11489M141.67999,197.65233h-5.69222c-0.93183,0 -1.69146,0.75963 -1.69146,1.69146v5.11489M157.59188,208.96588v-11.25276M161.34955,197.71312h-9.77402M144.08047,208.96588l7.49509,-11.25276M122.10161,208.96588v-7.49509c0,-2.06621 1.68132,-3.74756 3.74756,-3.74756c2.06621,0 3.74756,1.68132 3.74756,3.74756v4.5072c0,1.65096 1.33697,2.98793 2.98793,2.98793h5.45927M151.56542,208.96588l-7.49509,-11.25276" fill="none" stroke="#ffffff" stroke-width="1.51" stroke-linecap="round" stroke-linejoin="round"/><path d="M216.43852,203.34455c0,-3.11958 2.522,-5.64158 5.64158,-5.64158c3.11958,0 5.64158,2.53214 5.64158,5.64158c0,3.10944 -2.53214,5.64158 -5.64158,5.64158c-3.10944,0 -5.64158,-2.53214 -5.64158,-5.64158" fill="#ffffff" stroke="none" stroke-width="0" stroke-linecap="butt" stroke-linejoin="miter"/><path d="M216.87261,205.50866c-1.19236,-2.87858 0.17463,-6.17871 3.0532,-7.37107c2.87858,-1.19236 6.17871,0.17463 7.37107,3.0532c1.19236,2.87858 -0.17463,6.17871 -3.0532,7.37107c-2.87858,1.19236 -6.17871,-0.17463 -7.37107,-3.0532z" fill="none" stroke="#e71d73" stroke-width="1.51" stroke-linecap="round" stroke-linejoin="round"/><path d="M219.63911,203.34455c0,-1.34708 1.09388,-2.44095 2.44095,-2.44095c1.34708,0 2.44095,1.09388 2.44095,2.44095c0,1.34708 -1.09388,2.44095 -2.44095,2.44095c-1.34708,0 -2.44095,-1.09388 -2.44095,-2.44095" fill="#e71d73" stroke="none" stroke-width="0" stroke-linecap="butt" stroke-linejoin="miter"/><path d="M216.24607,193.25657l2.22826,2.2384M225.69596,195.48483l2.22826,-2.2384M222.06995,194.03646v-3.14998" fill="none" stroke="#e71d73" stroke-width="1.51" stroke-linecap="round" stroke-linejoin="round"/><path d="M61.80661,208.96588h60.28486" fill="none" stroke="#ffffff" stroke-width="1.51" stroke-linecap="round" stroke-linejoin="round"/><path d="M237.80965,208.96588h60.28486" fill="none" stroke="#ffffff" stroke-width="1.51" stroke-linecap="round" stroke-linejoin="round"/></g><g><path d="M73.87399,591.73628c0,-33.00003 28.39277,-59.76015 63.41687,-59.76015c23.14811,0 43.38872,11.69707 54.45956,29.1532c3.41071,5.39004 10.22096,7.82787 16.61744,6.07219c3.2206,-0.88344 6.63132,-1.3531 10.16504,-1.3531c0.48086,0 0.95053,0 1.43138,0.02236c19.12235,0.69332 34.02883,15.94648 34.02883,33.97293v8.387h-180.11913v-15.92411h0.01119c0,-0.1901 -0.01119,-0.38021 -0.01119,-0.5815" fill="#83d0f5" stroke="none" stroke-width="0" stroke-linecap="butt" stroke-linejoin="miter"/><path d="M78.67135,604.02602v0v4.20468h-44.87602v-4.20468c0.93934,-4.01457 4.54016,-7.00034 8.8343,-7.00034c1.97933,0 3.81328,0.63741 5.30058,1.71094c2.12471,-6.20638 8.00678,-10.66825 14.94004,-10.66825c8.72248,0 15.8011,7.07863 15.8011,15.8011c0,0.05592 0,0.15656 0,0.15656z" fill="none" stroke="#29235c" stroke-width="2.24" stroke-linecap="butt" stroke-linejoin="round"/><path d="M310.84577,599.83252v9.56118" fill="none" stroke="#29235c" stroke-width="2.05" stroke-linecap="butt" stroke-linejoin="miter"/><path d="M326.80342,583.87487c0,8.81193 -7.14573,15.95766 -15.95766,15.95766c-8.81194,0 -15.95766,-7.14573 -15.95766,-15.95766c0,-8.81193 15.95766,-52.51378 15.95766,-52.51378c0,0 15.95766,43.70184 15.95766,52.51378" fill="#693086" stroke="none" stroke-width="0" stroke-linecap="butt" stroke-linejoin="miter"/><path d="M310.84577,599.83252c-8.81194,0 -15.95766,-7.14573 -15.95766,-15.95766c0,-8.81193 15.95766,-52.51378 15.95766,-52.51378c0,0 15.95766,43.70184 15.95766,52.51378c0,8.81193 -7.14573,15.95766 -15.95766,15.95766z" fill="none" stroke="#29235c" stroke-width="2.05" stroke-linecap="butt" stroke-linejoin="miter"/><path d="M95.16578,568.85656c0,-1.25246 1.01763,-2.27008 2.27008,-2.27008c1.25245,0 2.27008,1.01762 2.27008,2.27008c0,1.25246 -1.01762,2.27007 -2.27008,2.27007c-1.25245,0 -2.27008,-1.01762 -2.27008,-2.27007" fill="#29235c" stroke="none" stroke-width="0" stroke-linecap="butt" stroke-linejoin="miter"/><path d="M97.43586,573.95585v0c3.07523,0 5.55778,2.49373 5.55778,5.55777v8.55474h-11.12675v-8.55474c0,-3.07523 2.49374,-5.55777 5.55778,-5.55777" fill="#009fe3" stroke="none" stroke-width="0" stroke-linecap="butt" stroke-linejoin="miter"/><path d="M97.43586,573.95585v0c3.07523,0 5.55778,2.49373 5.55778,5.55777v8.55474h-11.12675v-8.55474c0,-3.07523 2.49374,-5.55777 5.55778,-5.55777z" fill="none" stroke="#29235c" stroke-width="2.24" stroke-linecap="butt" stroke-linejoin="miter"/><path d="M95.16578,607.52619v-19.45783" fill="none" stroke="#29235c" stroke-width="2.24" stroke-linecap="butt" stroke-linejoin="miter"/><path d="M99.70594,588.06836l0.29075,0.3243c3.27652,3.6791 3.44426,9.16978 0.39139,13.03898" fill="none" stroke="#29235c" stroke-width="2.24" stroke-linecap="butt" stroke-linejoin="miter"/><path d="M81.64594,593.67088v-5.60252h6.95562v5.60252z" fill="#693086" stroke="none" stroke-width="0" stroke-linecap="butt" stroke-linejoin="miter"/><path d="M81.64594,593.67088v-5.60252h6.95562v5.60252z" fill="none" stroke="#29235c" stroke-width="2.05" stroke-linecap="butt" stroke-linejoin="miter"/><path d="M85.11256,588.06836v-3.69028l7.38055,-7.38056" fill="none" stroke="#29235c" stroke-width="2.24" stroke-linecap="butt" stroke-linejoin="round"/><path d="M110.37419,567.48109v17.19894h-1.36429c-3.32125,0 -6.01628,-2.03525 -6.01628,-5.3565" fill="none" stroke="#29235c" stroke-width="2.24" stroke-linecap="butt" stroke-linejoin="round"/><path d="M101.75237,567.48109c0,-4.76381 3.85803,-8.62183 8.62184,-8.62183c4.76381,0 8.62183,3.85802 8.62183,8.62183z" fill="#ffed00" stroke="none" stroke-width="0" stroke-linecap="butt" stroke-linejoin="miter"/><path d="M101.75237,567.48109c0,-4.76381 3.85803,-8.62183 8.62184,-8.62183c4.76381,0 8.62183,3.85802 8.62183,8.62183z" fill="none" stroke="#29235c" stroke-width="2.24" stroke-linecap="butt" stroke-linejoin="miter"/><path d="M115.51822,583.55057c0,-1.25246 1.01762,-2.27008 2.27007,-2.27008c1.25245,0 2.27008,1.01762 2.27008,2.27008c0,1.25246 -1.01763,2.27008 -2.27008,2.27008c-1.25245,0 -2.27007,-1.01762 -2.27007,-2.27008" fill="#29235c" stroke="none" stroke-width="0" stroke-linecap="butt" stroke-linejoin="miter"/><path d="M117.62056,588.70578v0c2.05761,0 3.73501,1.66622 3.73501,3.73501v5.7367h-7.45884v-5.7367c0,-2.05761 1.66622,-3.73501 3.73501,-3.73501" fill="#e71d73" stroke="none" stroke-width="0" stroke-linecap="butt" stroke-linejoin="miter"/><path d="M117.62056,588.70578v0c2.05761,0 3.73501,1.66622 3.73501,3.73501v5.7367h-7.45884v-5.7367c0,-2.05761 1.66622,-3.73501 3.73501,-3.73501z" fill="none" stroke="#29235c" stroke-width="2.05" stroke-linecap="butt" stroke-linejoin="miter"/><path d="M116.09972,598.1775v2.1918c0,1.92342 -0.9058,3.73501 -2.44901,4.89801l-2.37072,1.77804" fill="none" stroke="#29235c" stroke-width="2.24" stroke-linecap="butt" stroke-linejoin="miter"/><path d="M119.15259,598.1775l5.42359,8.86785" fill="none" stroke="#29235c" stroke-width="2.24" stroke-linecap="butt" stroke-linejoin="miter"/><path d="M110.37419,589.3991v9.95257" fill="none" stroke="#29235c" stroke-width="2.24" stroke-linecap="butt" stroke-linejoin="miter"/><path d="M161.18821,568.49871c0,1.28601 -1.03999,2.32599 -2.326,2.32599c-1.286,0 -2.326,-1.03999 -2.326,-2.32599c0,-1.28601 1.03999,-2.32599 2.326,-2.32599c1.286,0 2.326,1.03999 2.326,2.32599" fill="#29235c" stroke="none" stroke-width="0" stroke-linecap="butt" stroke-linejoin="miter"/><path d="M158.83984,573.72101c1.87869,0 3.38835,1.52084 3.38835,3.38835l-1.71094,5.79262h-3.34362l-1.71094,-5.79262c0,-1.8675 1.52084,-3.38835 3.38835,-3.38835v0" fill="#ffffff" stroke="none" stroke-width="0" stroke-linecap="butt" stroke-linejoin="miter"/><path d="M158.83984,573.72101c1.87869,0 3.38835,1.52084 3.38835,3.38835l-1.71094,5.79262h-3.34362l-1.71094,-5.79262c0,-1.8675 1.52084,-3.38835 3.38835,-3.38835v0z" fill="none" stroke="#29235c" stroke-width="2.24" stroke-linecap="butt" stroke-linejoin="miter"/><path d="M159.73446,590.59565l0.29075,0.33548c3.32125,3.72382 3.48899,9.29279 0.3914,13.20672" fill="none" stroke="#29235c" stroke-width="2.24" stroke-linecap="butt" stroke-linejoin="miter"/><path d="M158.87339,588.19137l-3.39954,19.40192" fill="none" stroke="#29235c" stroke-width="2.24" stroke-linecap="butt" stroke-linejoin="miter"/><path d="M163.10044,592.54144h-8.48764l2.57201,-9.63946h3.34362z" fill="#3aaa35" stroke="none" stroke-width="0" stroke-linecap="butt" stroke-linejoin="miter"/><path d="M163.10044,592.54144h-8.48764l2.57201,-9.63946h3.34362z" fill="none" stroke="#29235c" stroke-width="2.24" stroke-linecap="butt" stroke-linejoin="miter"/><path d="M164.58774,569.03548l2.09116,4.5737c0,0 0.02237,0.05592 0.03356,0.07829l1.01762,2.22534c0.41376,0.9058 -0.38021,1.90105 -1.3531,1.71095l-4.66317,-2.40427" fill="none" stroke="#29235c" stroke-width="2.24" stroke-linecap="butt" stroke-linejoin="round"/><path d="M163.35765,571.40621c-0.22366,0.02236 -0.41376,-0.13419 -0.43613,-0.35785l-0.36903,-4.08167c-0.02236,-0.22365 0.13419,-0.41375 0.35784,-0.43612l1.78923,-0.16774c0.22366,-0.02236 0.41376,0.13419 0.43613,0.35784l0.36903,4.08167c0.02236,0.22365 -0.13419,0.41376 -0.35785,0.43613l-1.78922,0.15656" fill="#ffed00" stroke="none" stroke-width="0" stroke-linecap="butt" stroke-linejoin="miter"/><path d="M162.91631,566.51765l1.78202,-0.16061c0.22276,-0.02008 0.41702,0.14207 0.43708,0.36482l0.36738,4.07633c0.02008,0.22275 -0.14206,0.41701 -0.36481,0.43708l-1.79314,0.16161c-0.22276,0.02008 -0.41702,-0.14207 -0.43709,-0.36482l-0.36738,-4.07633c-0.02008,-0.22275 0.14207,-0.41701 0.36482,-0.43708z" fill="none" stroke="#29235c" stroke-width="1.12" stroke-linecap="butt" stroke-linejoin="miter"/><path d="M153.60637,586.61462c-2.38191,-2.38191 -2.38191,-6.22874 0,-8.61064l1.86751,-1.86751" fill="none" stroke="#29235c" stroke-width="2.24" stroke-linecap="round" stroke-linejoin="miter"/><path d="M145.74495,603.25442l-3.84683,-1.73331c-0.59269,-0.26839 -0.84989,-0.9617 -0.5815,-1.55439l3.47781,-7.6825c0.26839,-0.59267 0.9617,-0.84988 1.55439,-0.5815l3.83566,1.7445l-4.4507,9.81837z" fill="#e71d73" stroke="none" stroke-width="0" stroke-linecap="butt" stroke-linejoin="miter"/><path d="M145.74495,603.25442l-3.84683,-1.73331c-0.59269,-0.26839 -0.84989,-0.9617 -0.5815,-1.55439l3.47781,-7.6825c0.26839,-0.59267 0.9617,-0.84988 1.55439,-0.5815l3.83566,1.7445l-4.4507,9.81837z" fill="none" stroke="#29235c" stroke-width="2.24" stroke-linecap="butt" stroke-linejoin="miter"/><path d="M153.60636,586.61462l-3.64554,7.31346" fill="none" stroke="#29235c" stroke-width="2.24" stroke-linecap="butt" stroke-linejoin="miter"/><path d="M143.48606,605.34558c0.26839,-0.60387 0.9729,-0.86106 1.57676,-0.59269c0.60386,0.26839 0.86106,0.97289 0.59267,1.57675c-0.26839,0.60387 -0.97289,0.86106 -1.57675,0.59269c-0.60386,-0.26839 -0.86107,-0.97289 -0.59269,-1.57675" fill="#29235c" stroke="none" stroke-width="0" stroke-linecap="butt" stroke-linejoin="miter"/><path d="M170.81648,608.23071c0,-6.35176 5.14403,-11.49577 11.49578,-11.49577c6.35176,0 11.49578,5.14403 11.49578,11.49577z" fill="#693086" stroke="none" stroke-width="0" stroke-linecap="butt" stroke-linejoin="miter"/><path d="M170.81648,608.23071c0,-6.35176 5.14403,-11.49577 11.49578,-11.49577c6.35176,0 11.49578,5.14403 11.49578,11.49577z" fill="none" stroke="#29235c" stroke-width="2.24" stroke-linecap="butt" stroke-linejoin="miter"/><path d="M212.02459,600.2351v6.58659" fill="none" stroke="#29235c" stroke-width="2.3" stroke-linecap="butt" stroke-linejoin="miter"/><path d="M223.97886,588.28084c0,6.59776 -5.3565,11.95426 -11.95427,11.95426c-6.59777,0 -11.95426,-5.3453 -11.95426,-11.95426c0,-6.60896 11.95426,-39.35179 11.95426,-39.35179c0,0 11.95427,32.75402 11.95427,39.35179" fill="#3aaa35" stroke="none" stroke-width="0" stroke-linecap="butt" stroke-linejoin="miter"/><path d="M212.02459,600.2351c-6.59777,0 -11.95426,-5.3453 -11.95426,-11.95426c0,-6.60896 11.95426,-39.35179 11.95426,-39.35179c0,0 11.95427,32.75402 11.95427,39.35179c0,6.59776 -5.3565,11.95426 -11.95427,11.95426z" fill="none" stroke="#29235c" stroke-width="2.24" stroke-linecap="butt" stroke-linejoin="round"/><path d="M186.80769,608.20835v-39.54189h18.76451v39.54189z" fill="#e71d73" stroke="none" stroke-width="0" stroke-linecap="butt" stroke-linejoin="miter"/><path d="M186.80769,608.19716v-39.53071h18.76451v39.53071z" fill="none" stroke="#29235c" stroke-width="2.24" stroke-linecap="butt" stroke-linejoin="miter"/><path d="M194.55727,608.20835v-39.54189h18.7645v39.54189z" fill="#e71d73" stroke="none" stroke-width="0" stroke-linecap="butt" stroke-linejoin="miter"/><path d="M194.55727,608.19716v-39.53071h18.7645v39.53071z" fill="none" stroke="#29235c" stroke-width="2.24" stroke-linecap="butt" stroke-linejoin="miter"/><path d="M188.00423,564.66305l0.24602,-0.06709c2.59438,-0.71569 5.26703,-1.07354 7.93969,-1.07354h7.89496v1.06235c0.10064,0.03355 0.20129,0.04473 0.30194,0.07828c0.70451,0.20129 1.18536,0.83869 1.18536,1.56557v2.5161h-18.76451v-2.50492c0,-0.73806 0.49204,-1.37547 1.19655,-1.57676" fill="#e71d73" stroke="none" stroke-width="0" stroke-linecap="butt" stroke-linejoin="miter"/><path d="M188.00423,564.66305l0.24602,-0.06709c2.59438,-0.71569 5.26703,-1.07354 7.93969,-1.07354h7.89496v1.06235c0.10064,0.03355 0.20129,0.04473 0.30194,0.07828c0.70451,0.20129 1.18536,0.83869 1.18536,1.56557v2.5161h-18.76451v-2.50492c0,-0.73806 0.49204,-1.37547 1.19655,-1.57676z" fill="none" stroke="#29235c" stroke-width="2.24" stroke-linecap="butt" stroke-linejoin="miter"/><path d="M194.55727,568.73355v-2.50492c0,-0.72688 0.49203,-1.37547 1.19654,-1.56557l0.24602,-0.06709c5.28939,-1.45375 10.86955,-1.43139 16.13658,0.06709c0.70451,0.20129 1.18536,0.83869 1.18536,1.56557v2.5161h-18.7645z" fill="#e71d73" stroke="none" stroke-width="0" stroke-linecap="butt" stroke-linejoin="miter"/><path d="M194.55727,568.73355v-2.50492c0,-0.72688 0.49203,-1.37547 1.19654,-1.56557l0.24602,-0.06709c5.28939,-1.45375 10.86955,-1.43139 16.13658,0.06709c0.70451,0.20129 1.18536,0.83869 1.18536,1.56557v2.5161h-18.7645z" fill="none" stroke="#29235c" stroke-width="2.24" stroke-linecap="butt" stroke-linejoin="miter"/><path d="M198.40411,601.86777v-28.45987h11.3504v28.45987z" fill="#ffffff" stroke="none" stroke-width="0" stroke-linecap="butt" stroke-linejoin="miter"/><path d="M198.40411,601.86777v-28.45987h11.3504v28.45987z" fill="none" stroke="#29235c" stroke-width="1.15" stroke-linecap="butt" stroke-linejoin="round"/><path d="M198.40411,577.53431h11.3504" fill="none" stroke="#29235c" stroke-width="0.77" stroke-linecap="butt" stroke-linejoin="round"/><path d="M209.75451,581.57124h-11.3504" fill="none" stroke="#29235c" stroke-width="0.77" stroke-linecap="butt" stroke-linejoin="round"/><path d="M209.75451,581.57124h-11.3504" fill="none" stroke="#29235c" stroke-width="0.77" stroke-linecap="butt" stroke-linejoin="round"/><path d="M209.75451,585.61937h-11.3504" fill="none" stroke="#29235c" stroke-width="0.77" stroke-linecap="butt" stroke-linejoin="round"/><path d="M209.75451,585.61937h-11.3504" fill="none" stroke="#29235c" stroke-width="0.77" stroke-linecap="butt" stroke-linejoin="round"/><path d="M198.40411,589.65631h11.3504" fill="none" stroke="#29235c" stroke-width="0.77" stroke-linecap="butt" stroke-linejoin="round"/><path d="M198.40411,589.65631h11.3504" fill="none" stroke="#29235c" stroke-width="0.77" stroke-linecap="butt" stroke-linejoin="round"/><path d="M198.40411,593.70443h11.3504" fill="none" stroke="#29235c" stroke-width="0.77" stroke-linecap="butt" stroke-linejoin="round"/><path d="M198.40411,593.70443h11.3504" fill="none" stroke="#29235c" stroke-width="0.77" stroke-linecap="butt" stroke-linejoin="round"/><path d="M198.40411,597.74137h11.3504" fill="none" stroke="#29235c" stroke-width="0.77" stroke-linecap="butt" stroke-linejoin="round"/><path d="M202.2733,573.64273v28.84008" fill="none" stroke="#29235c" stroke-width="0.77" stroke-linecap="butt" stroke-linejoin="round"/><path d="M205.88531,573.64273v28.84008" fill="none" stroke="#29235c" stroke-width="0.77" stroke-linecap="butt" stroke-linejoin="round"/><path d="M221.41803,608.0406v-12.23384h36.55612v12.23384" fill="none" stroke="#29235c" stroke-width="2.24" stroke-linecap="butt" stroke-linejoin="round"/><path d="M257.97415,595.80677h-36.55612" fill="none" stroke="#29235c" stroke-width="2.24" stroke-linecap="butt" stroke-linejoin="round"/><path d="M239.37738,576.2483c0,1.28601 -1.03999,2.3148 -2.31481,2.3148c-1.27482,0 -2.3148,-1.02881 -2.3148,-2.3148c0,-1.28601 1.03999,-2.3148 2.3148,-2.3148c1.27482,0 2.31481,1.03998 2.31481,2.3148" fill="#29235c" stroke="none" stroke-width="0" stroke-linecap="butt" stroke-linejoin="miter"/><path d="M237.21913,581.42587c3.04168,0 5.51305,2.47137 5.51305,5.52424v8.8343h-11.31686v-8.8343c0,-3.05287 2.46018,-5.52424 5.51305,-5.52424h0.27956" fill="#009fe3" stroke="none" stroke-width="0" stroke-linecap="butt" stroke-linejoin="miter"/><path d="M237.21913,581.42587c3.04168,0 5.51305,2.47137 5.51305,5.52424v8.8343h-11.31686v-8.8343c0,-3.05287 2.46018,-5.52424 5.51305,-5.52424h0.27956z" fill="none" stroke="#29235c" stroke-width="2.24" stroke-linecap="butt" stroke-linejoin="miter"/><path d="M235.84366,595.80677h8.16335c1.94578,0 3.51136,1.57675 3.51136,3.51136v8.87903" fill="none" stroke="#29235c" stroke-width="2.24" stroke-linecap="butt" stroke-linejoin="miter"/><path d="M231.22521,595.80677h8.16335c1.94578,0 3.51136,1.57675 3.51136,3.51136v8.87903" fill="none" stroke="#29235c" stroke-width="2.24" stroke-linecap="butt" stroke-linejoin="miter"/><path d="M237.44278,586.21204h10.08676l-3.84684,9.57236h-10.08675z" fill="#ffffff" stroke="none" stroke-width="0" stroke-linecap="butt" stroke-linejoin="miter"/><path d="M237.44278,586.21204h10.08676l-3.84684,9.57236h-10.08675z" fill="none" stroke="#29235c" stroke-width="2.24" stroke-linecap="butt" stroke-linejoin="miter"/><path d="M235.59764,591.43434h-3.82447c0,0 -0.05592,0 -0.07829,0h-2.42664c-0.99526,0 -1.56557,-1.11826 -0.98407,-1.92342l3.82447,-5.06575" fill="none" stroke="#29235c" stroke-width="2.24" stroke-linecap="butt" stroke-linejoin="round"/><path d="M263.62139,567.58174c0,-1.28601 1.03999,-2.32599 2.32599,-2.32599c1.28601,0 2.32599,1.03999 2.32599,2.32599c0,1.28601 -1.03999,2.32599 -2.32599,2.32599c-1.28601,0 -2.32599,-1.03998 -2.32599,-2.32599" fill="#29235c" stroke="none" stroke-width="0" stroke-linecap="butt" stroke-linejoin="miter"/><path d="M265.94738,572.80404v0c1.8675,0 3.37715,1.50966 3.37715,3.37717l-0.86106,6.64251h-5.04338l-0.86107,-6.64251c0,-1.8675 1.50967,-3.37717 3.37717,-3.37717" fill="#ffed00" stroke="none" stroke-width="0" stroke-linecap="butt" stroke-linejoin="miter"/><path d="M265.94738,572.80404v0c1.8675,0 3.37715,1.50966 3.37715,3.37717l-0.86106,6.64251h-5.04338l-0.86107,-6.64251c0,-1.8675 1.50967,-3.37717 3.37717,-3.37717z" fill="none" stroke="#29235c" stroke-width="2.3" stroke-linecap="butt" stroke-linejoin="miter"/><path d="M264.16934,587.25203v19.92751" fill="none" stroke="#29235c" stroke-width="2.3" stroke-linecap="butt" stroke-linejoin="miter"/><path d="M267.72543,587.25203l-0.03355,19.92751" fill="none" stroke="#29235c" stroke-width="2.3" stroke-linecap="butt" stroke-linejoin="miter"/><path d="M263.43128,582.8237h5.04338l1.71095,8.76721h-8.47646z" fill="#ffed00" stroke="none" stroke-width="0" stroke-linecap="butt" stroke-linejoin="miter"/><path d="M263.43128,582.8237h5.04338l1.71095,8.76721h-8.47646z" fill="none" stroke="#29235c" stroke-width="2.3" stroke-linecap="butt" stroke-linejoin="miter"/><path d="M269.24625,575.44314l3.73501,7.224v4.15995" fill="none" stroke="#29235c" stroke-width="2.3" stroke-linecap="butt" stroke-linejoin="round"/><path d="M263.63257,583.22627l-4.23823,-1.90105c-0.80516,-0.36903 -1.03999,-1.39783 -0.46967,-2.07998l4.51779,-5.32294" fill="none" stroke="#29235c" stroke-width="2.3" stroke-linecap="round" stroke-linejoin="round"/><path d="M271.82944,598.6919c-1.72213,0 -3.11996,-1.39783 -3.11996,-3.11997v-3.69028h8.53237v3.69028c0,1.72213 -1.39783,3.11997 -3.11996,3.11997h-2.28127" fill="#009fe3" stroke="none" stroke-width="0" stroke-linecap="butt" stroke-linejoin="miter"/><path d="M271.82944,598.6919c-1.72213,0 -3.11996,-1.39783 -3.11996,-3.11997v-3.69028h8.53237v3.69028c0,1.72213 -1.39783,3.11997 -3.11996,3.11997h-2.28127z" fill="none" stroke="#29235c" stroke-width="1.53" stroke-linecap="round" stroke-linejoin="miter"/><path d="M276.1907,589.00772v2.77329h-6.41885v-2.77329c0,-1.29718 1.05117,-2.34836 2.34836,-2.34836h1.72213c1.29718,0 2.34836,1.05118 2.34836,2.34836z" fill="none" stroke="#29235c" stroke-width="1.15" stroke-linecap="round" stroke-linejoin="miter"/><path d="M327.85459,608.23071h-292.04639" fill="none" stroke="#29235c" stroke-width="2.12" stroke-linecap="round" stroke-linejoin="round"/><path d="M59.28062,563.23167v45.51344" fill="none" stroke="#29235c" stroke-width="1.97" stroke-linecap="butt" stroke-linejoin="miter"/><path d="M49.62997,561.25234c0,-5.33414 4.31651,-9.65063 9.65064,-9.65063c5.33413,0 9.65063,4.3165 9.65063,9.65063c0,5.33414 -4.31651,9.65064 -9.65063,9.65064c-5.33414,0 -9.65064,-4.31651 -9.65064,-9.65064" fill="#ffffff" stroke="none" stroke-width="0" stroke-linecap="butt" stroke-linejoin="miter"/><path d="M49.62997,561.25234c0,-5.33414 4.31651,-9.65063 9.65064,-9.65063c5.33413,0 9.65063,4.3165 9.65063,9.65063c0,5.33414 -4.31651,9.65064 -9.65063,9.65064c-5.33414,0 -9.65064,-4.31651 -9.65064,-9.65064z" fill="none" stroke="#e71d73" stroke-width="2.9" stroke-linecap="butt" stroke-linejoin="miter"/><path d="M46.39819,562.97448v-3.45544h25.76486v3.45544z" fill="#29235c" stroke="none" stroke-width="0" stroke-linecap="butt" stroke-linejoin="miter"/><path d="M46.39819,562.97448v-3.45544h25.76486v3.45544z" fill="none" stroke="#29235c" stroke-width="2.9" stroke-linecap="butt" stroke-linejoin="miter"/><path d="M78.67135,604.02602v0v4.20468h-44.87602v-4.20468c0.93934,-4.01457 4.54016,-7.00034 8.8343,-7.00034c1.97933,0 3.81328,0.63741 5.30058,1.71094c2.12471,-6.20638 8.00678,-10.66825 14.94004,-10.66825c8.72248,0 15.8011,7.07863 15.8011,15.8011c0,0.05592 0,0.15656 0,0.15656z" fill="#1b7439" stroke="#29235c" stroke-width="2.24" stroke-linecap="butt" stroke-linejoin="round"/><path d="M28.20735,667.42398v-56.92224h303.58531v56.92224z" fill="#29235c" stroke="#29235c" stroke-width="2.12" stroke-linecap="butt" stroke-linejoin="miter"/></g></g></g></svg>