<svg xmlns:xlink="http://www.w3.org/1999/xlink" xmlns="http://www.w3.org/2000/svg" viewBox="0 0 155.91 155.91" data-name="Слой 2" id="_Слой_2">
  <defs>
    <style>
      .cls-1, .cls-2, .cls-3, .cls-4, .cls-5, .cls-6, .cls-7, .cls-8, .cls-9, .cls-10 {
        fill: none;
      }

      .cls-1, .cls-4 {
        stroke-width: 3.01px;
      }

      .cls-1, .cls-4, .cls-7, .cls-8, .cls-10 {
        stroke: #29265b;
      }

      .cls-1, .cls-5, .cls-6, .cls-7, .cls-8 {
        stroke-miterlimit: 10;
      }

      .cls-11 {
        clip-path: url(#clippath);
      }

      .cls-2, .cls-12, .cls-13, .cls-14, .cls-15, .cls-16, .cls-17 {
        stroke-width: 0px;
      }

      .cls-3 {
        stroke: #fff;
        stroke-dasharray: 0 0 0 0 0 0 3.67 1.83 3.67 1.83 3.67 1.83;
        stroke-width: 2.75px;
      }

      .cls-3, .cls-4, .cls-9, .cls-10 {
        stroke-linejoin: round;
      }

      .cls-18 {
        clip-path: url(#clippath-1);
      }

      .cls-5 {
        stroke: #4a4b53;
        stroke-width: 4.01px;
      }

      .cls-6 {
        stroke: #e50c7e;
        stroke-width: 1.17px;
      }

      .cls-7 {
        stroke-width: 1.78px;
      }

      .cls-8, .cls-9, .cls-10 {
        stroke-width: 4.75px;
      }

      .cls-12 {
        fill: #f8f3b3;
      }

      .cls-13 {
        fill: #29265b;
      }

      .cls-14 {
        fill: #3eab37;
      }

      .cls-15 {
        fill: #13b9dd;
      }

      .cls-16 {
        fill: #f39208;
      }

      .cls-17 {
        fill: #fff;
      }

      .cls-9 {
        stroke: #3eab37;
      }
    </style>
    <clipPath id="clippath">
      <rect height="70.74" width="70.74" y="75.3" x="74.77" class="cls-2"/>
    </clipPath>
    <clipPath id="clippath-1">
      <rect height="68.01" width="70.74" y="10.93" x="10.39" class="cls-2"/>
    </clipPath>
  </defs>
  <g data-name="Слой 1" id="_Слой_1-2">
    <g>
      <rect ry="11.42" rx="11.42" height="155.91" width="155.91" class="cls-16"/>
      <rect height="44.59" width="43.54" y="88.39" x="88.37" class="cls-6"/>
      <polyline points="80.46 110.67 45.6 110.67 45.6 68.3" class="cls-3"/>
      <g class="cls-11">
        <polyline points="136.96 90.29 113.04 114.22 113.04 137.73" class="cls-9"/>
        <polyline points="130.61 83.25 103.13 110.73 103.13 137.73" class="cls-10"/>
        <path d="M89.42,78.99h41.44c6.05,0,10.96,4.91,10.96,10.96v41.44c0,6.05-4.91,10.96-10.96,10.96h-41.45c-6.05,0-10.96-4.91-10.96-10.96v-41.44c0-6.05,4.91-10.96,10.96-10.96Z" class="cls-17"/>
        <path d="M89.42,78.99h41.44c6.05,0,10.96,4.91,10.96,10.96v41.44c0,6.05-4.91,10.96-10.96,10.96h-41.45c-6.05,0-10.96-4.91-10.96-10.96v-41.44c0-6.05,4.91-10.96,10.96-10.96Z" class="cls-8"/>
        <path d="M131.91,91.98l-20.56,20.56c-.45.45-.7,1.05-.7,1.68v18.76h4.75v-17.77l16.5-16.5v-6.72Z" class="cls-14"/>
        <path d="M122.11,88.39l-20.66,20.66c-.44.44-.7,1.05-.7,1.68v22.25h4.75v-21.26l23.32-23.32h-6.72Z" class="cls-15"/>
        <path d="M88.37,95.08c0-3.69,2.99-6.69,6.69-6.69s6.69,3,6.69,6.69-3,6.69-6.69,6.69-6.69-3-6.69-6.69" class="cls-15"/>
        <circle transform="translate(-29.15 43.62) rotate(-22.5)" r="6.69" cy="95.08" cx="95.06" class="cls-7"/>
        <polyline points="91.81 94.27 94.58 97.05 98.49 92.12" class="cls-7"/>
        <line y2="103.57" x2="103.13" y1="100.01" x1="99.57" class="cls-7"/>
      </g>
      <g class="cls-18">
        <path d="M15.03,44.61c0-16.89,13.69-30.59,30.59-30.59s30.59,13.69,30.59,30.59-13.69,30.59-30.59,30.59-30.59-13.69-30.59-30.59" class="cls-12"/>
        <path d="M45.62,77.6c-18.19,0-32.99-14.8-32.99-32.98S27.43,11.63,45.62,11.63s32.99,14.79,32.99,32.99-14.8,32.98-32.99,32.98M45.62,16.42c-15.54,0-28.19,12.64-28.19,28.19s12.65,28.19,28.19,28.19,28.19-12.65,28.19-28.19-12.65-28.19-28.19-28.19" class="cls-13"/>
        <path d="M36.79,54.48c-.41,0-.82-.16-1.12-.48-.58-.62-.55-1.6.07-2.18l17.67-16.66c.61-.58,1.59-.55,2.18.07.58.62.55,1.6-.06,2.18l-17.67,16.66c-.3.28-.68.42-1.05.42" class="cls-13"/>
        <path d="M54.46,54.48c-.38,0-.76-.14-1.06-.42l-17.67-16.66c-.62-.58-.65-1.56-.06-2.18.58-.62,1.56-.65,2.18-.07l17.67,16.66c.62.58.65,1.56.07,2.18-.31.32-.71.48-1.12.48" class="cls-13"/>
        <path d="M12.27,26.56c0-7.59,6.16-13.75,13.75-13.75s13.75,6.16,13.75,13.75-6.16,13.75-13.75,13.75-13.75-6.16-13.75-13.75" class="cls-17"/>
        <path d="M26.03,42.11c-8.57,0-15.55-6.97-15.55-15.55s6.98-15.55,15.55-15.55,15.55,6.97,15.55,15.55-6.98,15.55-15.55,15.55M26.03,14.61c-6.59,0-11.96,5.36-11.96,11.96s5.36,11.95,11.96,11.95,11.95-5.36,11.95-11.95-5.36-11.96-11.95-11.96" class="cls-13"/>
        <path d="M51.75,26.56c0-7.59,6.16-13.75,13.75-13.75s13.75,6.16,13.75,13.75-6.16,13.75-13.75,13.75-13.75-6.16-13.75-13.75" class="cls-17"/>
        <path d="M65.51,42.11c-8.57,0-15.55-6.97-15.55-15.55s6.98-15.55,15.55-15.55,15.55,6.97,15.55,15.55-6.98,15.55-15.55,15.55M65.51,14.61c-6.59,0-11.96,5.36-11.96,11.96s5.36,11.95,11.96,11.95,11.95-5.36,11.95-11.95-5.36-11.96-11.95-11.96" class="cls-13"/>
        <path d="M12.27,63.3c0-7.59,6.16-13.75,13.75-13.75s13.75,6.16,13.75,13.75-6.16,13.75-13.75,13.75-13.75-6.16-13.75-13.75" class="cls-17"/>
        <path d="M26.03,78.85c-8.57,0-15.55-6.98-15.55-15.55s6.98-15.55,15.55-15.55,15.55,6.97,15.55,15.55-6.98,15.55-15.55,15.55M26.03,51.34c-6.59,0-11.96,5.36-11.96,11.96s5.36,11.95,11.96,11.95,11.95-5.36,11.95-11.95-5.36-11.96-11.95-11.96" class="cls-13"/>
        <path d="M51.75,63.3c0-7.59,6.16-13.75,13.75-13.75s13.75,6.16,13.75,13.75-6.16,13.75-13.75,13.75-13.75-6.16-13.75-13.75" class="cls-17"/>
        <path d="M65.51,78.85c-8.57,0-15.55-6.98-15.55-15.55s6.98-15.55,15.55-15.55,15.55,6.97,15.55,15.55-6.98,15.55-15.55,15.55M65.51,51.34c-6.59,0-11.96,5.36-11.96,11.96s5.36,11.95,11.96,11.95,11.95-5.36,11.95-11.95-5.36-11.96-11.95-11.96" class="cls-13"/>
        <path d="M26.03,41.19c-8.07,0-14.63-6.56-14.63-14.63s6.56-14.63,14.63-14.63,14.63,6.56,14.63,14.63-6.56,14.63-14.63,14.63" class="cls-17"/>
        <path d="M26.03,12.93c7.51,0,13.63,6.11,13.63,13.63s-6.11,13.63-13.63,13.63-13.63-6.11-13.63-13.63,6.11-13.63,13.63-13.63M26.03,10.93c-8.63,0-15.63,7-15.63,15.63s7,15.63,15.63,15.63,15.63-7,15.63-15.63-7-15.63-15.63-15.63" class="cls-13"/>
        <rect height="14.21" width="14.21" y="19.45" x="18.92" class="cls-17"/>
        <rect height="14.21" width="14.21" y="19.46" x="18.92" class="cls-4"/>
        <path d="M65.5,77.93c-8.07,0-14.63-6.56-14.63-14.63s6.56-14.63,14.63-14.63,14.63,6.56,14.63,14.63-6.56,14.63-14.63,14.63" class="cls-17"/>
        <path d="M65.5,49.67c7.51,0,13.63,6.11,13.63,13.63s-6.11,13.63-13.63,13.63-13.63-6.11-13.63-13.63,6.11-13.63,13.63-13.63M65.5,47.67c-8.64,0-15.63,7-15.63,15.63s7,15.63,15.63,15.63,15.63-7,15.63-15.63-7-15.63-15.63-15.63" class="cls-13"/>
        <path d="M56.98,63.3c0-4.71,3.82-8.53,8.53-8.53s8.52,3.82,8.52,8.53-3.82,8.53-8.52,8.53-8.53-3.82-8.53-8.53" class="cls-17"/>
        <path d="M56.98,63.3c0-4.71,3.82-8.53,8.53-8.53s8.52,3.82,8.52,8.53-3.82,8.53-8.52,8.53-8.53-3.82-8.53-8.53Z" class="cls-1"/>
        <line y2="53.31" x2="22.12" y1="73.2" x1="22.12" class="cls-5"/>
        <line y2="53.31" x2="29.93" y1="73.2" x1="29.93" class="cls-5"/>
        <path d="M26.03,77.93c-8.07,0-14.63-6.56-14.63-14.63s6.56-14.63,14.63-14.63,14.63,6.56,14.63,14.63-6.56,14.63-14.63,14.63" class="cls-17"/>
        <path d="M26.03,49.67c7.51,0,13.63,6.11,13.63,13.63s-6.11,13.63-13.63,13.63-13.63-6.11-13.63-13.63,6.11-13.63,13.63-13.63M26.03,47.67c-8.63,0-15.63,7-15.63,15.63s7,15.63,15.63,15.63,15.63-7,15.63-15.63-7-15.63-15.63-15.63" class="cls-13"/>
        <polygon points="26.03 54.33 17.5 60.53 20.76 70.55 31.3 70.55 34.56 60.53 26.03 54.33" class="cls-17"/>
        <polygon points="26.03 54.33 17.5 60.53 20.76 70.55 31.3 70.55 34.56 60.53 26.03 54.33" class="cls-4"/>
        <path d="M65.5,41.19c-8.07,0-14.63-6.56-14.63-14.63s6.56-14.63,14.63-14.63,14.63,6.56,14.63,14.63-6.57,14.63-14.63,14.63" class="cls-17"/>
        <path d="M65.5,12.93c7.51,0,13.63,6.11,13.63,13.63s-6.11,13.63-13.63,13.63-13.63-6.11-13.63-13.63,6.11-13.63,13.63-13.63M65.5,10.93c-8.63,0-15.63,7-15.63,15.63s7,15.63,15.63,15.63,15.63-7,15.63-15.63-7-15.63-15.63-15.63" class="cls-13"/>
        <polygon points="65.5 17.42 65.5 17.42 74.03 32.04 56.97 32.04 65.5 17.42" class="cls-17"/>
        <polygon points="65.5 17.42 65.5 17.42 74.03 32.04 56.97 32.04 65.5 17.42" class="cls-4"/>
      </g>
    </g>
  </g>
</svg>