<svg version="1.1" xmlns="http://www.w3.org/2000/svg" xmlns:xlink="http://www.w3.org/1999/xlink" width="28.05" height="23.98" viewBox="0,0,28.05,23.98"><defs><clipPath id="clip-1"><path d="M194.025,348.015v13.48l-9.7,10.5h-16.68c-0.92,0 -1.67,-0.75 -1.67,-1.68v-8.62l17.2,-13.68z" fill="none" stroke-width="1"/></clipPath><clipPath id="clip-2"><rect x="-180" y="-360" transform="scale(0.5,0.5)" width="1080" height="2160" fill="none" stroke-width="0.5"/></clipPath></defs><g transform="translate(-165.975,-348.015)"><g clip-path="url(#clip-2)" data-paper-data="{&quot;isPaintingLayer&quot;:true}" fill-rule="nonzero" stroke="none" stroke-linecap="butt" stroke-linejoin="miter" stroke-miterlimit="10" stroke-dasharray="" stroke-dashoffset="0" style="mix-blend-mode: normal"><path d="M186.8,362.435l-58.14,58.14l-0.46,-0.03l-7.48,-6.27l58.89,-59.03z" fill="#62398e" stroke-width="0"/><path d="M181.72,357.355l-58.79,58.78l-2.3,-1.92l58.98,-58.97z" fill="#6b2383" stroke-width="0"/><path d="M193.305,348.195c0.35,-0.18 0.72,0.19 0.54,0.54l-7.05,13.7l-7.19,-7.19z" fill="#ffffff" stroke-width="0"/><path d="M184.085,354.955c-0.84,0.43 -1.02,1.55 -0.35,2.22l3.81,3.81l-0.75,1.45l-7.19,-7.19l13.7,-7.05c0.35,-0.18 0.72,0.19 0.54,0.54l-9.77,6.22" fill="#f3e3c3" stroke-width="0"/><path d="M193.845,348.735l-2.57,5l-2.97,-2.97l5,-2.57c0.35,-0.18 0.72,0.19 0.54,0.54" fill="#62398e" stroke-width="0"/><path d="M193.845,348.735v0l-4.63,2.95l-0.91,-0.91l5,-2.58c0.22,-0.11 0.44,0 0.54,0.17c0.06,0.11 0.07,0.24 0,0.37" fill="#6b2383" stroke-width="0"/></g></g></svg>