<svg version="1.1" xmlns="http://www.w3.org/2000/svg" xmlns:xlink="http://www.w3.org/1999/xlink" width="540" height="1080" viewBox="0,0,540,1080"><defs><clipPath id="clip-1"><rect x="-180" y="-360" transform="scale(0.5,0.5)" width="1080" height="2160" fill="none" stroke="none" stroke-width="0.5" stroke-linejoin="miter"/></clipPath></defs><g transform="translate(90,180)"><g clip-path="url(#clip-1)" data-paper-data="{&quot;isPaintingLayer&quot;:true}" fill-rule="nonzero" stroke-linecap="butt" stroke-miterlimit="10" stroke-dasharray="" stroke-dashoffset="0" style="mix-blend-mode: normal"><path d="M277.765,360v19.15c0,3.84 -3.12,6.96 -6.96,6.96h-190.55c-3.84,0 -6.96,-3.12 -6.96,-6.96v-19.15l8.16,-21c0.83,-3.02 3.58,-5.11 6.71,-5.11h182.57c3.13,0 5.88,2.09 6.71,5.11z" fill="#ffffff" stroke="none" stroke-width="0" stroke-linejoin="miter"/><path d="M277.765,360v19.15c0,3.84 -3.12,6.96 -6.96,6.96h-190.55c-3.84,0 -6.96,-3.12 -6.96,-6.96v-19.15l8.16,-21c0.83,-3.02 3.58,-5.11 6.71,-5.11h182.57c3.13,0 5.88,2.09 6.71,5.11z" fill="none" stroke="#29235c" stroke-width="3.16" stroke-linejoin="miter"/><path d="M200.84501,386.19h-113.22c-3.85,0 -14.33,-3.12 -14.33,-6.96v-19.15l8.16,-21c0.83,-3.02 3.58,-5.11 6.71,-5.11h112.68" fill="none" stroke="#29235c" stroke-width="2.6" stroke-linejoin="miter"/><path d="M78.21501,378.2v-7.44h199.55v7.44z" fill="#009fe3" stroke="none" stroke-width="0" stroke-linejoin="miter"/><path d="M277.77501,360.08v19.15c0,3.84 -3.12,6.96 -6.96,6.96h-114.54" fill="none" stroke="#29235c" stroke-width="2.86" stroke-linejoin="miter"/><path d="M270.81501,379.27l14.34,-0.05c0,3.84 -3.11,6.96 -6.96,6.96h-197.18c-3.84,0 -7.71,-3.11 -7.71,-6.96v-6.91c0,3.84 2.3,6.96 6.14,6.96h191.36z" fill="#29235c" stroke="none" stroke-width="0" stroke-linejoin="miter"/><path d="M270.81501,379.27l14.34,-0.05c0,3.84 -3.11,6.96 -6.96,6.96h-197.18c-3.84,0 -7.71,-3.11 -7.71,-6.96v-6.91c0,3.84 2.3,6.96 6.14,6.96h191.36z" fill="none" stroke="#29235c" stroke-width="2.86" stroke-linejoin="miter"/><path d="M277.765,379.23c0,3.84 -3.12,6.96 -6.96,6.96h-190.55c-3.84,0 -6.96,-3.12 -6.96,-6.96v-19.15l8.16,-21c0.83,-3.02 3.58,-5.11 6.71,-5.11h112.68" fill="none" stroke="#29235c" stroke-width="2.86" stroke-linejoin="miter"/><path d="M78.22501,375.58c0,2.53 2.05,4.57 4.57,4.57h-8.88c-2.52,0 -4.57,-2.05 -4.57,-4.57v-13.21c0,-0.39 0.05,-0.78 0.15,-1.16l4.03,-15.28c1.89,-7.17 8.37,-12.17 15.79,-12.17h13.16h-4.28c-7.41,0 -13.9,5 -15.79,12.17l-4.03,15.28c-0.1,0.38 -0.15,0.77 -0.15,1.16v13.21" fill="#e71d73" stroke="none" stroke-width="0" stroke-linejoin="miter"/><path d="M82.79501,380.15h-8.88c-2.52,0 -4.57,-2.05 -4.57,-4.57v-13.21c0,-0.39 0.05,-0.78 0.15,-1.16l4.03,-15.28c1.89,-7.17 8.37,-12.17 15.79,-12.17h13.16h-4.28c-7.41,0 -13.9,5 -15.79,12.17l-4.03,15.28c-0.1,0.38 -0.15,0.77 -0.15,1.16v13.21c0,2.53 2.05,4.57 4.57,4.57z" fill="none" stroke="#29235c" stroke-width="2.86" stroke-linejoin="miter"/><path d="M148.28501,375.59c0,2.53 2.05,4.57 4.57,4.57h-18.47c-2.53,0 -4.57,-2.05 -4.57,-4.57v-13.21c0,-0.39 0.05,-0.78 0.15,-1.16l4.68,-17.78c1.5,-5.7 6.65,-9.67 12.54,-9.67h19.66l-3.9,0.29c-4.71,1 -8.57,4.57 -9.84,9.37l-4.69,17.78c-0.1,0.38 -0.15,0.77 -0.15,1.16v13.21" fill="#e71d73" stroke="none" stroke-width="0" stroke-linejoin="miter"/><path d="M148.28501,375.59c0,2.53 2.05,4.57 4.57,4.57h-18.47c-2.53,0 -4.57,-2.05 -4.57,-4.57v-13.21c0,-0.39 0.05,-0.78 0.15,-1.16l4.68,-17.78c1.5,-5.7 6.65,-9.67 12.54,-9.67h19.66l-3.9,0.29c-4.71,1 -8.57,4.57 -9.84,9.37l-4.69,17.78c-0.1,0.38 -0.15,0.77 -0.15,1.16v13.21z" fill="none" stroke="#29235c" stroke-width="2.86" stroke-linejoin="miter"/><path d="M147.17501,361.24h-9.86c-0.49,0 -0.78,-0.4 -0.65,-0.9l4.34,-16.18c0.14,-0.5 0.64,-0.9 1.13,-0.9h9.86c0.49,0 0.78,0.41 0.65,0.9l-4.34,16.18c-0.14,0.5 -0.64,0.9 -1.13,0.9" fill="#ffffff" stroke="none" stroke-width="0" stroke-linejoin="miter"/><path d="M147.17501,361.24h-9.86c-0.49,0 -0.74,-0.51 -0.56,-1.13l2.59,-8.78c0.18,-0.63 0.73,-1.14 1.22,-1.14h9.86c0.49,0 0.74,0.51 0.56,1.14l-2.58,8.78c-0.19,0.63 -0.73,1.13 -1.23,1.13" fill="#dadada" stroke="none" stroke-width="0" stroke-linejoin="miter"/><path d="M147.17501,361.24h-9.86c-0.49,0 -0.78,-0.4 -0.65,-0.9l4.34,-16.18c0.14,-0.5 0.64,-0.9 1.13,-0.9h9.86c0.49,0 0.78,0.41 0.65,0.9l-4.34,16.18c-0.14,0.5 -0.64,0.9 -1.13,0.9z" fill="none" stroke="#29235c" stroke-width="2.86" stroke-linejoin="miter"/><path d="M166.74501,375.59c0,2.53 2.05,4.57 4.57,4.57h-18.47c-2.53,0 -4.57,-2.05 -4.57,-4.57v-13.21c0,-0.39 0.05,-0.78 0.15,-1.16l4.68,-17.78c1.5,-5.7 6.65,-9.67 12.54,-9.67h18.33l-2.57,0.29c-4.71,1 -8.57,4.57 -9.84,9.37l-4.69,17.78c-0.1,0.38 -0.15,0.77 -0.15,1.16v13.21" fill="#e71d73" stroke="none" stroke-width="0" stroke-linejoin="miter"/><path d="M166.74501,375.59c0,2.53 2.05,4.57 4.57,4.57h-18.47c-2.53,0 -4.57,-2.05 -4.57,-4.57v-13.21c0,-0.39 0.05,-0.78 0.15,-1.16l4.68,-17.78c1.5,-5.7 6.65,-9.67 12.54,-9.67h18.33l-2.57,0.29c-4.71,1 -8.57,4.57 -9.84,9.37l-4.69,17.78c-0.1,0.38 -0.15,0.77 -0.15,1.16v13.21z" fill="none" stroke="#29235c" stroke-width="2.86" stroke-linejoin="miter"/><path d="M159.31501,361.24h-9.86c-0.49,0 -0.78,-0.4 -0.65,-0.9l4.34,-16.18c0.14,-0.5 0.64,-0.9 1.13,-0.9h9.86c0.49,0 0.78,0.41 0.65,0.9l-4.34,16.18c-0.14,0.5 -0.64,0.9 -1.13,0.9" fill="#ffffff" stroke="none" stroke-width="0" stroke-linejoin="miter"/><path d="M159.31501,361.24h-9.86c-0.49,0 -0.74,-0.51 -0.56,-1.13l2.59,-8.78c0.18,-0.63 0.73,-1.14 1.22,-1.14h9.86c0.49,0 0.74,0.51 0.56,1.14l-2.59,8.78c-0.19,0.63 -0.73,1.13 -1.22,1.13" fill="#dadada" stroke="none" stroke-width="0" stroke-linejoin="miter"/><path d="M159.31501,361.24h-9.86c-0.49,0 -0.78,-0.4 -0.65,-0.9l4.34,-16.18c0.14,-0.5 0.64,-0.9 1.13,-0.9h9.86c0.49,0 0.78,0.41 0.65,0.9l-4.34,16.18c-0.14,0.5 -0.64,0.9 -1.13,0.9z" fill="none" stroke="#29235c" stroke-width="2.86" stroke-linejoin="miter"/><path d="M185.45501,368.7c0,-3.45 2.8,-6.25 6.25,-6.25c3.45,0 6.25,2.8 6.25,6.25c0,3.45 -2.8,6.25 -6.25,6.25c-3.45,0 -6.25,-2.8 -6.25,-6.25" fill="#ffffff" stroke="none" stroke-width="0" stroke-linejoin="miter"/><path d="M185.45501,368.7c0,-3.45 2.8,-6.25 6.25,-6.25c3.45,0 6.25,2.8 6.25,6.25c0,3.45 -2.8,6.25 -6.25,6.25c-3.45,0 -6.25,-2.8 -6.25,-6.25z" fill="none" stroke="#e71d73" stroke-width="2.01" stroke-linejoin="miter"/><path d="M183.36501,369.82v-2.24h16.68v2.24z" fill="#29235c" stroke="none" stroke-width="0" stroke-linejoin="miter"/><path d="M183.36501,369.82v-2.24h16.68v2.24z" fill="none" stroke="#29235c" stroke-width="2.01" stroke-linejoin="miter"/><path d="M212.00501,358.79h-37.7c-0.49,0 -0.78,-0.4 -0.65,-0.9l4.35,-16.18c0.13,-0.5 0.64,-0.9 1.13,-0.9h37.7c0.49,0 0.78,0.41 0.65,0.9l-4.34,16.18c-0.14,0.5 -0.64,0.9 -1.13,0.9" fill="#ffffff" stroke="none" stroke-width="0" stroke-linejoin="miter"/><path d="M212.00501,358.79h-37.7c-0.49,0 -0.78,-0.4 -0.65,-0.9l1.88,-6.99c0.13,-0.5 0.64,-0.9 1.13,-0.9h37.7c0.49,0 0.78,0.4 0.65,0.9l-1.88,6.99c-0.14,0.5 -0.64,0.9 -1.13,0.9" fill="#dadada" stroke="none" stroke-width="0" stroke-linejoin="miter"/><path d="M212.00501,358.79h-37.7c-0.49,0 -0.78,-0.4 -0.65,-0.9l4.35,-16.18c0.13,-0.5 0.64,-0.9 1.13,-0.9h37.7c0.49,0 0.78,0.41 0.65,0.9l-4.34,16.18c-0.14,0.5 -0.64,0.9 -1.13,0.9z" fill="none" stroke="#29235c" stroke-width="2.86" stroke-linejoin="miter"/><path d="M198.16501,340.8l-4.83,17.99" fill="none" stroke="#29235c" stroke-width="2.64" stroke-linejoin="miter"/><path d="M97.73501,368.7c0,-3.45 2.8,-6.25 6.25,-6.25c3.45,0 6.25,2.8 6.25,6.25c0,3.45 -2.8,6.25 -6.25,6.25c-3.45,0 -6.25,-2.8 -6.25,-6.25" fill="#ffffff" stroke="none" stroke-width="0" stroke-linejoin="miter"/><path d="M97.73501,368.7c0,-3.45 2.8,-6.25 6.25,-6.25c3.45,0 6.25,2.8 6.25,6.25c0,3.45 -2.8,6.25 -6.25,6.25c-3.45,0 -6.25,-2.8 -6.25,-6.25z" fill="none" stroke="#e71d73" stroke-width="2.01" stroke-linejoin="miter"/><path d="M95.63501,369.82v-2.24h16.68v2.24z" fill="#29235c" stroke="none" stroke-width="0" stroke-linejoin="miter"/><path d="M95.63501,369.82v-2.24h16.68v2.24z" fill="none" stroke="#29235c" stroke-width="2.01" stroke-linejoin="miter"/><path d="M124.28501,358.79h-37.7c-0.49,0 -0.78,-0.4 -0.65,-0.9l4.35,-16.18c0.13,-0.5 0.64,-0.9 1.13,-0.9h37.7c0.49,0 0.78,0.41 0.65,0.9l-4.34,16.18c-0.14,0.5 -0.64,0.9 -1.13,0.9" fill="#ffffff" stroke="none" stroke-width="0" stroke-linejoin="miter"/><path d="M124.28501,358.79h-37.7c-0.49,0 -0.78,-0.4 -0.65,-0.9l1.88,-6.99c0.13,-0.5 0.64,-0.9 1.13,-0.9h37.7c0.49,0 0.78,0.4 0.65,0.9l-1.88,6.99c-0.14,0.5 -0.64,0.9 -1.13,0.9" fill="#dadada" stroke="none" stroke-width="0" stroke-linejoin="miter"/><path d="M124.28501,358.79h-37.7c-0.49,0 -0.78,-0.4 -0.65,-0.9l4.35,-16.18c0.13,-0.5 0.64,-0.9 1.13,-0.9h37.7c0.49,0 0.78,0.41 0.65,0.9l-4.34,16.18c-0.14,0.5 -0.64,0.9 -1.13,0.9z" fill="none" stroke="#29235c" stroke-width="2.86" stroke-linejoin="miter"/><path d="M110.44501,340.8l-4.83,17.99" fill="none" stroke="#29235c" stroke-width="2.64" stroke-linejoin="miter"/><path d="M239.12501,380.15h-16.56c-2.52,0 -4.57,-2.05 -4.57,-4.57v-13.21c0,-0.39 0.05,-0.78 0.15,-1.16l4.68,-17.78c1.5,-5.7 6.65,-9.67 12.54,-9.67h18.56l-1.29,46.39" fill="#ffffff" stroke="none" stroke-width="0" stroke-linejoin="miter"/><path d="M239.12501,380.15h-16.56c-2.52,0 -4.57,-2.05 -4.57,-4.57v-13.21c0,-0.39 0.05,-0.78 0.15,-1.16l4.68,-17.78c1.5,-5.7 6.65,-9.67 12.54,-9.67h18.56l-1.29,46.39" fill="none" stroke="#29235c" stroke-width="2.86" stroke-linejoin="miter"/><path d="M233.25501,360.96h-9.86c-0.49,0 -0.78,-0.4 -0.65,-0.9l4.34,-16.18c0.14,-0.5 0.64,-0.9 1.13,-0.9h9.86c0.49,0 0.78,0.41 0.65,0.9l-4.34,16.18c-0.14,0.5 -0.64,0.9 -1.13,0.9" fill="#ffffff" stroke="none" stroke-width="0" stroke-linejoin="miter"/><path d="M233.25501,360.96h-9.86c-0.49,0 -0.78,-0.4 -0.65,-0.9l4.34,-16.18c0.14,-0.5 0.64,-0.9 1.13,-0.9h9.86c0.49,0 0.78,0.41 0.65,0.9l-4.34,16.18c-0.14,0.5 -0.64,0.9 -1.13,0.9z" fill="none" stroke="#29235c" stroke-width="0.24" stroke-linejoin="miter"/><path d="M233.25501,360.96h-9.86c-0.49,0 -0.78,-0.39 -0.65,-0.88l2.62,-9.5c0.13,-0.48 0.64,-0.88 1.13,-0.88h9.86c0.49,0 0.78,0.39 0.65,0.88l-2.62,9.5c-0.14,0.49 -0.64,0.88 -1.13,0.88" fill="#dadada" stroke="none" stroke-width="0" stroke-linejoin="miter"/><path d="M233.25501,360.96h-9.86c-0.49,0 -0.78,-0.4 -0.65,-0.9l4.34,-16.18c0.14,-0.5 0.64,-0.9 1.13,-0.9h9.86c0.49,0 0.78,0.41 0.65,0.9l-4.34,16.18c-0.14,0.5 -0.64,0.9 -1.13,0.9z" fill="none" stroke="#29235c" stroke-width="2.86" stroke-linejoin="miter"/><path d="M255.09501,380.15h-16.56c-2.52,0 -4.57,-2.05 -4.57,-4.57v-13.21c0,-0.39 0.05,-0.78 0.15,-1.16l4.02,-15.28c1.89,-7.17 8.37,-12.17 15.79,-12.17h15.34l-14.18,46.39z" fill="#e71d73" stroke="none" stroke-width="0" stroke-linejoin="miter"/><path d="M255.09501,380.15h-16.56c-2.52,0 -4.57,-2.05 -4.57,-4.57v-13.21c0,-0.39 0.05,-0.78 0.15,-1.16l4.02,-15.28c1.89,-7.17 8.37,-12.17 15.79,-12.17h15.34l-14.18,46.39" fill="none" stroke="#29235c" stroke-width="2.86" stroke-linejoin="round"/><path d="M270.695,333.76c7.41,0 13.9,5 15.79,12.17l4.03,15.28c0.1,0.38 0.15,0.77 0.15,1.16v13.21c0,2.53 -2.05,4.57 -4.57,4.57h-35.97c-2.52,0 -4.57,-2.05 -4.57,-4.57v-13.21c0,-0.39 0.05,-0.78 0.15,-1.16l4.03,-15.28c1.89,-7.17 8.37,-12.17 15.79,-12.17h5.17" fill="#e71d73" stroke="none" stroke-width="0" stroke-linejoin="miter"/><path d="M286.48501,345.93l4.03,15.28c0.1,0.38 0.15,0.77 0.15,1.16v13.21c0,2.53 -2.05,4.57 -4.57,4.57h-35.97c-2.52,0 -4.57,-2.05 -4.57,-4.57v-13.21c0,-0.39 0.05,-0.78 0.15,-1.16l4.03,-15.28c1.89,-7.17 8.37,-12.17 15.79,-12.17h5.17c7.41,0 13.9,5 15.79,12.17z" fill="none" stroke="#29235c" stroke-width="2.86" stroke-linejoin="miter"/><path d="M253.52501,369.36c0,-1.49 1.21,-2.7 2.71,-2.7c1.5,0 2.7,1.21 2.7,2.7c0,1.49 -1.21,2.71 -2.7,2.71c-1.49,0 -2.71,-1.21 -2.71,-2.71" fill="#ffed00" stroke="none" stroke-width="0" stroke-linejoin="miter"/><path d="M279.59501,369.36c0,-1.49 1.21,-2.7 2.71,-2.7c1.5,0 2.7,1.21 2.7,2.7c0,1.49 -1.21,2.71 -2.7,2.71c-1.49,0 -2.71,-1.21 -2.71,-2.71" fill="#ffed00" stroke="none" stroke-width="0" stroke-linejoin="miter"/><path d="M286.60501,346.03l2.03,7.69c0.38,1.43 -0.23,2.93 -1.49,3.7l-8.56,5.2c-1.08,0.65 -2.32,1 -3.59,1h-13.79c-1.27,0 -2.51,-0.34 -3.59,-1l-8.56,-5.2c-1.26,-0.77 -1.87,-2.27 -1.49,-3.7l2.03,-7.69c1.9,-7.23 8.44,-12.26 15.91,-12.26h5.21c7.47,0 14.01,5.03 15.91,12.26z" fill="#29235c" stroke="none" stroke-width="0" stroke-linejoin="miter"/><path d="M286.60501,346.03l2.03,7.69c0.38,1.43 -0.23,2.93 -1.49,3.7l-8.56,5.2c-1.08,0.65 -2.32,1 -3.59,1h-13.79c-1.27,0 -2.51,-0.34 -3.59,-1l-8.56,-5.2c-1.26,-0.77 -1.87,-2.27 -1.49,-3.7l2.03,-7.69c1.9,-7.23 8.44,-12.26 15.91,-12.26h5.21c7.47,0 14.01,5.03 15.91,12.26z" fill="none" stroke="#29235c" stroke-width="2.86" stroke-linejoin="miter"/><path d="M287.37501,353.42c0.36,1.34 -0.21,2.76 -1.4,3.48l-0.4,0.24h-7.69l-3.99,-3.22v-0.6h-11.6v0.6l-3.99,3.22h-7.69l-0.4,-0.24c-1.18,-0.72 -1.75,-2.14 -1.4,-3.48l1.91,-7.23c1.5,-5.67 6.03,-9.9 11.58,-11.14v1.17h11.6v-1.17c5.55,1.24 10.09,5.47 11.58,11.14l1.91,7.23" fill="#ffffff" stroke="none" stroke-width="0" stroke-linejoin="miter"/><path d="M287.39501,353.41c0.2,0.76 0.1,1.53 -0.23,2.19c-0.01,0.03 -0.03,0.06 -0.04,0.09c-0.12,0.22 -0.26,0.43 -0.43,0.62c-0.02,0.02 -0.05,0.05 -0.08,0.08c-0.18,0.19 -0.38,0.36 -0.61,0.5l-0.4,0.24h-7.69l-3.99,-3.22v-0.6h-11.6v0.6l-0.14,0.11l-3.86,3.12h-7.69l-0.4,-0.24c-1.18,-0.72 -1.75,-2.14 -1.4,-3.48l1.91,-7.23c1.1,-4.15 3.82,-7.52 7.38,-9.52c-1.61,1.79 -2.82,3.96 -3.47,6.41l-1.78,6.74h9.94v-14.29h3.11v14.28h8.94v-12.88h2.96v12.89h8.62l0.95,3.6" fill="#dadada" stroke="none" stroke-width="0" stroke-linejoin="miter"/><path d="M285.68501,358.46h-8.52l-4.92,-3.97v-19.46c0,-0.88 0.81,-1.52 1.67,-1.33l0.22,0.05c6.1,1.36 10.92,6.01 12.51,12.06l1.86,7.07c0.52,1.98 -0.32,4.07 -2.07,5.13l-0.76,0.46zM278.25501,355.36h6.57c0.57,-0.36 0.85,-1.05 0.68,-1.7l-1.87,-7.09c-1.13,-4.29 -4.23,-7.69 -8.3,-9.24v15.67l2.91,2.35z" fill="#29235c" stroke="none" stroke-width="0" stroke-linejoin="miter"/><path d="M259.05501,358.46h-8.52l-0.76,-0.46c-1.74,-1.06 -2.59,-3.17 -2.07,-5.13l1.87,-7.09c1.6,-6.06 6.39,-10.67 12.51,-12.04l1.89,-0.42v21.17zM251.40501,355.36h6.56l2.91,-2.35v-15.67c-4.07,1.55 -7.17,4.95 -8.3,9.24l-1.87,7.09c-0.17,0.65 0.11,1.34 0.68,1.69z" fill="#29235c" stroke="none" stroke-width="0" stroke-linejoin="miter"/><path d="M275.70501,354.71h-15.19v-19.86h15.19zM263.61501,351.61h8.98v-13.66h-8.98z" fill="#29235c" stroke="none" stroke-width="0" stroke-linejoin="miter"/><path d="M261.46501,380.45v-4.39h15.6v4.39z" fill="#29235c" stroke="none" stroke-width="0" stroke-linejoin="miter"/><path d="M261.46501,380.45v-4.39h15.6v4.39z" fill="none" stroke="#29235c" stroke-width="3.16" stroke-linejoin="round"/><path d="M266.17501,358.99c0,-1.71 1.38,-3.09 3.09,-3.09c1.71,0 3.09,1.38 3.09,3.09c0,1.71 -1.38,3.09 -3.09,3.09c-1.71,0 -3.09,-1.38 -3.09,-3.09" fill="#ffffff" stroke="none" stroke-width="0" stroke-linejoin="miter"/><path d="M266.17501,358.99c0,-1.71 1.38,-3.09 3.09,-3.09c1.71,0 3.09,1.38 3.09,3.09c0,1.71 -1.38,3.09 -3.09,3.09c-1.71,0 -3.09,-1.38 -3.09,-3.09z" fill="none" stroke="#e71d73" stroke-width="1.14" stroke-linejoin="miter"/><path d="M265.14501,359.55v-1.11h8.24v1.11z" fill="#e71d73" stroke="none" stroke-width="0" stroke-linejoin="miter"/><path d="M265.14501,359.55v-1.11h8.24v1.11z" fill="none" stroke="#e71d73" stroke-width="1.14" stroke-linejoin="miter"/><path d="M239.75501,372.7v-3.27h0.94v3.27z" fill="#29235c" stroke="none" stroke-width="0" stroke-linejoin="miter"/><path d="M239.75501,372.7v-3.27h0.94v3.27z" fill="none" stroke="#29235c" stroke-width="3.16" stroke-linejoin="round"/></g></g></svg>