<svg version="1.1" xmlns="http://www.w3.org/2000/svg" xmlns:xlink="http://www.w3.org/1999/xlink" width="73.39" height="72.56" viewBox="0,0,73.39,72.56"><g transform="translate(-117.42278,-349.12227)"><g data-paper-data="{&quot;isPaintingLayer&quot;:true}" fill-rule="nonzero" stroke="none" stroke-width="0" stroke-linecap="butt" stroke-linejoin="miter" stroke-miterlimit="10" stroke-dasharray="" stroke-dashoffset="0" style="mix-blend-mode: normal"><path d="M190.81278,349.12227v23.21c-0.3,0.46 -0.82,0.77 -1.41,0.77h-25.1c-0.93,0 -1.68,-0.75 -1.68,-1.68v-21.46c0,-0.31 0.08,-0.59 0.22,-0.84z" fill="none"/><path d="M183.58278,363.54227l-58.14,58.14l-0.46,-0.03l-7.48,-6.27l58.89,-59.03z" fill="#e72174"/><path d="M178.50278,358.46227l-58.78,58.78l-2.3,-1.92l58.97,-58.97z" fill="#98165e"/><path d="M190.81278,349.12227v13.48l-9.69,10.5h-16.82c-0.93,0 -1.68,-0.75 -1.68,-1.68v-8.51l17.34,-13.79z" fill="none"/><path d="M190.09278,349.30227c0.35,-0.18 0.72,0.19 0.54,0.54l-7.05,13.7l-7.19,-7.19z" fill="#ffffff"/><path d="M180.87278,356.06227c-0.84,0.43 -1.02,1.55 -0.35,2.22l3.81,3.81l-0.75,1.45l-7.19,-7.19l13.7,-7.05c0.35,-0.18 0.72,0.19 0.54,0.54l-9.77,6.22" fill="#f3e3c3"/><path d="M190.63278,349.84227l-2.57,5l-2.97,-2.97l5,-2.57c0.35,-0.18 0.72,0.19 0.54,0.54" fill="#e72174"/><path d="M190.63278,349.84227v0l-4.63,2.95l-0.91,-0.91l5,-2.58c0.22,-0.11 0.44,0 0.54,0.17c0.06,0.11 0.07,0.24 0,0.37" fill="#98165e"/></g></g></svg>