<svg version="1.1" xmlns="http://www.w3.org/2000/svg" xmlns:xlink="http://www.w3.org/1999/xlink" width="193.85654" height="133.2124" viewBox="0,0,193.85654,133.2124"><g transform="translate(-84.39864,-295.21783)"><g data-paper-data="{&quot;isPaintingLayer&quot;:true}" fill-rule="nonzero" stroke-linecap="butt" stroke-linejoin="miter" stroke-miterlimit="10" stroke-dasharray="" stroke-dashoffset="0" style="mix-blend-mode: normal"><path d="M100.8908,425.0651c-6.12394,0 -11.08835,-5.02462 -11.08835,-11.22282v-101.61871c0,-6.1982 4.96442,-11.22282 11.08835,-11.22282h163.52602c6.12394,0 11.08836,5.02462 11.08836,11.22282v101.61871c0,6.1982 -4.96442,11.22282 -11.08836,11.22282z" fill="none" stroke-opacity="0.81569" stroke="#000000" stroke-width="5.5"/><path d="M98.237,422.03218c-6.12393,0 -11.08836,-5.02462 -11.08836,-11.22282v-101.61871c0,-6.1982 4.96442,-11.22282 11.08836,-11.22282h163.52602c6.12393,0 11.08836,5.02462 11.08836,11.22282v101.61871c0,6.1982 -4.96442,11.22282 -11.08836,11.22282z" fill-opacity="0.10588" fill="#ff1919" stroke="#ff0000" stroke-width="5.5"/><path d="M119.72075,428.43023v-36.01591h125.1079v36.01591z" fill-opacity="0.83137" fill="#000000" stroke="#56bbeb" stroke-width="0"/><path d="M117.44607,424.25997v-36.01591h125.1079v36.01591z" fill="#ff0000" stroke="#56bbeb" stroke-width="0"/><text transform="translate(128.40739,413.38935) scale(0.5,0.5)" font-size="40" xml:space="preserve" fill-opacity="0.88627" fill="#000000" fill-rule="nonzero" stroke="none" stroke-width="1" stroke-linecap="butt" stroke-linejoin="miter" stroke-miterlimit="10" stroke-dasharray="" stroke-dashoffset="0" font-family="Sans Serif" font-weight="normal" text-anchor="start" style="mix-blend-mode: normal"><tspan x="0" dy="0">LAST TURN</tspan></text><text transform="translate(127.27004,412.25201) scale(0.5,0.5)" font-size="40" xml:space="preserve" fill-opacity="0.92549" fill="#ffffff" fill-rule="nonzero" stroke="none" stroke-width="1" stroke-linecap="butt" stroke-linejoin="miter" stroke-miterlimit="10" stroke-dasharray="" stroke-dashoffset="0" font-family="Sans Serif" font-weight="normal" text-anchor="start" style="mix-blend-mode: normal"><tspan x="0" dy="0">LAST TURN</tspan></text></g></g></svg>