<svg xmlns="http://www.w3.org/2000/svg" viewBox="0 0 155.74 156.17" data-name="Слой 2" id="_Слой_2">
  <defs>
    <style>
      .cls-1 {
        fill: none;
        stroke: #2c2757;
        stroke-linejoin: round;
        stroke-width: 1.49px;
      }

      .cls-2 {
        fill: #514e55;
      }

      .cls-2, .cls-3, .cls-4, .cls-5, .cls-6, .cls-7 {
        stroke-width: 0px;
      }

      .cls-3 {
        fill: #2c2757;
      }

      .cls-4 {
        fill: #138acb;
      }

      .cls-5 {
        fill: #de0641;
      }

      .cls-6 {
        fill: #fff;
      }

      .cls-7 {
        fill: #ffe90b;
      }
    </style>
  </defs>
  <g data-name="Слой 1" id="_Слой_1-2">
    <g>
      <rect ry="11.47" rx="11.47" height="156.17" width="155.74" x="0" class="cls-7"/>
      <path d="M77.97,67.96v14.73M77.97,84.4v4.04" class="cls-1"/>
      <path d="M61.27,78.08c0-9.24,7.49-16.74,16.74-16.74s16.73,7.49,16.73,16.74-7.49,16.74-16.73,16.74-16.74-7.49-16.74-16.74" class="cls-4"/>
      <path d="M67.75,67.82c-2.62,2.62-4.25,6.25-4.25,10.26s1.62,7.63,4.25,10.26c2.62,2.62,6.25,4.25,10.26,4.25s7.63-1.62,10.26-4.25c2.62-2.62,4.25-6.25,4.25-10.26s-1.62-7.64-4.24-10.26c-2.63-2.62-6.26-4.24-10.26-4.24s-7.63,1.62-10.26,4.25M59.04,78.08c0-5.24,2.12-9.98,5.55-13.41,3.43-3.43,8.17-5.55,13.41-5.55s9.98,2.12,13.41,5.55c3.43,3.44,5.55,8.18,5.55,13.41s-2.12,9.97-5.55,13.4c-3.43,3.44-8.17,5.56-13.41,5.56s-9.98-2.12-13.41-5.55c-3.43-3.43-5.55-8.17-5.55-13.41Z" class="cls-3"/>
      <polygon points="71.45 74.49 76.62 79.66 84.83 69.3 88.32 72.05 77.01 86.33 68.32 77.64 71.45 74.49" class="cls-3"/>
      <path d="M84.81,114.99c0-16.21,13.14-29.34,29.34-29.34s29.34,13.13,29.34,29.34-13.13,29.34-29.34,29.34-29.34-13.13-29.34-29.34" class="cls-5"/>
      <path d="M114.15,146.63c-17.45,0-31.64-14.19-31.64-31.64s14.19-31.64,31.64-31.64,31.64,14.2,31.64,31.64-14.2,31.64-31.64,31.64M114.15,87.95c-14.91,0-27.04,12.13-27.04,27.04s12.13,27.04,27.04,27.04,27.04-12.13,27.04-27.04-12.13-27.04-27.04-27.04Z" class="cls-3"/>
      <path d="M105.67,124.45c-.39,0-.78-.16-1.08-.46-.56-.6-.53-1.53.06-2.09l16.95-15.98c.59-.56,1.53-.53,2.09.06.56.59.53,1.53-.06,2.09l-16.95,15.98c-.29.27-.65.4-1.01.4" class="cls-3"/>
      <path d="M122.62,124.45c-.36,0-.73-.13-1.01-.4l-16.95-15.98c-.59-.56-.62-1.5-.06-2.09.56-.59,1.5-.62,2.09-.06l16.95,15.98c.6.56.62,1.5.06,2.09-.29.31-.69.46-1.08.46" class="cls-3"/>
      <path d="M82.16,97.67c0-7.29,5.91-13.19,13.19-13.19s13.19,5.91,13.19,13.19-5.91,13.19-13.19,13.19-13.19-5.91-13.19-13.19" class="cls-6"/>
      <path d="M95.35,112.59c-8.22,0-14.92-6.69-14.92-14.92s6.7-14.92,14.92-14.92,14.92,6.69,14.92,14.92-6.69,14.92-14.92,14.92M95.35,86.2c-6.32,0-11.47,5.15-11.47,11.47s5.15,11.47,11.47,11.47,11.47-5.14,11.47-11.47-5.15-11.47-11.47-11.47Z" class="cls-3"/>
      <path d="M120.03,97.67c0-7.29,5.91-13.19,13.19-13.19s13.19,5.91,13.19,13.19-5.91,13.19-13.19,13.19-13.19-5.91-13.19-13.19" class="cls-6"/>
      <path d="M133.22,112.59c-8.22,0-14.92-6.69-14.92-14.92s6.7-14.92,14.92-14.92,14.92,6.69,14.92,14.92-6.69,14.92-14.92,14.92M133.22,86.2c-6.32,0-11.47,5.15-11.47,11.47s5.15,11.47,11.47,11.47,11.47-5.14,11.47-11.47-5.15-11.47-11.47-11.47Z" class="cls-3"/>
      <path d="M82.16,132.91c0-7.28,5.91-13.19,13.19-13.19s13.19,5.91,13.19,13.19-5.91,13.19-13.19,13.19-13.19-5.91-13.19-13.19" class="cls-6"/>
      <path d="M95.35,147.83c-8.22,0-14.92-6.69-14.92-14.92s6.7-14.92,14.92-14.92,14.92,6.69,14.92,14.92-6.69,14.92-14.92,14.92M95.35,121.45c-6.32,0-11.47,5.15-11.47,11.47s5.15,11.47,11.47,11.47,11.47-5.14,11.47-11.47-5.15-11.47-11.47-11.47Z" class="cls-3"/>
      <path d="M120.03,132.91c0-7.28,5.91-13.19,13.19-13.19s13.19,5.91,13.19,13.19-5.91,13.19-13.19,13.19-13.19-5.91-13.19-13.19" class="cls-6"/>
      <path d="M133.22,147.83c-8.22,0-14.92-6.69-14.92-14.92s6.7-14.92,14.92-14.92,14.92,6.69,14.92,14.92-6.69,14.92-14.92,14.92M133.22,121.45c-6.32,0-11.47,5.15-11.47,11.47s5.15,11.47,11.47,11.47,11.47-5.14,11.47-11.47-5.15-11.47-11.47-11.47Z" class="cls-3"/>
      <path d="M95.35,111.71c-7.74,0-14.03-6.29-14.03-14.03s6.29-14.03,14.03-14.03,14.03,6.29,14.03,14.03-6.29,14.03-14.03,14.03" class="cls-6"/>
      <path d="M95.35,84.6c7.21,0,13.07,5.86,13.07,13.07s-5.87,13.07-13.07,13.07-13.07-5.86-13.07-13.07,5.87-13.07,13.07-13.07M95.35,82.68c-8.26,0-14.96,6.68-14.99,14.93v.13c.03,8.25,6.73,14.93,14.99,14.93s15-6.71,15-15-6.71-14.99-15-14.99Z" class="cls-3"/>
      <rect height="13.63" width="13.63" y="90.85" x="88.54" class="cls-6"/>
      <path d="M100.73,92.3h-10.75v10.75h10.75v-10.75ZM88.54,89.41h13.63c.8,0,1.44.65,1.44,1.44v13.63c0,.8-.65,1.44-1.44,1.44h-13.63c-.8,0-1.44-.65-1.44-1.44v-13.63c0-.8.65-1.44,1.44-1.44Z" class="cls-3"/>
      <path d="M133.22,146.95c-7.74,0-14.03-6.3-14.03-14.03s6.3-14.03,14.03-14.03,14.03,6.29,14.03,14.03-6.29,14.03-14.03,14.03" class="cls-6"/>
      <path d="M133.22,119.84c7.21,0,13.07,5.86,13.07,13.07s-5.87,13.07-13.07,13.07-13.07-5.86-13.07-13.07,5.87-13.07,13.07-13.07M133.22,117.92c-8.28,0-14.99,6.71-14.99,15s6.71,15,14.99,15,14.99-6.71,14.99-15-6.71-15-14.99-15Z" class="cls-3"/>
      <path d="M125.04,132.91c0-4.52,3.66-8.18,8.18-8.18s8.18,3.66,8.18,8.18-3.66,8.18-8.18,8.18-8.18-3.66-8.18-8.18" class="cls-6"/>
      <path d="M128.45,128.15c-1.22,1.21-1.97,2.9-1.97,4.76s.75,3.55,1.97,4.76c1.22,1.22,2.9,1.97,4.77,1.97s3.55-.75,4.76-1.97c1.22-1.22,1.97-2.91,1.97-4.77s-.75-3.55-1.97-4.76c-1.22-1.22-2.9-1.97-4.76-1.97s-3.55.75-4.77,1.97M123.6,132.91c0-2.65,1.08-5.06,2.82-6.8,1.74-1.74,4.14-2.82,6.8-2.82s5.06,1.08,6.8,2.82c1.74,1.74,2.82,4.15,2.82,6.8s-1.08,5.06-2.82,6.8c-1.75,1.74-4.15,2.82-6.8,2.82s-5.05-1.08-6.8-2.82c-1.75-1.75-2.82-4.15-2.82-6.8Z" class="cls-3"/>
      <rect height="19.09" width="3.85" y="123.33" x="89.68" class="cls-2"/>
      <rect height="19.09" width="3.85" y="123.33" x="97.18" class="cls-2"/>
      <path d="M95.35,146.95c-7.74,0-14.03-6.3-14.03-14.03s6.29-14.03,14.03-14.03,14.03,6.29,14.03,14.03-6.29,14.03-14.03,14.03" class="cls-6"/>
      <path d="M95.35,119.84c7.21,0,13.07,5.86,13.07,13.07s-5.87,13.07-13.07,13.07-13.07-5.86-13.07-13.07,5.87-13.07,13.07-13.07M95.35,117.92c-8.26,0-14.96,6.68-14.99,14.93v.13c.03,8.25,6.73,14.93,14.99,14.93s15-6.71,15-15-6.71-15-15-15Z" class="cls-3"/>
      <polygon points="95.35 124.31 87.17 130.25 90.3 139.87 100.41 139.87 103.53 130.25 95.35 124.31" class="cls-6"/>
      <path d="M86.33,129.09l8.16-5.93c.49-.37,1.19-.4,1.71-.02l8.18,5.94c.49.36.72,1,.53,1.61l-3.09,9.53c-.16.62-.72,1.09-1.4,1.09h-10.11c-.61,0-1.17-.39-1.37-1l-3.11-9.59c-.21-.59-.01-1.26.51-1.64M95.35,126.09l-6.49,4.71,2.48,7.63h8.02l2.48-7.63-6.49-4.71Z" class="cls-3"/>
      <path d="M133.22,111.71c-7.74,0-14.03-6.29-14.03-14.03s6.29-14.03,14.03-14.03,14.03,6.29,14.03,14.03-6.3,14.03-14.03,14.03" class="cls-6"/>
      <path d="M133.22,84.6c7.21,0,13.07,5.86,13.07,13.07s-5.87,13.07-13.07,13.07-13.07-5.86-13.07-13.07,5.87-13.07,13.07-13.07M133.22,82.68c-8.28,0-15,6.71-15,14.99s6.71,15,15,15,14.99-6.71,14.99-15-6.71-14.99-14.99-14.99Z" class="cls-3"/>
      <polygon points="133.22 88.9 133.22 88.9 141.4 102.93 125.04 102.93 133.22 88.9" class="cls-6"/>
      <path d="M138.89,101.49l-5.67-9.72-5.67,9.72h11.34ZM134.47,88.18l8.18,14.02c.4.69.16,1.57-.52,1.97-.23.13-.48.19-.72.19h-16.36c-.8,0-1.44-.64-1.44-1.44,0-.3.09-.58.25-.81l8.13-13.93c.4-.69,1.28-.92,1.97-.52.23.13.4.31.52.52Z" class="cls-3"/>
      <path d="M12.51,40.19c0-16.21,13.14-29.34,29.34-29.34s29.34,13.13,29.34,29.34-13.13,29.34-29.34,29.34-29.34-13.13-29.34-29.34" class="cls-5"/>
      <path d="M41.85,71.83c-17.45,0-31.64-14.19-31.64-31.64s14.19-31.64,31.64-31.64,31.64,14.2,31.64,31.64-14.2,31.64-31.64,31.64M41.85,13.15c-14.91,0-27.04,12.13-27.04,27.04s12.13,27.04,27.04,27.04,27.04-12.13,27.04-27.04-12.13-27.04-27.04-27.04Z" class="cls-3"/>
      <path d="M33.37,49.65c-.39,0-.78-.16-1.08-.46-.56-.6-.53-1.53.06-2.09l16.95-15.98c.59-.56,1.53-.53,2.09.06.56.59.53,1.53-.06,2.09l-16.95,15.98c-.29.27-.65.4-1.01.4" class="cls-3"/>
      <path d="M50.32,49.65c-.36,0-.73-.13-1.01-.4l-16.95-15.98c-.59-.56-.62-1.5-.06-2.09.56-.59,1.5-.62,2.09-.06l16.95,15.98c.6.56.62,1.49.06,2.09-.29.31-.69.46-1.08.46" class="cls-3"/>
      <path d="M9.86,22.87c0-7.29,5.91-13.19,13.19-13.19s13.19,5.91,13.19,13.19-5.9,13.19-13.19,13.19-13.19-5.91-13.19-13.19" class="cls-6"/>
      <path d="M23.05,37.79c-8.22,0-14.92-6.69-14.92-14.92s6.7-14.92,14.92-14.92,14.92,6.69,14.92,14.92-6.69,14.92-14.92,14.92M23.05,11.4c-6.32,0-11.47,5.15-11.47,11.47s5.15,11.47,11.47,11.47,11.47-5.14,11.47-11.47-5.15-11.47-11.47-11.47Z" class="cls-3"/>
      <path d="M47.73,22.87c0-7.29,5.91-13.19,13.19-13.19s13.19,5.91,13.19,13.19-5.91,13.19-13.19,13.19-13.19-5.91-13.19-13.19" class="cls-6"/>
      <path d="M60.92,37.79c-8.22,0-14.92-6.69-14.92-14.92s6.7-14.92,14.92-14.92,14.92,6.69,14.92,14.92-6.69,14.92-14.92,14.92M60.92,11.4c-6.32,0-11.47,5.15-11.47,11.47s5.15,11.47,11.47,11.47,11.47-5.14,11.47-11.47-5.15-11.47-11.47-11.47Z" class="cls-3"/>
      <path d="M9.86,58.11c0-7.28,5.91-13.19,13.19-13.19s13.19,5.91,13.19,13.19-5.9,13.19-13.19,13.19-13.19-5.91-13.19-13.19" class="cls-6"/>
      <path d="M23.05,73.03c-8.22,0-14.92-6.69-14.92-14.92s6.7-14.92,14.92-14.92,14.92,6.69,14.92,14.92-6.69,14.92-14.92,14.92M23.05,46.65c-6.32,0-11.47,5.15-11.47,11.47s5.15,11.47,11.47,11.47,11.47-5.14,11.47-11.47-5.15-11.47-11.47-11.47Z" class="cls-3"/>
      <path d="M47.73,58.11c0-7.28,5.91-13.19,13.19-13.19s13.19,5.91,13.19,13.19-5.91,13.19-13.19,13.19-13.19-5.91-13.19-13.19" class="cls-6"/>
      <path d="M60.92,73.03c-8.22,0-14.92-6.69-14.92-14.92s6.7-14.92,14.92-14.92,14.92,6.69,14.92,14.92-6.69,14.92-14.92,14.92M60.92,46.65c-6.32,0-11.47,5.15-11.47,11.47s5.15,11.47,11.47,11.47,11.47-5.14,11.47-11.47-5.15-11.47-11.47-11.47Z" class="cls-3"/>
      <path d="M23.05,36.91c-7.74,0-14.03-6.29-14.03-14.03s6.29-14.03,14.03-14.03,14.03,6.29,14.03,14.03-6.3,14.03-14.03,14.03" class="cls-6"/>
      <path d="M23.05,9.8c7.21,0,13.07,5.86,13.07,13.07s-5.87,13.07-13.07,13.07-13.07-5.86-13.07-13.07,5.87-13.07,13.07-13.07M23.05,7.88c-8.26,0-14.96,6.68-14.99,14.93v.13c.03,8.25,6.73,14.93,14.99,14.93s15-6.71,15-15-6.71-14.99-15-14.99Z" class="cls-3"/>
      <rect height="13.63" width="13.63" y="16.05" x="16.23" class="cls-6"/>
      <path d="M28.43,17.5h-10.75v10.75h10.75v-10.75ZM16.23,14.61h13.63c.8,0,1.44.65,1.44,1.44v13.63c0,.8-.65,1.44-1.44,1.44h-13.63c-.8,0-1.44-.65-1.44-1.44v-13.63c0-.8.65-1.44,1.44-1.44Z" class="cls-3"/>
      <path d="M60.92,72.15c-7.74,0-14.03-6.3-14.03-14.03s6.3-14.03,14.03-14.03,14.03,6.29,14.03,14.03-6.29,14.03-14.03,14.03" class="cls-6"/>
      <path d="M60.92,45.04c7.21,0,13.07,5.86,13.07,13.07s-5.87,13.07-13.07,13.07-13.07-5.86-13.07-13.07,5.87-13.07,13.07-13.07M60.92,43.12c-8.28,0-14.99,6.71-14.99,15s6.71,15,14.99,15,14.99-6.71,14.99-15-6.71-15-14.99-15Z" class="cls-3"/>
      <path d="M52.74,58.11c0-4.52,3.66-8.18,8.18-8.18s8.18,3.66,8.18,8.18-3.66,8.18-8.18,8.18-8.18-3.66-8.18-8.18" class="cls-6"/>
      <path d="M56.15,53.35c-1.22,1.21-1.97,2.9-1.97,4.76s.75,3.55,1.97,4.76c1.22,1.22,2.9,1.97,4.77,1.97s3.55-.75,4.76-1.97c1.22-1.22,1.97-2.91,1.97-4.77s-.75-3.55-1.97-4.76c-1.22-1.22-2.9-1.97-4.76-1.97s-3.55.75-4.77,1.97M51.3,58.11c0-2.65,1.08-5.06,2.82-6.8,1.74-1.74,4.14-2.82,6.8-2.82s5.06,1.08,6.8,2.82c1.74,1.74,2.82,4.15,2.82,6.8s-1.08,5.06-2.82,6.8c-1.75,1.74-4.15,2.82-6.8,2.82s-5.05-1.08-6.8-2.82c-1.75-1.75-2.82-4.15-2.82-6.8Z" class="cls-3"/>
      <rect height="19.09" width="3.85" y="48.53" x="24.88" class="cls-2"/>
      <path d="M23.05,72.15c-7.74,0-14.03-6.3-14.03-14.03s6.29-14.03,14.03-14.03,14.03,6.29,14.03,14.03-6.29,14.03-14.03,14.03" class="cls-6"/>
      <path d="M23.05,45.04c7.21,0,13.07,5.86,13.07,13.07s-5.87,13.07-13.07,13.07-13.07-5.86-13.07-13.07,5.87-13.07,13.07-13.07M23.05,43.12c-8.26,0-14.96,6.68-14.99,14.93v.13c.03,8.25,6.73,14.93,14.99,14.93s15-6.71,15-15-6.71-15-15-15Z" class="cls-3"/>
      <polygon points="23.05 49.51 14.87 55.45 18 65.07 28.11 65.07 31.23 55.45 23.05 49.51" class="cls-6"/>
      <path d="M14.03,54.29l8.16-5.93c.49-.37,1.19-.4,1.71-.02l8.18,5.94c.49.36.72,1,.53,1.61l-3.09,9.53c-.16.62-.72,1.09-1.4,1.09h-10.11c-.61,0-1.17-.39-1.37-1l-3.11-9.59c-.21-.59-.01-1.26.51-1.64M23.05,51.29l-6.49,4.71,2.48,7.63h8.02l2.48-7.63-6.49-4.71Z" class="cls-3"/>
      <path d="M60.92,36.91c-7.74,0-14.03-6.29-14.03-14.03s6.29-14.03,14.03-14.03,14.03,6.29,14.03,14.03-6.3,14.03-14.03,14.03" class="cls-6"/>
      <path d="M60.92,9.8c7.21,0,13.07,5.86,13.07,13.07s-5.87,13.07-13.07,13.07-13.07-5.86-13.07-13.07,5.87-13.07,13.07-13.07M60.92,7.88c-8.28,0-15,6.71-15,14.99s6.71,15,15,15,14.99-6.71,14.99-15-6.71-14.99-14.99-14.99Z" class="cls-3"/>
      <polygon points="60.92 14.11 60.92 14.11 69.1 28.13 52.74 28.13 60.92 14.11" class="cls-6"/>
      <path d="M66.59,26.69l-5.67-9.72-5.67,9.72h11.34ZM62.16,13.38l8.18,14.02c.4.69.16,1.57-.52,1.97-.23.13-.48.19-.72.19h-16.36c-.8,0-1.44-.64-1.44-1.44,0-.3.09-.58.25-.81l8.13-13.93c.4-.69,1.28-.92,1.97-.52.23.13.4.31.52.52Z" class="cls-3"/>
    </g>
  </g>
</svg>