<svg version="1.1" xmlns="http://www.w3.org/2000/svg" xmlns:xlink="http://www.w3.org/1999/xlink" width="82.95896" height="83.43675" viewBox="0,0,82.95896,83.43675"><g transform="translate(-139.715,-319.715)"><g data-paper-data="{&quot;isPaintingLayer&quot;:true}" fill-rule="nonzero" stroke-linecap="butt" stroke-linejoin="miter" stroke-miterlimit="10" stroke-dasharray="" stroke-dashoffset="0" style="mix-blend-mode: normal"><path d="M149.51396,402.15175c-3.54014,0 -6.41,-2.86985 -6.41,-6.41v-65.75c0,-3.54014 2.86986,-6.41 6.41,-6.41h65.75c3.54014,0 6.41,2.86986 6.41,6.41v65.75c0,3.54014 -2.86986,6.41 -6.41,6.41z" fill-opacity="0.81569" fill="#000000" stroke-opacity="0.81569" stroke="#000000" stroke-width="2"/><path d="M147.125,399.285c-3.54015,0 -6.41,-2.86985 -6.41,-6.41v-65.75c0,-3.54015 2.86985,-6.41 6.41,-6.41h65.75c3.54015,0 6.41,2.86985 6.41,6.41v65.75c0,3.54015 -2.86985,6.41 -6.41,6.41z" fill="#67c2ef" stroke="#1d1d1b" stroke-width="2"/><path d="M154.485,359.995c0,-14.08878 11.42122,-25.51 25.51,-25.51c14.08878,0 25.51,11.42122 25.51,25.51c0,14.08878 -11.42122,25.51 -25.51,25.51c-14.08878,0 -25.51,-11.42122 -25.51,-25.51z" fill="#ffffff" stroke="#1d1d1b" stroke-width="3"/><path d="M195.40931,354.6675c0.97,0.71 1.37,1.94 1,3.08l-5.27,16.21c-0.38,1.15 -1.43,1.91 -2.62,1.91h-17.04c-1.2,0 -2.25,-0.76 -2.62,-1.9l-5.27,-16.21c-0.37,-1.15 0.04,-2.38 1,-3.08l13.68,-9.94c0.03,-0.03 0.06,-0.05 0.1,-0.08c0.96,-0.7 2.26,-0.7 3.23,0l13.79,10.02zM193.48931,356.9975l-13.5,-9.81l-13.5,9.81l5.16,15.87h16.68z" fill="#1d1d1b" stroke="none" stroke-width="0"/></g></g></svg>