<svg version="1.1" xmlns="http://www.w3.org/2000/svg" xmlns:xlink="http://www.w3.org/1999/xlink" width="156.89" height="155.91" viewBox="0,0,156.89,155.91"><g transform="translate(-101.555,-282.045)"><g data-paper-data="{&quot;isPaintingLayer&quot;:true}" fill-rule="nonzero" stroke-linecap="butt" stroke-linejoin="miter" stroke-dashoffset="0" style="mix-blend-mode: normal"><path d="M112.915,437.955c-6.27395,0 -11.36,-5.08605 -11.36,-11.36v-133.19c0,-6.27395 5.08605,-11.36 11.36,-11.36h134.17c6.27395,0 11.36,5.08605 11.36,11.36v133.19c0,6.27395 -5.08605,11.36 -11.36,11.36z" fill="#feeb1a" stroke="none" stroke-width="0" stroke-miterlimit="10" stroke-dasharray=""/><g><g><path d="M179.985,395.475c-19.58,0 -35.5,-15.92 -35.5,-35.5c0,-19.58 15.92,-35.5 35.5,-35.5c19.58,0 35.5,15.92 35.5,35.5c0,19.58 -15.92,35.5 -35.5,35.5" fill="#ffffff" stroke="none" stroke-width="0" stroke-miterlimit="10" stroke-dasharray=""/><path d="M141.605,360.035c0,-21.20773 17.19227,-38.4 38.4,-38.4c21.20773,0 38.4,17.19227 38.4,38.4c0,21.20773 -17.19227,38.4 -38.4,38.4c-21.20773,0 -38.4,-17.19227 -38.4,-38.4z" fill="none" stroke="#29265b" stroke-width="8.21" stroke-miterlimit="4" stroke-dasharray=""/><path d="M237.755,368.615c-2.73,18.5 -14.27,34.54 -30.64,43.11" fill="none" stroke="#e72174" stroke-width="5.49" stroke-miterlimit="10" stroke-dasharray="0,0,0,0,0,0,18.02,12.53"/><path d="M188.615,302.245c18.5,2.73 34.54,14.27 43.11,30.64" fill="none" stroke="#e72174" stroke-width="5.49" stroke-miterlimit="10" stroke-dasharray="0,0,0,0,0,0,18.02,12.53"/><path d="M122.215,351.375c2.76,-18.5 14.3,-34.54 30.67,-43.11" fill="none" stroke="#e72174" stroke-width="5.49" stroke-miterlimit="10" stroke-dasharray="0,0,0,0,0,0,18.02,12.53"/><path d="M171.375,417.785c-18.5,-2.76 -34.54,-14.3 -43.11,-30.67" fill="none" stroke="#e72174" stroke-width="5.49" stroke-miterlimit="10" stroke-dasharray="0,0,0,0,0,0,18.02,12.53"/><path d="M195.445,416.315c-2.84,0.78 -5.81,1.35 -8.84,1.71c-3.02,0.33 -6.02,0.45 -8.99,0.33M123.685,375.445c-0.78,-2.84 -1.38,-5.82 -1.71,-8.84c-0.33,-3.02 -0.45,-6.02 -0.33,-8.99M164.555,303.685c2.84,-0.78 5.81,-1.35 8.84,-1.71c3.02,-0.33 6.02,-0.45 8.99,-0.33M236.315,344.555c0.78,2.84 1.38,5.82 1.71,8.84c0.33,3.02 0.45,6.02 0.33,8.99" fill="none" stroke="#e72174" stroke-width="5.49" stroke-miterlimit="10" stroke-dasharray=""/><path d="M179.985,384.355c-13.43,0 -24.34,-10.91 -24.34,-24.34c0,-13.43 10.91,-24.34 24.34,-24.34c13.43,0 24.34,10.91 24.34,24.34c0,13.43 -10.88,24.34 -24.34,24.34" fill="#e72174" stroke="none" stroke-width="0" stroke-miterlimit="10" stroke-dasharray=""/></g><g fill="#ffffff" stroke="none" stroke-width="0" stroke-miterlimit="10" stroke-dasharray=""><path d="M169.405,364.625l-2.04,3.42l-1.86,2.64h-5.01v-0.57l5.97,-8.54l-5.1,-7.53v-0.54h4.77l1.53,2.25l1.65,2.91h0.12l1.59,-2.94l1.49,-2.22h5.1v0.57l-5.28,7.68l5.82,8.36v0.57h-4.83l-1.91,-2.76l-1.92,-3.3z"/><path d="M188.285,349.905c-1.44,0 -3.12,0.72 -3.12,3.18h-4.56c0,-4.89 2.91,-7.73 7.79,-7.73c7.05,0 9.74,7.14 4.77,13.73c-0.75,1.05 -1.86,2.88 -5.04,6.99h8.12v4.65h-16.01v-1.14l8.84,-12.41c0.9,-1.26 1.77,-2.67 1.89,-4.14c0.12,-2.07 -1.29,-3.12 -2.73,-3.12"/></g></g></g></g></svg>