<svg xmlns:xlink="http://www.w3.org/1999/xlink" xmlns="http://www.w3.org/2000/svg" viewBox="0 0 156.45 156.17" data-name="Слой 2" id="_Слой_2">
  <defs>
    <style>
      .cls-1 {
        stroke-linejoin: round;
        stroke-width: 8.02px;
      }

      .cls-1, .cls-2, .cls-3, .cls-4 {
        fill: none;
      }

      .cls-1, .cls-4 {
        stroke: #3eab37;
      }

      .cls-5 {
        clip-path: url(#clippath);
      }

      .cls-2, .cls-6, .cls-7, .cls-8 {
        stroke-width: 0px;
      }

      .cls-3 {
        stroke: #29265b;
        stroke-width: 8.25px;
      }

      .cls-4 {
        stroke-width: 6.42px;
      }

      .cls-6 {
        fill: #f8f3b3;
      }

      .cls-7 {
        fill: #29265b;
      }

      .cls-8 {
        fill: #fff;
      }
    </style>
    <clipPath id="clippath">
      <polygon points="0 0 0 155.91 155.91 155.91 155.91 155.91 155.91 0 0 0" class="cls-2"/>
    </clipPath>
  </defs>
  <g data-name="Слой 1" id="_Слой_1-2">
    <g class="cls-5">
      <rect ry="11.65" rx="11.65" height="156.17" width="156.45" class="cls-6"/>
      <polygon points="41.52 17.25 17.27 41.45 17.27 114.74 41.6 139.03 114.84 139.03 139.17 114.74 139.17 41.62 114.63 17.13 41.52 17.25" class="cls-1"/>
      <path d="M78.22,104.42c14.54,0,26.33-11.79,26.33-26.33s-11.79-26.33-26.33-26.33-26.33,11.79-26.33,26.33,11.79,26.33,26.33,26.33" class="cls-8"/>
      <path d="M78.22,104.42c14.54,0,26.33-11.79,26.33-26.33s-11.79-26.33-26.33-26.33-26.33,11.79-26.33,26.33,11.79,26.33,26.33,26.33Z" class="cls-4"/>
      <path d="M78.23,113.69c-19.64,0-35.61-15.97-35.61-35.6s15.97-35.61,35.61-35.61,35.6,15.97,35.6,35.61-15.97,35.6-35.6,35.6" class="cls-8"/>
      <path d="M78.22,116.6c21.27,0,38.52-17.24,38.52-38.52s-17.25-38.52-38.52-38.52-38.52,17.25-38.52,38.52,17.25,38.52,38.52,38.52Z" class="cls-3"/>
      <polygon points="66.93 84.68 68.91 88.06 70.89 90.92 75.84 90.92 75.84 90.33 69.86 81.71 75.29 73.83 75.29 73.24 70.05 73.24 68.51 75.52 66.86 78.52 66.75 78.52 65.06 75.55 63.48 73.24 58.57 73.24 58.57 73.79 63.81 81.53 57.69 90.33 57.69 90.92 62.82 90.92 64.73 88.2 66.82 84.68 66.93 84.68" class="cls-7"/>
      <path d="M87.9,86.77c-2.6,0-4.33-1.69-4.33-3.89,0-2.31,1.69-4.14,4.33-4.14s4.33,1.72,4.33,4.03-1.72,4-4.33,4M87.9,74.78c-1.94,0-3.3-1.21-3.3-2.82s1.28-2.82,3.3-2.82c1.91,0,3.26,1.21,3.26,2.79s-1.32,2.86-3.26,2.86M93.62,76.4c1.43-1.17,2.35-2.82,2.35-4.69,0-3.63-2.9-6.86-8.07-6.86s-8.18,3.3-8.07,6.97c.04,1.87.95,3.41,2.31,4.55-2.49,1.47-3.96,3.89-3.96,6.67,0,4.4,3.52,8.29,9.72,8.29s9.75-3.92,9.64-8.36c-.04-2.75-1.47-5.1-3.92-6.56" class="cls-7"/>
      <path d="M147.08,42.48c0-4.3-3.49-7.79-7.8-7.79s-7.79,3.49-7.79,7.79,3.49,7.8,7.79,7.8,7.8-3.49,7.8-7.8" class="cls-7"/>
      <path d="M90.87,24.82c4.3,0,7.79-3.49,7.79-7.79s-3.49-7.8-7.79-7.8-7.8,3.49-7.8,7.8,3.49,7.79,7.8,7.79" class="cls-7"/>
      <path d="M65.88,24.82c4.3,0,7.79-3.49,7.79-7.79s-3.49-7.8-7.79-7.8-7.8,3.49-7.8,7.8,3.49,7.79,7.8,7.79" class="cls-7"/>
      <path d="M40.89,24.82c4.3,0,7.79-3.49,7.79-7.79s-3.49-7.8-7.79-7.8-7.8,3.49-7.8,7.8,3.49,7.79,7.8,7.79" class="cls-7"/>
      <path d="M131.49,113.69c0,4.3,3.49,7.8,7.79,7.8s7.79-3.49,7.79-7.8-3.49-7.79-7.79-7.79-7.79,3.49-7.79,7.79" class="cls-7"/>
      <path d="M131.49,88.7c0,4.3,3.49,7.8,7.79,7.8s7.79-3.49,7.79-7.8-3.49-7.79-7.79-7.79-7.79,3.49-7.79,7.79" class="cls-7"/>
      <path d="M40.89,145.64c4.3,0,7.79-3.49,7.79-7.79s-3.49-7.8-7.79-7.8-7.8,3.49-7.8,7.8,3.49,7.79,7.8,7.79" class="cls-7"/>
      <path d="M17.16,121.48c4.3,0,7.79-3.49,7.79-7.79s-3.49-7.8-7.79-7.8-7.8,3.49-7.8,7.8,3.49,7.79,7.8,7.79" class="cls-7"/>
    </g>
  </g>
</svg>