<svg version="1.1" xmlns="http://www.w3.org/2000/svg" xmlns:xlink="http://www.w3.org/1999/xlink" width="353.67293" height="465.76107" viewBox="0,0,353.67293,465.76107"><g transform="translate(-16.62707,-182.23893)"><g data-paper-data="{&quot;isPaintingLayer&quot;:true}" fill-rule="nonzero" stroke-miterlimit="10" stroke-dasharray="" stroke-dashoffset="0" style="mix-blend-mode: normal"><path d="M295.66189,194.56659c0,0.04362 0,0.12214 0,0.12214v0v3.28039h-51.58122v-3.28039c1.0797,-3.13208 5.21853,-5.46151 10.15429,-5.46151c2.27508,0 4.38305,0.49729 6.09257,1.33484c2.44217,-4.84207 9.20313,-8.32313 17.17232,-8.32313c10.02576,0 18.16204,5.52258 18.16204,12.32765" fill-opacity="0.41176" fill="#65adcf" stroke="none" stroke-width="0" stroke-linecap="butt" stroke-linejoin="miter"/><path d="M285.83032,210.81754c0,-6.80741 13.13386,-15.12674 29.60083,-15.12674c10.88334,0 20.39969,2.41293 25.60477,6.01387c1.60359,1.11189 4.8055,1.61477 7.81287,1.2526c1.51421,-0.18224 3.11779,-0.27912 4.7792,-0.27912c0.22607,0 0.44691,0 0.67298,0.00462c8.99058,0.14302 15.99903,3.28952 15.99903,7.00811v1.73011h-84.685v-3.28491h0.00526c0,-0.03922 -0.00526,-0.07843 -0.00526,-0.11995" fill-opacity="0.61961" fill="#82d0f5" stroke="none" stroke-width="0" stroke-linecap="butt" stroke-linejoin="miter"/><path d="M37,648v-55h289v55z" fill="#272557" stroke="none" stroke-width="0" stroke-linecap="butt" stroke-linejoin="miter"/><path d="M53.06937,592.58788c0,-37.06229 30.7642,-67.10025 68.71942,-67.10025c37.95522,0 68.71942,30.03796 68.71942,67.10025z" fill="#8bcab5" stroke="none" stroke-width="0" stroke-linecap="butt" stroke-linejoin="miter"/><path d="M213.53373,590.59964h-105.49598c0,-31.90715 23.62081,-57.77813 52.75394,-57.77813c29.13313,0 52.75394,25.87098 52.75394,57.77813z" fill="#8bcab5" stroke="none" stroke-width="0" stroke-linecap="butt" stroke-linejoin="miter"/><path d="M43.83058,592.01641l157.89275,0.19049" fill="none" stroke="#29235c" stroke-width="2.34" stroke-linecap="round" stroke-linejoin="round"/><path d="M76.20205,551.63244c0.25002,-1.36915 1.57155,-2.27398 2.9407,-2.02396c1.36915,0.25002 2.27398,1.57155 2.02396,2.9407c-0.25002,1.36915 -1.57155,2.27398 -2.9407,2.02396c-1.36915,-0.25002 -2.27398,-1.57155 -2.02396,-2.9407" fill="#29235c" stroke="none" stroke-width="0" stroke-linecap="butt" stroke-linejoin="miter"/><path d="M77.61882,557.89481v0c3.35739,0.61909 5.57184,3.83362 4.96466,7.19101l-1.71441,9.34594l-12.15567,-2.22636l1.71441,-9.34594c0.61909,-3.35739 3.83362,-5.57184 7.19101,-4.96466" fill="#ffffff" stroke="none" stroke-width="0" stroke-linecap="butt" stroke-linejoin="miter"/><path d="M77.61882,557.89481v0c3.35739,0.61909 5.57184,3.83362 4.96466,7.19101l-1.71441,9.34594l-12.15567,-2.22636l1.71441,-9.34594c0.61909,-3.35739 3.83362,-5.57184 7.19101,-4.96466z" fill="none" stroke="#29235c" stroke-width="2.34" stroke-linecap="butt" stroke-linejoin="miter"/><path d="M72.3089,572.86022l-0.46432,1.6787c-1.0596,6.64335 -2.02396,8.60779 -11.03654,6.94099" fill="none" stroke="#29235c" stroke-width="2.34" stroke-linecap="butt" stroke-linejoin="miter"/><path d="M78.60699,574.01506c0,0 0.40479,0.34526 0.92864,1.00007c1.98824,2.46447 2.67877,5.72662 2.02396,8.82209l-1.52392,7.21482" fill="none" stroke="#29235c" stroke-width="2.34" stroke-linecap="butt" stroke-linejoin="miter"/><path d="M89.95307,572.12207c0,0 -7.51247,0.28574 -7.28626,-7.65533" fill="none" stroke="#29235c" stroke-width="2.34" stroke-linecap="butt" stroke-linejoin="miter"/><path d="M61.76048,557.56145c0,0 4.40509,-9.97694 12.83429,1.20247" fill="none" stroke="#29235c" stroke-width="2.34" stroke-linecap="butt" stroke-linejoin="miter"/><path d="M77.52357,558.40676l-0.48813,2.66687c-0.45241,2.44066 -2.28589,4.27413 -4.54796,4.8456" fill="none" stroke="#29235c" stroke-width="2.34" stroke-linecap="butt" stroke-linejoin="round"/><path d="M62.22405,561.51294l-3.67142,-1.84171l1.46804,-2.92649l3.67141,1.84172z" fill="none" stroke="#29235c" stroke-width="1.17" stroke-linecap="round" stroke-linejoin="miter"/><path d="M61.44636,568.77951l-8.26865,-4.14785l3.31508,-6.60853l8.26865,4.14785z" fill="#009fe3" stroke="none" stroke-width="0" stroke-linecap="butt" stroke-linejoin="miter"/><path d="M61.44636,568.77951l-8.26865,-4.14785l3.31508,-6.60853l8.26865,4.14785z" fill="none" stroke="#29235c" stroke-width="1.56" stroke-linecap="round" stroke-linejoin="miter"/><path d="M78.13076,536.89324c0,-3.52407 2.85736,-6.38143 6.38143,-6.38143c3.52407,0 6.38143,2.85736 6.38143,6.38143c0,3.52407 -2.85736,6.38143 -6.38143,6.38143c-3.52407,0 -6.38143,-2.85736 -6.38143,-6.38143" fill="#ffed00" stroke="none" stroke-width="0" stroke-linecap="butt" stroke-linejoin="miter"/><path d="M78.13076,536.89324c0,-3.52436 2.85706,-6.38143 6.38143,-6.38143c3.52437,0 6.38143,2.85707 6.38143,6.38143c0,3.52436 -2.85707,6.38143 -6.38143,6.38143c-3.52437,0 -6.38143,-2.85707 -6.38143,-6.38143z" fill="none" stroke="#29235c" stroke-width="0.78" stroke-linecap="butt" stroke-linejoin="miter"/><path d="M84.51219,544.14379c-4.0003,0 -7.26245,-3.26215 -7.26245,-7.26245c0,-4.0003 3.26215,-7.26245 7.26245,-7.26245c4.0003,0 7.26245,3.26215 7.26245,7.26245c0,4.0003 -3.26215,7.26245 -7.26245,7.26245M84.51219,531.48808c-2.97641,0 -5.39326,2.41685 -5.39326,5.39326c0,2.97641 2.41685,5.39326 5.39326,5.39326c2.97641,0 5.39326,-2.41685 5.39326,-5.39326c0,-2.97641 -2.41685,-5.39326 -5.39326,-5.39326" fill="#29235c" stroke="none" stroke-width="0" stroke-linecap="butt" stroke-linejoin="miter"/><path d="M85.35749,539.13151h-1.6787v-1.39296c0,-0.46432 0.36908,-0.8453 0.8334,-0.8453c0.65481,0 1.17866,-0.52385 1.17866,-1.17866c0,-0.65481 -0.52385,-1.17866 -1.17866,-1.17866c-0.65481,0 -1.17866,0.52385 -1.17866,1.17866h-1.6787c0,-1.57155 1.28581,-2.85736 2.85736,-2.85736c1.57155,0 2.85736,1.28581 2.85736,2.85736c0,1.28581 -0.8453,2.36922 -2.01206,2.72639v0.67862z" fill="#29235c" stroke="none" stroke-width="0" stroke-linecap="butt" stroke-linejoin="miter"/><path d="M83.67879,541.0245v-1.20247h1.6787v1.20247z" fill="#29235c" stroke="none" stroke-width="0" stroke-linecap="butt" stroke-linejoin="miter"/><path d="M82.05963,547.15592l1.01198,-4.03602" fill="#ffed00" stroke="none" stroke-width="0" stroke-linecap="butt" stroke-linejoin="miter"/><path d="M82.05963,547.15592l1.01198,-4.03602" fill="none" stroke="#29235c" stroke-width="1.56" stroke-linecap="butt" stroke-linejoin="miter"/><path d="M149.64801,506.05761v3.19071" fill="none" stroke="#29235c" stroke-width="1.56" stroke-linecap="round" stroke-linejoin="miter"/><path d="M143.93328,508.67685l1.91681,1.9049" fill="none" stroke="#29235c" stroke-width="1.56" stroke-linecap="round" stroke-linejoin="miter"/><path d="M155.3627,508.67685l-1.9049,1.9049" fill="none" stroke="#29235c" stroke-width="1.56" stroke-linecap="round" stroke-linejoin="miter"/><path d="M149.46942,591.75448v-63.26663" fill="none" stroke="#29235c" stroke-width="1.95" stroke-linecap="butt" stroke-linejoin="miter"/><path d="M137.70664,526.03529c0,-6.54811 5.30992,-11.84612 11.84612,-11.84612c6.5362,0 11.84612,5.30992 11.84612,11.84612c0,6.5362 -5.30992,11.84612 -11.84612,11.84612c-6.5362,0 -11.84612,-5.30992 -11.84612,-11.84612" fill="#e50d4a" stroke="none" stroke-width="0" stroke-linecap="butt" stroke-linejoin="miter"/><path d="M137.70664,526.03529c0,-6.54811 5.30992,-11.84612 11.84612,-11.84612c6.5362,0 11.84612,5.30992 11.84612,11.84612c0,6.5362 -5.30992,11.84612 -11.84612,11.84612c-6.5362,0 -11.84612,-5.30992 -11.84612,-11.84612z" fill="none" stroke="#29235c" stroke-width="2.34" stroke-linecap="butt" stroke-linejoin="miter"/><path d="M143.18324,530.63087h1.95253v-10.08409l4.39319,5.28611l4.40509,-5.28611v10.08409h2.17873" fill="none" stroke="#ffffff" stroke-width="1.89" stroke-linecap="round" stroke-linejoin="round"/><path d="M86.76236,591.81401c0.97626,-4.17888 4.73845,-7.29816 9.21497,-7.29816c2.05968,0 3.97649,0.66672 5.52422,1.78585c2.22636,-6.47667 8.35777,-11.13178 15.5964,-11.13178c9.10782,0 16.48933,7.3815 16.48933,16.48933c0,0.04762 0,0.10715 0,0.15477z" fill="#ffed00" stroke="none" stroke-width="0" stroke-linecap="butt" stroke-linejoin="miter"/><path d="M86.76236,591.81401c0.97626,-4.17888 4.73845,-7.29816 9.21497,-7.29816c2.05968,0 3.97649,0.66672 5.52422,1.78585c2.22636,-6.47667 8.35777,-11.13178 15.5964,-11.13178c9.10782,0 16.48933,7.3815 16.48933,16.48933c0,0.04762 0,0.10715 0,0.15477z" fill="none" stroke="#29235c" stroke-width="1.75" stroke-linecap="butt" stroke-linejoin="miter"/><path d="M153.38637,591.81401h-40.72923c-0.2024,-1.17866 -0.32145,-2.38113 -0.32145,-3.61932c0,-11.41752 9.2626,-20.68012 20.68012,-20.68012c11.41752,0 20.68012,9.25069 20.68012,20.68012c0,1.23819 -0.11906,2.44066 -0.32145,3.61932z" fill="#ffed00" stroke="none" stroke-width="0" stroke-linecap="butt" stroke-linejoin="miter"/><path d="M153.38637,591.81401h-40.72923c-0.2024,-1.17866 -0.32145,-2.38113 -0.32145,-3.61932c0,-11.41752 9.2626,-20.68012 20.68012,-20.68012c11.41752,0 20.68012,9.25069 20.68012,20.68012c0,1.23819 -0.11906,2.44066 -0.32145,3.61932z" fill="none" stroke="#29235c" stroke-width="1.95" stroke-linecap="butt" stroke-linejoin="miter"/><path d="M109.97838,579.05115v8.02441" fill="none" stroke="#29235c" stroke-width="1.65" stroke-linecap="butt" stroke-linejoin="miter"/><path d="M124.52708,564.49054c0,8.03631 -6.5243,14.56061 -14.56061,14.56061c-8.03631,0 -14.56061,-6.51239 -14.56061,-14.56061c0,-6.14332 8.48873,-30.82373 12.50093,-42.16982c0.69053,-1.94062 3.44073,-1.94062 4.13126,0c4.02411,11.35799 12.50093,36.03841 12.50093,42.16982" fill="#00975f" stroke="none" stroke-width="0" stroke-linecap="butt" stroke-linejoin="miter"/><path d="M124.52708,564.49054c0,8.03631 -6.5243,14.56061 -14.56061,14.56061c-8.03631,0 -14.56061,-6.51239 -14.56061,-14.56061c0,-6.14332 8.48873,-30.82373 12.50093,-42.16982c0.69053,-1.94062 3.44073,-1.94062 4.13126,0c4.02411,11.35799 12.50093,36.03841 12.50093,42.16982z" fill="none" stroke="#29235c" stroke-width="1.95" stroke-linecap="butt" stroke-linejoin="miter"/><path d="M110.18077,558.53772v22.1207" fill="none" stroke="#29235c" stroke-width="1.95" stroke-linecap="butt" stroke-linejoin="miter"/><path d="M141.51644,580.65842v-22.1207" fill="none" stroke="#29235c" stroke-width="1.95" stroke-linecap="butt" stroke-linejoin="miter"/><path d="M106.20429,591.86164v-12.2152h39.27674v12.2152z" fill="#29235c" stroke="none" stroke-width="0" stroke-linecap="butt" stroke-linejoin="miter"/><path d="M106.20429,591.86164v-12.2152h39.27674v12.2152z" fill="none" stroke="#29235c" stroke-width="1.76" stroke-linecap="butt" stroke-linejoin="miter"/><path d="M106.20429,591.86164v-12.2152h5.85758v12.2152z" fill="#009fe3" stroke="none" stroke-width="0" stroke-linecap="butt" stroke-linejoin="miter"/><path d="M106.20429,591.86164v-12.2152h5.84567v12.2152z" fill="none" stroke="#29235c" stroke-width="1.95" stroke-linecap="butt" stroke-linejoin="miter"/><path d="M139.63536,591.86164v-12.2152h5.85758v12.2152z" fill="#009fe3" stroke="none" stroke-width="0" stroke-linecap="butt" stroke-linejoin="miter"/><path d="M139.63536,591.86164v-12.2152h5.84567v12.2152z" fill="none" stroke="#29235c" stroke-width="1.95" stroke-linecap="butt" stroke-linejoin="miter"/><path d="M106.41859,561.32364v-5.15515h39.06244v5.15515z" fill="#009fe3" stroke="none" stroke-width="0" stroke-linecap="butt" stroke-linejoin="miter"/><path d="M106.41859,561.32364v-5.15515h39.06244v5.15515z" fill="none" stroke="#29235c" stroke-width="1.95" stroke-linecap="butt" stroke-linejoin="miter"/><path d="M106.43049,556.08515v-13.4891h39.06244v13.4891z" fill="#ffffff" stroke="none" stroke-width="0" stroke-linecap="butt" stroke-linejoin="miter"/><path d="M106.43049,556.08515v-13.4891h39.06244v13.4891z" fill="none" stroke="#29235c" stroke-width="1.95" stroke-linecap="butt" stroke-linejoin="miter"/><path d="M109.53787,546.00107l6.21475,6.21475" fill="none" stroke="#29235c" stroke-width="1.76" stroke-linecap="butt" stroke-linejoin="miter"/><path d="M115.82405,547.3464v3.86934" fill="none" stroke="#29235c" stroke-width="1.76" stroke-linecap="butt" stroke-linejoin="miter"/><path d="M115.82405,551.21574v1.07151h-4.94085" fill="none" stroke="#29235c" stroke-width="1.76" stroke-linecap="butt" stroke-linejoin="miter"/><path d="M124.80091,549.34656c0,-2.13111 1.72632,-3.86934 3.86934,-3.86934c2.14302,0 3.86934,1.72632 3.86934,3.86934c0,2.14302 -1.72632,3.86934 -3.86934,3.86934c-2.14302,0 -3.86934,-1.72632 -3.86934,-3.86934" fill="#e50d4a" stroke="none" stroke-width="0" stroke-linecap="butt" stroke-linejoin="miter"/><path d="M134.62308,549.34656c0,-2.13111 1.72632,-3.86934 3.86934,-3.86934c2.14302,0 3.86934,1.72632 3.86934,3.86934c0,2.14302 -1.73823,3.86934 -3.86934,3.86934c-2.13111,0 -3.86934,-1.72632 -3.86934,-3.86934" fill="#009fe3" stroke="none" stroke-width="0" stroke-linecap="butt" stroke-linejoin="miter"/><path d="M130.24178,573.57456c0,-1.03579 0.8334,-1.86919 1.86919,-1.86919c1.03579,0 1.86919,0.8334 1.86919,1.86919c0,1.03579 -0.8334,1.86919 -1.86919,1.86919c-1.03579,0 -1.86919,-0.8334 -1.86919,-1.86919" fill="#29235c" stroke="none" stroke-width="0" stroke-linecap="butt" stroke-linejoin="miter"/><path d="M132.11098,577.75344v0c2.524,0 4.57177,2.04777 4.57177,4.57177v7.03624h-9.14354v-7.03624c0,-2.524 2.04777,-4.57177 4.57177,-4.57177" fill="#ffffff" stroke="none" stroke-width="0" stroke-linecap="butt" stroke-linejoin="miter"/><path d="M132.11098,577.75344v0c2.524,0 4.57177,2.04777 4.57177,4.57177v7.03624h-9.14354v-7.03624c0,-2.524 2.04777,-4.57177 4.57177,-4.57177z" fill="none" stroke="#29235c" stroke-width="1.95" stroke-linecap="butt" stroke-linejoin="miter"/><path d="M324.50631,591.67115h-142.71304c0,-36.6575 31.94286,-66.37401 71.35057,-66.37401c39.40771,0 71.35057,29.71651 71.35057,66.37401z" fill="#8bcab5" stroke="none" stroke-width="0" stroke-linecap="butt" stroke-linejoin="miter"/><path d="M169.37567,592.2069h159.36905" fill="none" stroke="#29235c" stroke-width="2.32" stroke-linecap="round" stroke-linejoin="round"/><path d="M234.63055,587.51607v-40.84829h14.09629v40.84829z" fill="#009fe3" stroke="none" stroke-width="0" stroke-linecap="butt" stroke-linejoin="miter"/><path d="M234.61864,587.51607v-40.84829h14.09629v40.84829z" fill="none" stroke="#29235c" stroke-width="1.93" stroke-linecap="butt" stroke-linejoin="miter"/><path d="M234.61864,587.51607v-40.84829h3.52407v40.84829z" fill="#00975f" stroke="none" stroke-width="0" stroke-linecap="butt" stroke-linejoin="miter"/><path d="M234.61864,587.51607v-40.84829h3.53598v40.84829z" fill="none" stroke="#29235c" stroke-width="1.93" stroke-linecap="butt" stroke-linejoin="miter"/><path d="M245.19086,587.51607v-40.84829h3.52407v40.84829z" fill="#00975f" stroke="none" stroke-width="0" stroke-linecap="butt" stroke-linejoin="miter"/><path d="M245.19086,587.51607v-40.84829h3.53598v40.84829z" fill="none" stroke="#29235c" stroke-width="1.93" stroke-linecap="butt" stroke-linejoin="miter"/><path d="M234.63055,587.51607v-20.4301h14.09629v20.4301z" fill="#00975f" stroke="none" stroke-width="0" stroke-linecap="butt" stroke-linejoin="miter"/><path d="M234.61864,587.51607v-20.4301h14.09629v20.4301z" fill="none" stroke="#29235c" stroke-width="1.93" stroke-linecap="butt" stroke-linejoin="miter"/><path d="M241.75013,531.38093v6.90528" fill="none" stroke="#29235c" stroke-width="1.93" stroke-linecap="butt" stroke-linejoin="miter"/><path d="M239.65473,536.96468c0,-1.16675 0.94055,-2.1073 2.1073,-2.1073c1.16675,0 2.1073,0.94055 2.1073,2.1073c0,1.16675 -0.94055,2.1073 -2.1073,2.1073c-1.16675,0 -2.1073,-0.94055 -2.1073,-2.1073" fill="#00975f" stroke="none" stroke-width="0" stroke-linecap="butt" stroke-linejoin="miter"/><path d="M239.65473,536.96468c0,-1.16675 0.94055,-2.1073 2.1073,-2.1073c1.16675,0 2.1073,0.94055 2.1073,2.1073c0,1.16675 -0.94055,2.1073 -2.1073,2.1073c-1.16675,0 -2.1073,-0.94055 -2.1073,-2.1073z" fill="none" stroke="#29235c" stroke-width="1.93" stroke-linecap="butt" stroke-linejoin="miter"/><path d="M248.72684,545.10814h-14.09629v-1.33343c0,-2.91688 2.35732,-5.2742 5.2742,-5.2742h3.54788c2.91688,0 5.2742,2.35732 5.2742,5.2742z" fill="#00975f" stroke="none" stroke-width="0" stroke-linecap="butt" stroke-linejoin="miter"/><path d="M248.72684,545.10814h-14.09629v-1.33343c0,-2.91688 2.35732,-5.2742 5.2742,-5.2742h3.54788c2.91688,0 5.2742,2.35732 5.2742,5.2742z" fill="none" stroke="#29235c" stroke-width="1.93" stroke-linecap="butt" stroke-linejoin="miter"/><path d="M249.03638,548.48935h-14.72729c-0.76196,0 -1.36915,-0.60719 -1.36915,-1.36915v-0.69053c0,-0.75006 0.60719,-1.36915 1.36915,-1.36915h14.72729c0.75006,0 1.36915,0.60719 1.36915,1.36915v0.69053c0,0.75006 -0.60719,1.36915 -1.36915,1.36915" fill="#00975f" stroke="none" stroke-width="0" stroke-linecap="butt" stroke-linejoin="miter"/><path d="M234.30909,548.48935c-0.75615,0 -1.36915,-0.613 -1.36915,-1.36915v-0.69053c0,-0.75616 0.61299,-1.36915 1.36915,-1.36915h14.72729c0.75615,0 1.36915,0.61299 1.36915,1.36915v0.69053c0,0.75616 -0.613,1.36915 -1.36915,1.36915z" fill="none" stroke="#29235c" stroke-width="1.93" stroke-linecap="butt" stroke-linejoin="miter"/><path d="M200.27084,587.12319c0,-10.28648 8.33396,-18.62044 18.62044,-18.62044c8.16728,0 15.09637,5.2623 17.60846,12.57237c1.76204,-1.262 3.91696,-2.01206 6.23856,-2.01206c0.25002,0 0.50004,0 0.75006,0.02381c5.50041,0.38098 9.65548,5.20277 9.65548,10.71509v2.46447h-52.8849v-4.96466v0c0,-0.05953 0,-0.11906 0,-0.17858" fill="#009fe3" stroke="none" stroke-width="0" stroke-linecap="butt" stroke-linejoin="miter"/><path d="M200.27084,587.12319c0,-10.28648 8.33396,-18.62044 18.62044,-18.62044c8.16728,0 15.09637,5.2623 17.60846,12.57237c1.76204,-1.262 3.91696,-2.01206 6.23856,-2.01206c0.25002,0 0.50004,0 0.75006,0.02381c5.50041,0.38098 9.65548,5.20277 9.65548,10.71509v2.46447h-52.8849v-4.96466v0c0,-0.05953 0,-0.11906 0,-0.17858z" fill="none" stroke="#29235c" stroke-width="1.93" stroke-linecap="butt" stroke-linejoin="miter"/><path d="M226.04657,588.65902c0,-7.20292 5.84567,-13.04859 13.04859,-13.04859c5.72662,0 10.58412,3.67885 12.34616,8.81018c1.22628,-0.89292 2.7383,-1.41677 4.38128,-1.41677c1.10723,0 2.15492,0.23811 3.10737,0.67862c2.61924,1.20247 4.19079,3.94077 4.19079,6.82194v1.76204h-37.06229v-3.47645v0c0,0 0,-0.08334 0,-0.13096" fill="#ffed00" stroke="none" stroke-width="0" stroke-linecap="butt" stroke-linejoin="miter"/><path d="M226.04657,588.65902c0,-7.20292 5.84567,-13.04859 13.04859,-13.04859c5.72662,0 10.58412,3.67885 12.34616,8.81018c1.22628,-0.89292 2.7383,-1.41677 4.38128,-1.41677c1.10723,0 2.15492,0.23811 3.10737,0.67862c2.61924,1.20247 4.19079,3.94077 4.19079,6.82194v1.76204h-37.06229v-3.47645v0c0,0 0,-0.08334 0,-0.13096z" fill="none" stroke="#29235c" stroke-width="1.93" stroke-linecap="butt" stroke-linejoin="miter"/><path d="M218.7246,554.4898c0,1.262 -1.02389,2.28589 -2.28589,2.28589c-1.262,0 -2.28589,-1.02389 -2.28589,-2.28589c0,-1.262 1.02389,-2.28589 2.28589,-2.28589c1.262,0 2.28589,1.02389 2.28589,2.28589" fill="#29235c" stroke="none" stroke-width="0" stroke-linecap="butt" stroke-linejoin="miter"/><path d="M214.16473,559.20443c3.08356,0 5.59566,2.50019 5.59566,5.59566v8.60779h-11.20322v-8.60779c0,-3.08356 2.50019,-5.59566 5.59566,-5.59566v0" fill="#e50d4a" stroke="none" stroke-width="0" stroke-linecap="butt" stroke-linejoin="miter"/><path d="M214.16473,559.20443c3.08356,0 5.59566,2.50019 5.59566,5.59566v8.60779h-11.20322v-8.60779c0,-3.08356 2.50019,-5.59566 5.59566,-5.59566v0z" fill="none" stroke="#29235c" stroke-width="2.17" stroke-linecap="butt" stroke-linejoin="miter"/><path d="M221.54624,587.3613l-3.5836,-2.38113c-1.55964,-1.0477 -2.50019,-2.79783 -2.50019,-4.66702v-6.90528" fill="none" stroke="#29235c" stroke-width="2.32" stroke-linecap="butt" stroke-linejoin="miter"/><path d="M211.86694,573.00308l-4.58368,19.26334" fill="none" stroke="#29235c" stroke-width="2.32" stroke-linecap="butt" stroke-linejoin="miter"/><path d="M211.17641,560.06164v0c-3.155,-2.64305 -4.50034,-6.86956 -3.44073,-10.83414l1.84538,-5.91711" fill="none" stroke="#29235c" stroke-width="2.32" stroke-linecap="butt" stroke-linejoin="miter"/><path d="M213.21228,551.21574l2.85736,-1.44058l1.23819,1.60726l-3.72647,1.85728z" fill="#ffed00" stroke="none" stroke-width="0" stroke-linecap="butt" stroke-linejoin="miter"/><path d="M213.58136,553.2397l-0.36908,-2.02396l2.85736,-1.44058l1.23819,1.60726l-3.72647,1.85728" fill="none" stroke="#29235c" stroke-width="1.16" stroke-linecap="round" stroke-linejoin="round"/><path d="M213.58136,553.2397l3.72647,-1.85728l2.05968,1.08341l-6.35762,3.26215z" fill="#ffed00" stroke="none" stroke-width="0" stroke-linecap="butt" stroke-linejoin="miter"/><path d="M213.58136,553.2397l3.72647,-1.85728l2.05968,1.08341l-6.35762,3.26215z" fill="none" stroke="#29235c" stroke-width="1.16" stroke-linecap="round" stroke-linejoin="round"/><path d="M217.11733,560.06164l5.30992,3.73837c1.55964,1.09532 2.59543,2.79783 2.86926,4.69083l0.32145,2.27398" fill="none" stroke="#29235c" stroke-width="2.32" stroke-linecap="butt" stroke-linejoin="miter"/><path d="M216.18869,579.18212v-8.70303h18.20374v8.70303z" fill="#ffed00" stroke="none" stroke-width="0" stroke-linecap="butt" stroke-linejoin="miter"/><path d="M216.18869,579.18212v-8.70303h18.20374v8.70303z" fill="none" stroke="#29235c" stroke-width="1.45" stroke-linecap="butt" stroke-linejoin="miter"/><path d="M217.99835,574.94371c0,-1.42868 1.15485,-2.59543 2.59543,-2.59543c1.44058,0 2.59543,1.15485 2.59543,2.59543c0,1.44058 -1.15485,2.59543 -2.59543,2.59543c-1.44058,0 -2.59543,-1.15485 -2.59543,-2.59543" fill="#29235c" stroke="none" stroke-width="0" stroke-linecap="butt" stroke-linejoin="miter"/><path d="M227.40382,574.94371c0,-1.42868 1.15485,-2.59543 2.59543,-2.59543c1.44058,0 2.59543,1.15485 2.59543,2.59543c0,1.44058 -1.15485,2.59543 -2.59543,2.59543c-1.44058,0 -2.59543,-1.15485 -2.59543,-2.59543" fill="#29235c" stroke="none" stroke-width="0" stroke-linecap="butt" stroke-linejoin="miter"/><path d="M223.68925,574.01506h3.20262" fill="none" stroke="#29235c" stroke-width="0.77" stroke-linecap="butt" stroke-linejoin="miter"/><path d="M223.68925,575.58661h3.20262" fill="none" stroke="#29235c" stroke-width="0.77" stroke-linecap="butt" stroke-linejoin="miter"/><path d="M254.763,583.31338c0,-4.69083 3.80981,-8.50063 8.50063,-8.50063c4.69083,0 8.50063,3.80981 8.50063,8.50063c0,4.69083 -3.80981,8.50063 -8.50063,8.50063c-4.69083,0 -8.50063,-3.80981 -8.50063,-8.50063z" fill="none" stroke="#29235c" stroke-width="1.54" stroke-linecap="butt" stroke-linejoin="round"/><path d="M283.44372,583.31338c0,-4.69083 3.80981,-8.50063 8.50063,-8.50063c4.69083,0 8.50063,3.80981 8.50063,8.50063c0,4.69083 -3.80981,8.50063 -8.50063,8.50063c-4.69083,0 -8.50063,-3.80981 -8.50063,-8.50063z" fill="none" stroke="#29235c" stroke-width="1.54" stroke-linecap="butt" stroke-linejoin="miter"/><path d="M276.93133,569.75284l5.02418,4.40509l-6.3219,8.50063" fill="none" stroke="#29235c" stroke-width="2.32" stroke-linecap="butt" stroke-linejoin="miter"/><path d="M291.34907,572.00301c-1.33343,0 -2.41685,-1.08341 -2.41685,-2.41685c0,-1.33343 1.08341,-2.41685 2.41685,-2.41685z" fill="#29235c" stroke="none" stroke-width="0" stroke-linecap="butt" stroke-linejoin="miter"/><path d="M287.99168,570.53861l-12.51284,12.77476h-12.36997l7.48865,-12.77476z" fill="none" stroke="#29235c" stroke-width="1.54" stroke-linecap="round" stroke-linejoin="round"/><path d="M284.6819,565.47871h3.29787l1.34534,12.83429c0.09525,1.02389 0.52385,2.00015 1.21438,2.77402l1.88109,2.22636" fill="none" stroke="#29235c" stroke-width="1.54" stroke-linecap="round" stroke-linejoin="miter"/><path d="M272.35956,582.90859c0,-1.9049 1.54773,-3.44073 3.44073,-3.44073c1.893,0 3.44073,1.54773 3.44073,3.44073c0,1.893 -1.53583,3.44073 -3.44073,3.44073c-1.9049,0 -3.44073,-1.54773 -3.44073,-3.44073" fill="#29235c" stroke="none" stroke-width="0" stroke-linecap="butt" stroke-linejoin="miter"/><path d="M269.09741,558.97823c0.72624,1.2739 0.30955,2.88117 -0.90483,3.66694c1.01198,0.32145 1.9049,0.98817 2.46447,1.97634c1.20247,2.09539 0.47623,4.76226 -1.61917,5.96473c-2.09539,1.20247 -4.76226,0.47623 -5.96473,-1.61917c-1.19057,-2.09539 -0.46432,-4.76226 1.63107,-5.96473c0.2143,-0.11906 0.4286,-0.2024 0.64291,-0.28574c-0.40479,-0.23811 -0.76196,-0.55957 -1.01198,-1.00007c-0.75006,-1.32153 -0.29764,-3.01213 1.02389,-3.76219c1.32153,-0.75006 3.01213,-0.29764 3.76219,1.02389" fill="#e50d4a" stroke="none" stroke-width="0" stroke-linecap="butt" stroke-linejoin="miter"/><path d="M269.09741,558.97823c0.72624,1.2739 0.30955,2.88117 -0.90483,3.66694c1.01198,0.32145 1.9049,0.98817 2.46447,1.97634c1.20247,2.09539 0.47623,4.76226 -1.61917,5.96473c-2.09539,1.20247 -4.76226,0.47623 -5.96473,-1.61917c-1.19057,-2.09539 -0.46432,-4.76226 1.63107,-5.96473c0.2143,-0.11906 0.4286,-0.2024 0.64291,-0.28574c-0.40479,-0.23811 -0.76196,-0.55957 -1.01198,-1.00007c-0.75006,-1.32153 -0.29764,-3.01213 1.02389,-3.76219c1.32153,-0.75006 3.01213,-0.29764 3.76219,1.02389z" fill="none" stroke="#29235c" stroke-width="1.54" stroke-linecap="butt" stroke-linejoin="round"/><path d="M266.70437,557.60908l-0.58338,-13.56054" fill="none" stroke="#29235c" stroke-width="2.32" stroke-linecap="butt" stroke-linejoin="round"/><path d="M273.89538,548.96557c0,-1.35724 1.10723,-2.46447 2.46447,-2.46447c1.35724,0 2.46447,1.10723 2.46447,2.46447c0,1.35724 -1.10723,2.46447 -2.46447,2.46447c-1.35724,0 -2.46447,-1.10723 -2.46447,-2.46447" fill="#29235c" stroke="none" stroke-width="0" stroke-linecap="butt" stroke-linejoin="miter"/><path d="M274.60972,554.4898v0c2.25017,0 4.07173,1.82156 4.07173,4.07173v10.47697h-8.13156v-10.47697c0,-2.25017 1.82156,-4.07173 4.07173,-4.07173" fill="#ffffff" stroke="none" stroke-width="0" stroke-linecap="butt" stroke-linejoin="miter"/><path d="M274.60972,554.4898v0c2.25017,0 4.07173,1.82156 4.07173,4.07173v10.47697h-8.13156v-10.47697c0,-2.25017 1.82156,-4.07173 4.07173,-4.07173z" fill="none" stroke="#29235c" stroke-width="2.32" stroke-linecap="butt" stroke-linejoin="miter"/><path d="M284.88429,565.47871h-0.47623c-5.34564,-0.02381 -9.8936,-4.96466 -10.79843,-10.22695" fill="none" stroke="#29235c" stroke-width="2.32" stroke-linecap="butt" stroke-linejoin="miter"/><path d="M272.35956,568.22892l2.50019,8.96496l0.61909,11.01273" fill="none" stroke="#29235c" stroke-width="2.32" stroke-linecap="butt" stroke-linejoin="miter"/><path d="M273.60965,588.2066h3.50026" fill="none" stroke="#29235c" stroke-width="1.54" stroke-linecap="round" stroke-linejoin="round"/><path d="M284.33664,540.90545l0.33336,4.61939c0.07143,1.9049 -0.65481,3.76219 -2.00015,5.11943l-4.57177,4.60749" fill="none" stroke="#29235c" stroke-width="2.32" stroke-linecap="butt" stroke-linejoin="miter"/><path d="M278.86003,548.94176c0,1.36915 -1.10723,2.47638 -2.47638,2.47638c-1.36915,0 -2.47638,-1.10723 -2.47638,-2.47638c0,-1.36915 1.10723,-2.47638 2.47638,-2.47638c1.36915,0 2.47638,1.10723 2.47638,2.47638" fill="#29235c" stroke="none" stroke-width="0" stroke-linecap="butt" stroke-linejoin="miter"/><path d="M279.4077,546.15584c0,0.69053 -0.55957,1.25009 -1.25009,1.25009c-0.69053,0 -1.25009,-0.55957 -1.25009,-1.25009c0,-0.69053 0.55957,-1.25009 1.25009,-1.25009c0.69053,0 1.25009,0.55957 1.25009,1.25009" fill="#29235c" stroke="none" stroke-width="0" stroke-linecap="butt" stroke-linejoin="miter"/><path d="M220.95095,537.20279v1.63107M220.95095,530.95232v5.11943M214.71239,534.905c0,-3.45264 2.78592,-6.23856 6.23856,-6.23856c3.45264,0 6.23856,2.79783 6.23856,6.23856c0,3.44073 -2.79783,6.23856 -6.23856,6.23856c-3.44073,0 -6.23856,-2.79783 -6.23856,-6.23856" fill="#ffffff" stroke="none" stroke-width="0" stroke-linecap="butt" stroke-linejoin="miter"/><path d="M219.43894,541.14356l-1.262,3.30977M220.95095,541.14356c-3.44073,0 -6.23856,-2.78592 -6.23856,-6.23856c0,-3.45264 2.78592,-6.23856 6.23856,-6.23856c3.45264,0 6.23856,2.79783 6.23856,6.23856c0,3.44073 -2.79783,6.23856 -6.23856,6.23856" fill="#ffed00" stroke="none" stroke-width="0" stroke-linecap="butt" stroke-linejoin="miter"/><path d="M219.43894,541.14356l-1.262,3.30977M214.71239,534.905c0,-3.45264 2.78592,-6.23856 6.23856,-6.23856c3.45264,0 6.23856,2.79783 6.23856,6.23856c0,3.44073 -2.79783,6.23856 -6.23856,6.23856c-3.44073,0 -6.23856,-2.78592 -6.23856,-6.23856z" fill="none" stroke="#29235c" stroke-width="1.54" stroke-linecap="butt" stroke-linejoin="miter"/><path d="M223.64163,534.39306c-0.48813,1.00007 -1.51202,1.6906 -2.69068,1.6906c-1.17866,0 -2.20255,-0.69053 -2.69068,-1.6906z" fill="#29235c" stroke="none" stroke-width="0" stroke-linecap="butt" stroke-linejoin="miter"/><path d="M223.64163,532.5834c0,0.44051 -0.35717,0.79768 -0.79768,0.79768c-0.44051,0 -0.79768,-0.35717 -0.79768,-0.79768c0,-0.44051 0.35717,-0.79768 0.79768,-0.79768c0.44051,0 0.79768,0.35717 0.79768,0.79768" fill="#29235c" stroke="none" stroke-width="0" stroke-linecap="butt" stroke-linejoin="miter"/><path d="M219.86754,532.5834c0,0.44051 -0.35717,0.79768 -0.79768,0.79768c-0.44051,0 -0.79768,-0.35717 -0.79768,-0.79768c0,-0.44051 0.35717,-0.79768 0.79768,-0.79768c0.44051,0 0.79768,0.35717 0.79768,0.79768" fill="#29235c" stroke="none" stroke-width="0" stroke-linecap="butt" stroke-linejoin="miter"/><path d="M220.95095,522.32073v3.1669" fill="none" stroke="#29235c" stroke-width="1.54" stroke-linecap="round" stroke-linejoin="miter"/><path d="M215.29577,524.91616l1.893,1.88109" fill="none" stroke="#29235c" stroke-width="1.54" stroke-linecap="round" stroke-linejoin="miter"/><path d="M226.60614,524.91616l-1.893,1.88109" fill="none" stroke="#29235c" stroke-width="1.54" stroke-linecap="round" stroke-linejoin="miter"/><path d="M271.76427,536.05985v-1.63107M271.76427,533.29774v-5.11943M278.00283,532.11908c0,3.44073 -2.78592,6.23856 -6.23856,6.23856c-3.45264,0 -6.23856,-2.78592 -6.23856,-6.23856c0,-3.45264 2.79783,-6.23856 6.23856,-6.23856c3.44073,0 6.23856,2.79783 6.23856,6.23856" fill="#ffffff" stroke="none" stroke-width="0" stroke-linecap="butt" stroke-linejoin="miter"/><path d="M274.53829,541.66741l-1.262,-3.30977M278.00283,532.11908c0,3.44073 -2.78592,6.23856 -6.23856,6.23856c-3.45264,0 -6.23856,-2.78592 -6.23856,-6.23856c0,-3.45264 2.79783,-6.23856 6.23856,-6.23856c3.44073,0 6.23856,2.79783 6.23856,6.23856" fill="#ffed00" stroke="none" stroke-width="0" stroke-linecap="butt" stroke-linejoin="miter"/><path d="M274.53829,541.66741l-1.262,-3.30977M271.76427,538.35764c-3.45264,0 -6.23856,-2.78592 -6.23856,-6.23856c0,-3.45264 2.79783,-6.23856 6.23856,-6.23856c3.44073,0 6.23856,2.79783 6.23856,6.23856c0,3.44073 -2.78592,6.23856 -6.23856,6.23856z" fill="none" stroke="#29235c" stroke-width="1.54" stroke-linecap="butt" stroke-linejoin="miter"/><path d="M274.45495,531.60713c-0.48813,1.00007 -1.50011,1.6906 -2.69068,1.6906c-1.19057,0 -2.20255,-0.69053 -2.69068,-1.6906z" fill="#29235c" stroke="none" stroke-width="0" stroke-linecap="butt" stroke-linejoin="miter"/><path d="M269.0736,529.79748c0,-0.44051 0.35717,-0.79768 0.79768,-0.79768c0.44051,0 0.79768,0.35717 0.79768,0.79768c0,0.44051 -0.35717,0.79768 -0.79768,0.79768c-0.44051,0 -0.79768,-0.35717 -0.79768,-0.79768" fill="#29235c" stroke="none" stroke-width="0" stroke-linecap="butt" stroke-linejoin="miter"/><path d="M272.84769,529.79748c0,-0.44051 0.35717,-0.79768 0.79768,-0.79768c0.44051,0 0.79768,0.35717 0.79768,0.79768c0,0.44051 -0.35717,0.79768 -0.79768,0.79768c-0.44051,0 -0.79768,-0.35717 -0.79768,-0.79768" fill="#29235c" stroke="none" stroke-width="0" stroke-linecap="butt" stroke-linejoin="miter"/><path d="M271.76427,519.54671v3.155" fill="none" stroke="#29235c" stroke-width="1.54" stroke-linecap="round" stroke-linejoin="miter"/><path d="M275.52646,524.02324l1.893,-1.893" fill="none" stroke="#29235c" stroke-width="1.54" stroke-linecap="round" stroke-linejoin="miter"/><path d="M266.10909,522.13024l1.893,1.893" fill="none" stroke="#29235c" stroke-width="1.54" stroke-linecap="round" stroke-linejoin="miter"/><path d="M174.47129,552.8111c0.25002,1.36915 -0.65481,2.69068 -2.02396,2.9407c-1.36915,0.25002 -2.69068,-0.65481 -2.9407,-2.02396c-0.25002,-1.36915 0.65481,-2.69068 2.02396,-2.9407c1.36915,-0.25002 2.69068,0.65481 2.9407,2.02396" fill="#29235c" stroke="none" stroke-width="0" stroke-linecap="butt" stroke-linejoin="miter"/><path d="M173.05452,559.07347c3.35739,-0.60719 6.57192,1.60726 7.19101,4.96466l1.71441,9.34594l-12.15567,2.22636l-1.71441,-9.34594c-0.60719,-3.35739 1.60726,-6.57192 4.96466,-7.19101v0" fill="#e50d4a" stroke="none" stroke-width="0" stroke-linecap="butt" stroke-linejoin="miter"/><path d="M180.24553,564.03813l1.71441,9.34594l-12.15567,2.22636l-1.71441,-9.34594c-0.60719,-3.35739 1.60726,-6.57192 4.96466,-7.19101v0c3.35739,-0.60719 6.57192,1.60726 7.19101,4.96466z" fill="none" stroke="#29235c" stroke-width="2.34" stroke-linecap="butt" stroke-linejoin="miter"/><path d="M189.8772,582.65857c-9.01258,1.66679 -9.97694,-0.29764 -11.03654,-6.94099l-0.46432,-1.6787" fill="none" stroke="#29235c" stroke-width="2.34" stroke-linecap="butt" stroke-linejoin="miter"/><path d="M166.01828,591.44494l7.90535,-16.58457" fill="none" stroke="#29235c" stroke-width="2.34" stroke-linecap="butt" stroke-linejoin="miter"/><path d="M168.01843,565.64539c0.2143,7.94107 -4.11936,7.65533 -4.11936,7.65533" fill="none" stroke="#29235c" stroke-width="2.34" stroke-linecap="butt" stroke-linejoin="miter"/><path d="M177.61438,560.37119c13.97723,0.72624 8.17918,9.96503 8.17918,9.96503" fill="none" stroke="#29235c" stroke-width="2.34" stroke-linecap="butt" stroke-linejoin="miter"/><path d="M158.39866,565.12154l-0.2024,-1.10723c-0.2024,-1.08341 0.51194,-2.13111 1.60726,-2.33351c1.08341,-0.19049 2.13111,0.52385 2.33351,1.61917l3.64313,19.811" fill="none" stroke="#29235c" stroke-width="1.17" stroke-linecap="round" stroke-linejoin="miter"/><path d="M170.4948,550.73952l0.94055,-1.14294c0.69053,-0.8453 1.91681,-1.03579 2.83354,-0.44051c0.91674,0.60719 1.23819,1.80966 0.73815,2.78592l-0.55957,1.09532" fill="#e50d4a" stroke="none" stroke-width="0" stroke-linecap="butt" stroke-linejoin="miter"/><path d="M170.4948,550.73952l0.94055,-1.14294c0.69053,-0.8453 1.91681,-1.03579 2.83354,-0.44051c0.91674,0.60719 1.23819,1.80966 0.73815,2.78592l-0.55957,1.09532" fill="none" stroke="#29235c" stroke-width="1.17" stroke-linecap="round" stroke-linejoin="miter"/><path d="M168.95897,549.8585l7.06005,4.417" fill="#009cb4" stroke="none" stroke-width="0" stroke-linecap="butt" stroke-linejoin="miter"/><path d="M168.95897,549.8585l7.06005,4.417" fill="none" stroke="#29235c" stroke-width="1.17" stroke-linecap="round" stroke-linejoin="miter"/><path d="M168.55418,560.62121c0,0 5.20277,-2.9407 5.36945,-2.9407" fill="none" stroke="#29235c" stroke-width="2.34" stroke-linecap="round" stroke-linejoin="round"/><path d="M16.84239,279.40484c0,-6.80741 13.13386,-15.12674 29.60083,-15.12674c10.88334,0 20.39969,2.41293 25.60477,6.01387c1.60359,1.11189 4.8055,1.61477 7.81287,1.2526c1.51421,-0.18224 3.11779,-0.27912 4.7792,-0.27912c0.22607,0 0.44691,0 0.67298,0.00462c8.99058,0.14302 15.99903,3.28952 15.99903,7.00811v1.73011h-84.685v-3.28491h0.00526c0,-0.03922 -0.00526,-0.07843 -0.00526,-0.11995" fill-opacity="0.61961" fill="#82d0f5" stroke="none" stroke-width="0" stroke-linecap="butt" stroke-linejoin="miter"/></g></g></svg>