<svg xmlns:xlink="http://www.w3.org/1999/xlink" xmlns="http://www.w3.org/2000/svg" viewBox="0 0 176.37 179.17" data-name="Слой 2" id="_Слой_2">
  <defs>
    <style>
      .cls-1 {
        clip-path: url(#clippath);
      }

      .cls-2, .cls-3, .cls-4, .cls-5 {
        fill: none;
      }

      .cls-2, .cls-6, .cls-7, .cls-8 {
        stroke-width: 0px;
      }

      .cls-3 {
        stroke-width: 8.25px;
      }

      .cls-3, .cls-5 {
        stroke: #102d69;
      }

      .cls-4 {
        stroke: #e5006d;
      }

      .cls-4, .cls-5 {
        stroke-width: 9.16px;
      }

      .cls-6 {
        fill: #102d69;
      }

      .cls-7 {
        fill: #83d0f5;
      }

      .cls-8 {
        fill: #fff;
      }
    </style>
    <clipPath id="clippath">
      <path d="M24.48,12.99c-6.23,0-11.33,5.1-11.33,11.33v133.27c0,6.24,5.06,11.31,11.31,11.31h133.27c6.23,0,11.33-5.1,11.33-11.33V24.3c0-6.24-5.06-11.31-11.31-11.31H24.48Z" class="cls-2"/>
    </clipPath>
  </defs>
  <g data-name="Слой 1" id="_Слой_1-2">
    <g class="cls-1">
      <rect height="179.17" width="174.66" class="cls-7"/>
      <path d="M86.47,121.22c-19.64,0-35.6-15.97-35.6-35.6s15.97-35.61,35.6-35.61,35.6,15.97,35.6,35.61-15.97,35.6-35.6,35.6" class="cls-8"/>
      <line y2="112.89" x2="58.77" y1="162.37" x1="9.3" class="cls-4"/>
      <line y2="85.61" x2="122.07" y1="85.61" x1="176.37" class="cls-5"/>
      <path d="M86.47,124.13c21.27,0,38.52-17.24,38.52-38.52s-17.24-38.52-38.52-38.52-38.52,17.24-38.52,38.52,17.24,38.52,38.52,38.52Z" class="cls-3"/>
      <path d="M83,91.59c.12,4.58-3.59,8.62-9.94,8.62s-10.02-4.01-10.02-8.54c0-2.87,1.51-5.37,4.08-6.88-1.4-1.17-2.34-2.76-2.38-4.69-.12-3.78,2.95-7.18,8.32-7.18s8.32,3.33,8.32,7.07c0,1.93-.95,3.63-2.42,4.84,2.53,1.51,4.01,3.93,4.04,6.77M77.51,91.4c0-2.38-1.77-4.16-4.46-4.16s-4.46,1.89-4.46,4.27,1.78,4.01,4.46,4.01,4.46-1.81,4.46-4.12M76.42,80.21c0-1.62-1.4-2.88-3.37-2.88-2.08,0-3.4,1.29-3.4,2.91s1.4,2.91,3.4,2.91,3.37-1.29,3.37-2.95" class="cls-6"/>
      <path d="M88.67,91.4h23.01v-4.39h-23.01v4.39ZM88.67,84.21h23.01v-4.39h-23.01v4.39Z" class="cls-6"/>
      <rect transform="translate(-30.48 102.78) rotate(-48)" height="4.39" width="28.15" y="83.42" x="86.1" class="cls-6"/>
    </g>
  </g>
</svg>