<svg version="1.1" xmlns="http://www.w3.org/2000/svg" xmlns:xlink="http://www.w3.org/1999/xlink" width="192.67822" height="135.63019" viewBox="0,0,192.67822,135.63019"><g transform="translate(-84.60869,-293.70137)"><g data-paper-data="{&quot;isPaintingLayer&quot;:true}" fill-rule="nonzero" stroke-width="5.5" stroke-linecap="butt" stroke-linejoin="miter" stroke-miterlimit="10" stroke-dasharray="" stroke-dashoffset="0" style="mix-blend-mode: normal"><path d="M101.01488,426.58156c-6.08563,0 -11.01898,-5.14452 -11.01898,-11.49063v-104.04363c0,-6.34611 4.93337,-11.49063 11.01898,-11.49063h162.50304c6.08563,0 11.01899,5.14452 11.01899,11.49063v104.04363c0,6.34611 -4.93337,11.49063 -11.01899,11.49063z" fill="none" stroke-opacity="0.81569" stroke="#000000"/><path d="M98.37768,423.47626c-6.08562,0 -11.01899,-5.14452 -11.01899,-11.49063v-104.04363c0,-6.34611 4.93337,-11.49063 11.01899,-11.49063h162.50304c6.08562,0 11.01899,5.14452 11.01899,11.49063v104.04363c0,6.34611 -4.93337,11.49063 -11.01899,11.49063z" fill-opacity="0.01569" fill="#00ff46" stroke="#3aab34"/></g></g></svg>