<svg xmlns:xlink="http://www.w3.org/1999/xlink" xmlns="http://www.w3.org/2000/svg" viewBox="0 0 182.41 210.45" data-name="Слой 2" id="_Слой_2">
  <defs>
    <style>
      .cls-1 {
        stroke: #ffed00;
        stroke-dasharray: 0 0 0 0 0 0 13.75 4.58 13.75 4.58 13.75 4.58;
        stroke-miterlimit: 10;
        stroke-width: 4.58px;
      }

      .cls-1, .cls-2 {
        fill: none;
      }

      .cls-3 {
        clip-path: url(#clippath);
      }

      .cls-2, .cls-4, .cls-5, .cls-6 {
        stroke-width: 0px;
      }

      .cls-4 {
        fill: #102d69;
      }

      .cls-5 {
        fill: #83d0f5;
      }

      .cls-6 {
        fill: #ffed00;
      }
    </style>
    <clipPath id="clippath">
      <path d="M13.85,41.36v133.13c0,6.29,5.1,11.39,11.39,11.39h133.1c6.28,0,11.41-5.14,11.41-11.41V41.36c0-6.29-5.1-11.39-11.39-11.39H25.24c-6.29,0-11.39,5.1-11.39,11.39Z" class="cls-2"/>
    </clipPath>
  </defs>
  <g data-name="Слой 1" id="_Слой_1-2">
    <g class="cls-3">
      <rect height="174.14" width="181.71" y="22.75" x=".7" class="cls-5"/>
      <rect height="41.96" width="41.95" y="86.85" x="70.23" class="cls-4"/>
      <polygon points="76.99 100.53 76.99 96.76 84.97 96.76 84.97 115.65 88.88 115.65 88.88 119.36 76.54 119.36 76.54 115.65 80.35 115.65 80.35 100.53 76.99 100.53" class="cls-6"/>
      <path d="M94.42,112.74c.13,1.9,1.42,2.88,3.36,2.88,2.1,0,3.42-1.45,3.46-3.52-.1-3.62-3.46-4.14-6.36-3.62v-.68l4.17-7.17h-7.98v-3.84h14.37v.68l-4.91,7.88c3.62.61,5.26,3.58,5.26,6.71,0,4.01-2.84,7.72-7.94,7.72-4.23,0-7.49-2.68-7.65-7.04h4.23Z" class="cls-6"/>
      <polyline points="31.9 193.82 31.9 168.47 4.67 168.53" class="cls-1"/>
      <polyline points="152.26 193.82 152.26 168.47 173.33 168.53" class="cls-1"/>
      <line y2="140.69" x2="127.03" y1="140.69" x1="179.8" class="cls-1"/>
      <line y2="210.45" x2="58.63" x1="58.63" class="cls-1"/>
      <line y2="140.69" x2="63.76" y1="140.69" x1="116.54" class="cls-1"/>
      <line y2="140.69" y1="140.69" x1="52.77" class="cls-1"/>
      <line y2="210.45" x2="123.55" x1="123.55" class="cls-1"/>
      <line y2="74.76" x2="127.03" y1="74.76" x1="179.8" class="cls-1"/>
      <line y2="74.76" x2="63.76" y1="74.76" x1="116.54" class="cls-1"/>
      <line y2="74.76" y1="74.76" x1="52.77" class="cls-1"/>
      <polyline points="6.35 48.08 32.18 48.08 32.12 24.92" class="cls-1"/>
      <polyline points="176.73 48.08 151.99 48.08 152.05 23.92" class="cls-1"/>
    </g>
  </g>
</svg>