<svg xmlns="http://www.w3.org/2000/svg" viewBox="0 0 155.74 156.17" data-name="Слой 2" id="_Слой_2">
  <defs>
    <style>
      .cls-1 {
        fill: none;
        stroke: #2c2757;
        stroke-width: 1.45px;
      }

      .cls-2 {
        fill: #2c2757;
      }

      .cls-2, .cls-3 {
        stroke-width: 0px;
      }

      .cls-3 {
        fill: #ffe90b;
      }
    </style>
  </defs>
  <g data-name="Слой 1" id="_Слой_1-2">
    <g>
      <rect ry="11.12" rx="11.12" height="156.17" width="155.74" x="0" class="cls-3"/>
      <path d="M89.54,75.98c-.18,2.35-1.6,4.62-3.02,6.61l-14.15,19.86v1.83h25.61v-7.42h-13.02c5.08-6.55,6.86-9.52,8.05-11.17,7.92-10.56,3.65-21.96-7.65-21.96-7.81,0-12.5,4.56-12.5,12.37h7.31c0-3.93,2.68-5.08,4.96-5.08s4.56,1.67,4.4,4.96M55.07,94.58l3.09,5.26,3.07,4.45h7.71v-.91l-9.3-13.4,8.44-12.27v-.91h-8.17l-2.39,3.52-2.57,4.69h-.16l-2.63-4.62-2.44-3.59h-7.65v.86l8.16,12.03-9.54,13.7v.91h7.99l2.98-4.22,3.25-5.48h.16Z" class="cls-2"/>
      <polygon points="17.54 19.75 135.59 19.75 135.59 137.8 129.48 137.8 129.48 25.86 17.54 25.86 17.54 19.75" class="cls-2"/>
      <polyline points="115.31 123.2 115.31 129.81 108.7 129.81" class="cls-1"/>
      <path d="M42.74,131.99v-4.35h14.43v4.35h-14.43ZM64.39,131.99v-4.35h14.43v4.35h-14.43ZM86.04,131.99v-4.35h14.43v4.35h-14.43Z" class="cls-2"/>
      <polyline points="32.14 129.81 25.53 129.81 25.53 123.2" class="cls-1"/>
      <path d="M23.35,57.24h4.35v14.43h-4.35v-14.43ZM23.35,78.89h4.35v14.43h-4.35v-14.43ZM23.35,100.54h4.35v14.43h-4.35v-14.43Z" class="cls-2"/>
      <polyline points="25.53 46.64 25.53 40.03 32.14 40.03" class="cls-1"/>
      <path d="M98.1,37.85v4.35h-14.43v-4.35h14.43ZM76.45,37.85v4.35h-14.43v-4.35h14.43ZM54.8,37.85v4.35h-14.43v-4.35h14.43Z" class="cls-2"/>
      <polyline points="108.7 40.03 115.31 40.03 115.31 46.64" class="cls-1"/>
      <path d="M117.48,112.6h-4.35v-14.43h4.35v14.43ZM117.48,90.95h-4.35v-14.43h4.35v14.43ZM117.48,69.3h-4.35v-14.43h4.35v14.43Z" class="cls-2"/>
    </g>
  </g>
</svg>