<svg xmlns:xlink="http://www.w3.org/1999/xlink" xmlns="http://www.w3.org/2000/svg" viewBox="0 0 175 173.32" data-name="Слой 2" id="_Слой_2">
  <defs>
    <style>
      .cls-1 {
        clip-path: url(#clippath);
      }

      .cls-2, .cls-3, .cls-4 {
        fill: none;
      }

      .cls-2, .cls-5, .cls-6, .cls-7 {
        stroke-width: 0px;
      }

      .cls-3 {
        stroke: #102d69;
        stroke-width: 3.67px;
      }

      .cls-5 {
        fill: #102d69;
      }

      .cls-6 {
        fill: #83d0f5;
      }

      .cls-7 {
        fill: #fff;
      }

      .cls-4 {
        stroke: #ffed00;
        stroke-miterlimit: 10;
        stroke-width: 5.5px;
      }
    </style>
    <clipPath id="clippath">
      <rect height="155.91" width="155.91" y="8.46" x="12.08" class="cls-2"/>
    </clipPath>
  </defs>
  <g data-name="Слой 1" id="_Слой_1-2">
    <g>
      <rect ry="11.53" rx="11.53" height="155.91" width="155.91" y="8.46" x="12.08" class="cls-6"/>
      <g class="cls-1">
        <line y2="173.32" x2="59.57" x1="59.57" class="cls-4"/>
        <line y2="172.32" x2="119.97" y1="1" x1="119.97" class="cls-4"/>
        <line y2="55.59" x2="2.16" y1="55.59" x1="174.5" class="cls-4"/>
        <line y2="115.98" y1="115.98" x1="175" class="cls-4"/>
        <polyline points="3.64 26.16 30.4 26.16 30.34 3" class="cls-4"/>
        <polyline points="175 26.16 150.25 26.16 150.31 2" class="cls-4"/>
        <polyline points="30.14 172.82 30.14 146.55 .15 146.62" class="cls-4"/>
        <polyline points="150.52 172.82 150.52 146.55 172.51 146.62" class="cls-4"/>
        <path d="M89.76,104.95c-10.57,0-19.16-8.59-19.16-19.16s8.6-19.16,19.16-19.16,19.16,8.6,19.16,19.16-8.6,19.16-19.16,19.16" class="cls-7"/>
        <path d="M89.76,106.51c11.45,0,20.73-9.28,20.73-20.73s-9.28-20.73-20.73-20.73-20.73,9.28-20.73,20.73,9.28,20.73,20.73,20.73Z" class="cls-3"/>
        <path d="M85.67,92.21l4.3-7.08c-.29.16-.62.24-.97.24-3.79.14-6.46-2.21-6.46-6.08,0-4.3,3.12-6.35,7.13-6.35s7.07,2.04,7.07,6.35c0,1.37-.48,2.88-1.21,4.04l-5.46,8.87h-4.41ZM86.56,79.3c0,1.94,1.18,3.01,3.12,3.01s3.15-1.08,3.15-3.01-1.21-2.93-3.15-2.93-3.12,1.02-3.12,2.93" class="cls-5"/>
        <rect height="3.18" width="13.34" y="94.96" x="83.11" class="cls-5"/>
      </g>
    </g>
  </g>
</svg>