<svg xmlns:xlink="http://www.w3.org/1999/xlink" xmlns="http://www.w3.org/2000/svg" viewBox="0 0 171.5 171.5" data-name="Слой 2" id="_Слой_2">
  <defs>
    <style>
      .cls-1 {
        clip-path: url(#clippath);
      }

      .cls-2, .cls-3, .cls-4, .cls-5 {
        fill: none;
      }

      .cls-2, .cls-6, .cls-7, .cls-8 {
        stroke-width: 0px;
      }

      .cls-3, .cls-5 {
        stroke: #e6164b;
        stroke-width: 5.5px;
      }

      .cls-4 {
        stroke: #29265b;
        stroke-width: 8.25px;
      }

      .cls-6 {
        fill: #f39208;
      }

      .cls-7 {
        fill: #fff;
      }

      .cls-8 {
        fill: #e6164b;
      }

      .cls-5 {
        stroke-dasharray: 0 0 18.09 12.59;
      }
    </style>
    <clipPath id="clippath">
      <rect ry="11.57" rx="11.57" height="155.91" width="155.91" y="7.26" x="7.44" class="cls-2"/>
    </clipPath>
  </defs>
  <g data-name="Слой 1" id="_Слой_1-2">
    <g class="cls-1">
      <rect height="171.5" width="171.5" class="cls-6"/>
      <path d="M85.75,121.35c-19.64,0-35.61-15.97-35.61-35.6s15.97-35.61,35.61-35.61,35.6,15.97,35.6,35.61-15.97,35.6-35.6,35.6" class="cls-7"/>
      <circle transform="translate(-17.41 21.99) rotate(-13.28)" r="38.52" cy="85.75" cx="85.75" class="cls-4"/>
      <path d="M106.89,140.39c17.28-6.69,30.6-21.35,35.44-39.47" class="cls-5"/>
      <path d="M140.38,64.61c-6.69-17.28-21.35-30.6-39.47-35.44" class="cls-5"/>
      <path d="M64.61,31.11c-17.28,6.69-30.6,21.35-35.44,39.47" class="cls-5"/>
      <path d="M31.11,106.89c6.69,17.28,21.35,30.6,39.47,35.44" class="cls-5"/>
      <path d="M76.74,143.63c2.94.45,5.95.69,9.01.69s6.07-.24,9.01-.69M27.87,76.74c-.45,2.94-.69,5.94-.69,9.01s.23,6.07.69,9.01M94.75,27.87c-2.94-.45-5.94-.69-9.01-.69s-6.07.24-9.01.69M143.63,94.76c.45-2.94.69-5.94.69-9.01s-.24-6.07-.69-9.01" class="cls-3"/>
      <path d="M85.75,110.18c13.49,0,24.43-10.93,24.43-24.43s-10.94-24.42-24.43-24.42-24.43,10.93-24.43,24.42,10.94,24.43,24.43,24.43" class="cls-8"/>
      <polygon points="76.13 90.41 78.06 93.7 79.99 96.48 84.82 96.48 84.82 95.91 78.99 87.51 84.28 79.82 84.28 79.25 79.17 79.25 77.67 81.47 76.06 84.4 75.95 84.4 74.31 81.5 72.77 79.25 67.98 79.25 67.98 79.79 73.09 87.33 67.12 95.91 67.12 96.48 72.13 96.48 73.99 93.84 76.02 90.41 76.13 90.41" class="cls-7"/>
      <path d="M97.72,78.75c-.11,1.47-1,2.9-1.9,4.15l-8.87,12.44v1.14h16.05v-4.65h-8.15c3.18-4.11,4.29-5.97,5.04-7.01,4.97-6.61,2.29-13.76-4.79-13.76-4.9,0-7.83,2.86-7.83,7.76h4.58c0-2.47,1.68-3.18,3.11-3.18s2.86,1.04,2.75,3.11" class="cls-7"/>
    </g>
  </g>
</svg>