<svg version="1.1" xmlns="http://www.w3.org/2000/svg" xmlns:xlink="http://www.w3.org/1999/xlink" width="334.01445" height="460.1743" viewBox="0,0,334.01445,460.1743"><g transform="translate(-37,-187.8257)"><g data-paper-data="{&quot;isPaintingLayer&quot;:true}" fill-rule="nonzero" stroke="none" stroke-width="0" stroke-linecap="butt" stroke-linejoin="miter" stroke-miterlimit="10" stroke-dasharray="" stroke-dashoffset="0" style="mix-blend-mode: normal"><path d="M229.11934,223.53779c0,-6.80741 13.13386,-15.12674 29.60083,-15.12674c10.88334,0 20.39969,2.41293 25.60477,6.01387c1.60359,1.11189 4.8055,1.61477 7.81287,1.2526c1.51421,-0.18224 3.11779,-0.27912 4.7792,-0.27912c0.22607,0 0.44691,0 0.67298,0.00462c8.99058,0.14302 15.99903,3.28952 15.99903,7.00811v1.73011h-84.685v-3.28491h0.00526c0,-0.03922 -0.00526,-0.07843 -0.00526,-0.11995" fill-opacity="0.54902" fill="#f08996"/><path d="M311.40561,200.15336c0,0.04362 0,0.12214 0,0.12214v0v3.28039h-51.58122v-3.28039c1.0797,-3.13208 5.21853,-5.46151 10.15429,-5.46151c2.27508,0 4.38305,0.49729 6.09257,1.33484c2.44217,-4.84207 9.20313,-8.32313 17.17232,-8.32313c10.02576,0 18.16204,5.52258 18.16204,12.32765" fill-opacity="0.18431" fill="#f08996"/><path d="M99.00226,295.77033c0,0.04362 0,0.12215 0,0.12215v0v3.28039h-51.58122v-3.28039c1.0797,-3.13208 5.21853,-5.46151 10.15429,-5.46151c2.27508,0 4.38305,0.49729 6.09257,1.33484c2.44217,-4.84207 9.20313,-8.32313 17.17232,-8.32313c10.02576,0 18.16204,5.52258 18.16204,12.32765" fill-opacity="0.53333" fill="#f08996"/><path d="M286.54477,212.24644c0,-6.80741 13.13386,-15.12674 29.60083,-15.12674c10.88334,0 20.39969,2.41293 25.60477,6.01387c1.60359,1.11189 4.8055,1.61477 7.81287,1.2526c1.51421,-0.18224 3.11779,-0.27912 4.7792,-0.27912c0.22607,0 0.44691,0 0.67298,0.00462c8.99058,0.14302 15.99903,3.28952 15.99903,7.00811v1.73011h-84.685v-3.28491h0.00526c0,-0.03922 -0.00526,-0.07843 -0.00526,-0.11995" fill-opacity="0.42745" fill="#f08996"/><path d="M37,648.00001v-55h289v55z" fill="#272557"/><g><path d="M111.7873,528.58381c6.36363,-4.19707 13.32385,-7.01255 20.73413,-8.65579c3.50628,-0.78499 7.08582,-1.10945 10.67583,-1.42344c3.06668,-0.27213 6.07057,-0.0314 9.08492,0.13606c3.904,0.2198 7.77661,0.94198 11.55501,2.00957c6.55203,1.8421 12.69586,4.61573 18.35824,8.41507c2.47009,1.65371 4.78319,3.51674 7.01255,5.50538c4.05054,3.61094 7.26375,7.87081 10.36183,12.28767c3.32835,4.74132 8.08014,6.83462 13.93091,5.88217c3.91447,-0.63846 7.74521,-1.60137 11.77481,-1.56997c7.38935,0.04187 14.09837,2.07237 20.13754,6.26943c6.0601,4.20753 10.3095,9.81758 12.58073,16.88246c0.48146,0.34539 0.46053,0.85825 0.47099,1.36064c0.02093,0.96292 -0.0942,1.9363 0.0314,2.88875c0.29306,2.29216 -0.50239,4.14473 -1.98863,5.82984c-0.63846,0.73265 -1.29785,1.07805 -2.29216,0.87919c-3.67374,-0.72219 -6.1543,1.30831 -6.68809,4.52153c-0.27213,1.64324 -0.62799,1.86304 -2.27123,1.86304c-5.40071,0.02093 -10.80143,0 -16.19167,0c-0.16746,0 -0.33493,0 -0.50239,-0.01047c-0.51286,-0.02093 -1.11992,-0.05233 -1.26645,-0.60706c-0.16746,-0.61752 0.32446,-1.08852 0.84779,-1.22458c1.08852,-0.26166 1.19318,-0.99432 1.15131,-1.89444c-0.0314,-0.96292 0.02093,-1.92584 -0.02093,-2.88875c-0.07327,-1.42344 -0.69079,-2.05143 -2.08283,-2.1561c-2.24681,-0.16048 -3.63536,-1.35716 -4.16567,-3.59001c-0.1884,-0.81639 -0.37679,-1.63277 -0.62799,-2.42823c-0.38726,-1.24551 -0.98385,-1.69557 -2.27123,-1.76884c-0.50239,-0.0314 -1.00478,-0.02093 -1.50718,-0.02093c-0.99432,0 -1.70604,-0.33493 -1.9049,-1.41298c-0.1256,-0.73265 -0.62799,-1.04665 -1.33971,-1.06758c-0.62799,-0.02093 -1.25598,-0.02093 -1.88397,0c-0.72219,0.02093 -1.20365,0.35586 -1.39204,1.04665c-0.2826,1.06758 -1.00478,1.55951 -2.04097,1.42344c-2.00957,-0.27213 -3.27601,0.62799 -4.33313,2.27123c-0.95245,1.46531 -2.13517,2.78409 -3.21322,4.16567c-0.73265,0.94198 -1.60137,1.43391 -2.79456,1.37111c-0.33493,-0.02093 -0.66986,0 -1.00478,0c-1.58044,0.05233 -1.98863,0.45006 -2.02003,2.05143c-0.02093,1.08852 0.0314,2.17703 -0.02093,3.26555c-0.04187,1.00478 0.32446,1.49671 1.38158,1.42344c0.58612,-0.04187 1.17225,0 1.75837,0c0.38726,0.01047 0.75359,0.07327 1.08852,0.26166c0.45006,0.26166 0.91059,0.59659 0.78499,1.16178c-0.11513,0.51286 -0.65939,0.59659 -1.13038,0.59659c-2.63756,0.04187 -5.27512,0.0628 -7.91267,0c-1.15131,-0.0314 -1.68511,-0.58612 -1.74791,-1.71651c-0.0628,-1.06758 -0.19886,-2.13517 0.32446,-3.19228c0.34539,-0.70126 0.17793,-1.56997 0.08373,-2.35496c-0.35586,-3.10855 -0.70126,-6.22757 -0.76405,-9.35705c-0.04187,-2.38636 0.69079,-4.69946 1.24551,-7.01255c0.19886,-0.84779 1.00478,-1.18271 1.73744,-1.51764c2.30263,-1.02572 3.71561,-2.78409 4.2494,-5.24372c0.0628,-0.31399 0.1884,-0.63846 -0.157,-0.98385c-0.2826,0.50239 -0.33493,1.03618 -0.48146,1.53858c-0.84779,2.80502 -3.29695,4.58433 -6.17523,4.53199c-1.38158,-0.0314 -2.76316,-0.01047 -4.14473,0c-0.72219,0 -1.31878,0.2198 -1.66417,0.90012c-0.69079,1.39204 -1.55951,2.66896 -2.17703,4.0924c-0.57566,1.31878 -0.32446,1.89444 1.01525,2.41776c2.83642,1.11992 2.90969,1.49671 1.00478,3.904c-1.23505,1.55951 -2.63756,2.96202 -3.83074,4.13427c0.94198,-1.02572 2.29216,-2.11423 3.30741,-3.51674c0.2512,-0.34539 0.57566,-0.87919 1.08852,-0.65939c0.54426,0.24073 0.46053,0.83732 0.37679,1.33971c-0.35586,2.14563 -0.93152,4.23893 -1.36064,6.3741c-0.1256,0.62799 -0.2198,1.22458 0.08373,1.83164c0.2826,0.58612 0.24073,1.21411 0.10466,1.8421c-0.48146,2.2817 -0.96292,2.66896 -3.30741,2.67942c-1.21411,0 -2.42823,0.01047 -3.64234,0c-2.0933,-0.02093 -3.02482,-1.58044 -1.88397,-3.34928c0.60706,-0.95245 0.57566,-1.83164 0.50239,-2.84689c-0.20933,-3.20275 -0.57566,-6.4055 -0.62799,-9.61871c-0.01047,-0.97338 0.2198,-1.61184 1.37111,-1.8735c1.04665,-0.23026 1.86304,-1.08852 2.62709,-1.86304c0.64892,-0.64892 0.1884,-1.41298 -0.36633,-1.70604c-1.56997,-0.83732 -3.07715,-1.70604 -4.36453,-2.98295c-0.57566,-0.56519 -1.50718,-0.35586 -2.2817,-0.10466c-0.80592,0.26166 -1.28738,0 -1.45484,-0.84779c-0.31399,-1.62231 -0.62799,-3.25508 -0.78499,-4.88786c-0.0942,-0.97338 0.83732,-1.15131 1.56997,-1.29785c1.47578,-0.2826 2.97249,-0.47099 4.4378,-0.77452c0.20933,-0.04187 0.41866,-0.04187 0.61752,-0.11513c0.23026,-0.08373 0.54426,-0.10466 0.59659,-0.38726c0.05233,-0.30353 -0.24073,-0.41866 -0.46053,-0.50239c-2.50149,-0.94198 -4.98205,-1.95724 -7.50448,-2.83642c-0.41866,-0.14653 -0.84779,-0.0942 -1.18271,0.19886c-1.9677,1.68511 -3.97727,3.31788 -5.89264,5.06579c-0.20933,0.1884 -0.53379,0.38726 -0.40819,0.71172c0.16746,0.41866 0.55472,0.2198 0.87919,0.1884c1.82117,-0.23026 3.61094,-0.70126 5.44258,-0.90012c1.42344,-0.14653 1.8735,0.23026 2.0619,1.65371c0.16746,1.30831 0.35586,2.61662 0.66986,3.904c0.2826,1.17225 0.13606,2.20843 -0.57566,3.20275c-0.56519,0.77452 -1.10945,1.56997 -1.58044,2.41776c-0.62799,1.14085 -0.19886,1.85257 1.10945,1.88397c1.44438,0.04187 1.73744,0.30353 1.75837,1.78977c0.04187,3.43301 -0.41866,6.83462 -0.63846,10.2467c-0.05233,0.83732 -0.0628,1.50718 0.61752,2.1561c0.73265,0.71172 0.65939,1.69557 0.35586,2.59569c-0.30353,0.87919 -1.11992,0.88965 -1.89444,0.88965c-5.14952,0 -10.29904,0.01047 -15.43809,0c-1.21411,0 -2.49103,-1.15131 -2.60616,-2.32356c-0.05233,-0.54426 0.37679,-0.85825 0.78499,-1.02572c2.87829,-1.20365 2.29216,-2.23983 1.19318,-4.54246c-0.39773,-0.82685 -0.71172,-1.69557 -1.14085,-2.51196c-0.63846,-1.21411 -1.17225,-1.44438 -2.43869,-1.06758c-1.86304,0.55472 -2.14563,0.37679 -2.96202,-1.37111c-0.55472,-1.20365 -0.69079,-2.3131 -0.1884,-3.61094c0.74312,-1.92584 0.11513,-3.88307 -1.48624,-5.18092c-0.68032,-0.55472 -1.39204,-1.06758 -2.13517,-1.53858c-1.40251,-0.87919 -2.51196,-0.86872 -3.80981,0.1256c-0.66986,0.51286 -1.35018,1.00478 -2.16657,1.24551c-0.95245,0.27213 -1.41298,-0.14653 -1.17225,-1.09898c0.24073,-0.95245 0.68032,-1.78977 1.69557,-2.1875c0.70126,-0.2826 1.30831,-2.53289 0.88965,-3.16088c-0.37679,-0.57566 -1.43391,-0.49193 -1.58044,0.23026c-0.42913,2.07237 -1.49671,3.88307 -2.14563,5.86124c-0.40819,1.23505 0.42913,1.9363 1.67464,1.53858c1.7793,-0.56519 1.9049,-0.47099 2.54336,1.23505c0.55472,1.50718 0.68032,2.98295 0.16746,4.53199c-0.32446,0.99432 -0.56519,2.00957 -0.82685,3.02482c-0.23026,0.93152 -0.52332,1.82117 0.02093,2.77362c0.24073,0.42913 0.10466,1.00478 -0.02093,1.47578c-0.42913,1.61184 0.16746,3.04575 0.70126,4.50059c0.11513,0.30353 0.31399,0.73265 0.69079,0.55472c0.40819,-0.19886 0.10466,-0.59659 -0.02093,-0.87919c-0.69079,-1.52811 -1.05712,-3.08762 -0.51286,-4.74132c0.13606,-0.39773 0.2826,-0.79545 0.60706,-1.07805c0.65939,-0.59659 1.54904,-0.40819 1.7793,0.48146c0.62799,2.42823 1.01525,4.90879 1.32925,7.38935c0.11513,0.87919 -0.42913,1.35018 -1.26645,1.36064c-3.68421,0.0628 -7.36842,0.07327 -11.05262,0c-1.05712,-0.02093 -1.47578,-0.55472 -1.49671,-1.76884c-0.05233,-2.3445 -0.0314,-4.68899 0,-7.03349c0,-0.96292 -0.0628,-1.70604 -1.31878,-1.80024c-0.90012,-0.0628 -1.17225,-0.82685 -1.18271,-1.65371c-0.02093,-1.42344 -0.01047,-2.84689 -0.01047,-4.27033c0,-3.72607 0,-7.45215 0,-11.16775c0,-2.45963 0.24073,-2.68989 2.75269,-2.70036c0.87919,0 1.75837,-0.01047 2.63756,0c0.79545,0 1.14085,-0.35586 1.13038,-1.14085c-0.01047,-0.75359 -0.0314,-1.50718 0,-2.26076c0.05233,-0.97338 -0.38726,-1.33971 -1.35018,-1.32925c-2.47009,0.02093 -4.94019,0.02093 -7.41028,0c-1.91537,-0.01047 -2.2817,-0.36633 -2.29216,-2.27123c-0.02093,-1.8421 0,-3.68421 0,-5.52631c0,-1.68511 -0.0628,-1.73744 -1.80024,-1.73744c-1.75837,0 -3.51674,0 -5.27512,0c-0.37679,0 -0.75359,0.02093 -1.11992,-0.0942c-0.42913,-0.1256 -0.77452,-0.35586 -0.81639,-0.83732c-0.05233,-0.48146 0.20933,-0.80592 0.61752,-0.99432c0.53379,-0.24073 1.10945,-0.38726 1.65371,-0.57566c3.49581,-1.22458 5.43211,-4.2808 5.22278,-8.23713c-0.16746,-3.21322 -2.66896,-6.1229 -5.94497,-6.93929c-0.78499,-0.19886 -1.58044,-0.10466 -2.3759,-0.14653c-0.53379,-0.0314 -1.10945,0.02093 -1.43391,-0.55472z" fill="#ef8997"/><path d="M111.7873,528.58381c1.72697,0.157 3.46441,-0.13606 5.17045,0.51286c2.65849,1.02572 4.92972,4.2808 5.15998,7.10675c0.37679,4.57386 -2.73176,8.5616 -7.30562,9.23145c-0.35586,0.05233 -0.51286,0.16746 -0.51286,0.53379c0,0.52332 0.36633,0.47099 0.69079,0.47099c2.42823,0 4.85646,0.05233 7.28468,-0.02093c1.01525,-0.0314 1.38158,0.19886 1.33971,1.28738c-0.0942,2.30263 0.02093,4.60526 -0.05233,6.89742c-0.0314,1.04665 0.17793,1.44438 1.35018,1.41298c2.84689,-0.10466 5.69378,0 8.54066,-0.05233c0.88965,-0.02093 1.28738,0.157 1.21411,1.15131c-0.0942,1.16178 -0.0942,2.3445 0,3.50628c0.08373,1.00478 -0.32446,1.19318 -1.21411,1.15131c-1.42344,-0.0628 -2.84689,0.02093 -4.27033,-0.0314c-0.77452,-0.0314 -1.08852,0.14653 -1.08852,1.01525c0.04187,5.61004 0.04187,11.20962 0,16.81966c0,0.86872 0.31399,1.14085 1.07805,0.99432c1.25598,-0.23026 1.51764,0.33493 1.47578,1.50718c-0.0942,2.67942 -0.02093,5.35885 -0.0314,8.03827c0,0.57566 -0.0314,1.03618 0.81639,1.02572c4.01914,-0.04187 8.0278,-0.02093 12.14114,-0.02093c-0.48146,-2.80502 -0.94198,-5.53678 -1.40251,-8.279c-0.04187,-0.26166 -0.0628,-0.49193 -0.40819,-0.50239c-0.42913,-0.02093 -0.66986,0.1256 -0.84779,0.55472c-0.81639,1.9991 -0.52332,3.904 0.62799,5.63098c0.45006,0.68032 0.26166,0.95245 -0.24073,1.27691c-0.52332,0.33493 -0.97338,0.50239 -1.38158,-0.27213c-1.10945,-2.08283 -1.58044,-4.218 -0.96292,-6.54156c0.05233,-0.20933 0.34539,-0.57566 -0.0314,-0.59659c-1.22458,-0.0628 -0.62799,-0.77452 -0.50239,-1.27691c0.51286,-2.02003 1.03618,-4.05054 1.62231,-6.0601c0.19886,-0.68032 -0.1884,-1.19318 -0.2826,-1.7793c-0.13606,-0.80592 -0.60706,-1.52811 -0.64892,-2.43869c-0.45006,0.2198 -0.86872,0.38726 -1.25598,0.60706c-0.80592,0.46053 -1.60137,0.49193 -2.29216,-0.14653c-0.72219,-0.66986 -0.50239,-1.52811 -0.2512,-2.3131c0.24073,-0.74312 0.53379,-1.48624 0.93152,-2.14563c0.65939,-1.08852 1.00478,-2.26076 1.11992,-3.48534c0.10466,-0.97338 0.71172,-0.83732 1.32925,-0.86872c0.68032,-0.0314 1.39204,0.08373 1.41298,0.85825c0.0314,1.02572 -0.14653,2.0619 -0.31399,3.07715c-0.0314,0.2198 -0.39773,0.53379 -0.62799,0.54426c-1.75837,0.08373 -1.38158,1.71651 -2.02003,2.61662c0.99432,-0.34539 1.9363,-0.66986 2.71082,-1.38158c1.29785,-1.21411 2.85735,-1.27691 4.39593,-0.26166c0.72219,0.47099 1.45484,0.93152 2.14563,1.44438c2.05143,1.50718 2.68989,4.19707 1.59091,6.54156c-0.30353,0.64892 0.54426,3.77841 1.16178,4.1866c0.34539,0.23026 0.59659,-0.07327 0.86872,-0.20933c1.9677,-0.99432 3.16088,-0.64892 3.97727,1.44438c0.53379,1.38158 1.17225,2.71082 1.75837,4.07147c0.48146,1.11992 0.1256,2.11423 -0.96292,2.67942c-0.65939,0.34539 -1.31878,0.66986 -1.97817,1.01525c-0.0628,0.0314 -0.11513,0.10466 -0.2198,0.20933c1.38158,-0.04187 1.22458,0.81639 1.01525,1.8107c1.04665,0 2.07237,0 3.09808,0c4.81459,0 9.62918,0 14.44377,0c0.37679,0 0.95245,0.16746 0.90012,-0.51286c-0.0628,-0.74312 0.42913,-1.9049 -0.31399,-2.13517c-1.03618,-0.31399 -1.04665,-0.93152 -0.88965,-1.58044c0.40819,-1.63277 0.2512,-3.30741 0.38726,-4.94019c0.1884,-2.27123 0.49193,-4.55293 0.34539,-6.85556c-0.04187,-0.62799 -0.0942,-0.92105 -0.86872,-0.64892c-0.79545,0.2826 -1.69557,0.27213 -2.20843,-0.60706c-0.45006,-0.77452 -0.19886,-1.49671 0.30353,-2.1875c0.31399,-0.42913 0.51286,-0.96292 0.87919,-1.33971c1.43391,-1.45484 1.62231,-3.15042 1.10945,-5.02392c-0.26166,-0.95245 -0.39773,-1.92584 -0.51286,-2.90969c-0.0942,-0.75359 -0.2512,-1.31878 -1.41298,-0.99432c-1.9677,0.54426 -4.0296,0.77452 -6.07057,1.07805c-0.49193,0.07327 -1.20365,0.27213 -1.46531,-0.36633c-0.23026,-0.56519 0.26166,-0.91059 0.69079,-1.28738c2.08283,-1.76884 4.1552,-3.55861 6.16477,-5.40071c0.59659,-0.54426 1.20365,-0.57566 1.83164,-0.33493c2.73176,1.02572 5.43211,2.11423 8.16387,3.11902c0.49193,0.17793 0.69079,0.41866 0.64892,0.88965c-0.04187,0.47099 -0.34539,0.57566 -0.76405,0.64892c-2.17703,0.38726 -4.3436,0.84779 -6.5311,1.20365c-0.71172,0.11513 -0.71172,0.27213 -0.56519,0.94198c0.37679,1.71651 0.58612,3.48534 0.85825,5.24372c2.38636,-1.15131 3.79934,-0.78499 5.09719,1.37111c0.26166,0.42913 0.54426,0.51286 0.98385,0.53379c1.40251,0.07327 2.2189,0.99432 2.85735,2.10377c0.26166,0.45006 0.05233,0.87919 -0.35586,1.20365c-0.93152,0.75359 -1.86304,1.49671 -2.78409,2.27123c-0.48146,0.40819 -0.81639,-0.34539 -1.32925,-0.07327c0.0628,3.68421 0.41866,7.39981 0.70126,11.11542c0.07327,0.87919 0.78499,2.0933 -0.74312,2.81549c-0.54426,0.26166 -0.23026,1.49671 -0.13606,2.26076c0.08373,0.63846 0.75359,0.34539 1.15131,0.35586c1.75837,0.0314 3.51674,-0.02093 5.27512,0.0314c0.81639,0.02093 1.22458,-0.23026 1.33971,-1.04665c0.08373,-0.56519 0.36633,-1.08852 0.45006,-1.65371c0.05233,-0.36633 0.29306,-0.73265 -0.24073,-1.16178c-0.54426,-0.43959 -0.2512,-1.28738 -0.0942,-1.97817c0.55472,-2.39683 1.07805,-4.79366 1.60137,-7.20095c0.02093,-0.10466 -0.0314,-0.2198 -0.07327,-0.47099c-1.32925,1.85257 -2.93062,3.30741 -4.44826,4.82506c-0.29306,0.29306 -0.63846,0.93152 -1.08852,0.50239c-0.47099,-0.43959 0.157,-0.79545 0.45006,-1.09898c1.83164,-1.86304 3.73654,-3.65281 5.17045,-5.88217c0.51286,-0.80592 0.51286,-1.10945 -0.45006,-1.29785c-0.55472,-0.11513 -1.07805,-0.40819 -1.63277,-0.55472c-1.65371,-0.42913 -1.69557,-1.70604 -1.17225,-2.78409c0.79545,-1.63277 1.67464,-3.21322 2.51196,-4.82506c0.33493,-0.63846 0.92105,-0.76405 1.58044,-0.75359c1.50718,0 3.04575,-0.1884 4.51106,0.04187c3.04575,0.47099 5.82984,-2.84689 5.95544,-5.50538c0.0314,-0.61752 -0.04187,-1.15131 0.87919,-1.07805c0.96292,0.07327 0.61752,0.74312 0.61752,1.19318c0.02093,2.79456 -2.04097,5.56818 -5.13905,6.77182c-0.78499,0.30353 -1.05712,0.66986 -1.16178,1.49671c-0.2198,1.8735 -0.87919,3.68421 -0.97338,5.57864c-0.0628,1.17225 -0.07327,2.36543 0.04187,3.53768c0.29306,2.87829 0.65939,5.75657 0.71172,8.65579c0,0.40819 -0.34539,0.78499 -0.38726,1.02572c-0.16746,1.05712 -0.19886,2.17703 0,3.22368c0.13606,0.73265 0.99432,0.39773 1.53858,0.40819c2.79456,0.0314 5.59958,0.01047 8.41507,0.01047c-0.38726,-0.90012 -1.05712,-1.02572 -1.9049,-1.02572c-1.10945,0 -2.58523,0.53379 -3.22368,-0.2512c-0.53379,-0.66986 -0.157,-2.08283 -0.16746,-3.17135c0,-0.79545 0,-1.59091 0,-2.38636c0.02093,-1.19318 0.76405,-2.08283 1.9049,-1.91537c2.42823,0.36633 3.95634,-0.62799 5.15998,-2.64802c0.87919,-1.47578 2.05143,-2.78409 3.10855,-4.14473c0.53379,-0.69079 1.20365,-1.11992 2.14563,-1.03618c0.50239,0.04187 1.00478,-0.02093 1.50718,0.01047c0.87919,0.0628 1.56997,0.05233 1.61184,-1.18271c0.0314,-0.96292 0.75359,-1.38158 1.72697,-1.33971c0.79545,0.0314 1.59091,0 2.38636,0c1.00478,0.01047 1.59091,0.53379 1.51764,1.52811c-0.0628,0.92105 0.37679,1.01525 1.10945,0.98385c3.92494,-0.14653 4.22847,0.14653 5.02392,3.92494c0.08373,0.39773 0.24073,0.78499 0.33493,1.18271c0.43959,1.77232 1.55253,2.66198 3.33881,2.66896c1.9677,0 2.76316,0.81639 2.76316,2.81549c0,1.29785 -0.0314,2.59569 0.01047,3.89354c0.02093,0.74312 -0.0942,1.22458 -0.99432,1.07805c-0.68032,-0.10466 -1.06758,0.2826 -1.37111,0.85825c0.35586,0.2512 0.74312,0.1256 1.08852,0.1256c5.69378,0.01047 11.38755,0 17.08133,0.02093c0.75359,0 1.19318,0.0314 1.31878,-1.04665c0.49193,-4.2494 3.64234,-6.30083 7.77661,-5.24372c0.46053,0.11513 0.74312,0.14653 1.07805,-0.39773c0.53379,-0.86872 1.03618,-1.80024 1.8735,-2.45963c0.39773,-0.31399 0.27213,-0.76405 0.2826,-1.16178c0.02093,-2.17703 0.0314,-4.35406 0.04187,-6.52063c0.34539,-0.92105 0.2826,-1.9363 0.73265,-2.85735c0.97338,-2.02003 2.58523,-3.25508 4.64713,-3.88307c0.75359,-0.23026 1.18271,-0.46053 1.11992,-1.30831c-0.0628,-0.91059 0.49193,-1.24551 1.33971,-1.23505c1.67464,0.01047 3.34928,0.0314 5.02392,0c0.97338,-0.0314 1.56997,0.41866 1.60137,1.32925c0.0314,0.94198 0.53379,0.95245 1.22458,0.94198c4.35406,-0.01047 8.70813,-0.0314 13.06219,0c1.94677,0.02093 3.68421,0.63846 4.87739,2.30263c0.26166,0.35586 0.58612,0.39773 0.95245,0.48146c3.32835,0.72219 6.2799,2.19796 8.72906,4.55293c1.50718,1.44438 2.68989,3.17135 3.55861,5.08672c0.27213,0.58612 0.45006,0.75359 1.17225,0.47099c4.11333,-1.61184 8.04874,-1.31878 11.35615,1.8107c2.1247,2.00957 3.24461,4.62619 3.07715,7.63008c-0.0628,1.19318 0.27213,1.68511 1.50718,1.53858c0.86872,-0.10466 1.74791,-0.05233 1.76884,1.18271c0.02093,1.30831 -0.92105,1.30831 -1.82117,1.30831c-15.74161,0 -31.47276,0 -47.21438,0c-75.29599,0 -150.59199,0 -225.87752,0c-0.37679,0 -0.75359,0 -1.13038,0c-0.70126,0.01047 -1.25598,-0.27213 -1.42344,-0.97338c-0.16746,-0.70126 0.16746,-1.25598 0.84779,-1.45484c0.52332,-0.157 0.57566,-0.47099 0.60706,-0.92105c0.47099,-6.3741 3.00389,-11.80621 7.63008,-16.18121c3.46441,-3.27601 7.65101,-5.23325 12.35047,-6.03917c0.73265,-0.1256 0.86872,-0.40819 0.85825,-1.04665c-0.01047,-4.64713 -0.01047,-9.28378 0,-13.93091c0,-0.54426 -0.157,-0.96292 -0.56519,-1.31878c-0.93152,-0.82685 -1.8735,-1.65371 -2.77362,-2.52243c-0.63846,-0.60706 -1.17225,-0.04187 -1.72697,0.10466c-3.37021,0.85825 -6.4997,0.45006 -9.02212,-2.0933c-2.82595,-2.84689 -3.92494,-7.96501 -0.0942,-12.28767c0.56519,-0.63846 0.62799,-1.20365 0.59659,-1.89444c-0.1256,-3.28648 0.75359,-6.25897 2.72129,-8.87559c2.41776,-3.13995 5.57864,-4.98205 9.51405,-5.62051c4.70992,-0.76405 8.77093,0.64892 12.16207,3.75747c2.47009,2.26076 3.904,5.22278 4.2808,8.6244c0.13606,1.24551 0.41866,2.47009 -0.02093,3.69467c-0.46053,1.31878 0.49193,1.65371 1.32925,2.2817c3.09808,2.33403 3.91447,6.0601 1.9991,9.32565c-1.64324,2.79456 -4.90879,4.50059 -8.74999,2.92015c-1.35018,-0.55472 -2.27123,-0.34539 -3.19228,0.62799c2.71082,1.33971 3.82027,3.83074 2.78409,6.4683c-0.56519,1.43391 -1.70604,2.26076 -3.17135,2.76316c-1.52811,0.53379 -2.83642,-0.0942 -4.3122,-0.65939c0,3.00389 0,5.87171 0,8.74999c0,0.58612 0.34539,0.69079 0.81639,0.66986c1.70604,-0.05233 3.41208,0.04187 5.08672,0.42913c0.57566,0.13606 0.60706,-0.27213 0.60706,-0.66986c0,-1.21411 0,-2.42823 0,-3.64234c0,-3.06668 2.72129,-5.87171 5.77751,-5.89264c1.83164,-0.01047 3.67374,-0.1884 5.48445,0.24073c1.40251,0.19886 2.36543,1.23505 2.77362,2.97249c0.37679,1.58044 0.43959,1.64324 2.0619,1.7793c1.9991,0.16746 3.19228,1.41298 3.25508,3.43301c0.0314,1.13038 0.0314,2.26076 0,3.39115c-0.05233,2.08283 -1.15131,3.45394 -3.18182,3.94587c-0.19886,0.05233 -0.41866,0.05233 -0.61752,0.10466c-0.53379,0.13606 -1.19318,0.30353 -1.09898,0.97338c0.07327,0.59659 0.73265,0.42913 1.16178,0.42913c1.09898,0 2.10377,0.08373 3.05622,0.82685c0.82685,0.64892 3.09808,-0.69079 3.11902,-1.75837c0.05233,-3.64234 0.0314,-7.28468 0.01047,-10.91656c0,-0.79545 -0.40819,-1.11992 -1.17225,-1.11992c-1.17225,-0.01047 -2.3445,0.02093 -3.51674,-0.02093c-1.35018,-0.05233 -1.76884,-0.48146 -1.82117,-1.85257c-0.04187,-1.04665 -0.04187,-2.0933 0,-3.13995c0.05233,-1.33971 0.49193,-1.78977 1.85257,-1.8107c2.51196,-0.05233 5.02392,0 7.53588,-0.02093c1.51764,-0.01047 1.62231,-0.1256 1.64324,-1.66417c0.02093,-1.9677 -0.02093,-3.9354 0.02093,-5.90311c0.0314,-1.50718 0.46053,-1.92584 1.9677,-1.95724c1.9991,-0.05233 3.98774,0.0314 6.00777,-0.11513c-2.73176,-0.93152 -4.85646,-2.61662 -5.82984,-5.30652c-0.93152,-2.57476 -1.44438,-5.28558 0.77452,-7.63008c1.23505,-2.2817 3.28648,-3.49581 5.65191,-4.29126z" fill="#29235c"/><path d="M106.1354,532.87508c-2.3759,5.04485 -0.29306,10.90609 5.85077,12.5284c0.39773,0.10466 0.88965,0 0.78499,0.65939c-0.0942,0.59659 -0.58612,0.36633 -0.90012,0.37679c-2.38636,0.02093 -4.77272,0.04187 -7.15909,0c-0.77452,-0.01047 -1.00478,0.2198 -0.98385,0.98385c0.04187,2.51196 -0.01047,5.02392 0.0314,7.53588c0.02093,0.81639 -0.23026,1.06758 -1.04665,1.05712c-2.97249,-0.04187 -5.94497,0.01047 -8.91746,-0.04187c-0.87919,-0.01047 -1.17225,0.23026 -1.11992,1.11992c0.07327,1.25598 0.05233,2.51196 0,3.76794c-0.0314,0.70126 0.19886,0.95245 0.92105,0.93152c1.59091,-0.04187 3.18182,0 4.77272,-0.0314c0.63846,-0.01047 0.86872,0.17793 0.86872,0.84779c-0.0314,4.14473 -0.02093,8.28947 0,12.42373c0,0.62799 -0.1256,1.00478 -0.86872,1.07805c-0.59659,0.05233 -1.21411,0.27213 -1.75837,0.54426c-0.70126,0.33493 -1.32925,0.93152 -1.64324,-0.39773c-0.10466,-0.42913 -0.64892,-0.43959 -1.07805,-0.42913c-0.87919,0.02093 -1.75837,-0.04187 -2.63756,0.02093c-0.84779,0.0628 -0.93152,-0.42913 -0.77452,-1.00478c0.23026,-0.86872 0.81639,-1.46531 1.75837,-1.50718c2.17703,-0.0942 3.74701,-1.61184 3.50628,-3.8726c-0.10466,-0.99432 -0.02093,-2.00957 -0.02093,-3.01435c0,-1.88397 -1.03618,-2.90969 -2.93062,-2.92015c-1.91537,-0.01047 -2.0619,-0.157 -2.35496,-2.0619c-0.2198,-1.44438 -1.20365,-2.3759 -2.29216,-3.21322c1.02572,-2.41776 1.91537,-4.89832 3.15042,-7.22188c2.11423,-3.9668 4.56339,-7.70334 7.53588,-11.10496c2.11423,-2.40729 4.35406,-4.67853 6.79276,-6.75089c0.157,-0.1256 0.35586,-0.19886 0.53379,-0.30353z" fill="#ef8998"/><path d="M190.40118,563.06047c0,1.13038 -0.59659,1.70604 -1.75837,1.70604c-1.04665,0 -1.73744,-0.71172 -1.76884,-1.76884c0,-0.27213 0.35586,-0.58612 -0.2826,-0.82685c-0.55472,-0.20933 -0.64892,-0.97338 -0.16746,-1.45484c0.40819,-0.41866 1.10945,-0.39773 1.44438,-0.02093c0.37679,0.43959 0.74312,0.50239 1.23505,0.59659c0.95245,0.16746 1.30831,0.72219 1.29785,1.76884z" fill="#2c245b"/><path d="M174.06297,565.53055c-0.48146,-0.01047 -0.87919,0.0628 -1.15131,-0.2826c-0.74312,-0.95245 -0.92105,-2.14563 -1.29785,-3.24461c-0.20933,-0.61752 0.92105,-1.13038 1.39204,-0.57566c0.43959,0.51286 0.95245,0.50239 1.46531,0.68032c0.83732,0.29306 1.47578,0.94198 1.29785,1.86304c-0.16746,0.90012 -0.63846,1.73744 -1.71651,1.56997z" fill="#2b235b"/><path d="M143.92992,564.42111c0.02093,1.20365 -0.54426,1.85257 -1.62231,1.86304c-0.96292,0 -1.9049,-0.87919 -1.88397,-1.7793c0.01047,-0.99432 0.78499,-1.72697 1.8421,-1.73744c1.14085,-0.01047 1.65371,0.50239 1.67464,1.65371z" fill="#2b235b"/><path d="M113.72361,561.76262c3.89354,0 7.78708,0.02093 11.67015,-0.02093c0.85825,0 1.24551,0.11513 1.23505,1.13038c-0.05233,5.55771 -0.04187,11.12589 0,16.69407c0,0.83732 -0.26166,1.06758 -1.06758,1.03618c-1.59091,-0.0628 -3.05622,0 -4.56339,-1.05712c-1.33971,-0.95245 -3.17135,-0.77452 -4.69946,0.1884c-0.31399,0.19886 -0.59659,0.43959 -0.91059,0.62799c-1.09898,0.64892 -2.00957,0.24073 -2.35496,-0.96292c-0.86872,-3.06668 -3.29695,-3.77841 -6.0601,-3.20275c-1.02572,0.20933 -1.82117,-0.11513 -2.70036,-0.19886c-0.60706,-0.0628 -1.22458,-0.16746 -1.8421,-0.17793c-1.9363,-0.04187 -1.68511,0.26166 -1.68511,-1.63277c-0.02093,-3.68421 0.05233,-7.36842 -0.0314,-11.04216c-0.0314,-1.20365 0.37679,-1.42344 1.47578,-1.40251c3.85167,0.0628 7.70334,0.02093 11.54455,0.02093z" fill="#ee8997"/><path d="M68.3932,545.57094c1.53858,-3.89354 1.66417,-7.68241 -1.59091,-10.77003c-2.94109,-2.78409 -6.45783,-3.08762 -10.1525,-1.55951c-0.66986,-4.22847 2.36543,-9.98504 7.73474,-12.32954c4.42733,-1.9363 10.5293,-1.35018 14.82056,3.63188c3.20275,3.70514 4.19707,9.00119 1.71651,13.98324c-2.42823,4.86692 -7.66148,7.66148 -12.51793,7.04395z" fill="#e5074a"/><path d="M287.49889,591.05835c0.35586,-0.75359 0.83732,-0.96292 1.48624,-0.93152c0.92105,0.0314 1.8421,-0.04187 2.76316,0.02093c0.88965,0.0628 1.14085,-0.2826 1.13038,-1.15131c-0.0314,-5.23325 -0.02093,-10.45603 -0.01047,-15.68928c0,-1.63277 0.05233,-1.66417 1.56997,-1.08852c4.70992,1.7793 7.93361,5.05532 9.63965,9.76524c0.39773,1.09898 0.79545,0.73265 1.40251,0.34539c2.88875,-1.88397 5.87171,-2.10377 8.96979,-0.50239c2.80502,1.45484 4.91925,5.42165 4.55293,8.58253c-0.0628,0.53379 -0.27213,0.74312 -0.77452,0.72219c-0.08373,0 -0.16746,0 -0.2512,0c-9.96411,0 -19.91775,0 -29.88185,0c-0.157,0 -0.32446,-0.0314 -0.58612,-0.0628z" fill="#3ba934"/><path d="M259.77314,572.81524c0.17793,-1.98863 3.17135,-4.27033 5.62051,-4.27033c7.10675,0 14.22397,-0.02093 21.33073,0c2.98295,0.01047 4.97159,2.60616 4.91925,5.01345c-0.11513,4.63666 -0.0628,9.28378 -0.01047,13.92044c0.01047,1.05712 -0.1884,1.54904 -1.36064,1.40251c-0.98385,-0.11513 -1.94677,0.1256 -2.78409,-0.86872c-0.64892,-0.77452 -1.72697,-0.55472 -2.39683,0.26166c-0.35586,0.43959 -0.69079,0.60706 -1.23505,0.59659c-2.63756,-0.02093 -5.27512,-0.01047 -7.90221,0c-0.51286,0 -0.88965,-0.07327 -1.24551,-0.58612c-0.65939,-0.94198 -1.9049,-0.94198 -2.64802,-0.04187c-0.38726,0.47099 -0.75359,0.63846 -1.33971,0.63846c-3.47488,-0.0314 -6.93929,0 -10.41417,-0.0314c-0.37679,0 -1.03618,0.29306 -1.04665,-0.48146c-0.01047,-0.78499 0.64892,-0.47099 1.03618,-0.50239c1.86304,-0.14653 3.72607,0.11513 5.61004,-0.17793c1.40251,-0.2198 1.45484,-1.02572 1.33971,-2.04097c-0.11513,-1.04665 -0.91059,-1.29785 -1.80024,-1.30831c-1.80024,-0.02093 -3.60048,0 -5.40071,-0.01047c-0.33493,0 -0.81639,0.14653 -0.81639,-0.47099c0,-0.37679 -0.07327,-0.73265 0.56519,-0.53379c1.83164,0.55472 3.72607,0.2198 5.58911,0.24073c1.19318,0.02093 2.3445,-1.23505 2.36543,-2.45963c0.0314,-2.00957 0.0314,-4.01914 0,-6.01824c-0.02093,-1.22458 -1.21411,-2.26076 -2.61662,-2.2817c-1.7793,-0.02093 -3.56908,0 -5.34838,0z" fill="#1bb7db"/><path d="M68.5816,574.88761c0,1.42344 -0.01047,2.84689 0,4.25987c0,0.58612 -0.1256,0.99432 -0.71172,1.30831c-1.72697,0.92105 -3.07715,2.27123 -4.061,3.94587c-0.30353,0.51286 -0.54426,0.64892 -1.15131,0.47099c-3.74701,-1.10945 -7.55681,1.02572 -7.63008,5.36931c-0.01047,0.61752 -0.1884,0.91059 -0.85825,0.90012c-1.33971,-0.0314 -2.67942,-0.04187 -4.00867,0c-0.73265,0.02093 -0.97338,-0.2826 -0.90012,-0.96292c0.55472,-4.81459 2.19796,-9.13725 5.37978,-12.87379c3.39115,-3.97727 7.64054,-6.39503 12.69586,-7.57775c1.16178,-0.27213 1.28738,0.07327 1.26645,1.02572c-0.04187,1.38158 -0.01047,2.75269 -0.01047,4.13427z" fill="#3aaa34"/><path d="M73.79391,585.09245c0.05233,-0.40819 0.2512,-0.47099 0.47099,-0.47099c2.74222,0.04187 4.375,-2.3445 4.375,-5.00299c-0.01047,-5.10765 0.0314,-10.2153 -0.02093,-15.31249c-0.02093,-2.45963 2.02003,-4.50059 4.4692,-4.54246c1.00478,-0.02093 2.00957,-0.02093 3.01435,0c1.30831,0.0314 2.47009,1.14085 2.57476,2.40729c0.16746,2.07237 1.26645,3.07715 3.38068,3.10855c0.40819,0 0.81639,-0.0628 1.21411,0.16746c0.41866,0.23026 0.66986,0.56519 0.62799,0.98385c-0.05233,0.56519 -0.58612,0.34539 -0.90012,0.34539c-2.88875,0.02093 -5.77751,0 -8.66626,0.01047c-1.21411,0 -2.14563,0.74312 -2.17703,1.71651c-0.0314,0.97338 0.90012,1.80024 2.0933,1.7793c0.75359,0 1.19318,-0.05233 0.96292,1.03618c-0.24073,1.11992 -0.0942,2.33403 -0.04187,3.50628c0.0314,0.75359 -0.1884,1.01525 -0.98385,1.01525c-2.1247,0.01047 -2.16657,0.01047 -2.30263,-2.05143c-0.02093,-0.37679 0.01047,-0.86872 -0.46053,-0.88965c-0.58612,-0.0314 -0.52332,0.51286 -0.54426,0.92105c-0.13606,2.40729 0.35586,3.06668 2.78409,2.94109c1.35018,-0.07327 1.02572,1.01525 1.33971,1.51764c0.75359,1.17225 -0.04187,4.55293 -1.00478,5.61004c-0.59659,0.65939 -1.35018,1.11992 -2.13517,1.15131c-2.67942,0.0942 -5.36931,0.04187 -8.08014,0.04187z" fill="#1ab7dc"/><path d="M67.82801,541.02848c0.35586,3.70514 -3.35975,7.39981 -7.34748,7.21142c-3.74701,-0.1884 -6.88696,-3.18182 -6.94976,-7.04395c-0.07327,-3.9982 3.32835,-7.32655 7.36842,-7.30562c3.61094,0.02093 7.11722,3.30741 6.92882,7.13815z" fill="#e5074a"/><path d="M68.5188,591.14208c-3.59001,0 -7.19048,-0.04187 -10.78049,0.02093c-1.06758,0.02093 -1.27691,-0.42913 -1.21411,-1.33971c0.1884,-2.64802 3.43301,-4.53199 5.89264,-3.40161c1.17225,0.54426 2.0305,0.24771 2.57476,-0.88965c1.72697,-3.62141 6.51016,-5.57864 10.16297,-4.14473c0.30353,0.11513 0.74312,0.1884 0.77452,0.55472c0.0314,0.39773 -0.43959,0.42913 -0.71172,0.59659c-0.39773,0.2512 -0.85825,0.27213 -1.31878,0.32446c-1.35018,0.16746 -2.05143,1.00478 -2.05143,2.36543c0,2.53289 1.95724,4.53199 4.59479,4.63666c1.08852,0.04187 2.17703,0 3.25508,0.02093c0.40819,0 0.87919,-0.0628 0.91059,0.57566c0.0314,0.71172 -0.47099,0.66986 -0.94198,0.66986c-3.71561,0 -7.44168,0 -11.15729,0v0z" fill="#80358c"/><path d="M206.71845,586.32749c0,-0.33493 0.0314,-0.66986 0,-1.00478c-0.11513,-1.03618 0.2198,-1.63277 1.38158,-1.46531c0.66986,0.0942 1.10945,-0.26166 1.48624,-0.74312c1.52811,-2.00957 3.05622,-4.04007 4.59479,-6.03917c0.49193,-0.64892 1.07805,-1.08852 2.00957,-1.01525c1.20365,0.0942 2.42823,0.04187 3.64234,0.02093c0.99432,-0.02093 1.53858,0.40819 1.74791,1.39204c0.37679,1.82117 0.83732,3.63188 1.22458,5.45305c0.14653,0.69079 0.48146,0.98385 1.20365,0.95245c0.96292,-0.04187 1.92584,0.02093 2.88875,-0.01047c0.99432,-0.0314 1.48624,0.38726 1.44438,1.40251c-0.0314,0.87919 0,1.75837 -0.01047,2.63756c0,0.49193 -0.10466,0.95245 -0.68032,0.39773c-0.91059,-0.87919 -1.7793,-0.74312 -2.63756,0.02093c-0.35586,0.31399 -0.75359,0.31399 -1.17225,0.31399c-3.26555,0 -6.58343,0.35586 -9.77571,-0.13606c-1.89444,-0.2826 -3.59001,-0.81639 -5.37978,0.1256c-0.13606,0.07327 -0.33493,-0.01047 -0.49193,0.01047c-1.11992,0.16746 -1.65371,-0.24073 -1.46531,-1.42344c0.04187,-0.2826 0,-0.58612 0,-0.87919z" fill="#3aa934"/><path d="M113.53521,555.73392c-2.45963,0 -4.92972,-0.0314 -7.38935,0.01047c-0.72219,0.01047 -0.92105,-0.20933 -0.90012,-0.91059c0.04187,-1.9991 0.04187,-4.00867 0,-6.00777c-0.02093,-0.73265 0.24073,-0.88965 0.93152,-0.88965c5.01345,0.02093 10.01644,0.0314 15.02989,0c0.72219,0 0.92105,0.20933 0.90012,0.91059c-0.04187,1.9991 -0.04187,4.00867 0,6.00777c0.02093,0.73265 -0.24073,0.90012 -0.92105,0.88965c-2.54336,-0.0314 -5.09719,-0.01047 -7.64054,-0.01047z" fill="#f5f1b2"/><path d="M113.79687,557.49229c6.01824,0 12.04694,0.04187 18.06518,-0.0314c1.28738,-0.02093 1.24551,0.56519 1.28738,1.48624c0.05233,1.02572 -0.24073,1.33971 -1.30831,1.33971c-12.13067,-0.04187 -24.26134,-0.02093 -36.38155,-0.04187c-0.40819,0 -1.05712,0.26166 -1.19318,-0.32446c-0.16746,-0.72219 -0.23026,-1.52811 0.04187,-2.2189c0.16746,-0.40819 0.76405,-0.19886 1.16178,-0.19886c6.10197,-0.01047 12.2144,0 18.31637,0z" fill="#1ab7db"/><path d="M113.66081,530.12239c3.57954,-0.2826 7.03349,3.37021 6.93929,6.75089c-0.10466,3.97727 -3.04575,6.97069 -6.93929,7.08582c-3.62141,0.11513 -7.05442,-3.64234 -6.96022,-6.97069c0.0942,-3.55861 3.20275,-7.10675 6.96022,-6.86602z" fill="#1bb7dc"/><path d="M93.97332,570.30328c-0.64892,0.84779 -1.23505,1.22458 -2.11423,1.27691c-1.89444,0.10466 -3.17135,1.53858 -3.18182,3.47488c-0.01047,2.26076 0,4.51106 0,6.77182c-0.02093,3.51674 -2.52243,6.10197 -6.1857,6.2799c-1.83164,0.0942 -3.67374,0.0314 -5.51585,0.01047c-1.71651,-0.02093 -2.87829,-0.92105 -3.22368,-2.50149c2.51196,0 5.01345,-0.07327 7.50448,0.02093c2.32356,0.08373 4.63666,-2.16657 4.42733,-4.4064c-0.1256,-1.30831 -0.02093,-2.63756 -0.02093,-4.05054c0.37679,0.31399 0.20933,0.62799 0.2512,0.90012c0.0314,0.1884 -0.04187,0.42913 0.2512,0.48146c0.65939,0.11513 0.83732,-0.71172 1.53858,-0.74312c0.40819,-0.02093 0.2826,-0.90012 0.13606,-1.33971c-0.13606,-0.43959 -0.54426,-0.75359 -1.07805,-0.64892c-1.00478,0.1884 -1.22458,-0.30353 -1.11992,-1.17225c0.14653,-1.18271 -0.1884,-2.38636 0.2198,-3.57954c0.17793,-0.52332 0.35586,-0.78499 0.91059,-0.77452c0.92105,0.02093 1.8421,0 2.76316,0c1.41298,0 2.82595,0 4.42733,0z" fill="#f4f2b2"/><path d="M76.87106,575.06553c0,1.46531 -0.0314,2.93062 0.01047,4.38546c0.02093,0.70126 -0.26166,0.78499 -0.80592,0.59659c-1.66417,-0.57566 -3.33881,-0.99432 -5.11812,-0.53379c-0.56519,0.14653 -0.60706,-0.27213 -0.60706,-0.68032c0,-2.93062 0,-5.85077 0,-8.78139c0,-0.51286 0.1884,-0.74312 0.73265,-0.76405c1.71651,-0.05233 3.40161,0.10466 5.07625,0.46053c0.59659,0.1256 0.73265,0.39773 0.72219,0.93152c-0.02093,1.46531 0,2.93062 0,4.38546z" fill="#3ba934"/><path d="M152.05193,591.13162c-2.00957,0 -3.89354,-0.0314 -5.76704,0.02093c-0.77452,0.02093 -0.98385,-0.35586 -1.09898,-1.01525c-0.37679,-2.30263 -0.77452,-4.60526 -1.20365,-6.90789c-0.1256,-0.66986 0.05233,-0.93152 0.74312,-0.88965c0.53379,0.04187 1.07805,0 1.71651,0c-0.61752,-2.35496 -1.16178,-4.61573 -1.80024,-6.84509c-0.43959,-1.52811 0.40819,-2.76316 0.78499,-4.10287c0.13606,-0.49193 0.36633,-0.08373 0.50239,0.04187c0.93152,0.90012 1.13038,3.03528 0.24073,3.9982c-0.74312,0.80592 -0.75359,1.47578 -0.2512,2.41776c1.95724,3.66327 3.55861,7.50448 5.40071,11.20962c0.33493,0.68032 0.49193,1.31878 0.73265,2.08283z" fill="#ef8997"/><path d="M86.41651,542.67173c0,2.1561 -1.62231,4.50059 -3.61094,5.20185c-2.22936,0.78499 -4.47966,0.14653 -6.0601,-1.66417c-0.40819,-0.47099 -0.40819,-0.70126 0.14653,-1.03618c2.72129,-1.66417 4.75179,-3.9354 5.86124,-6.97069c0.19886,-0.53379 0.49193,-0.52332 0.93152,-0.2826c1.53858,0.83732 2.73176,2.89922 2.73176,4.75179z" fill="#e4074a"/><path d="M266.49263,578.10083c0,0.83732 0.02093,1.66417 0,2.50149c-0.0314,1.19318 -0.54426,1.71651 -1.73744,1.74791c-1.00478,0.02093 -1.9991,-0.02093 -3.00389,0.01047c-1.71651,0.05233 -2.3131,-0.30353 -2.48056,-2.11423c-0.14653,-1.58044 -0.24073,-3.20275 0.157,-4.81459c0.24073,-0.95245 0.81639,-1.29785 1.63277,-1.33971c1.28738,-0.0628 2.58523,-0.08373 3.8726,0c0.92105,0.0628 1.64324,0.48146 1.56997,1.63277c-0.05233,0.78499 0,1.58044 0,2.3759z" fill="#fefdfe"/><path d="M108.41709,586.1077c-2.10725,0 -3.16088,-1.04316 -3.16088,-3.12948c0,-0.75359 -0.02093,-1.50718 0,-2.26076c0.05233,-1.54904 1.21411,-2.97249 2.54336,-3.12948c1.88397,-0.23026 3.23415,0.62799 3.70514,2.3759c0.49193,1.8107 0.19886,3.65281 0.2512,5.48445c0.02093,0.57566 -0.37679,0.66986 -0.84779,0.65939c-0.83732,0 -1.67464,0 -2.51196,0z" fill="#80358c"/><path d="M122.08634,585.9507c0,3.18182 0,3.19228 -3.16088,3.17135c-1.06758,0 -2.44916,0.46053 -3.12948,-0.20933c-0.69079,-0.66986 -0.19886,-2.05143 -0.2198,-3.12948c-0.0314,-1.10945 -0.0314,-2.19796 0.39773,-3.28648c0.48146,-1.25598 2.0933,-2.16657 3.52721,-1.88397c1.40251,0.27213 2.55383,1.63277 2.58523,3.09808c0.02093,0.75359 0,1.49671 0,2.2503z" fill="#e4074a"/><path d="M257.96243,584.32839c0,1.8107 0.0314,3.30741 -0.01047,4.80412c-0.02093,0.76405 0.27213,1.04665 1.02572,1.01525c1.13038,-0.04187 2.26076,0.02093 3.39115,-0.02093c0.78499,-0.0314 1.37111,0.20933 1.8107,0.87919c-0.33493,0.26166 -0.71172,0.1256 -1.05712,0.1256c-4.42733,0.01047 -8.86512,0 -13.30292,0c-1.49671,0 -1.53858,-0.05233 -1.20365,-1.46531c0.78499,-3.35975 4.01914,-4.63666 6.83462,-2.65849c0.69079,0.49193 0.94198,0.2826 1.11992,-0.39773c0.20933,-0.77452 0.59659,-1.44438 1.39204,-2.30263z" fill="#7f358b"/><path d="M90.56124,579.51379c1.71651,2.90969 2.97249,5.67284 3.38068,8.74999c0.38726,2.86782 0.34539,2.86782 -2.56429,2.86782c-1.46531,0 -2.92015,0.01047 -4.38546,0c-0.37679,0 -0.95245,0.1884 -1.02572,-0.40819c-0.07327,-0.58612 -0.34539,-1.37111 0.30353,-1.73744c3.44348,-1.9677 4.45873,-5.04485 4.17613,-8.76046c0,-0.11513 0.0314,-0.24073 0.11513,-0.70126z" fill="#3ba834"/><path d="M187.88922,586.11816c-2.52243,0 -2.49103,0 -1.88397,-2.53289c0.58612,-2.43869 1.15131,-4.87739 1.59091,-7.34748c0.17793,-1.01525 0.76405,-0.91059 1.43391,-0.91059c0.84779,0 0.58612,0.62799 0.61752,1.07805c0.2198,2.76316 0.34539,5.52631 0.73265,8.26853c0.13606,0.93152 0.05233,1.69557 -1.23505,1.45484c-0.40819,-0.07327 -0.83732,-0.01047 -1.25598,-0.01047z" fill="#1bb6db"/><path d="M201.43287,588.61966c-0.96292,0 -1.92584,-0.02093 -2.87829,0c-0.64892,0.02093 -0.90012,-0.23026 -0.87919,-0.87919c0.0314,-0.96292 0.02093,-1.92584 0,-2.87829c-0.01047,-0.65939 0.24073,-1.01525 0.94198,-1.01525c1.92584,0.01047 3.84121,0.01047 5.76704,0c0.56519,0 0.84779,0.1884 0.83732,0.79545c-0.02093,1.04665 -0.0314,2.0933 0,3.12948c0.02093,0.66986 -0.2826,0.86872 -0.90012,0.85825c-0.96292,-0.0314 -1.92584,0 -2.87829,0z" fill="#3ba835"/><path d="M70.35043,554.28954c0,-1.92584 1.18271,-3.09808 3.07715,-3.07715c1.74791,0.02093 3.15042,1.41298 3.20275,3.10855c0.0628,1.95724 -1.80024,3.33881 -3.30741,3.39115c-1.67464,0.0628 -2.98295,-1.52811 -2.97249,-3.42255z" fill="#e4074a"/><path d="M125.60308,586.54729c0,-1.17225 0.05233,-2.3445 -0.02093,-3.51674c-0.05233,-0.81639 0.26166,-0.95245 0.99432,-0.96292c2.54336,0 2.54336,-0.04187 2.53289,2.53289c0,1.8421 -0.0314,3.68421 0.01047,5.52631c0.01047,0.70126 -0.07327,1.02572 -0.92105,1.02572c-2.60616,0 -2.60616,0.05233 -2.60616,-2.60616c0,-0.66986 0,-1.33971 0,-2.00957z" fill="#f5f1b2"/><path d="M98.22272,586.52636c0,-1.21411 0.02093,-2.42823 0,-3.64234c-0.02093,-0.58612 0.14653,-0.77452 0.76405,-0.80592c2.76316,-0.13606 2.76316,-0.157 2.76316,2.56429c0,1.88397 -0.02093,3.76794 0.01047,5.65191c0.01047,0.63846 -0.14653,0.84779 -0.82685,0.86872c-2.70036,0.07327 -2.70036,0.0942 -2.70036,-2.62709c0,-0.66986 0,-1.33971 0,-2.00957z" fill="#f5f1b2"/><path d="M99.22751,579.22074c0.27213,1.09898 -0.2826,1.58044 -1.54904,1.38158c-0.79545,-0.1256 -0.98385,0.30353 -0.97338,1.02572c0.0314,2.79456 0.02093,5.58911 0,8.39413c0,0.39773 0.26166,1.04665 -0.47099,1.07805c-0.75359,0.0314 -0.49193,-0.63846 -0.51286,-1.02572c-0.19886,-2.97249 -1.01525,-5.77751 -2.19796,-8.48833c-0.31399,-0.72219 -0.16746,-1.05712 0.45006,-1.51764c1.14085,-0.85825 2.32356,-1.62231 3.64234,-2.13517c1.50718,-0.57566 1.61184,-0.46053 1.62231,1.29785z" fill="#3ba735"/><path d="M175.32942,583.79459c0.05233,0.69079 -0.0628,1.38158 0.20933,2.0933c0.26166,0.66986 -0.0314,1.08852 -0.86872,0.99432c-0.70126,-0.07327 -1.59091,0.2198 -2.08283,-0.11513c-0.48146,-0.33493 -0.02093,-1.24551 0,-1.89444c0.0942,-2.73176 0.32446,-5.45305 0.46053,-8.17434c0.0314,-0.62799 0.34539,-0.68032 0.79545,-0.61752c0.38726,0.05233 0.94198,-0.26166 0.98385,0.54426c0.13606,2.39683 0.32446,4.78319 0.49193,7.16955z" fill="#f4f1b2"/><path d="M210.93645,578.63461c-0.65939,0.87919 -1.27691,1.64324 -1.82117,2.44916c-0.63846,0.97338 -1.42344,1.44438 -2.63756,1.28738c-0.94198,-0.1256 -1.9049,-0.02093 -2.87829,-0.02093c1.11992,-3.25508 2.54336,-3.97727 7.33702,-3.70514z" fill="#fcfdfd"/><path d="M165.12458,560.26591c1.37111,-1.18271 2.74222,-2.36543 4.11333,-3.54814c0.24073,-0.20933 0.50239,-0.0314 0.70126,0.04187c1.58044,0.59659 3.15042,1.22458 4.72039,2.08283c-3.13995,0.54426 -6.26943,1.07805 -9.40938,1.62231c-0.04187,-0.0628 -0.08373,-0.13606 -0.1256,-0.19886z" fill="#3ba836"/><path d="M187.66942,591.13162c-2.3131,0 -2.26076,0.01047 -1.82117,-2.26076c0.19886,-0.99432 0.60706,-1.48624 1.61184,-1.24551c0.80592,0.1884 2.0305,-0.64892 2.32356,0.81639c0.14653,0.72219 0.07327,1.48624 0.0942,2.22936c0,0.40819 -0.27213,0.45006 -0.58612,0.45006c-0.54426,0 -1.07805,0 -1.62231,0z" fill="#ee8898"/><path d="M190.77797,567.28892c-0.23026,1.22458 -0.45006,2.33403 -0.62799,3.46441c-0.05233,0.34539 -0.157,0.48146 -0.51286,0.55472c-1.60137,0.31399 -2.19796,-0.04187 -2.55383,-1.60137c-0.36981,-1.61184 0.25468,-2.41776 1.8735,-2.41776c0.57566,0 1.16178,0 1.83164,0z" fill="#1ab6db"/><path d="M142.22388,580.59185c-0.29306,0 -0.58612,-0.02093 -0.86872,0c-0.61752,0.0628 -0.83732,-0.17793 -0.68032,-0.78499c0.33493,-1.23505 0.68032,-2.47009 0.99432,-3.70514c0.08373,-0.33493 0.24073,-0.50239 0.58612,-0.51286c0.39773,-0.01047 0.58612,0.14653 0.68032,0.54426c0.2826,1.11992 0.60706,2.22936 0.93152,3.33881c0.2512,0.84779 0.05233,1.26645 -0.90012,1.11992c-0.24073,-0.04187 -0.50239,0 -0.74312,0z" fill="#80358b"/><path d="M154.13476,586.21236c-0.24073,0.53379 -0.83732,0.57566 -1.27691,0.82685c-0.38726,0.20933 -0.51286,-0.05233 -0.66986,-0.42913c-0.57566,-1.36064 -1.23505,-2.68989 -1.85257,-4.0296c-0.13606,-0.30353 -0.43959,-0.70126 0.13606,-0.82685c0.54426,-0.11513 1.21411,-0.85825 1.64324,-0.0628c0.73265,1.37111 1.28738,2.83642 1.91537,4.25987c0.0314,0.07327 0.07327,0.14653 0.11513,0.26166z" fill="#e2074b"/><path d="M104.53402,577.66122c-0.27213,0.69079 -0.49193,1.27691 -0.73265,1.8421c-0.14653,0.34539 0.157,0.97338 -0.45006,1.02572c-0.78499,0.07327 -1.8107,0.29306 -2.3131,-0.0942c-0.74312,-0.57566 -0.27213,-1.70604 -0.27213,-2.59569c0,-0.71172 0.64892,-0.48146 1.06758,-0.50239c0.46053,-0.0314 0.92105,-0.04187 1.37111,0.01047c0.45006,0.05233 0.87919,0.20933 1.32925,0.31399z" fill="#3ca835"/><path d="M88.82381,569.0473c-1.49671,0 -3.00389,0 -4.50059,0c-0.34539,0 -0.81639,0.07327 -0.79545,-0.45006c0.02093,-0.38726 0.30353,-0.57566 0.77452,-0.56519c3.08762,0.0314 6.16477,0.01047 9.25239,0.01047c0.34539,0 0.64892,-0.02093 0.64892,0.49193c0,0.50239 -0.27213,0.51286 -0.63846,0.51286c-1.58044,0 -3.17135,0 -4.75179,0z" fill="#fcfcfd"/><path d="M143.72059,570.49168c-0.27213,0.93152 -0.49193,1.9677 -0.87919,2.94109c-0.20933,0.52332 -0.93152,0.68032 -1.11992,0.08373c-0.32446,-1.03618 -0.86872,-2.05143 -0.80592,-3.17135c0.04187,-0.75359 0.52332,-1.27691 1.25598,-1.25598c0.76405,0.02093 1.41298,0.40819 1.53858,1.41298z" fill="#f2f1b2"/><path d="M70.43417,550.1134c-0.16048,-1.7793 0.57914,-2.85387 2.2189,-3.22368c0.52332,-0.11513 1.03618,-0.2826 1.54904,-0.43959c0.42913,-0.1256 0.74312,-0.157 0.99432,0.37679c0.27213,0.57566 -0.14653,0.64892 -0.43959,0.81639c-1.39204,0.80592 -2.78409,1.60137 -4.32266,2.48056z" fill="#35a537"/><path d="M173.97924,568.02158c0.77452,0.02093 1.13038,0.56519 1.40251,1.01525c0.27213,0.45006 -0.34539,0.54426 -0.62799,0.78499c-0.56519,0.47099 -0.95245,1.10945 -1.17225,1.8107c-0.20933,0.65939 -0.56519,0.53379 -0.86872,0.16746c-0.85825,-1.02572 -0.39773,-3.04575 0.78499,-3.57954c0.17793,-0.08373 0.36633,-0.14653 0.48146,-0.19886z" fill="#f2f0b4"/><path d="M203.59943,591.07929c0.99432,-1.36064 5.74611,-1.36064 6.67763,0z" fill="#eb8899"/><path d="M266.23097,591.00601c0.87919,-1.21411 4.99252,-1.27691 6.16477,0z" fill="#7e3588"/><path d="M279.32456,591.04788c1.04665,-1.28738 4.94019,-1.30831 6.30083,0z" fill="#3ba635"/><path d="M268.42893,567.27847c-0.66986,0 -1.33971,0 -2.00957,0c-0.30353,0 -0.60706,-0.04187 -0.62799,-0.43959c-0.0314,-0.48146 0.31399,-0.53379 0.66986,-0.54426c1.33971,0 2.67942,-0.01047 4.00867,0c0.31399,0 0.74312,-0.05233 0.70126,0.46053c-0.0314,0.41866 -0.38726,0.51286 -0.73265,0.52332c-0.66986,0.01047 -1.33971,0 -2.00957,0z" fill="#7f368a"/><path d="M185.27259,569.3299c0.55472,1.22458 0.42913,2.48056 0.82685,3.62141c0.07327,0.20933 -0.0942,0.37679 -0.37679,0.29306c-0.51286,-0.157 -1.02572,-0.29306 -1.52811,-0.43959c-0.50239,-0.14653 -0.66986,-0.38726 -0.35586,-0.91059c0.49193,-0.79545 0.92105,-1.64324 1.44438,-2.56429z" fill="#eb8799"/><path d="M218.15833,591.10021h-5.68331c0.85825,-1.36064 4.82506,-1.41298 5.68331,0z" fill="#eb8898"/><path d="M210.24566,576.07033c0.62799,0 1.11992,-0.0314 1.61184,0.01047c0.27213,0.02093 0.77452,-0.19886 0.75359,0.33493c-0.01047,0.32446 -0.33493,0.58612 -0.69079,0.61752c-0.49193,0.04187 -0.99432,0.0314 -1.48624,0.0314c-0.74312,0 -1.49671,0 -2.23983,0c-0.23026,0 -0.55472,0.07327 -0.59659,-0.26166c-0.0314,-0.27213 0.23026,-0.38726 0.46053,-0.51286c0.74312,-0.40819 1.54904,-0.1256 2.19796,-0.2198z" fill="#3ba636"/><path d="M177.14012,570.54401c0.80592,0 1.43391,0.1884 1.78977,0.84779c0.0942,0.1884 -1.47578,1.39204 -1.71651,1.26645c-0.60706,-0.32446 -1.51764,-0.60706 -1.47578,-1.33971c0.0314,-0.56519 0.81639,-0.84779 1.40251,-0.77452z" fill="#0d943b"/><path d="M225.19182,591.13162c-1.50718,0 -2.87829,0 -4.2494,0c-0.157,0 -0.30353,-0.0314 -0.48146,-0.05233c0.90012,-1.36064 3.904,-1.38158 4.73086,0.05233z" fill="#eb8798"/><path d="M259.7208,586.09723c-0.10466,-0.78499 0.2826,-1.00478 1.01525,-1.00478c0.76405,0 1.00478,0.30353 1.00478,1.03618c0,0.77452 -0.30353,1.00478 -1.03618,1.00478c-0.76405,0 -1.07805,-0.2826 -0.98385,-1.03618z" fill="#fbfbfd"/><path d="M265.45644,585.12384c0.84779,-0.11513 1.03618,0.42913 1.02572,1.03618c0,0.71172 -0.49193,0.94198 -1.16178,0.98385c-0.74312,0.04187 -1.02572,-0.55472 -1.01525,-0.98385c0.01047,-0.58612 0.34539,-1.21411 1.15131,-1.02572z" fill="#fbfafd"/><path d="M68.57113,549.67381c-0.61752,-0.51286 -1.05712,-0.86872 -1.49671,-1.22458c-0.26166,-0.2198 -0.77452,-0.32446 -0.52332,-0.80592c0.1884,-0.34539 0.48146,-0.68032 1.01525,-0.48146c0.38726,0.13606 0.99432,-0.13606 1.00478,0.61752c0,0.56519 0,1.13038 0,1.9049z" fill="#36a537"/><path d="M173.57105,589.66631c0,-0.2512 0,-0.50239 0,-0.74312c0,-0.33493 0.0942,-0.54426 0.49193,-0.54426c0.38726,0 0.51286,0.17793 0.51286,0.52332c0,0.50239 0,0.99432 0,1.49671c0,0.38726 0.0314,0.76405 -0.55472,0.73265c-0.52332,-0.0314 -0.42913,-0.39773 -0.45006,-0.71172c-0.01047,-0.2512 0,-0.50239 0,-0.74312z" fill="#e98798"/><path d="M214.48459,573.56882c0.2512,0 0.50239,0 0.75359,0c0.35586,0 0.53379,0.157 0.51286,0.53379c-0.02093,0.40819 -0.2826,0.45006 -0.59659,0.45006c-0.41866,0 -0.83732,0.02093 -1.24551,0c-0.37679,-0.02093 -0.91059,0.157 -0.87919,-0.54426c0.0314,-0.59659 0.50239,-0.41866 0.83732,-0.46053c0.20933,-0.02093 0.41866,0 0.62799,0v0z" fill="#df074a"/><path d="M274.4995,591.07929c0.68032,-1.35018 1.80024,-1.32925 2.73176,0z" fill="#3aa437"/><path d="M92.88481,576.99137c-0.39773,0.64892 0.82685,1.35018 -0.14653,1.97817c-0.35586,0.23026 -0.45006,0.2826 -0.68032,-0.10466c-0.38726,-0.65939 -0.85825,-1.27691 -1.31878,-1.9677c0.39773,-0.0314 0.77452,-0.26166 0.91059,0.19886c0.11513,0.37679 0,0.94198 0.56519,0.93152c0.56519,-0.01047 0.41866,-0.66986 0.65939,-1.02572z" fill="#e78799"/><path d="M83.32889,591.13162c-0.48146,0 -0.92105,0.0314 -0.92105,-0.60706c0,-1.00478 0.85825,-0.58612 1.30831,-0.75359c0.52332,-0.1884 0.39773,0.35586 0.42913,0.63846c0.07327,0.66986 -0.35586,0.75359 -0.81639,0.71172z" fill="#3ba436"/><path d="M138.12102,564.93396c0.05233,-0.27213 0.0628,-0.60706 0.17793,-0.91059c0.0942,-0.24073 0.19886,-0.58612 0.59659,-0.46053c0.37679,0.1256 0.26166,0.47099 0.23026,0.73265c-0.0314,0.27213 -0.13606,0.54426 -0.20933,0.81639c-0.08373,0.31399 0.17793,0.88965 -0.38726,0.85825c-0.62799,-0.0314 -0.2512,-0.64892 -0.40819,-1.03618z" fill="#1cb5d7"/><path d="M173.95831,574.57362c-0.33493,-0.05233 -0.79545,0.10466 -0.84779,-0.45006c-0.05233,-0.56519 0.37679,-0.55472 0.75359,-0.54426c0.37679,0.02093 0.91059,-0.157 0.92105,0.50239c0,0.57566 -0.46053,0.45006 -0.81639,0.49193z" fill="#0d943b"/><path d="M188.72654,573.82003c-0.39773,-0.0314 -0.83732,0 -0.78499,-0.56519c0.05233,-0.55472 0.52332,-0.42913 0.87919,-0.43959c0.37679,0 0.81639,-0.02093 0.76405,0.54426c-0.05233,0.55472 -0.53379,0.39773 -0.85825,0.45006z" fill="#7d3489"/><path d="M169.86591,572.99317c0.35586,-0.53379 0.69079,-1.03618 1.05712,-1.58044c0.23026,0.94897 -0.12211,1.47578 -1.05712,1.58044z" fill="#e68798"/><path d="M117.06242,576.04939c0,-1.13038 0.63846,-1.74791 1.7793,-1.73744c1.13038,0.01047 1.74791,0.63846 1.73744,1.7793c-0.01047,1.13038 -0.64892,1.74791 -1.7793,1.73744c-1.14085,-0.01047 -1.74791,-0.63846 -1.73744,-1.7793z" fill="#2b235b"/><path d="M110.02893,573.05597c0,1.10945 -0.55472,1.72697 -1.59091,1.75837c-1.07805,0.0314 -1.68511,-0.61752 -1.68511,-1.78977c0,-1.16178 0.51286,-1.70604 1.59091,-1.72697c1.17225,-0.02093 1.68511,0.51286 1.68511,1.74791z" fill="#2c245b"/><path d="M279.93161,572.80477c2.42823,0 4.84599,0 7.27422,0c1.72697,0 2.63756,0.54426 2.95155,2.2189c0.39773,2.1561 0.45006,4.38546 -0.05233,6.55203c-0.31399,1.37111 -1.22458,2.00957 -2.60616,2.02003c-5.05532,0.02093 -10.1211,0.02093 -15.17642,0c-1.59091,0 -2.78409,-1.25598 -2.80502,-2.87829c-0.02093,-1.67464 -0.02093,-3.34928 0,-5.01345c0.02093,-1.72697 1.15131,-2.86782 2.88875,-2.88875c2.51196,-0.0314 5.01345,0 7.52541,0z" fill="#2a245c"/><path d="M279.83741,586.36936c-3.05622,0 -6.10197,0 -9.15819,0c-0.48146,0 -1.13038,0.10466 -1.13038,-0.62799c0,-0.73265 0.63846,-0.62799 1.13038,-0.62799c6.14383,0 12.28767,0 18.4315,0c0.51286,0 1.23505,-0.157 1.18271,0.68032c-0.04187,0.72219 -0.71172,0.56519 -1.18271,0.56519c-3.09808,0 -6.1857,0 -9.28378,0z" fill="#28245f"/><path d="M87.1701,563.41633c-0.01047,1.03618 -0.64892,1.61184 -1.76884,1.61184c-1.13038,0 -1.76884,-0.65939 -1.74791,-1.78977c0.01047,-0.88965 0.85825,-1.71651 1.75837,-1.71651c1.18271,0 1.76884,0.63846 1.75837,1.9049z" fill="#29245e"/><path d="M216.64069,583.8574c-1.29785,0 -2.59569,0.0314 -3.88307,0c-1.46531,-0.05233 -2.04097,-1.06758 -1.21411,-2.29216c0.93152,-1.37111 2.02003,-2.62709 3.04575,-3.9354c0.33493,-0.42913 0.77452,-0.57566 1.31878,-0.55472c1.25598,0.0314 2.51196,0.02093 3.75747,0c0.77452,-0.01047 1.23505,0.2512 1.40251,1.08852c0.2512,1.29785 0.62799,2.57476 0.92105,3.86214c0.24073,1.04665 -0.34539,1.80024 -1.45484,1.83164c-1.29785,0.0314 -2.59569,0 -3.88307,0z" fill="#29245b"/><path d="M113.66081,552.06017c0.75359,-0.78499 1.47578,-1.48624 2.13517,-2.22936c0.45006,-0.51286 0.71172,-0.2826 1.09898,0.07327c0.41866,0.39773 0.49193,0.65939 0.0314,1.09898c-1.08852,1.02572 -2.13517,2.10377 -3.20275,3.15042c-1.19318,-0.88965 -2.10377,-2.08283 -3.21322,-3.06668c-0.43959,-0.39773 -0.60706,-0.68032 -0.07327,-1.18271c0.47099,-0.45006 0.75359,-0.49193 1.19318,0.01047c0.62799,0.72219 1.31878,1.39204 2.04097,2.14563z" fill="#2c245b"/><path d="M115.54478,537.742c0,-0.54426 0,-1.08852 0,-1.63277c0,-0.32446 0.0628,-0.68032 -0.46053,-0.71172c-0.60706,-0.0314 -0.52332,0.38726 -0.53379,0.75359c0,0.33493 -0.0314,0.66986 0,1.00478c0.08373,0.73265 -0.13606,1.02572 -0.95245,1.02572c-0.83732,0 -0.85825,-0.42913 -0.81639,-1.01525c0.02093,-0.29306 0.0314,-0.58612 0,-0.87919c-0.04187,-0.36633 0.1884,-0.92105 -0.52332,-0.87919c-0.70126,0.04187 -0.45006,0.58612 -0.46053,0.94198c-0.0314,1.00478 -0.0314,2.00957 0,3.01435c0.01047,0.43959 -0.08373,0.83732 -0.32446,1.17225c-0.51286,0.69079 -1.39204,0.92105 -1.97817,0.51286c-0.47099,-0.32446 -0.31399,-1.22458 -0.04187,-1.85257c0.55472,-1.27691 0.58612,-2.58523 0,-3.82027c-0.55472,-1.18271 -0.16746,-1.94677 1.10945,-1.9991c0.86872,-0.04187 1.8107,0.31399 2.56429,-0.46053c0.08373,-0.08373 0.35586,-0.08373 0.48146,-0.02093c1.29785,0.68032 2.74222,0.24073 4.05054,0.57566c0.84779,0.2198 0.49193,1.26645 0.2198,1.88397c-0.54426,1.27691 -0.49193,2.56429 -0.04187,3.76794c0.2512,0.68032 0.32446,1.29785 0.10466,1.8735c-0.13606,0.37679 -0.76405,0.2198 -1.15131,0.13606c-0.70126,-0.157 -1.16178,-0.63846 -1.22458,-1.38158c-0.05233,-0.66986 0,-1.33971 0,-2.00957v0z" fill="#fbfdfd"/><path d="M203.32731,584.57958c0.62799,0.07327 1.39204,-0.16746 1.33971,0.65939c-0.04187,0.75359 -0.76405,0.88965 -1.40251,0.86872c-0.53379,-0.02093 -1.06758,-0.08373 -1.07805,-0.85825c0,-1.14085 0.88965,-0.32446 1.13038,-0.65939z" fill="#fbfdfa"/><path d="M274.5309,578.13222c0,1.17225 -0.02093,2.3445 0.01047,3.51674c0.02093,0.54426 -0.157,0.68032 -0.70126,0.72219c-2.1561,0.13606 -3.25508,-0.49193 -3.08762,-2.84689c0.08373,-1.11992 0,-2.26076 0.02093,-3.38068c0.0314,-1.75837 2.05143,-2.90969 3.54814,-2.04097c0.33493,0.1884 0.20933,0.51286 0.20933,0.78499c0.01047,1.08852 0,2.17703 0,3.26555z" fill="#fdfdfe"/><path d="M285.33233,578.22642c0,-0.83732 -0.0942,-1.68511 0.0314,-2.50149c0.0942,-0.57566 -0.68032,-1.60137 0.70126,-1.67464c1.9049,-0.0942 2.95155,0.43959 3.01435,1.74791c0.07327,1.58044 0.05233,3.17135 0,4.76226c-0.02093,0.74312 -0.41866,1.27691 -1.15131,1.59091c-0.81639,0.34539 -1.62231,0.17793 -2.43869,0.1256c-0.24073,-0.02093 -0.157,-0.42913 -0.16746,-0.66986c0,-1.13038 0,-2.2503 0,-3.38068z" fill="#fdfdfd"/><path d="M279.30362,578.21596c0,1.13038 -0.0314,2.2503 0.01047,3.38068c0.02093,0.60706 -0.1884,0.75359 -0.77452,0.77452c-2.75269,0.11513 -2.75269,0.13606 -2.75269,-2.54336c0,-1.66417 0.02093,-3.33881 -0.01047,-5.00299c-0.01047,-0.60706 0.1884,-0.75359 0.77452,-0.77452c2.75269,-0.10466 2.75269,-0.1256 2.75269,2.66896c0,0.50239 0,1.00478 0,1.49671z" fill="#fdfdfd"/><path d="M280.5596,578.07989c0,-0.83732 0.08373,-1.67464 -0.02093,-2.50149c-0.157,-1.24551 0.2512,-1.63277 1.52811,-1.54904c1.9991,0.1256 2.00957,0.0314 2.00957,2.05143c0,1.83164 -0.02093,3.67374 0.01047,5.50538c0.01047,0.59659 -0.16746,0.75359 -0.76405,0.78499c-2.76316,0.11513 -2.75269,0.13606 -2.76316,-2.65849c0,-0.54426 0,-1.08852 0,-1.62231z" fill="#fdfdfe"/><path d="M212.97742,582.35021c0.90012,-1.21411 1.70604,-2.27123 2.48056,-3.34928c0.39773,-0.54426 0.96292,-0.47099 1.46531,-0.38726c0.63846,0.10466 0.31399,0.68032 0.32446,1.02572c0.0628,2.72129 0.04187,2.72129 -2.66896,2.72129c-0.46053,0 -0.92105,0 -1.60137,0z" fill="#fcfdfd"/><path d="M218.77586,580.25693c0.2198,-0.47099 -0.42913,-1.47578 0.35586,-1.59091c0.84779,-0.1256 0.49193,1.00478 0.80592,1.51764c0.20933,0.33493 0.17793,0.77452 0.29306,1.17225c0.11513,0.37679 0.32446,1.01525 -0.56519,1.02572c-0.70126,0 -0.99432,-0.16746 -0.90012,-0.88965c0.05233,-0.36633 0,-0.74312 0,-1.22458z" fill="#fcfcfd"/></g></g></g></svg>