<svg xmlns="http://www.w3.org/2000/svg" viewBox="0 0 155.74 156.17" data-name="Слой 2" id="_Слой_2">
  <defs>
    <style>
      .cls-1 {
        fill: #514e55;
      }

      .cls-1, .cls-2, .cls-3, .cls-4, .cls-5, .cls-6, .cls-7 {
        stroke-width: 0px;
      }

      .cls-2 {
        fill: #2c2757;
      }

      .cls-3 {
        fill: #1891d0;
      }

      .cls-4 {
        fill: #138acb;
      }

      .cls-5 {
        fill: #de0641;
      }

      .cls-6 {
        fill: #fff;
      }

      .cls-7 {
        fill: #ffe90b;
      }
    </style>
  </defs>
  <g data-name="Слой 1" id="_Слой_1-2">
    <g>
      <rect ry="11.35" rx="11.35" height="156.17" width="155.74" x="0" class="cls-7"/>
      <path d="M79.35,68.86v14.84h-4.49v-14.84h4.49ZM79.35,85.42v4.07h-4.49v-4.07h4.49Z" class="cls-2"/>
      <path d="M60.28,79.06c0-9.31,7.55-16.86,16.86-16.86s16.86,7.55,16.86,16.86-7.55,16.86-16.86,16.86-16.86-7.55-16.86-16.86" class="cls-4"/>
      <path d="M66.8,68.72c-2.64,2.64-4.28,6.3-4.28,10.34s1.64,7.69,4.28,10.34c2.64,2.64,6.3,4.28,10.34,4.28s7.69-1.63,10.34-4.28c2.64-2.65,4.28-6.3,4.28-10.34s-1.63-7.69-4.28-10.34c-2.64-2.64-6.3-4.28-10.34-4.28s-7.69,1.64-10.34,4.28M58.04,79.06c0-5.27,2.14-10.04,5.6-13.5,3.46-3.47,8.24-5.61,13.51-5.61s10.04,2.14,13.5,5.6h0c3.46,3.47,5.6,8.24,5.6,13.51s-2.14,10.05-5.6,13.51c-3.47,3.46-8.24,5.6-13.51,5.6s-10.05-2.14-13.51-5.6c-3.46-3.46-5.6-8.24-5.6-13.51Z" class="cls-2"/>
      <polygon points="70.54 75.44 75.75 80.65 84.02 70.21 87.53 72.98 76.13 87.37 67.38 78.62 70.54 75.44" class="cls-2"/>
      <path d="M20.64,11.91c-5.89,0-10.65,4.77-10.65,10.65v40.3c0,5.88,4.77,10.65,10.65,10.65h40.29c5.88,0,10.66-4.77,10.66-10.65V22.56c0-5.88-4.77-10.65-10.66-10.65H20.64Z" class="cls-6"/>
      <path d="M11.48,13.4c2.34-2.35,5.58-3.8,9.16-3.8h40.29c3.57,0,6.81,1.45,9.16,3.8,2.35,2.35,3.81,5.59,3.81,9.17v40.3c0,3.57-1.46,6.81-3.81,9.17-2.35,2.34-5.59,3.8-9.16,3.8H20.64c-3.58,0-6.82-1.45-9.17-3.8-2.34-2.36-3.8-5.6-3.8-9.17V22.56c0-3.57,1.45-6.81,3.8-9.16M20.64,14.22c-2.3,0-4.39.93-5.9,2.44h0c-1.5,1.5-2.43,3.59-2.43,5.9v40.3c0,2.31.93,4.39,2.43,5.9h0c1.51,1.51,3.6,2.44,5.9,2.44h40.29c2.31,0,4.4-.93,5.91-2.44,1.5-1.5,2.44-3.59,2.44-5.9V22.56c0-2.31-.93-4.39-2.44-5.9-1.51-1.51-3.6-2.44-5.91-2.44H20.64Z" class="cls-2"/>
      <path d="M24.19,64.39h-4.57v-5.91c0-5.53,2.16-10.74,6.08-14.65l14.2-14.18c1.85-1.85,2.91-4.41,2.89-7.03v-1.57s4.56-.02,4.56-.02v1.58c.02,3.83-1.52,7.57-4.23,10.28l-14.2,14.18c-3.05,3.05-4.73,7.1-4.73,11.42v5.91Z" class="cls-5"/>
      <path d="M38.79,64.39h-4.57v-5.91c0-5.53,2.16-10.74,6.08-14.65l14.2-14.18c1.85-1.85,2.9-4.41,2.89-7.03v-1.57s4.56-.02,4.56-.02v1.58c.02,3.83-1.52,7.57-4.23,10.28l-14.2,14.18c-3.05,3.05-4.73,7.1-4.73,11.42v5.91Z" class="cls-5"/>
      <rect height="43.35" width="4.57" y="21.04" x="19.63" class="cls-2"/>
      <rect height="43.35" width="4.57" y="21.04" x="34.22" class="cls-2"/>
      <path d="M60.95,63.56h-15.18c-.54,0-.98-.44-.98-.98v-9.13c0-.54.44-.98.98-.98h15.18c.54,0,.98.44.98.98v9.13c0,.54-.44.98-.98.98" class="cls-3"/>
      <path d="M45.77,62.69h15.18s.06-.01.08-.03c.02-.02.03-.05.03-.08v-9.13l-.02-.07h-.02s-.05-.05-.08-.05h-15.18l-.08.03s-.03.05-.03.08v9.13s.01.06.03.08c.02.02.05.03.08.03M60.95,64.43h-15.18c-.51,0-.97-.21-1.3-.54-.34-.33-.54-.8-.54-1.3v-9.13c0-.51.21-.97.54-1.3l.07-.06c.33-.29.76-.48,1.23-.48h15.18c.51,0,.97.21,1.31.54l.06.07c.3.33.48.77.48,1.24v9.13c0,.51-.21.97-.54,1.3-.33.34-.79.54-1.3.54Z" class="cls-2"/>
      <rect height="6.8" width="1.73" y="45.18" x="57.18" class="cls-2"/>
      <polygon points="55.24 48.06 58.04 50.86 60.85 48.06 62.07 49.29 58.04 53.31 54.02 49.29 55.24 48.06" class="cls-2"/>
      <path d="M51.51,49.03c0-3.59,2.91-6.51,6.51-6.51s6.5,2.91,6.5,6.51-2.91,6.51-6.5,6.51-6.51-2.91-6.51-6.51" class="cls-7"/>
      <path d="M54.03,45.04c-1.02,1.02-1.65,2.43-1.65,3.99s.63,2.97,1.65,3.99c1.02,1.02,2.43,1.65,3.99,1.65s2.97-.63,3.99-1.65c1.02-1.02,1.65-2.43,1.65-3.99s-.63-2.97-1.65-3.99c-1.02-1.02-2.43-1.65-3.99-1.65s-2.97.63-3.99,1.65M50.64,49.03c0-2.03.83-3.88,2.16-5.21,1.33-1.33,3.18-2.16,5.21-2.16s3.87.83,5.21,2.16c1.34,1.33,2.16,3.18,2.16,5.21s-.83,3.88-2.16,5.21c-1.34,1.33-3.18,2.16-5.21,2.16s-3.88-.83-5.21-2.16c-1.33-1.33-2.16-3.18-2.16-5.21Z" class="cls-2"/>
      <rect height="7.58" width="1.73" y="45.24" x="57.15" class="cls-2"/>
      <rect height="1.73" width="7.58" y="48.16" x="54.22" class="cls-2"/>
      <path d="M83.62,116.43c0-16.42,13.31-29.74,29.74-29.74s29.73,13.31,29.73,29.74-13.31,29.74-29.73,29.74-29.74-13.31-29.74-29.74" class="cls-5"/>
      <path d="M113.35,148.5c-17.68,0-32.07-14.38-32.07-32.07s14.38-32.07,32.07-32.07,32.07,14.39,32.07,32.07-14.39,32.07-32.07,32.07M113.35,89.03c-15.11,0-27.41,12.3-27.41,27.4s12.3,27.4,27.41,27.4,27.4-12.29,27.4-27.4-12.29-27.4-27.4-27.4Z" class="cls-2"/>
      <path d="M104.76,126.03c-.4,0-.79-.16-1.09-.47-.57-.6-.54-1.55.06-2.12l17.18-16.2c.6-.57,1.55-.54,2.12.06.57.6.54,1.55-.06,2.12l-17.18,16.2c-.29.27-.66.41-1.03.41" class="cls-2"/>
      <path d="M121.94,126.03c-.37,0-.74-.14-1.03-.41l-17.18-16.2c-.6-.57-.63-1.52-.06-2.12.57-.6,1.52-.63,2.12-.06l17.18,16.2c.6.57.63,1.52.06,2.12-.3.31-.69.47-1.09.47" class="cls-2"/>
      <path d="M80.93,98.88c0-7.38,5.99-13.37,13.37-13.37s13.37,5.99,13.37,13.37-5.98,13.37-13.37,13.37-13.37-5.99-13.37-13.37" class="cls-6"/>
      <path d="M94.31,114c-8.34,0-15.12-6.78-15.12-15.12s6.79-15.12,15.12-15.12,15.12,6.78,15.12,15.12-6.78,15.12-15.12,15.12M94.31,87.26c-6.41,0-11.62,5.21-11.62,11.62s5.22,11.62,11.62,11.62,11.62-5.21,11.62-11.62-5.22-11.62-11.62-11.62Z" class="cls-2"/>
      <path d="M119.31,98.88c0-7.38,5.99-13.37,13.37-13.37s13.37,5.99,13.37,13.37-5.99,13.37-13.37,13.37-13.37-5.99-13.37-13.37" class="cls-6"/>
      <path d="M132.68,114c-8.34,0-15.12-6.78-15.12-15.12s6.79-15.12,15.12-15.12,15.12,6.78,15.12,15.12-6.78,15.12-15.12,15.12M132.68,87.26c-6.41,0-11.62,5.21-11.62,11.62s5.22,11.62,11.62,11.62,11.62-5.21,11.62-11.62-5.22-11.62-11.62-11.62Z" class="cls-2"/>
      <path d="M80.93,134.6c0-7.38,5.99-13.37,13.37-13.37s13.37,5.99,13.37,13.37-5.98,13.37-13.37,13.37-13.37-5.99-13.37-13.37" class="cls-6"/>
      <path d="M94.31,149.72c-8.34,0-15.12-6.78-15.12-15.12s6.79-15.12,15.12-15.12,15.12,6.78,15.12,15.12-6.78,15.12-15.12,15.12M94.31,122.98c-6.41,0-11.62,5.22-11.62,11.62s5.22,11.62,11.62,11.62,11.62-5.21,11.62-11.62-5.22-11.62-11.62-11.62Z" class="cls-2"/>
      <path d="M119.31,134.6c0-7.38,5.99-13.37,13.37-13.37s13.37,5.99,13.37,13.37-5.99,13.37-13.37,13.37-13.37-5.99-13.37-13.37" class="cls-6"/>
      <path d="M132.68,149.72c-8.34,0-15.12-6.78-15.12-15.12s6.79-15.12,15.12-15.12,15.12,6.78,15.12,15.12-6.78,15.12-15.12,15.12M132.68,122.98c-6.41,0-11.62,5.22-11.62,11.62s5.22,11.62,11.62,11.62,11.62-5.21,11.62-11.62-5.22-11.62-11.62-11.62Z" class="cls-2"/>
      <path d="M94.31,113.11c-7.84,0-14.22-6.38-14.22-14.22s6.38-14.22,14.22-14.22,14.22,6.38,14.22,14.22-6.38,14.22-14.22,14.22" class="cls-6"/>
      <path d="M94.3,85.63c7.3,0,13.25,5.94,13.25,13.25s-5.95,13.25-13.25,13.25-13.25-5.94-13.25-13.25,5.95-13.25,13.25-13.25M94.3,83.69c-8.37,0-15.16,6.77-15.2,15.13v.13c.04,8.37,6.83,15.13,15.2,15.13s15.2-6.8,15.2-15.2-6.8-15.2-15.2-15.2Z" class="cls-2"/>
      <rect height="13.82" width="13.82" y="91.97" x="87.4" class="cls-6"/>
      <path d="M99.75,93.44h-10.89v10.89h10.89v-10.89ZM87.4,90.51h13.82c.81,0,1.46.65,1.46,1.46v13.82c0,.81-.66,1.46-1.46,1.46h-13.82c-.81,0-1.46-.65-1.46-1.46v-13.82c0-.81.65-1.46,1.46-1.46Z" class="cls-2"/>
      <path d="M132.68,148.82c-7.84,0-14.22-6.38-14.22-14.22s6.38-14.22,14.22-14.22,14.22,6.38,14.22,14.22-6.38,14.22-14.22,14.22" class="cls-6"/>
      <path d="M132.68,121.35c7.3,0,13.25,5.94,13.25,13.25s-5.95,13.25-13.25,13.25-13.25-5.94-13.25-13.25,5.95-13.25,13.25-13.25M132.68,119.4c-8.39,0-15.2,6.8-15.2,15.2s6.8,15.2,15.2,15.2,15.2-6.8,15.2-15.2-6.8-15.2-15.2-15.2Z" class="cls-2"/>
      <path d="M124.39,134.6c0-4.58,3.71-8.29,8.29-8.29s8.29,3.71,8.29,8.29-3.71,8.29-8.29,8.29-8.29-3.71-8.29-8.29" class="cls-6"/>
      <path d="M127.85,129.77c-1.23,1.23-2,2.94-2,4.83s.76,3.6,1.99,4.83c1.24,1.24,2.94,2,4.83,2s3.6-.76,4.83-1.99c1.23-1.24,2-2.95,2-4.83s-.77-3.59-2-4.83c-1.23-1.23-2.94-2-4.83-2s-3.59.76-4.83,2M122.93,134.6c0-2.69,1.09-5.13,2.86-6.89,1.76-1.77,4.2-2.86,6.89-2.86s5.13,1.09,6.89,2.86,2.86,4.2,2.86,6.89-1.09,5.13-2.86,6.89c-1.77,1.76-4.21,2.86-6.89,2.86s-5.12-1.09-6.89-2.86c-1.77-1.77-2.86-4.21-2.86-6.89Z" class="cls-2"/>
      <rect height="19.34" width="3.9" y="124.88" x="88.56" class="cls-1"/>
      <rect height="19.34" width="3.9" y="124.88" x="96.15" class="cls-1"/>
      <path d="M94.3,148.82c-7.84,0-14.22-6.38-14.22-14.22s6.38-14.22,14.22-14.22,14.22,6.38,14.22,14.22-6.38,14.22-14.22,14.22" class="cls-6"/>
      <path d="M94.3,121.35c7.3,0,13.25,5.94,13.25,13.25s-5.95,13.25-13.25,13.25-13.25-5.94-13.25-13.25,5.95-13.25,13.25-13.25M94.3,119.4c-8.37,0-15.16,6.77-15.2,15.13v.13c.04,8.37,6.83,15.13,15.2,15.13s15.2-6.8,15.2-15.2-6.8-15.2-15.2-15.2Z" class="cls-2"/>
      <polygon points="94.3 125.88 86.01 131.9 89.18 141.65 99.43 141.65 102.59 131.9 94.3 125.88" class="cls-6"/>
      <path d="M85.16,130.72l8.27-6.01c.5-.37,1.2-.4,1.73-.02l8.29,6.02c.5.36.73,1.02.53,1.63l-3.14,9.66c-.16.63-.73,1.1-1.42,1.1h-10.25c-.62,0-1.19-.39-1.39-1.01l-3.16-9.72c-.21-.59-.01-1.28.52-1.67M94.3,127.69l-6.57,4.78,2.51,7.73h8.13l2.51-7.73-6.57-4.78Z" class="cls-2"/>
      <path d="M132.68,113.11c-7.84,0-14.22-6.38-14.22-14.22s6.38-14.22,14.22-14.22,14.22,6.38,14.22,14.22-6.38,14.22-14.22,14.22" class="cls-6"/>
      <path d="M132.68,85.63c7.3,0,13.25,5.94,13.25,13.25s-5.95,13.25-13.25,13.25-13.25-5.94-13.25-13.25,5.95-13.25,13.25-13.25M132.68,83.69c-8.39,0-15.2,6.8-15.2,15.2s6.8,15.2,15.2,15.2,15.2-6.8,15.2-15.2-6.8-15.2-15.2-15.2Z" class="cls-2"/>
      <polygon points="132.68 90 132.68 90 140.97 104.21 124.39 104.21 132.68 90" class="cls-6"/>
      <path d="M138.43,102.75l-5.75-9.86-5.75,9.86h11.5ZM133.94,89.27l8.29,14.21c.4.7.17,1.59-.53,1.99-.23.13-.48.2-.73.2h-16.58c-.81,0-1.46-.65-1.46-1.46,0-.31.09-.59.26-.82l8.23-14.12c.4-.7,1.3-.93,1.99-.53.23.13.41.32.53.53Z" class="cls-2"/>
    </g>
  </g>
</svg>