<svg version="1.1" xmlns="http://www.w3.org/2000/svg" xmlns:xlink="http://www.w3.org/1999/xlink" width="540" height="1080" viewBox="0,0,540,1080"><defs><clipPath id="clip-1"><path d="M-90,900v-1080h540v1080z" fill="none" stroke-width="1"/></clipPath><clipPath id="clip-2"><rect x="-180" y="-360" transform="scale(0.5,0.5)" width="1080" height="2160" fill="none" stroke-width="0.5"/></clipPath></defs><g transform="translate(90,180)"><g clip-path="url(#clip-2)" data-paper-data="{&quot;isPaintingLayer&quot;:true}" fill-rule="nonzero" stroke="none" stroke-linecap="butt" stroke-linejoin="miter" stroke-miterlimit="10" stroke-dasharray="" stroke-dashoffset="0" style="mix-blend-mode: normal"><path d="M186.845,362.435l-58.13,58.14l-0.47,-0.03l-7.48,-6.27l58.89,-59.03z" fill="#3aaa35" stroke-width="0"/><path d="M181.775,357.355l-58.79,58.78l-2.3,-1.92l58.97,-58.97z" fill="#118938" stroke-width="0"/><path d="M179.665,355.245l13.7,-7.05c0.35,-0.18 0.72,0.19 0.54,0.54l-7.06,13.7l-7.19,-7.19z" fill="#ffffff" stroke-width="0"/><path d="M184.145,354.955c-0.84,0.43 -1.02,1.55 -0.35,2.22l3.81,3.81l-0.75,1.45l-7.19,-7.19l13.7,-7.05c0.35,-0.18 0.72,0.19 0.54,0.54l-9.77,6.22" fill="#f3e3c3" stroke-width="0"/><path d="M193.905,348.735l-2.57,5l-2.97,-2.97l5,-2.57c0.35,-0.18 0.72,0.19 0.54,0.54" fill="#3aaa35" stroke-width="0"/><path d="M193.905,348.735v0l-4.63,2.95l-0.91,-0.91l5,-2.58c0.22,-0.11 0.44,0 0.54,0.17c0.06,0.11 0.07,0.24 0,0.37" fill="#118938" stroke-width="0"/></g></g></svg>