<svg xmlns:xlink="http://www.w3.org/1999/xlink" xmlns="http://www.w3.org/2000/svg" viewBox="0 0 171.33 171.34" data-name="Слой 2" id="_Слой_2">
  <defs>
    <style>
      .cls-1 {
        clip-path: url(#clippath);
      }

      .cls-2 {
        stroke-width: 4.59px;
      }

      .cls-2, .cls-3, .cls-4, .cls-5, .cls-6 {
        fill: none;
      }

      .cls-2, .cls-4, .cls-5, .cls-6 {
        stroke: #29265b;
      }

      .cls-3, .cls-7, .cls-8, .cls-9 {
        stroke-width: 0px;
      }

      .cls-4, .cls-5, .cls-6 {
        stroke-miterlimit: 10;
      }

      .cls-4, .cls-6 {
        stroke-width: 3.9px;
      }

      .cls-5 {
        stroke-width: 5.2px;
      }

      .cls-10 {
        clip-path: url(#clippath-1);
      }

      .cls-6 {
        stroke-dasharray: 0 0 16.83 7.65;
      }

      .cls-7 {
        fill: #f8f3b3;
      }

      .cls-8 {
        fill: #29265b;
      }

      .cls-9 {
        fill: #fff;
      }
    </style>
    <clipPath id="clippath">
      <rect height="155.91" width="155.9" y="7.95" x="7.9" class="cls-3"/>
    </clipPath>
    <clipPath id="clippath-1">
      <rect height="155.91" width="155.9" y="7.95" x="7.9" class="cls-3"/>
    </clipPath>
  </defs>
  <g data-name="Слой 1" id="_Слой_1-2">
    <g>
      <rect ry="11.62" rx="11.62" height="155.91" width="155.9" y="7.95" x="7.9" class="cls-7"/>
      <g class="cls-1">
        <path d="M64.58,32.62l-31.85,31.85v43.11s31.92,31.92,31.92,31.92h42.95l31.92-31.92v-42.96l-32.1-32.11-42.84.11ZM171.33,135.11h-36.13v36.22M0,135.11h37.04v36.22M0,36.95h37.04V0M171.33,36.95h-36.13V0M118.25,86.04h53.08M0,86.04h53.79M86.12,0v53.9M86.12,118.26v53.08" class="cls-5"/>
      </g>
      <polyline points="116.48 102.2 116.48 116.49 102.19 116.49" class="cls-4"/>
      <line y2="116.49" x2="73.88" y1="116.49" x1="94.54" class="cls-6"/>
      <polyline points="70.05 116.49 55.76 116.49 55.76 102.19" class="cls-4"/>
      <line y2="73.88" x2="55.76" y1="94.54" x1="55.76" class="cls-6"/>
      <polyline points="55.76 70.06 55.76 55.76 70.05 55.76" class="cls-4"/>
      <line y2="55.77" x2="98.36" y1="55.77" x1="77.7" class="cls-6"/>
      <polyline points="102.19 55.77 116.48 55.77 116.48 70.06" class="cls-4"/>
      <line y2="98.37" x2="116.48" y1="77.71" x1="116.48" class="cls-6"/>
      <g class="cls-10">
        <path d="M86.12,107.19c11.63,0,21.06-9.43,21.06-21.07s-9.43-21.06-21.06-21.06-21.07,9.43-21.07,21.06,9.43,21.07,21.07,21.07" class="cls-9"/>
        <path d="M86.12,107.19c11.63,0,21.06-9.43,21.06-21.07s-9.43-21.06-21.06-21.06-21.07,9.43-21.07,21.06,9.43,21.07,21.07,21.07Z" class="cls-2"/>
        <path d="M86.42,93.05c-2.24,0-3.73-1.45-3.73-3.35,0-1.99,1.45-3.57,3.73-3.57s3.73,1.48,3.73,3.47-1.48,3.44-3.73,3.44M86.42,82.72c-1.67,0-2.84-1.04-2.84-2.43s1.11-2.43,2.84-2.43c1.64,0,2.81,1.04,2.81,2.4s-1.14,2.46-2.81,2.46M91.34,84.11c1.23-1.01,2.02-2.43,2.02-4.04,0-3.13-2.5-5.9-6.95-5.9s-7.04,2.84-6.95,6c.03,1.61.82,2.94,1.99,3.92-2.15,1.26-3.41,3.35-3.41,5.75,0,3.79,3.03,7.14,8.37,7.14s8.4-3.38,8.3-7.2c-.03-2.37-1.26-4.39-3.38-5.65" class="cls-8"/>
      </g>
    </g>
  </g>
</svg>