<svg xmlns:xlink="http://www.w3.org/1999/xlink" xmlns="http://www.w3.org/2000/svg" viewBox="0 0 193.95 178.81" data-name="Слой 2" id="_Слой_2">
  <defs>
    <style>
      .cls-1 {
        clip-path: url(#clippath);
      }

      .cls-2, .cls-3, .cls-4, .cls-5, .cls-6 {
        fill: none;
      }

      .cls-2, .cls-7, .cls-8, .cls-9 {
        stroke-width: 0px;
      }

      .cls-10 {
        clip-path: url(#clippath-1);
      }

      .cls-11 {
        clip-path: url(#clippath-3);
      }

      .cls-12 {
        clip-path: url(#clippath-2);
      }

      .cls-3 {
        stroke: #e5006d;
      }

      .cls-3, .cls-4 {
        stroke-width: 9.16px;
      }

      .cls-4, .cls-5, .cls-6 {
        stroke: #102d69;
      }

      .cls-5 {
        stroke-miterlimit: 10;
        stroke-width: 3.33px;
      }

      .cls-7 {
        fill: #102d69;
      }

      .cls-8 {
        fill: #83d0f5;
      }

      .cls-9 {
        fill: #fff;
      }

      .cls-6 {
        stroke-width: 6.68px;
      }
    </style>
    <clipPath id="clippath">
      <path d="M37.35,12.99c-6.39,0-11.61,5.23-11.61,11.61v132.7c0,6.4,5.19,11.59,11.59,11.59h132.7c6.39,0,11.61-5.23,11.61-11.61V24.58c0-6.4-5.19-11.59-11.59-11.59H37.35Z" class="cls-2"/>
    </clipPath>
    <clipPath id="clippath-1">
      <path d="M33.55,12.99c-4.2,0-7.63,3.31-7.81,7.46v140.99c.18,4.15,3.61,7.46,7.81,7.46h140.29c3.13,0,5.83-1.82,7.07-4.46V17.45c-1.24-2.64-3.94-4.46-7.07-4.46H33.55Z" class="cls-2"/>
    </clipPath>
    <clipPath id="clippath-2">
      <path d="M33.55,12.99c-4.2,0-7.63,3.31-7.81,7.46v140.99c.18,4.15,3.61,7.46,7.81,7.46h140.29c3.13,0,5.83-1.82,7.07-4.46V17.45c-1.24-2.64-3.94-4.46-7.07-4.46H33.55Z" class="cls-2"/>
    </clipPath>
    <clipPath id="clippath-3">
      <path d="M25.76,12.99s-.02.01-.02.02v155.88h155.89s.02-.01.02-.02V12.99H25.76Z" class="cls-2"/>
    </clipPath>
  </defs>
  <g data-name="Слой 1" id="_Слой_1-2">
    <g>
      <g class="cls-1">
        <rect height="178.71" width="174.98" x="18.97" class="cls-8"/>
      </g>
      <g class="cls-10">
        <line y2="6.54" x2="85.75" y1="92.29" x1="85.75" class="cls-3"/>
        <line y2="117.46" x2="110.75" y1="175.55" x1="169.27" class="cls-3"/>
        <line y2="92.29" x2="85.75" y1="178.04" x1="85.75" class="cls-4"/>
      </g>
      <polygon points="40.74 92.29 54.55 79.37 53.93 60.47 72.83 61.1 85.74 47.29 98.66 61.1 117.56 60.47 116.94 79.37 130.74 92.29 116.94 105.21 117.56 124.11 98.66 123.48 85.74 137.29 72.83 123.48 53.92 124.11 54.55 105.21 40.74 92.29" class="cls-7"/>
      <polygon points="43.04 92.29 56.14 80.03 55.55 62.09 73.48 62.69 85.74 49.59 98 62.69 115.94 62.09 115.34 80.03 128.45 92.29 115.34 104.55 115.94 122.49 98 121.89 85.74 134.99 73.48 121.89 55.54 122.48 56.14 104.55 43.04 92.29" class="cls-5"/>
      <path d="M33.55,12.99c-4.2,0-7.63,3.31-7.81,7.46v140.99c.18,4.15,3.61,7.46,7.81,7.46h140.29c4.2,0,7.63-3.31,7.81-7.46V20.45c-.18-4.15-3.61-7.46-7.81-7.46H33.55Z" class="cls-2"/>
      <g class="cls-12">
        <path d="M53.03,92.29c0-18.08,14.65-32.73,32.73-32.73s32.73,14.65,32.73,32.73-14.65,32.73-32.73,32.73-32.73-14.65-32.73-32.73" class="cls-9"/>
        <path d="M53.03,92.29c0-18.08,14.65-32.73,32.73-32.73s32.73,14.65,32.73,32.73-14.65,32.73-32.73,32.73-32.73-14.65-32.73-32.73Z" class="cls-5"/>
        <path d="M85.75,123.49c17.23,0,31.2-13.97,31.2-31.2s-13.97-31.2-31.2-31.2-31.2,13.97-31.2,31.2,13.97,31.2,31.2,31.2Z" class="cls-6"/>
        <line y2="92.29" y1="92.29" x1="44.96" class="cls-4"/>
        <path d="M144.46,76.3c-14.73,0-26.71-11.98-26.71-26.7s11.98-26.71,26.71-26.71,26.7,11.98,26.7,26.71-11.98,26.7-26.7,26.7" class="cls-7"/>
      </g>
      <g class="cls-11">
        <polygon points="134.88 54.72 133 57.89 131.28 60.33 126.66 60.33 126.66 59.8 132.17 51.88 127.45 44.92 127.45 44.43 131.88 44.43 133.29 46.5 134.81 49.18 134.91 49.18 136.4 46.47 137.78 44.43 142.5 44.43 142.5 44.95 137.62 52.05 143 59.8 143 60.33 138.54 60.33 136.76 57.76 134.98 54.72 134.88 54.72" class="cls-9"/>
        <path d="M149.98,45.28c.79-.13,1.62-.2,2.51-.2,4.85.1,8.74,1.95,8.74,7.79,0,4.06-2.9,7.88-8.09,7.88-4.32,0-7.59-2.74-7.85-7.12h4.32c.16,1.88,1.49,2.8,3.43,2.8,2.41,0,3.43-1.59,3.43-3.53,0-5.51-6.96-4.16-10.56-3.76v-11.91h14.15v4.09h-10.1v3.96Z" class="cls-9"/>
      </g>
    </g>
  </g>
</svg>