<svg version="1.1" xmlns="http://www.w3.org/2000/svg" xmlns:xlink="http://www.w3.org/1999/xlink" width="291.9853" height="478.45144" viewBox="0,0,291.9853,478.45144"><g transform="translate(-34.00735,-170.09326)"><g data-paper-data="{&quot;isPaintingLayer&quot;:true}" fill-rule="nonzero" stroke-miterlimit="10" stroke-dasharray="" stroke-dashoffset="0" style="mix-blend-mode: normal"><path d="M78.67017,575.21757c0,-31.50865 27.10961,-57.05939 60.55086,-57.05939c22.10197,0 41.42784,11.16844 51.99836,27.83567c3.25657,5.14645 9.75904,7.4741 15.86644,5.79777c3.07505,-0.84351 6.33163,-1.29195 9.70565,-1.29195c0.45913,0 0.90757,0 1.36669,0.02135c18.25815,0.66199 32.49096,15.22581 32.49096,32.43758v8.00796h-171.97896v-15.20445h0.01068c0,-0.18151 -0.01068,-0.36303 -0.01068,-0.55522" fill="#83d0f5" stroke="none" stroke-width="0" stroke-linecap="butt" stroke-linejoin="miter"/><path d="M83.25072,586.9519v0v4.01466h-42.84793v-4.01466c0.89689,-3.83314 4.33498,-6.68397 8.43505,-6.68397c1.88988,0 3.64095,0.6086 5.06103,1.63362c2.02869,-5.92589 7.64493,-10.18612 14.26485,-10.18612c8.32828,0 15.087,6.75872 15.087,15.087c0,0.05339 0,0.14948 0,0.14948z" fill="none" stroke="#29235c" stroke-width="2.24" stroke-linecap="butt" stroke-linejoin="round"/><path d="M304.93242,582.94792v9.12908" fill="none" stroke="#29235c" stroke-width="2.05" stroke-linecap="butt" stroke-linejoin="miter"/><path d="M320.1689,567.71144c0,8.41369 -6.82279,15.23648 -15.23648,15.23648c-8.4137,0 -15.23648,-6.82279 -15.23648,-15.23648c0,-8.41369 15.23648,-50.14051 15.23648,-50.14051c0,0 15.23648,41.72681 15.23648,50.14051" fill="#693086" stroke="none" stroke-width="0" stroke-linecap="butt" stroke-linejoin="miter"/><path d="M304.93242,582.94792c-8.4137,0 -15.23648,-6.82279 -15.23648,-15.23648c0,-8.41369 15.23648,-50.14051 15.23648,-50.14051c0,0 15.23648,41.72681 15.23648,50.14051c0,8.41369 -6.82279,15.23648 -15.23648,15.23648z" fill="none" stroke="#29235c" stroke-width="2.05" stroke-linecap="butt" stroke-linejoin="miter"/><path d="M98.99971,553.37186c0,-1.19586 0.97164,-2.16749 2.16749,-2.16749c1.19585,0 2.16749,0.97163 2.16749,2.16749c0,1.19586 -0.97163,2.16748 -2.16749,2.16748c-1.19585,0 -2.16749,-0.97163 -2.16749,-2.16748" fill="#29235c" stroke="none" stroke-width="0" stroke-linecap="butt" stroke-linejoin="miter"/><path d="M101.1672,558.2407v0c2.93625,0 5.30661,2.38103 5.30661,5.3066v8.16812h-10.6239v-8.16812c0,-2.93625 2.38104,-5.3066 5.30661,-5.3066" fill="#009fe3" stroke="none" stroke-width="0" stroke-linecap="butt" stroke-linejoin="miter"/><path d="M101.1672,558.2407v0c2.93625,0 5.30661,2.38103 5.30661,5.3066v8.16812h-10.6239v-8.16812c0,-2.93625 2.38104,-5.3066 5.30661,-5.3066z" fill="none" stroke="#29235c" stroke-width="2.24" stroke-linecap="butt" stroke-linejoin="miter"/><path d="M98.99971,571.71542v18.57847" fill="none" stroke="#29235c" stroke-width="2.24" stroke-linecap="butt" stroke-linejoin="miter"/><path d="M103.33469,571.71542l0.27761,0.30964c3.12844,3.51283 3.2886,8.75537 0.3737,12.44971" fill="none" stroke="#29235c" stroke-width="2.24" stroke-linecap="butt" stroke-linejoin="miter"/><path d="M86.09088,577.06474v-5.34932h6.64127v5.34932z" fill="#693086" stroke="none" stroke-width="0" stroke-linecap="butt" stroke-linejoin="miter"/><path d="M86.09088,577.06474v-5.34932h6.64127v5.34932z" fill="none" stroke="#29235c" stroke-width="2.05" stroke-linecap="butt" stroke-linejoin="miter"/><path d="M89.40083,571.71542v-3.5235l7.047,-7.04701" fill="none" stroke="#29235c" stroke-width="2.24" stroke-linecap="butt" stroke-linejoin="round"/><path d="M113.52081,552.05855v16.42166h-1.30263c-3.17115,0 -5.74438,-1.94327 -5.74438,-5.11442" fill="none" stroke="#29235c" stroke-width="2.24" stroke-linecap="butt" stroke-linejoin="round"/><path d="M105.28863,552.05855c0,-4.54852 3.68367,-8.23218 8.23219,-8.23218c4.54852,0 8.23218,3.68366 8.23218,8.23218z" fill="#ffed00" stroke="none" stroke-width="0" stroke-linecap="butt" stroke-linejoin="miter"/><path d="M105.28863,552.05855c0,-4.54852 3.68367,-8.23218 8.23219,-8.23218c4.54852,0 8.23218,3.68366 8.23218,8.23218z" fill="none" stroke="#29235c" stroke-width="2.24" stroke-linecap="butt" stroke-linejoin="miter"/><path d="M118.43236,567.4018c0,-1.19586 0.97163,-2.16749 2.16748,-2.16749c1.19585,0 2.16749,0.97163 2.16749,2.16749c0,1.19586 -0.97164,2.16749 -2.16749,2.16749c-1.19585,0 -2.16748,-0.97163 -2.16748,-2.16749" fill="#29235c" stroke="none" stroke-width="0" stroke-linecap="butt" stroke-linejoin="miter"/><path d="M120.43969,572.32403v0c1.96462,0 3.56621,1.59092 3.56621,3.56621v5.47744h-7.12175v-5.47744c0,-1.96462 1.59092,-3.56621 3.56621,-3.56621" fill="#e71d73" stroke="none" stroke-width="0" stroke-linecap="butt" stroke-linejoin="miter"/><path d="M120.43969,572.32403v0c1.96462,0 3.56621,1.59092 3.56621,3.56621v5.47744h-7.12175v-5.47744c0,-1.96462 1.59092,-3.56621 3.56621,-3.56621z" fill="none" stroke="#29235c" stroke-width="2.05" stroke-linecap="butt" stroke-linejoin="miter"/><path d="M118.98758,581.36769v2.09275c0,1.83649 -0.86486,3.56621 -2.33833,4.67665l-2.26358,1.69768" fill="none" stroke="#29235c" stroke-width="2.24" stroke-linecap="butt" stroke-linejoin="miter"/><path d="M127.08096,589.83477l-5.17848,-8.46708" fill="none" stroke="#29235c" stroke-width="2.24" stroke-linecap="butt" stroke-linejoin="miter"/><path d="M113.52081,582.4888v-9.50278" fill="none" stroke="#29235c" stroke-width="2.24" stroke-linecap="butt" stroke-linejoin="miter"/><path d="M162.03838,553.03018c0,1.22789 -0.99299,2.22087 -2.22088,2.22087c-1.22788,0 -2.22088,-0.99299 -2.22088,-2.22087c0,-1.22789 0.99299,-2.22087 2.22088,-2.22087c1.22788,0 2.22088,0.99299 2.22088,2.22087" fill="#29235c" stroke="none" stroke-width="0" stroke-linecap="butt" stroke-linejoin="miter"/><path d="M159.79614,558.01647c1.79379,0 3.23522,1.45211 3.23522,3.23522l-1.63362,5.53083h-3.19251l-1.63362,-5.53083c0,-1.7831 1.45211,-3.23522 3.23522,-3.23522v0" fill="#ffffff" stroke="none" stroke-width="0" stroke-linecap="butt" stroke-linejoin="miter"/><path d="M159.79614,558.01647c1.79379,0 3.23522,1.45211 3.23522,3.23522l-1.63362,5.53083h-3.19251l-1.63362,-5.53083c0,-1.7831 1.45211,-3.23522 3.23522,-3.23522v0z" fill="none" stroke="#29235c" stroke-width="2.24" stroke-linecap="butt" stroke-linejoin="miter"/><path d="M160.65033,574.12849l0.27761,0.32032c3.17115,3.55553 3.33131,8.87282 0.37371,12.60987" fill="none" stroke="#29235c" stroke-width="2.24" stroke-linecap="butt" stroke-linejoin="miter"/><path d="M159.82817,571.83287l-3.2459,18.52508" fill="none" stroke="#29235c" stroke-width="2.24" stroke-linecap="butt" stroke-linejoin="miter"/><path d="M163.86419,575.98634h-8.10406l2.45577,-9.20382h3.19251z" fill="#3aaa35" stroke="none" stroke-width="0" stroke-linecap="butt" stroke-linejoin="miter"/><path d="M163.86419,575.98634h-8.10406l2.45577,-9.20382h3.19251z" fill="none" stroke="#29235c" stroke-width="2.24" stroke-linecap="butt" stroke-linejoin="miter"/><path d="M165.28427,553.54269l1.99665,4.367c0,0 0.02136,0.05339 0.03204,0.07475l0.97163,2.12477c0.39506,0.86486 -0.36303,1.81514 -1.29195,1.63363l-4.45243,-2.29561" fill="none" stroke="#29235c" stroke-width="2.24" stroke-linecap="butt" stroke-linejoin="round"/><path d="M164.10977,555.80628c-0.21355,0.02135 -0.39506,-0.12813 -0.41642,-0.34168l-0.35235,-3.89721c-0.02135,-0.21354 0.12813,-0.39505 0.34167,-0.41641l1.70837,-0.16016c0.21355,-0.02135 0.39506,0.12813 0.41642,0.34167l0.35235,3.89721c0.02135,0.21354 -0.12813,0.39506 -0.34168,0.41642l-1.70836,0.14948" fill="#ffed00" stroke="none" stroke-width="0" stroke-linecap="butt" stroke-linejoin="miter"/><path d="M163.68838,551.13865l1.70148,-0.15335c0.21269,-0.01917 0.39817,0.13565 0.41733,0.34833l0.35078,3.89211c0.01917,0.21268 -0.13564,0.39816 -0.34832,0.41733l-1.7121,0.15431c-0.21269,0.01917 -0.39817,-0.13565 -0.41734,-0.34833l-0.35078,-3.89211c-0.01917,-0.21268 0.13565,-0.39816 0.34833,-0.41733z" fill="none" stroke="#29235c" stroke-width="1.12" stroke-linecap="butt" stroke-linejoin="miter"/><path d="M154.79918,570.32738c-2.27426,-2.27426 -2.27426,-5.94724 0,-8.2215l1.78311,-1.78311" fill="none" stroke="#29235c" stroke-width="2.24" stroke-linecap="round" stroke-linejoin="miter"/><path d="M147.29305,586.21517l-3.67298,-1.65498c-0.5659,-0.25626 -0.81148,-0.91824 -0.55522,-1.48414l3.32064,-7.3353c0.25626,-0.56589 0.91824,-0.81147 1.48414,-0.55522l3.66231,1.66566l-4.24956,9.37465z" fill="#e71d73" stroke="none" stroke-width="0" stroke-linecap="butt" stroke-linejoin="miter"/><path d="M147.29305,586.21517l-3.67298,-1.65498c-0.5659,-0.25626 -0.81148,-0.91824 -0.55522,-1.48414l3.32064,-7.3353c0.25626,-0.56589 0.91824,-0.81147 1.48414,-0.55522l3.66231,1.66566l-4.24956,9.37465z" fill="none" stroke="#29235c" stroke-width="2.24" stroke-linecap="butt" stroke-linejoin="miter"/><path d="M151.31839,577.31032l3.48079,-6.98294" fill="none" stroke="#29235c" stroke-width="2.24" stroke-linecap="butt" stroke-linejoin="miter"/><path d="M145.13624,588.21182c0.25626,-0.57658 0.92893,-0.82215 1.5055,-0.5659c0.57657,0.25626 0.82215,0.92892 0.56589,1.50549c-0.25626,0.57658 -0.92892,0.82215 -1.50549,0.5659c-0.57657,-0.25626 -0.82216,-0.92892 -0.5659,-1.50549" fill="#29235c" stroke="none" stroke-width="0" stroke-linecap="butt" stroke-linejoin="miter"/><path d="M171.23151,590.96656c0,-6.0647 4.91155,-10.97624 10.97625,-10.97624c6.0647,0 10.97625,4.91155 10.97625,10.97624z" fill="#693086" stroke="none" stroke-width="0" stroke-linecap="butt" stroke-linejoin="miter"/><path d="M171.23151,590.96656c0,-6.0647 4.91155,-10.97624 10.97625,-10.97624c6.0647,0 10.97625,4.91155 10.97625,10.97624z" fill="none" stroke="#29235c" stroke-width="2.24" stroke-linecap="butt" stroke-linejoin="miter"/><path d="M210.57729,583.3323v6.28892" fill="none" stroke="#29235c" stroke-width="2.3" stroke-linecap="butt" stroke-linejoin="miter"/><path d="M221.99131,571.91829c0,6.29959 -5.11442,11.41401 -11.41402,11.41401c-6.2996,0 -11.41401,-5.10373 -11.41401,-11.41401c0,-6.31028 11.41401,-37.57335 11.41401,-37.57335c0,0 11.41402,31.27376 11.41402,37.57335" fill="#3aaa35" stroke="none" stroke-width="0" stroke-linecap="butt" stroke-linejoin="miter"/><path d="M210.57729,583.3323c-6.2996,0 -11.41401,-5.10373 -11.41401,-11.41401c0,-6.31028 11.41401,-37.57335 11.41401,-37.57335c0,0 11.41402,31.27376 11.41402,37.57335c0,6.29959 -5.11442,11.41401 -11.41402,11.41401z" fill="none" stroke="#29235c" stroke-width="2.24" stroke-linecap="butt" stroke-linejoin="round"/><path d="M186.50003,590.94521v-37.75486h17.91648v37.75486z" fill="#e71d73" stroke="none" stroke-width="0" stroke-linecap="butt" stroke-linejoin="miter"/><path d="M186.50003,590.93453v-37.74419h17.91648v37.74419z" fill="none" stroke="#29235c" stroke-width="2.24" stroke-linecap="butt" stroke-linejoin="miter"/><path d="M193.89938,590.94521v-37.75486h17.91647v37.75486z" fill="#e71d73" stroke="none" stroke-width="0" stroke-linecap="butt" stroke-linejoin="miter"/><path d="M193.89938,590.93453v-37.74419h17.91647v37.74419z" fill="none" stroke="#29235c" stroke-width="2.24" stroke-linecap="butt" stroke-linejoin="miter"/><path d="M187.64249,549.36787l0.2349,-0.06406c2.47713,-0.68335 5.029,-1.02502 7.58087,-1.02502h7.53816v1.01434c0.09609,0.03203 0.19219,0.04271 0.28829,0.07474c0.67267,0.19219 1.13179,0.80079 1.13179,1.49482v2.40239h-17.91648v-2.39171c0,-0.7047 0.4698,-1.31331 1.14247,-1.5055" fill="#e71d73" stroke="none" stroke-width="0" stroke-linecap="butt" stroke-linejoin="miter"/><path d="M187.64249,549.36787l0.2349,-0.06406c2.47713,-0.68335 5.029,-1.02502 7.58087,-1.02502h7.53816v1.01434c0.09609,0.03203 0.19219,0.04271 0.28829,0.07474c0.67267,0.19219 1.13179,0.80079 1.13179,1.49482v2.40239h-17.91648v-2.39171c0,-0.7047 0.4698,-1.31331 1.14247,-1.5055z" fill="none" stroke="#29235c" stroke-width="2.24" stroke-linecap="butt" stroke-linejoin="miter"/><path d="M193.89938,553.25441v-2.39171c0,-0.69403 0.46979,-1.31331 1.14246,-1.49482l0.2349,-0.06406c5.05035,-1.38805 10.37832,-1.3667 15.40732,0.06406c0.67267,0.19219 1.13179,0.80079 1.13179,1.49482v2.40239h-17.91647z" fill="#e71d73" stroke="none" stroke-width="0" stroke-linecap="butt" stroke-linejoin="miter"/><path d="M193.89938,553.25441v-2.39171c0,-0.69403 0.46979,-1.31331 1.14246,-1.49482l0.2349,-0.06406c5.05035,-1.38805 10.37832,-1.3667 15.40732,0.06406c0.67267,0.19219 1.13179,0.80079 1.13179,1.49482v2.40239h-17.91647z" fill="none" stroke="#29235c" stroke-width="2.24" stroke-linecap="butt" stroke-linejoin="miter"/><path d="M197.57237,584.89119v-27.17368h10.83744v27.17368z" fill="#ffffff" stroke="none" stroke-width="0" stroke-linecap="butt" stroke-linejoin="miter"/><path d="M197.57237,584.89119v-27.17368h10.83744v27.17368z" fill="none" stroke="#29235c" stroke-width="1.15" stroke-linecap="butt" stroke-linejoin="round"/><path d="M208.40981,561.65743h-10.83744" fill="none" stroke="#29235c" stroke-width="0.77" stroke-linecap="butt" stroke-linejoin="round"/><path d="M208.40981,565.51192h-10.83744" fill="none" stroke="#29235c" stroke-width="0.77" stroke-linecap="butt" stroke-linejoin="round"/><path d="M208.40981,565.51192h-10.83744" fill="none" stroke="#29235c" stroke-width="0.77" stroke-linecap="butt" stroke-linejoin="round"/><path d="M208.40981,569.3771h-10.83744" fill="none" stroke="#29235c" stroke-width="0.77" stroke-linecap="butt" stroke-linejoin="round"/><path d="M208.40981,569.3771h-10.83744" fill="none" stroke="#29235c" stroke-width="0.77" stroke-linecap="butt" stroke-linejoin="round"/><path d="M208.40981,573.2316h-10.83744" fill="none" stroke="#29235c" stroke-width="0.77" stroke-linecap="butt" stroke-linejoin="round"/><path d="M208.40981,573.2316h-10.83744" fill="none" stroke="#29235c" stroke-width="0.77" stroke-linecap="butt" stroke-linejoin="round"/><path d="M197.57237,577.09677h10.83744" fill="none" stroke="#29235c" stroke-width="0.77" stroke-linecap="butt" stroke-linejoin="round"/><path d="M197.57237,577.09677h10.83744" fill="none" stroke="#29235c" stroke-width="0.77" stroke-linecap="butt" stroke-linejoin="round"/><path d="M208.40981,580.95127h-10.83744" fill="none" stroke="#29235c" stroke-width="0.77" stroke-linecap="butt" stroke-linejoin="round"/><path d="M201.2667,585.47843v-27.5367" fill="none" stroke="#29235c" stroke-width="0.77" stroke-linecap="butt" stroke-linejoin="round"/><path d="M204.71547,585.47843v-27.5367" fill="none" stroke="#29235c" stroke-width="0.77" stroke-linecap="butt" stroke-linejoin="round"/><path d="M219.54621,590.78505v-11.68095h34.90403v11.68095" fill="none" stroke="#29235c" stroke-width="2.24" stroke-linecap="butt" stroke-linejoin="round"/><path d="M219.54621,579.1041h34.90403" fill="none" stroke="#29235c" stroke-width="2.24" stroke-linecap="butt" stroke-linejoin="round"/><path d="M236.69392,560.42954c0,1.22789 -0.99299,2.21019 -2.2102,2.21019c-1.21721,0 -2.21019,-0.98231 -2.21019,-2.21019c0,-1.22789 0.99299,-2.21019 2.21019,-2.21019c1.21721,0 2.2102,0.99298 2.2102,2.21019" fill="#29235c" stroke="none" stroke-width="0" stroke-linecap="butt" stroke-linejoin="miter"/><path d="M234.63321,565.37312c2.90422,0 5.2639,2.35968 5.2639,5.27458v8.43505h-10.80541v-8.43505c0,-2.9149 2.349,-5.27458 5.2639,-5.27458h0.26693" fill="#009fe3" stroke="none" stroke-width="0" stroke-linecap="butt" stroke-linejoin="miter"/><path d="M234.63321,565.37312c2.90422,0 5.2639,2.35968 5.2639,5.27458v8.43505h-10.80541v-8.43505c0,-2.9149 2.349,-5.27458 5.2639,-5.27458h0.26693z" fill="none" stroke="#29235c" stroke-width="2.24" stroke-linecap="butt" stroke-linejoin="miter"/><path d="M233.3199,579.1041h7.79442c1.85784,0 3.35267,1.50549 3.35267,3.35267v8.47776" fill="none" stroke="#29235c" stroke-width="2.24" stroke-linecap="butt" stroke-linejoin="miter"/><path d="M228.91018,579.1041h7.79442c1.85784,0 3.35267,1.50549 3.35267,3.35267v8.47776" fill="none" stroke="#29235c" stroke-width="2.24" stroke-linecap="butt" stroke-linejoin="miter"/><path d="M234.84675,569.94299h9.63091l-3.67299,9.13975h-9.6309z" fill="#ffffff" stroke="none" stroke-width="0" stroke-linecap="butt" stroke-linejoin="miter"/><path d="M234.84675,569.94299h9.63091l-3.67299,9.13975h-9.6309z" fill="none" stroke="#29235c" stroke-width="2.24" stroke-linecap="butt" stroke-linejoin="miter"/><path d="M233.085,574.92928h-3.65163c0,0 -0.05339,0 -0.07475,0h-2.31697c-0.95028,0 -1.49482,-1.06772 -0.9396,-1.83649l3.65163,-4.83681" fill="none" stroke="#29235c" stroke-width="2.24" stroke-linecap="butt" stroke-linejoin="round"/><path d="M259.84227,552.15465c0,-1.22789 0.99299,-2.22087 2.22087,-2.22087c1.22789,0 2.22087,0.99299 2.22087,2.22087c0,1.22789 -0.99299,2.22087 -2.22087,2.22087c-1.22789,0 -2.22087,-0.99298 -2.22087,-2.22087" fill="#29235c" stroke="none" stroke-width="0" stroke-linecap="butt" stroke-linejoin="miter"/><path d="M262.06314,557.14094v0c1.7831,0 3.22453,1.44143 3.22453,3.22454l-0.82215,6.34231h-4.81545l-0.82216,-6.34231c0,-1.7831 1.44144,-3.22454 3.22454,-3.22454" fill="#ffed00" stroke="none" stroke-width="0" stroke-linecap="butt" stroke-linejoin="miter"/><path d="M262.06314,557.14094v0c1.7831,0 3.22453,1.44143 3.22453,3.22454l-0.82215,6.34231h-4.81545l-0.82216,-6.34231c0,-1.7831 1.44144,-3.22454 3.22454,-3.22454z" fill="none" stroke="#29235c" stroke-width="2.3" stroke-linecap="butt" stroke-linejoin="miter"/><path d="M260.36545,570.93598v19.02692" fill="none" stroke="#29235c" stroke-width="2.3" stroke-linecap="butt" stroke-linejoin="miter"/><path d="M263.7288,589.9629l0.03203,-19.02692" fill="none" stroke="#29235c" stroke-width="2.3" stroke-linecap="butt" stroke-linejoin="miter"/><path d="M259.66075,566.70778h4.81545l1.63363,8.37099h-8.09338z" fill="#ffed00" stroke="none" stroke-width="0" stroke-linecap="butt" stroke-linejoin="miter"/><path d="M259.66075,566.70778h4.81545l1.63363,8.37099h-8.09338z" fill="none" stroke="#29235c" stroke-width="2.3" stroke-linecap="butt" stroke-linejoin="miter"/><path d="M265.21292,559.66077l3.56621,6.89752v3.97195" fill="none" stroke="#29235c" stroke-width="2.3" stroke-linecap="butt" stroke-linejoin="round"/><path d="M259.85294,567.09216l-4.04669,-1.81514c-0.76877,-0.35235 -0.99299,-1.33466 -0.44844,-1.98598l4.31362,-5.08238" fill="none" stroke="#29235c" stroke-width="2.3" stroke-linecap="round" stroke-linejoin="round"/><path d="M267.67937,581.85884c-1.6443,0 -2.97896,-1.33466 -2.97896,-2.97897v-3.5235h8.14676v3.5235c0,1.6443 -1.33466,2.97897 -2.97896,2.97897h-2.17817" fill="#009fe3" stroke="none" stroke-width="0" stroke-linecap="butt" stroke-linejoin="miter"/><path d="M267.67937,581.85884c-1.6443,0 -2.97896,-1.33466 -2.97896,-2.97897v-3.5235h8.14676v3.5235c0,1.6443 -1.33466,2.97897 -2.97896,2.97897h-2.17817z" fill="none" stroke="#29235c" stroke-width="1.53" stroke-linecap="round" stroke-linejoin="miter"/><path d="M271.84353,572.61232v2.64796h-6.12876v-2.64796c0,-1.23856 1.00366,-2.24223 2.24223,-2.24223h1.6443c1.23856,0 2.24223,1.00367 2.24223,2.24223z" fill="none" stroke="#29235c" stroke-width="1.15" stroke-linecap="round" stroke-linejoin="miter"/><path d="M42.3247,590.96656h278.84786" fill="none" stroke="#29235c" stroke-width="2.12" stroke-linecap="round" stroke-linejoin="round"/><path d="M64.73632,591.45772v-43.45654" fill="none" stroke="#29235c" stroke-width="1.97" stroke-linecap="butt" stroke-linejoin="miter"/><path d="M55.52182,546.1113c0,-5.09307 4.12143,-9.21449 9.2145,-9.21449c5.09306,0 9.21449,4.12142 9.21449,9.21449c0,5.09307 -4.12143,9.2145 -9.21449,9.2145c-5.09307,0 -9.2145,-4.12143 -9.2145,-9.2145" fill="#ffffff" stroke="none" stroke-width="0" stroke-linecap="butt" stroke-linejoin="miter"/><path d="M55.52182,546.1113c0,-5.09307 4.12143,-9.21449 9.2145,-9.21449c5.09306,0 9.21449,4.12142 9.21449,9.21449c0,5.09307 -4.12143,9.2145 -9.21449,9.2145c-5.09307,0 -9.2145,-4.12143 -9.2145,-9.2145z" fill="none" stroke="#e71d73" stroke-width="2.9" stroke-linecap="butt" stroke-linejoin="miter"/><path d="M52.43609,547.75561v-3.29928h24.60046v3.29928z" fill="#29235c" stroke="none" stroke-width="0" stroke-linecap="butt" stroke-linejoin="miter"/><path d="M52.43609,547.75561v-3.29928h24.60046v3.29928z" fill="none" stroke="#29235c" stroke-width="2.9" stroke-linecap="butt" stroke-linejoin="miter"/><path d="M83.25072,586.9519v0v4.01466h-42.84793v-4.01466c0.89689,-3.83314 4.33498,-6.68397 8.43505,-6.68397c1.88988,0 3.64095,0.6086 5.06103,1.63362c2.02869,-5.92589 7.64493,-10.18612 14.26485,-10.18612c8.32828,0 15.087,6.75872 15.087,15.087c0,0.05339 0,0.14948 0,0.14948z" fill="#1b7439" stroke="#29235c" stroke-width="2.24" stroke-linecap="butt" stroke-linejoin="round"/><path d="M35.06735,647.4847v-54.34974h289.8653v54.34974z" fill="#29235c" stroke="#29235c" stroke-width="2.12" stroke-linecap="butt" stroke-linejoin="miter"/><g stroke="none" stroke-width="0" stroke-linecap="butt" stroke-linejoin="miter"><path d="M214.83032,197.81754c0,-6.80741 13.13386,-15.12674 29.60083,-15.12674c10.88334,0 20.39969,2.41293 25.60477,6.01387c1.60359,1.11189 4.8055,1.61477 7.81287,1.2526c1.51421,-0.18224 3.11779,-0.27912 4.7792,-0.27912c0.22607,0 0.44691,0 0.67298,0.00462c8.99058,0.14302 15.99903,3.28952 15.99903,7.00811v1.73011h-84.685v-3.28491h0.00526c0,-0.03922 -0.00526,-0.07843 -0.00526,-0.11995" fill-opacity="0.61961" fill="#82d0f5"/><path d="M318.74472,182.42092c0,0.04362 0,0.12214 0,0.12214v0v3.28039h-51.58122v-3.28039c1.0797,-3.13208 5.21853,-5.46151 10.15429,-5.46151c2.27508,0 4.38305,0.49729 6.09257,1.33484c2.44217,-4.84207 9.20313,-8.32313 17.17232,-8.32313c10.02576,0 18.16204,5.52258 18.16204,12.32765" fill-opacity="0.41176" fill="#65adcf"/><path d="M102.97822,277.77032c0,0.04362 0,0.12215 0,0.12215v0v3.28039h-51.58122v-3.28039c1.0797,-3.13208 5.21853,-5.46151 10.15429,-5.46151c2.27508,0 4.38305,0.49729 6.09257,1.33484c2.44217,-4.84207 9.20313,-8.32313 17.17232,-8.32313c10.02576,0 18.16204,5.52258 18.16204,12.32765" fill-opacity="0.41176" fill="#65adcf"/></g></g></g></svg>