<svg xmlns:xlink="http://www.w3.org/1999/xlink" xmlns="http://www.w3.org/2000/svg" viewBox="0 0 155.91 155.91" data-name="Слой 2" id="_Слой_2">
  <defs>
    <style>
      .cls-1 {
        stroke-dasharray: 0 0 17.11 3.67;
      }

      .cls-1, .cls-2, .cls-3, .cls-4, .cls-5, .cls-6, .cls-7, .cls-8, .cls-9, .cls-10 {
        fill: none;
      }

      .cls-1, .cls-3, .cls-4, .cls-5, .cls-6, .cls-7, .cls-8, .cls-9, .cls-10 {
        stroke: #29265b;
        stroke-miterlimit: 10;
        stroke-width: 3.25px;
      }

      .cls-11 {
        clip-path: url(#clippath);
      }

      .cls-2, .cls-12, .cls-13 {
        stroke-width: 0px;
      }

      .cls-3 {
        stroke-dasharray: 0 0 16.9 3.62;
      }

      .cls-4 {
        stroke-dasharray: 0 0 24.5 7;
      }

      .cls-5 {
        stroke-dasharray: 0 0 15.73 4.49;
      }

      .cls-6 {
        stroke-dasharray: 0 0 15.8 3.39;
      }

      .cls-8 {
        stroke-dasharray: 0 0 15.8 4.51;
      }

      .cls-9 {
        stroke-dasharray: 0 0 17.42 3.74;
      }

      .cls-12 {
        fill: #f8f3b3;
      }

      .cls-13 {
        fill: #29265b;
      }

      .cls-10 {
        stroke-dasharray: 0 0 15.86 4.53;
      }
    </style>
    <clipPath id="clippath">
      <path d="M0,11.36v133.18c0,6.27,5.09,11.36,11.36,11.36h133.18c6.27,0,11.36-5.09,11.36-11.36V0s0,0,0,0H11.36C5.09,0,0,5.09,0,11.36Z" class="cls-2"/>
    </clipPath>
  </defs>
  <g data-name="Слой 1" id="_Слой_1-2">
    <g class="cls-11">
      <rect ry="11.29" rx="11.29" height="155.91" width="155.91" class="cls-12"/>
      <polyline points="106.27 97.34 106.27 106.43 97.18 106.43" class="cls-7"/>
      <line y2="106.43" x2="62.17" y1="106.43" x1="90.18" class="cls-4"/>
      <polyline points="58.67 106.43 49.58 106.43 49.58 97.34" class="cls-7"/>
      <line y2="62.33" x2="49.58" y1="90.34" x1="49.58" class="cls-4"/>
      <polyline points="49.58 58.83 49.58 49.73 58.67 49.73" class="cls-7"/>
      <line y2="49.73" x2="93.68" y1="49.73" x1="65.67" class="cls-4"/>
      <polyline points="97.18 49.73 106.28 49.73 106.28 58.83" class="cls-7"/>
      <line y2="93.84" x2="106.27" y1="65.83" x1="106.27" class="cls-4"/>
      <line y2="127.07" x2="140.29" y1="127.07" x1="149.38" class="cls-7"/>
      <polyline points="136.1 127.07 127.01 127.07 127.01 136.17" class="cls-7"/>
      <line y2="149.54" x2="127.01" y1="140.45" x1="127.01" class="cls-7"/>
      <line y2="127.07" x2="15.56" y1="127.07" x1="6.47" class="cls-7"/>
      <polyline points="19.75 127.07 28.84 127.07 28.84 136.17" class="cls-7"/>
      <line y2="149.54" x2="28.84" y1="140.45" x1="28.84" class="cls-7"/>
      <line y2="28.91" x2="15.56" y1="28.91" x1="6.47" class="cls-7"/>
      <polyline points="19.75 28.91 28.85 28.91 28.85 19.82" class="cls-7"/>
      <line y2="6.63" x2="28.85" y1="15.72" x1="28.85" class="cls-7"/>
      <line y2="28.91" x2="140.29" y1="28.91" x1="149.38" class="cls-7"/>
      <polyline points="136.1 28.91 127.01 28.91 127.01 19.82" class="cls-7"/>
      <line y2="6.63" x2="127.01" y1="15.72" x1="127.01" class="cls-7"/>
      <line y2="77.99" x2="115.37" y1="77.99" x1="106.27" class="cls-7"/>
      <line y2="77.99" x2="138.02" y1="77.99" x1="119.9" class="cls-10"/>
      <line y2="77.99" x2="149.38" y1="77.99" x1="140.29" class="cls-7"/>
      <line y2="77.99" x2="15.56" y1="77.99" x1="6.47" class="cls-7"/>
      <line y2="77.99" x2="38.04" y1="77.99" x1="20.06" class="cls-5"/>
      <line y2="77.99" x2="49.38" y1="77.99" x1="40.29" class="cls-7"/>
      <line y2="15.72" x2="77.93" y1="6.63" x1="77.93" class="cls-7"/>
      <line y2="38.29" x2="77.93" y1="20.24" x1="77.93" class="cls-8"/>
      <line y2="49.64" x2="77.93" y1="40.55" x1="77.93" class="cls-7"/>
      <line y2="115.53" x2="77.93" y1="106.43" x1="77.93" class="cls-7"/>
      <line y2="138.18" x2="77.93" y1="120.06" x1="77.93" class="cls-10"/>
      <line y2="149.54" x2="77.93" y1="140.45" x1="77.93" class="cls-7"/>
      <polygon points="65.12 68.82 65.12 85.98 60.79 85.98 60.79 90.19 74.8 90.19 74.8 85.98 70.36 85.98 70.36 64.53 61.31 64.53 61.31 68.82 65.12 68.82" class="cls-13"/>
      <path d="M77.37,82.68c.18,4.95,3.89,7.99,8.69,7.99,5.79,0,9.02-4.22,9.02-8.76,0-3.56-1.87-6.93-5.98-7.63l5.57-8.95v-.77h-16.32v4.36h9.06l-4.73,8.14v.77c3.3-.59,7.11,0,7.22,4.11-.04,2.35-1.54,4-3.92,4-2.2,0-3.67-1.1-3.81-3.26h-4.8Z" class="cls-13"/>
      <polyline points="33.67 51.26 27.23 57.69 27.23 66.78" class="cls-7"/>
      <polyline points="27.24 70.45 27.24 98.59 57.53 128.88 98.28 128.88 120.85 106.32" class="cls-1"/>
      <polyline points="122.14 105.02 128.57 98.59 128.57 89.5" class="cls-7"/>
      <line y2="68.62" x2="128.57" y1="86.11" x1="128.57" class="cls-6"/>
      <polyline points="128.57 66.93 128.57 57.83 122.14 51.4" class="cls-7"/>
      <line y2="35.12" x2="105.86" y1="48.76" x1="119.5" class="cls-9"/>
      <polyline points="104.54 33.8 98.11 27.37 89.01 27.39" class="cls-7"/>
      <polyline points="85.39 27.4 57.45 27.47 34.95 49.98" class="cls-3"/>
    </g>
  </g>
</svg>