<svg xmlns:xlink="http://www.w3.org/1999/xlink" xmlns="http://www.w3.org/2000/svg" viewBox="0 0 314.84 314.84" data-name="Слой 2" id="_Слой_2">
  <defs>
    <style>
      .cls-1 {
        clip-path: url(#clippath);
      }

      .cls-2, .cls-3, .cls-4 {
        fill: none;
      }

      .cls-2, .cls-5, .cls-6, .cls-7 {
        stroke-width: 0px;
      }

      .cls-3 {
        stroke: #29265b;
        stroke-width: 6.42px;
      }

      .cls-3, .cls-4 {
        stroke-miterlimit: 10;
      }

      .cls-8 {
        clip-path: url(#clippath-1);
      }

      .cls-9 {
        clip-path: url(#clippath-2);
      }

      .cls-4 {
        stroke: #85d1f5;
        stroke-width: 1.74px;
      }

      .cls-5 {
        fill: #f8f3b3;
      }

      .cls-6 {
        fill: #29265b;
      }

      .cls-7 {
        fill: #fff;
      }
    </style>
    <clipPath id="clippath">
      <rect ry="11.61" rx="11.61" height="155.91" width="155.91" y="79.39" x="79.2" class="cls-2"/>
    </clipPath>
    <clipPath id="clippath-1">
      <path d="M104.41,179.27v-43.7l31.05-30.9h43.91l31.05,30.9v43.7l-31.05,30.9h-43.91l-31.05-30.9ZM79.2,235.29h155.91V79.39H79.2v155.91Z" class="cls-2"/>
    </clipPath>
    <clipPath id="clippath-2">
      <rect height="155.91" width="155.91" y="79.39" x="79.2" class="cls-2"/>
    </clipPath>
  </defs>
  <g data-name="Слой 1" id="_Слой_1-2">
    <g>
      <g class="cls-1">
        <rect height="171.5" width="171.5" y="71.67" x="71.67" class="cls-5"/>
      </g>
      <g class="cls-8">
        <line y2="314.23" x2="173.02" y1="141.82" x1=".62" class="cls-4"/>
        <line y2="309.52" x2="177.72" y1="137.11" x1="5.33" class="cls-4"/>
        <line y2="304.81" x2="182.43" y1="132.4" x1="10.03" class="cls-4"/>
        <line y2="300.1" x2="187.14" y1="127.7" x1="14.74" class="cls-4"/>
        <line y2="295.39" x2="191.85" y1="122.99" x1="19.45" class="cls-4"/>
        <line y2="290.68" x2="196.56" y1="118.28" x1="24.16" class="cls-4"/>
        <line y2="285.97" x2="201.27" y1="113.57" x1="28.87" class="cls-4"/>
        <line y2="281.26" x2="205.98" y1="108.86" x1="33.58" class="cls-4"/>
        <line y2="276.55" x2="210.69" y1="104.15" x1="38.29" class="cls-4"/>
        <line y2="271.84" x2="215.4" y1="99.44" x1="43" class="cls-4"/>
        <line y2="267.13" x2="220.11" y1="94.73" x1="47.71" class="cls-4"/>
        <line y2="262.42" x2="224.82" y1="90.02" x1="52.42" class="cls-4"/>
        <line y2="257.71" x2="229.53" y1="85.31" x1="57.13" class="cls-4"/>
        <line y2="253" x2="234.24" y1="80.6" x1="61.84" class="cls-4"/>
        <line y2="248.29" x2="238.95" y1="75.89" x1="66.55" class="cls-4"/>
        <line y2="232.06" x2="232.23" y1="82.7" x1="82.69" class="cls-4"/>
        <line y2="238.87" x2="248.37" y1="66.47" x1="75.97" class="cls-4"/>
        <line y2="234.16" x2="253.08" y1="61.76" x1="80.68" class="cls-4"/>
        <line y2="229.45" x2="257.79" y1="57.05" x1="85.39" class="cls-4"/>
        <line y2="224.74" x2="262.5" y1="52.34" x1="90.1" class="cls-4"/>
        <line y2="220.03" x2="267.21" y1="47.63" x1="94.81" class="cls-4"/>
        <line y2="215.32" x2="271.92" y1="42.92" x1="99.52" class="cls-4"/>
        <line y2="210.61" x2="276.63" y1="38.21" x1="104.23" class="cls-4"/>
        <line y2="205.9" x2="281.34" y1="33.5" x1="108.94" class="cls-4"/>
        <line y2="201.19" x2="286.05" y1="28.79" x1="113.65" class="cls-4"/>
        <line y2="196.48" x2="290.76" y1="24.08" x1="118.36" class="cls-4"/>
        <line y2="191.77" x2="295.47" y1="19.37" x1="123.07" class="cls-4"/>
        <line y2="187.06" x2="300.18" y1="14.66" x1="127.78" class="cls-4"/>
        <line y2="182.35" x2="304.89" y1="9.95" x1="132.49" class="cls-4"/>
        <line y2="177.64" x2="309.6" y1="5.24" x1="137.2" class="cls-4"/>
        <line y2="173.02" x2="314.22" y1=".62" x1="141.82" class="cls-4"/>
      </g>
      <g class="cls-9">
        <path d="M157.42,184.13c-14.73,0-26.7-11.98-26.7-26.7s11.98-26.7,26.7-26.7,26.7,11.98,26.7,26.7-11.98,26.7-26.7,26.7" class="cls-6"/>
        <path d="M151.75,150.56l-.23,4.79v4.39h-5.51l5.71-9.17h.03ZM155.68,163.56h2.14v-3.99h-2.14v-14.52h-5.12l-10.13,16.37v2.14h10.79v4.59h4.46v-4.59Z" class="cls-7"/>
        <polygon points="161.22 160.56 165.51 160.56 165.51 164.81 169.34 164.81 169.34 160.56 173.66 160.56 173.66 156.76 169.34 156.76 169.34 152.54 165.51 152.54 165.51 156.76 161.22 156.76 161.22 160.56" class="cls-7"/>
        <path d="M135.88,103.92l-31.85,31.85v43.11s31.92,31.92,31.92,31.92h42.95l31.92-31.92v-42.96l-32.1-32.11-42.84.11ZM239.88,206.41h-33.37v34.39M73.13,206.41h35.21v34.39M73.13,108.25h35.21v-36.95M239.88,108.25h-33.37v-36.95M210.95,157.33h28.93M73.13,157.33h30.76M157.42,71.3v32.86M157.42,211.34v29.46" class="cls-3"/>
      </g>
    </g>
  </g>
</svg>