<svg xmlns:xlink="http://www.w3.org/1999/xlink" xmlns="http://www.w3.org/2000/svg" viewBox="0 0 176.25 170.72" data-name="Слой 2" id="_Слой_2">
  <defs>
    <style>
      .cls-1 {
        clip-path: url(#clippath);
      }

      .cls-2, .cls-3 {
        fill: none;
      }

      .cls-2, .cls-4, .cls-5, .cls-6, .cls-7 {
        stroke-width: 0px;
      }

      .cls-3 {
        stroke: #e5006d;
        stroke-width: 10.08px;
      }

      .cls-4 {
        fill: #102d69;
      }

      .cls-5 {
        fill: #83d0f5;
      }

      .cls-6 {
        fill: #fff;
      }

      .cls-7 {
        fill: #008bd2;
      }
    </style>
    <clipPath id="clippath">
      <path d="M19.66,8.09c-6.39,0-11.62,5.23-11.62,11.62v132.69c0,6.41,5.19,11.6,11.6,11.6h132.71c6.41,0,11.6-5.19,11.6-11.6V19.69c0-6.41-5.19-11.6-11.6-11.6H19.66Z" class="cls-2"/>
    </clipPath>
  </defs>
  <g data-name="Слой 1" id="_Слой_1-2">
    <g class="cls-1">
      <rect height="170.72" width="176.25" class="cls-5"/>
      <path d="M8.05,130.24h61.08c3.09,0,6.05-1.23,8.23-3.41l47.96-47.95c4.89-4.89,11.51-7.63,18.42-7.63h20.21v-6.1h-19.25c-12.4,0-19.2,4.92-27.97,13.7l-43.67,43.67c-1.04,1.04-2.45,1.62-3.91,1.62H8.05M8.05,136.9h61.08c4.85,0,9.5-1.93,12.93-5.36l47.96-47.95c3.64-3.64,8.57-5.68,13.71-5.68h20.21v-5.55h-20.21c-6.61,0-12.96,2.63-17.64,7.3l-47.96,47.95c-2.39,2.39-5.63,3.73-9.01,3.73H8.05M8.05,143.55h61.08c6.62,0,12.96-2.63,17.64-7.31l47.96-47.96c2.4-2.4,5.6-3.73,9.01-3.73h20.21v-5.55h-20.21c-4.85,0-9.5,1.93-12.93,5.36l-47.96,47.95c-3.64,3.64-8.57,5.68-13.72,5.68H8.05M8.03,150.76h61.1c8.53,0,16.71-3.39,22.74-9.42l43.68-43.67c3.78-3.78,5.1-5.9,10.45-5.9h17.95v-6.1h-20.21c-3.11,0-6.03,1.21-8.22,3.41l-47.96,47.96c-4.89,4.88-11.51,7.63-18.42,7.63H8.05" class="cls-7"/>
      <path d="M8.05,144.66h61.08c6.91,0,13.54-2.75,18.42-7.63l47.96-47.95c2.2-2.2,5.11-3.41,8.22-3.41h20.21v-1.11h-20.21c-3.4,0-6.61,1.33-9.01,3.73l-47.96,47.96c-4.68,4.68-11.02,7.3-17.64,7.3H8.05" class="cls-5"/>
      <path d="M8.05,131.35h61.08c3.38,0,6.62-1.34,9.01-3.74l47.96-47.95c4.68-4.68,11.02-7.3,17.64-7.3h20.21v-1.11h-20.21c-6.91,0-13.54,2.74-18.42,7.63l-47.96,47.95c-2.18,2.18-5.14,3.41-8.23,3.41H8.05" class="cls-5"/>
      <path d="M8.05,138.01h61.08c5.15,0,10.08-2.04,13.72-5.68l47.95-47.95c3.43-3.43,8.08-5.36,12.93-5.36h20.21v-1.11h-20.21c-5.14,0-10.08,2.04-13.71,5.68l-47.96,47.95c-3.43,3.43-8.08,5.36-12.93,5.36H8.05" class="cls-5"/>
      <line y2="88.99" x2="86.43" y1="130.22" x1="127.66" class="cls-3"/>
      <path d="M59.21,92.45c-19.64,0-35.61-15.97-35.61-35.6s15.97-35.61,35.61-35.61,35.6,15.97,35.6,35.61-15.97,35.6-35.6,35.6" class="cls-4"/>
      <polygon points="45.84 63.66 43.33 67.89 41.05 71.15 34.88 71.15 34.88 70.44 42.23 59.88 35.94 50.6 35.94 49.94 41.84 49.94 43.73 52.71 45.76 56.27 45.89 56.27 47.87 52.66 49.72 49.94 56.01 49.94 56.01 50.64 49.49 60.1 56.67 70.44 56.67 71.15 50.73 71.15 48.35 67.71 45.98 63.66 45.84 63.66" class="cls-6"/>
      <path d="M77.53,40.12l-7.04,11.57c.48-.26,1.01-.39,1.59-.39,6.2-.22,10.56,3.61,10.56,9.94,0,7.04-5.11,10.38-11.66,10.38s-11.57-3.34-11.57-10.38c0-2.24.79-4.71,1.98-6.6l8.93-14.52h7.21ZM76.08,61.25c0-3.17-1.94-4.93-5.11-4.93s-5.15,1.76-5.15,4.93,1.98,4.8,5.15,4.8,5.11-1.67,5.11-4.8" class="cls-6"/>
    </g>
  </g>
</svg>