<svg version="1.1" xmlns="http://www.w3.org/2000/svg" xmlns:xlink="http://www.w3.org/1999/xlink" width="82.95895" height="83.43674" viewBox="0,0,82.95895,83.43674"><g transform="translate(-139.715,-319.715)"><g data-paper-data="{&quot;isPaintingLayer&quot;:true}" fill-rule="nonzero" stroke-linecap="butt" stroke-linejoin="miter" stroke-miterlimit="10" stroke-dasharray="" stroke-dashoffset="0" style="mix-blend-mode: normal"><path d="M149.51396,402.15175c-3.54014,0 -6.41,-2.86985 -6.41,-6.41v-65.75c0,-3.54014 2.86986,-6.41 6.41,-6.41h65.75c3.54014,0 6.41,2.86986 6.41,6.41v65.75c0,3.54014 -2.86986,6.41 -6.41,6.41z" fill-opacity="0.81569" fill="#000000" stroke-opacity="0.81569" stroke="#000000" stroke-width="2"/><path d="M147.125,399.285c-3.54015,0 -6.41,-2.86985 -6.41,-6.41v-65.75c0,-3.54015 2.86985,-6.41 6.41,-6.41h65.75c3.54015,0 6.41,2.86985 6.41,6.41v65.75c0,3.54015 -2.86985,6.41 -6.41,6.41z" fill="#feffff" stroke="#1d1d1b" stroke-width="2"/><g><path d="M184.105,384.515c-1.01068,0 -1.83,-0.81932 -1.83,-1.83v-9.07c0,-1.01068 0.81932,-1.83 1.83,-1.83h16.96c1.01068,0 1.83,0.81932 1.83,1.83v9.07c0,1.01068 -0.81932,1.83 -1.83,1.83z" fill="#69c1ee" stroke="#1d1d1b" stroke-width="2.74"/><path d="M189.695,367.365c0,-4.36857 3.54143,-7.91 7.91,-7.91c4.36857,0 7.91,3.54143 7.91,7.91c0,4.36857 -3.54143,7.91 -7.91,7.91c-4.36857,0 -7.91,-3.54143 -7.91,-7.91z" fill="#efe01f" stroke="#1d1d1b" stroke-width="2.74"/><path d="M197.605,371.405v-7.78" fill="#69c1ee" stroke="#1d1d1b" stroke-width="2.62"/><path d="M193.845,367.365h7.78" fill="#69c1ee" stroke="#1d1d1b" stroke-width="2.38"/><path d="M154.485,385.665c0,-22.04 8.29,-24.69 14.19,-30.45c9.26,-9.03 14.19,-10.68 14.19,-20.88" fill="none" stroke="#871811" stroke-width="4.11"/><path d="M154.485,385.665c0,-22.04 8.12,-24.87 14.19,-30.45c7.32,-6.72 14.19,-10.68 14.19,-20.88" fill="none" stroke="#bb1760" stroke-width="4.11"/><path d="M172.085,385.665c0,-22.04 8.12,-24.87 14.19,-30.45c7.32,-6.72 14.19,-10.68 14.19,-20.88" fill="none" stroke="#bb1760" stroke-width="4.11"/><path d="M154.485,385.665v-51.33" fill="#69c1ee" stroke="#1d1d1b" stroke-width="4.11"/><path d="M172.085,334.335v51.33" fill="#69c1ee" stroke="#1d1d1b" stroke-width="4.11"/></g></g></g></svg>