<svg version="1.1" xmlns="http://www.w3.org/2000/svg" xmlns:xlink="http://www.w3.org/1999/xlink" width="83.45895" height="83.93674" viewBox="0,0,83.45895,83.93674"><g transform="translate(-139.215,-319.215)"><g data-paper-data="{&quot;isPaintingLayer&quot;:true}" fill-rule="nonzero" stroke-linecap="butt" stroke-linejoin="miter" stroke-miterlimit="10" stroke-dasharray="" stroke-dashoffset="0" style="mix-blend-mode: normal"><path d="M149.51396,402.15175c-3.54014,0 -6.41,-2.86985 -6.41,-6.41v-65.75c0,-3.54014 2.86986,-6.41 6.41,-6.41h65.75c3.54014,0 6.41,2.86986 6.41,6.41v65.75c0,3.54014 -2.86986,6.41 -6.41,6.41z" fill-opacity="0.81569" fill="#000000" stroke-opacity="0.81569" stroke="#000000" stroke-width="2"/><g><path d="M147.125,399.285c-3.54015,0 -6.41,-2.86985 -6.41,-6.41v-65.75c0,-3.54015 2.86985,-6.41 6.41,-6.41h65.75c3.54015,0 6.41,2.86985 6.41,6.41v65.75c0,3.54015 -2.86985,6.41 -6.41,6.41z" fill="#e50071" stroke="#1d1d1b" stroke-width="3"/><path d="M142.125,368.965v-17.02h75.75v17.02z" fill="#112a64" stroke="none" stroke-width="0"/></g><g fill="#ffffff" stroke="#1d1d1b" stroke-width="3"><path d="M154.485,360.445c0,-14.08878 11.42122,-25.51 25.51,-25.51c14.08878,0 25.51,11.42122 25.51,25.51c0,14.08878 -11.42122,25.51 -25.51,25.51c-14.08878,0 -25.51,-11.42122 -25.51,-25.51z"/><path d="M170.235,373.475c-1.80045,0 -3.26,-1.45955 -3.26,-3.26v-19.53c0,-1.80045 1.45955,-3.26 3.26,-3.26h19.53c1.80045,0 3.26,1.45955 3.26,3.26v19.53c0,1.80045 -1.45955,3.26 -3.26,3.26z"/></g></g></g></svg>