<svg version="1.1" xmlns="http://www.w3.org/2000/svg" xmlns:xlink="http://www.w3.org/1999/xlink" width="82.95895" height="83.43674" viewBox="0,0,82.95895,83.43674"><g transform="translate(-139.715,-319.715)"><g data-paper-data="{&quot;isPaintingLayer&quot;:true}" fill-rule="nonzero" stroke-linecap="butt" stroke-linejoin="miter" stroke-miterlimit="10" stroke-dasharray="" stroke-dashoffset="0" style="mix-blend-mode: normal"><path d="M149.51396,402.15175c-3.54014,0 -6.41,-2.86985 -6.41,-6.41v-65.75c0,-3.54014 2.86986,-6.41 6.41,-6.41h65.75c3.54014,0 6.41,2.86986 6.41,6.41v65.75c0,3.54014 -2.86986,6.41 -6.41,6.41z" fill-opacity="0.81569" fill="#000000" stroke-opacity="0.81569" stroke="#000000" stroke-width="2"/><path d="M147.125,399.285c-3.54015,0 -6.41,-2.86985 -6.41,-6.41v-65.75c0,-3.54015 2.86985,-6.41 6.41,-6.41h65.75c3.54015,0 6.41,2.86985 6.41,6.41v65.75c0,3.54015 -2.86985,6.41 -6.41,6.41z" fill="#67c2ef" stroke="#1d1d1b" stroke-width="2"/><g fill="#ffffff" stroke="#1d1d1b" stroke-width="3"><path d="M154.485,359.995c0,-14.08878 11.42122,-25.51 25.51,-25.51c14.08878,0 25.51,11.42122 25.51,25.51c0,14.08878 -11.42122,25.51 -25.51,25.51c-14.08878,0 -25.51,-11.42122 -25.51,-25.51z"/><path d="M179.255,345.875c0.44,-0.32 1.03,-0.32 1.47,0l13.79,10.02c0.44,0.32 0.63,0.88 0.46,1.4l-5.27,16.21c-0.17,0.52 -0.65,0.87 -1.19,0.87h-17.04c-0.54,0 -1.02,-0.35 -1.19,-0.87l-5.27,-16.21c-0.16,-0.51 0.02,-1.08 0.46,-1.4l13.79,-10.02z"/></g></g></g></svg>